<svg xmlns="http://www.w3.org/2000/svg" width="256.543" height="108.574" viewBox="0 0 256.543 108.574"><g transform="translate(0 -354.303)"><path d="M189.4,396.239l1.182,4.77-9.238,2.383.7,2.728-4.567,1.4a7.879,7.879,0,0,1-6.48-.847l-21.19-13.216a11.145,11.145,0,0,0-9.56-1.069L128.721,396.4l-8.075-1.73a8.867,8.867,0,0,0-7.126,1.538L94.951,409.927a5.078,5.078,0,0,1-4.735.694l-7.361-2.646.61-2.367-9.238-2.383,1.182-4.77L0,379.775v56.169l62.288,15.43.149-.6.013,0,1.732-6.99,8.85,2.283,1.291-5.007,17.351,7.155-.009.009.8.33.009-.009.022.009h0l0,0,7.732-7.974L92.3,448.825c-4.356,4.53-.618,12.2,5.6,11.3a12.859,12.859,0,0,0,3.534-1.1s1.145,9.547,11.193,8.795c0,0,1.368,9.658,12.492,7.295h0a4.46,4.46,0,0,0,.333.5l.08.1a7.533,7.533,0,0,0,6.231,2.83h.015a10.459,10.459,0,0,0,1.513-.145l.146-.026a17.573,17.573,0,0,0,5.821-2.348l2.105,2.118a6.956,6.956,0,0,0,9.93.338l.1-.1a7.235,7.235,0,0,0-.434-10.088l.527.53a6.472,6.472,0,0,0,9.257-.047l1.151-1.182a6.7,6.7,0,0,0,1.8-5.717,7.336,7.336,0,0,0,5.91-2.208l.106-.108A7.644,7.644,0,0,0,171,450.71a6.463,6.463,0,0,0,6.036-1.816,6.7,6.7,0,0,0,1.867-5.2l11.886-3.713,1,3.87,8.85-2.283,1.732,6.99.013,0,.148.6,54.017-13.381V379.607Z" transform="translate(0 -18.091)" opacity="0.36"/><path d="M337.28,424.185l-18.118,4.488,1.182,4.77-9.238,2.383.7,2.729-4.567,1.4a7.877,7.877,0,0,1-6.48-.847l-21.19-13.216a11.144,11.144,0,0,0-9.56-1.069l-11.532,4.014-8.075-1.73a8.867,8.867,0,0,0-7.126,1.538l-18.569,13.716a5.076,5.076,0,0,1-4.735.694l-7.361-2.646.61-2.366-9.238-2.383,1.182-4.77-23.676-5.865v56.169l10.553,2.614.148-.6.013,0,1.732-6.99,8.85,2.283,1.291-5.007,17.351,7.154-.009.009.8.33.009-.009.022.009,0,0,7.732-7.974-7.927,8.245c-4.356,4.53-.618,12.2,5.6,11.3a12.868,12.868,0,0,0,3.534-1.1s1.145,9.547,11.193,8.795c0,0,1.368,9.658,12.492,7.295h0a4.477,4.477,0,0,0,.333.5l.08.1a7.533,7.533,0,0,0,6.231,2.83h.015a10.416,10.416,0,0,0,1.513-.145l.147-.026a17.577,17.577,0,0,0,5.821-2.348l2.105,2.118a6.956,6.956,0,0,0,9.93.338l.1-.1a7.235,7.235,0,0,0-.434-10.088l.527.53a6.471,6.471,0,0,0,9.257-.047l1.151-1.182a6.7,6.7,0,0,0,1.8-5.717,7.336,7.336,0,0,0,5.91-2.208l.106-.108a7.645,7.645,0,0,0,1.279-8.852,6.462,6.462,0,0,0,6.036-1.816,6.7,6.7,0,0,0,1.867-5.2l11.886-3.713,1,3.87,8.85-2.282,1.732,6.99.013,0,.148.6,8.636-2.7Z" transform="translate(-129.76 -49.962)" fill="#5b5b5b" opacity="0.4"/><path d="M349.35,470.544l-36.729,38.2c-4.356,4.53-.618,12.2,5.6,11.3a12.856,12.856,0,0,0,3.534-1.1s1.145,9.547,11.193,8.795c0,0,1.368,9.658,12.492,7.295,0,0,5.4,9.982,20.656-4.1,7.528-6.946,32.431-27.1,32.431-27.1Z" transform="translate(-222.161 -83.107)" fill="#8e8e8e"/><path d="M459.286,393l-55.02,16.884a7.876,7.876,0,0,1-6.479-.847L376.6,395.822a11.144,11.144,0,0,0-9.56-1.069l-23.679,8.241,12.458,9.994-36.728,38.2c-4.356,4.53-.618,12.2,5.6,11.3a12.864,12.864,0,0,0,3.534-1.1s1.145,9.547,11.193,8.795c0,0,1.368,9.658,12.492,7.295,0,0,5.4,9.981,20.656-4.1,7.528-6.946,32.431-27.1,32.431-27.1L468.913,426.3Z" transform="translate(-226.784 -27.667)" fill="#727272"/><path d="M450.8,446.225c5.042-2.35,4.185-6.693,2.14-8.283l-15.393-12.256a13.671,13.671,0,0,0-5.651-2.672l-15.365-3.292-6.231,2.168,12.458,9.994-10.1,10.51c1.491-.081,8.936-.616,15.072-3.48C427.723,438.913,439.958,451.275,450.8,446.225Z" transform="translate(-293.343 -46.771)" fill="#8e8e8e"/><path d="M311.55,426l-15.393-12.256a13.669,13.669,0,0,0-5.651-2.672l-20.54-4.4a8.865,8.865,0,0,0-7.125,1.538l-18.57,13.716a5.077,5.077,0,0,1-4.735.694l-27.943-10.047-2.741,34.391,32.963,13.592,29.177-30.09s8.492-.294,15.344-3.492c0,0,12.235,12.361,23.074,7.311C314.452,431.928,313.594,427.585,311.55,426Z" transform="translate(-149.319 -37.296)" fill="#b7b7b7"/><path d="M306.242,466.84c-8.689.087-19.005-10.33-19.256-10.39,0,0-7.5,7.083-21.127,3.825,0,0-2.214,8.032-14.883,22.491a8.538,8.538,0,0,1-9.548,2.306c-1.259-.5-2.671-1.008-4.18-1.536a8.732,8.732,0,0,1-5.841-8.544l.769-22c-9.71-3.374-22.762,20.409-22.437,15.873l-.886,11.118,32.14,13.252-.009.009.8.33.009-.009.022.009,5.317-5.515,23.829-24.575s8.491-.294,15.344-3.492c-.056-.016,12.085,12.319,23.074,7.311a6.208,6.208,0,0,0,3.451-3.253C312.157,465.337,309.851,466.8,306.242,466.84Z" transform="translate(-149.32 -70.325)" fill="#5b5b5b"/><path d="M448.875,516.308c-9.265-9.015-7.245-14.664-7.245-14.664l49.061-23.23.068-.015a8.1,8.1,0,0,0,6.34-8.343l-1.211-22.741,59.759,16.715.32,1.107L492.05,485.107s-24.9,20.159-32.431,27.1c-15.258,14.078-20.657,4.1-20.657,4.1S443.214,520.868,448.875,516.308Z" transform="translate(-313.837 -66.5)" fill="#8e8e8e"/><g transform="translate(99.859 412.638)"><path d="M351.555,581.963l23.29-21.8c.672-.629-.338-1.635-1.008-1.008l-23.29,21.8c-.672.629.338,1.635,1.008,1.008Z" transform="translate(-350.325 -558.952)" fill="#919191"/></g><g transform="translate(111.058 421.544)"><path d="M390.836,613.1l22.4-21.687c.662-.64-.348-1.647-1.008-1.008l-22.4,21.687c-.661.64.347,1.647,1.008,1.008Z" transform="translate(-389.612 -590.197)" fill="#919191"/></g><g transform="translate(123.55 431.371)"><path d="M434.66,645.039l19.825-19.154c.662-.64-.347-1.646-1.008-1.008l-19.825,19.154c-.662.64.347,1.646,1.008,1.008Z" transform="translate(-433.436 -624.673)" fill="#919191"/></g><path d="M449.969,561.516l.1-.1a6.956,6.956,0,0,1,9.93.337l-.529-.532a6.731,6.731,0,0,1-.05-9.409l1.151-1.182a6.463,6.463,0,0,1,5.605-1.894,7.6,7.6,0,0,1,2.11-6.03l.105-.108a7.34,7.34,0,0,1,10.5-.053l1.386,1.4a6.7,6.7,0,0,1,1.826-5.572,6.471,6.471,0,0,1,9.257-.047l6.011,6.047a6.732,6.732,0,0,1,.05,9.41,6.462,6.462,0,0,1-6.036,1.816,7.645,7.645,0,0,1-1.279,8.852l-.105.108a7.337,7.337,0,0,1-5.91,2.208,6.705,6.705,0,0,1-1.8,5.717l-1.151,1.182a6.471,6.471,0,0,1-9.257.047l-6.2-6.242,5.676,5.709a7.236,7.236,0,0,1,.436,10.09l-.1.1a6.956,6.956,0,0,1-9.93-.338L450.4,571.606A7.235,7.235,0,0,1,449.969,561.516Z" transform="translate(-320.386 -130.187)" fill="#6d6d6d"/><path d="M700.372,420.03l-53.739,13.861L636.2,393.428l68.5-17.668Z" transform="translate(-454.851 -15.341)" fill="#fff"/><rect width="41.786" height="70.743" transform="translate(4.529 403.098) rotate(-75.537)" fill="#fff"/><g transform="translate(138.366 430.036)"><path d="M499.04,632.684,486.63,620.2a.713.713,0,0,0-1.008,1.008l12.41,12.484a.713.713,0,0,0,1.008-1.008Z" transform="translate(-485.414 -619.989)" fill="#746f6d"/></g><path d="M35.962,466.321,89.7,480.181l1.264-42.845-67.595,16.07Z" transform="translate(-16.708 -59.365)" fill="#869e9a" opacity="0.4"/><path d="M0,354.891v55.533l62.449,15.47L75.41,373.572Z" transform="translate(0 -0.421)" fill="#5a5a5a"/><path d="M723.608,458.369,669.869,472.23l-1.264-42.845,46.7,11.1Z" transform="translate(-478.021 -53.68)" fill="#869e9a" opacity="0.4"/><path d="M0,510.734v11.747l62.288,15.43,2.741-11.067Z" transform="translate(0 -111.841)" fill="#302c3d"/><path d="M731.6,354.3l-67.14,16.632,12.961,52.322L731.6,409.836Z" transform="translate(-475.057)" fill="#303030"/><path d="M757.638,510.146l-56.759,14.06,2.741,11.067,54.017-13.381Z" transform="translate(-501.095 -111.42)"/><g transform="translate(128.096 428.896)"><path d="M451.221,626.905l10.347,10.044c2.41,2.339,6.7,2.578,9.07,0a6.522,6.522,0,0,0,0-9.07l-10.347-10.044c-2.41-2.339-6.7-2.578-9.07,0a6.522,6.522,0,0,0,0,9.07Z" transform="translate(-449.385 -615.99)" fill="#b7b7b7"/></g><g transform="translate(137.075 418.6)"><path d="M482.666,590.412l10.688,9.68c2.4,2.177,6.426,2.551,8.768,0,2.179-2.374,2.567-6.443,0-8.768l-10.688-9.68c-2.4-2.177-6.426-2.551-8.768,0-2.179,2.374-2.567,6.443,0,8.768Z" transform="translate(-480.883 -579.869)" fill="#b7b7b7"/></g><g transform="translate(147.236 409.33)"><path d="M518.376,558.255l10.688,9.68c2.486,2.252,6.648,2.639,9.07,0,2.255-2.456,2.656-6.665,0-9.07l-10.688-9.68c-2.486-2.252-6.648-2.639-9.07,0-2.255,2.456-2.656,6.665,0,9.07Z" transform="translate(-516.531 -547.348)" fill="#b7b7b7"/></g><g transform="translate(161.62 405.557)"><path d="M568.346,542.111l7.861,7.072c1.829,1.645,4.871,1.939,6.651,0,1.649-1.8,1.953-4.894,0-6.651L575,535.459c-1.829-1.645-4.871-1.939-6.652,0-1.649,1.8-1.953,4.894,0,6.652Z" transform="translate(-566.993 -534.112)" fill="#b7b7b7"/></g></g></svg>