<svg xmlns="http://www.w3.org/2000/svg" width="198.51" height="72.229" viewBox="0 0 198.51 72.229">
  <g id="Group_67" data-name="Group 67" transform="translate(29 18.74)">
    <g id="Group_61" data-name="Group 61" transform="translate(-29 -18.74)">
      <g id="Group_44" data-name="Group 44" transform="translate(69.443 2.223)">
        <g id="Group_41" data-name="Group 41" transform="translate(1.58 1.278)">
          <g id="Group_40" data-name="Group 40">
            <path id="Path_59" data-name="Path 59" d="M602.993,129.709a1.537,1.537,0,0,1-.859-.225,1.388,1.388,0,0,1-.516-.618,2.191,2.191,0,0,1-.173-.89v-.049a2.1,2.1,0,0,1,.181-.894,1.458,1.458,0,0,1,.519-.617,1.423,1.423,0,0,1,.808-.226,1.71,1.71,0,0,1,.606.1,1.454,1.454,0,0,1,.456.263v.737h-.369l-.049-.54a.739.739,0,0,0-.173-.1,1.078,1.078,0,0,0-.216-.061,1.488,1.488,0,0,0-.257-.021.928.928,0,0,0-.569.173,1.058,1.058,0,0,0-.352.475,1.894,1.894,0,0,0-.12.7v.054a1.887,1.887,0,0,0,.128.734,1,1,0,0,0,.374.464,1.069,1.069,0,0,0,.6.16,1.3,1.3,0,0,0,.322-.04.947.947,0,0,0,.261-.1l.052-.477h.362v.742a1.609,1.609,0,0,1-.46.187A2.275,2.275,0,0,1,602.993,129.709Z" transform="translate(-601.445 -126.19)" fill="#040505"/>
          </g>
        </g>
        <g id="Group_43" data-name="Group 43" transform="translate(0 0)">
          <g id="Group_42" data-name="Group 42">
            <path id="Path_60" data-name="Path 60" d="M598.073,127.047a3.01,3.01,0,1,1,3.01-3.01A3.014,3.014,0,0,1,598.073,127.047Zm0-5.773a2.763,2.763,0,1,0,2.763,2.763A2.766,2.766,0,0,0,598.073,121.273Z" transform="translate(-595.062 -121.026)" fill="#1a1718"/>
          </g>
        </g>
      </g>
      <g id="Group_60" data-name="Group 60">
        <g id="Group_47" data-name="Group 47" transform="translate(0 1.682)">
          <g id="Group_45" data-name="Group 45" transform="translate(0.371 0.496)">
            <path id="Path_61" data-name="Path 61" d="M358.257,179.138c-.494.452-1,.892-1.511,1.317-.559.478-1.129.946-1.7,1.4s-1.161.9-1.752,1.328c-.656.484-1.317.952-1.995,1.414-.559.376-1.129.747-1.7,1.1-.575-.355-1.14-.726-1.7-1.1-.677-.457-1.344-.925-2-1.414q-.887-.645-1.747-1.322t-1.71-1.4c-.511-.425-1.011-.865-1.505-1.312-.575-.516-1.145-1.048-1.7-1.591-.43-.414-.855-.833-1.263-1.263-.586-.6-1.156-1.2-1.7-1.817-.36-.393-.71-.8-1.054-1.2q-.855-.992-1.672-2.027c-.3-.382-.591-.763-.876-1.15q-.822-1.089-1.591-2.22c-.258-.371-.511-.747-.753-1.124-.511-.774-1.005-1.564-1.473-2.366-.231-.382-.451-.763-.666-1.15-.462-.806-.9-1.624-1.317-2.451q-.306-.6-.6-1.209c-.4-.823-.78-1.651-1.134-2.494-.194-.441-.376-.882-.554-1.323-.328-.817-.64-1.639-.93-2.473-.177-.495-.349-1-.511-1.505q-.387-1.185-.726-2.387c-.161-.57-.317-1.145-.457-1.72-.194-.753-.366-1.505-.527-2.269q-.21-.976-.387-1.968c-.129-.726-.247-1.457-.349-2.188s-.2-1.441-.274-2.172c-.091-.806-.161-1.624-.215-2.44-.048-.672-.086-1.349-.107-2.027-.032-.79-.049-1.591-.049-2.392,0-.731.011-1.457.043-2.183.435-.215.876-.425,1.317-.629q1.411-.653,2.855-1.242c.3-.118.6-.237.9-.355q1.637-.645,3.322-1.2c.177-.059.355-.113.532-.172q1.838-.589,3.72-1.075c.016-.156.038-.306.065-.462q.29-2.056.752-4.059c-.9.21-1.8.436-2.683.672-.575.156-1.15.323-1.72.495-.833.242-1.656.505-2.473.785-.64.215-1.279.441-1.908.672q-1.161.436-2.3.9-1.024.419-2.032.871c-.844.376-1.682.774-2.51,1.183-.6.3-1.188.6-1.779.914q-.169,2.419-.172,4.881v.011q0,2.355.161,4.666c.032.478.07.957.118,1.435q.137,1.572.349,3.118c.043.312.086.618.134.93q.266,1.774.629,3.516c.032.172.07.339.108.511.274,1.28.586,2.548.93,3.8.022.064.038.129.054.194.376,1.328.785,2.639,1.236,3.935l.086-.016a.674.674,0,0,0-.07.059c.451,1.29.941,2.569,1.468,3.827.027.07.059.14.086.21q.774,1.822,1.645,3.586c.049.1.1.2.145.3q.871,1.734,1.833,3.408c.059.1.118.2.183.306.651,1.124,1.333,2.22,2.048,3.3.059.091.118.177.183.269q1.1,1.645,2.3,3.22c.038.054.08.113.124.167q1.25,1.637,2.6,3.193a.193.193,0,0,0,.048-.022c-.011.011-.021.027-.032.038.892,1.043,1.828,2.053,2.79,3.037a2.219,2.219,0,0,0,.161.161c.9.93,1.839,1.823,2.8,2.693.14.124.274.242.409.366.882.785,1.785,1.548,2.7,2.279.247.2.5.4.753.6.822.645,1.661,1.263,2.51,1.866.392.279.79.554,1.188.822q1.927,1.3,3.951,2.473,2.024-1.169,3.951-2.473c.4-.274.8-.548,1.2-.828q1.274-.9,2.5-1.86c.253-.194.505-.392.758-.6q1.379-1.1,2.7-2.274c.14-.124.274-.247.414-.371.952-.865,1.887-1.763,2.79-2.688q-2.024-.822-3.951-1.817Q359.12,178.366,358.257,179.138Z" transform="translate(-315.971 -120.842)" fill="#1a1718"/>
          </g>
          <g id="Group_46" data-name="Group 46" transform="translate(0 0)">
            <path id="Path_62" data-name="Path 62" d="M348.464,189.385l-.186-.107c-1.313-.758-2.65-1.6-3.973-2.487-.441-.3-.832-.568-1.2-.828-.928-.658-1.754-1.272-2.524-1.876-.281-.215-.53-.413-.76-.6-.893-.71-1.808-1.481-2.715-2.288-.121-.111-.238-.215-.358-.321l-.05-.044c-1.053-.958-1.973-1.844-2.816-2.712a2.332,2.332,0,0,1-.171-.171c-.992-1.014-1.885-1.984-2.717-2.953l-.094-.107c-.9-1.037-1.776-2.117-2.611-3.211-.043-.053-.09-.119-.132-.178-.77-1.006-1.547-2.1-2.3-3.227-.062-.088-.124-.178-.186-.273-.73-1.1-1.423-2.22-2.058-3.317-.055-.087-.114-.187-.172-.287-.675-1.18-1.295-2.333-1.854-3.447l-.146-.3c-.587-1.191-1.144-2.4-1.654-3.607-.017-.043-.03-.073-.043-.1s-.033-.078-.048-.118c-.481-1.148-.946-2.353-1.38-3.577h0l-.106-.3c-.439-1.259-.845-2.553-1.243-3.956-.017-.067-.03-.122-.048-.177-.355-1.283-.669-2.567-.941-3.835l-.014-.065c-.033-.152-.066-.3-.095-.455-.241-1.158-.454-2.347-.631-3.529-.048-.312-.092-.62-.135-.934-.147-1.087-.262-2.113-.351-3.136-.044-.43-.083-.9-.119-1.443-.107-1.544-.162-3.122-.162-4.691,0-1.628.058-3.279.173-4.918l.015-.206.183-.1c.7-.367,1.264-.659,1.788-.918.9-.444,1.727-.834,2.524-1.189.669-.3,1.357-.594,2.043-.875.736-.3,1.514-.608,2.311-.907.651-.239,1.3-.467,1.921-.676.874-.3,1.689-.558,2.487-.79.621-.187,1.187-.35,1.727-.5.965-.257,1.847-.478,2.7-.675l.579-.134-.133.579c-.306,1.334-.558,2.689-.747,4.028-.027.158-.048.3-.063.448l-.026.257-.25.065c-1.219.314-2.464.674-3.7,1.069l-.272.088-.257.083c-1.14.376-2.251.777-3.3,1.192l-.087.034c-.271.107-.542.213-.808.32-.951.388-1.906.8-2.837,1.234-.4.185-.765.359-1.111.528-.023.59-.033,1.215-.033,1.947,0,.8.016,1.6.048,2.377.02.641.055,1.3.107,2.015.056.853.128,1.669.214,2.425.075.726.164,1.43.272,2.159.1.7.211,1.408.348,2.178.117.655.247,1.313.384,1.954.174.825.345,1.562.523,2.254.124.51.268,1.052.455,1.712.224.793.466,1.591.721,2.373.157.493.328,1,.507,1.5.275.79.578,1.594.925,2.46.2.489.376.918.549,1.311.321.764.69,1.574,1.129,2.482.192.406.391.809.592,1.2.448.885.876,1.681,1.309,2.436.226.407.442.779.662,1.143.448.767.94,1.557,1.465,2.353.235.365.486.739.747,1.116.5.741,1.035,1.483,1.583,2.208.285.387.584.773.874,1.147.535.677,1.094,1.355,1.66,2.012.3.357.667.777,1.046,1.19.5.568,1.057,1.158,1.7,1.808.36.379.758.777,1.256,1.256.533.523,1.1,1.054,1.689,1.582s1.05.933,1.495,1.3c.556.475,1.127.944,1.7,1.4.6.468,1.164.9,1.736,1.314.609.454,1.259.913,1.989,1.406.569.382,1.048.7,1.491.973.476-.3.968-.616,1.5-.973.7-.475,1.345-.935,1.981-1.4s1.217-.9,1.742-1.32c.568-.445,1.137-.913,1.694-1.389.507-.421,1.011-.861,1.5-1.309l0,0c.587-.526,1.153-1.056,1.682-1.575l.191-.188.238.123c1.286.662,2.605,1.268,3.921,1.8l.512.208-.386.4c-.877.9-1.821,1.807-2.806,2.7l-.213.191-.2.184c-.9.8-1.812,1.57-2.713,2.287-.226.188-.471.382-.763.606-.787.616-1.633,1.245-2.511,1.868-.4.281-.8.557-1.205.832-1.326.893-2.663,1.73-3.974,2.488Zm-16.98-14.965c.844.986,1.751,1.974,2.774,3.019.051.056.1.1.146.146.849.873,1.758,1.749,2.8,2.693l.046.04c.124.11.244.216.365.327.892.794,1.8,1.556,2.684,2.262.228.188.471.381.747.592.764.6,1.581,1.206,2.5,1.857.36.257.746.524,1.181.818,1.246.84,2.5,1.63,3.743,2.351,1.237-.72,2.5-1.511,3.744-2.352.4-.272.8-.545,1.193-.824.867-.615,1.7-1.237,2.484-1.849.288-.221.525-.409.75-.6.9-.713,1.8-1.474,2.689-2.265l.2-.18.214-.192c.828-.753,1.629-1.518,2.384-2.277-1.084-.456-2.168-.958-3.231-1.5-.48.466-.989.939-1.513,1.409-.5.456-1.011.9-1.522,1.327-.561.48-1.138.954-1.712,1.4-.532.422-1.109.86-1.763,1.336s-1.3.938-2,1.42c-.612.412-1.173.775-1.719,1.111l-.195.12-.195-.12c-.506-.312-1.05-.665-1.711-1.11-.74-.5-1.4-.966-2.014-1.424-.576-.419-1.151-.854-1.755-1.328-.583-.459-1.162-.935-1.721-1.413-.448-.373-.93-.793-1.513-1.319s-1.172-1.074-1.71-1.6c-.5-.485-.909-.89-1.272-1.273-.643-.654-1.2-1.253-1.713-1.826-.383-.417-.75-.843-1.058-1.2-.572-.664-1.138-1.35-1.681-2.038-.294-.38-.6-.769-.884-1.16-.553-.732-1.092-1.484-1.6-2.232-.265-.38-.521-.762-.758-1.131-.53-.8-1.03-1.605-1.482-2.379-.222-.366-.442-.746-.67-1.157-.437-.762-.871-1.57-1.324-2.464-.2-.4-.407-.808-.6-1.218-.444-.917-.817-1.738-1.141-2.51-.174-.4-.356-.831-.556-1.328-.352-.877-.658-1.692-.936-2.489-.181-.5-.354-1.016-.514-1.515-.258-.789-.5-1.6-.73-2.4-.189-.669-.335-1.219-.46-1.733-.179-.7-.353-1.445-.529-2.28-.139-.648-.27-1.314-.389-1.979-.139-.779-.254-1.5-.352-2.2-.11-.736-.2-1.452-.276-2.185-.087-.765-.16-1.592-.216-2.454-.052-.724-.088-1.392-.108-2.039-.032-.786-.049-1.6-.049-2.4,0-.835.014-1.533.043-2.2l.01-.219.2-.1c.41-.2.844-.41,1.325-.633.941-.435,1.907-.856,2.871-1.249q.405-.162.815-.322l.087-.034c1.065-.42,2.189-.825,3.342-1.206.088-.029.176-.057.265-.086l.266-.086c1.17-.375,2.345-.717,3.5-1.019.01-.075.023-.151.036-.23.163-1.156.374-2.332.627-3.5-.664.16-1.355.336-2.1.533-.531.144-1.09.3-1.708.492-.791.23-1.595.485-2.46.781-.62.208-1.259.433-1.9.669-.788.3-1.558.6-2.288.9-.679.278-1.359.569-2.021.866-.789.352-1.606.737-2.5,1.177-.47.233-.979.494-1.587.813-.1,1.554-.157,3.117-.157,4.649,0,1.562.054,3.123.16,4.651.036.532.074,1,.117,1.424.089,1.017.2,2.031.348,3.106.042.309.085.613.133.923.175,1.17.386,2.346.625,3.5.029.153.06.295.092.44l.015.067c.269,1.256.58,2.525.925,3.776.019.055.038.129.056.2.359,1.265.728,2.449,1.122,3.6l1.382-.272-1.172.871c.43,1.213.89,2.408,1.371,3.555.016.042.03.073.043.1s.032.077.047.115c.5,1.178,1.051,2.378,1.631,3.555l.144.294c.553,1.1,1.167,2.243,1.823,3.39.063.108.116.2.174.292.635,1.1,1.32,2.2,2.044,3.294.059.091.115.172.176.26.751,1.126,1.519,2.2,2.287,3.209.042.06.08.112.118.16.831,1.088,1.7,2.157,2.587,3.183l-.215.186.014.018Zm-.419-.125a.25.25,0,0,0-.034.019l.071.089Z" transform="translate(-314.472 -118.838)" fill="#1a1718"/>
          </g>
        </g>
        <g id="Group_50" data-name="Group 50" transform="translate(50.415 2.424)">
          <g id="Group_48" data-name="Group 48" transform="translate(0.371 0.426)">
            <path id="Path_63" data-name="Path 63" d="M536.329,129.374c-.586-.312-1.177-.613-1.774-.909q-1.241-.621-2.516-1.183c-.672-.306-1.344-.6-2.027-.876h-.005c-.758-.312-1.526-.613-2.3-.9-.629-.237-1.269-.462-1.908-.677-.817-.274-1.64-.538-2.473-.785-.57-.172-1.145-.333-1.72-.489a18.618,18.618,0,0,0-1.93,3.387v.005q.041.226.065.451,1.878.484,3.72,1.081c.177.054.355.113.532.172,1.124.366,2.231.769,3.322,1.193.3.118.6.237.9.355q1.443.6,2.854,1.247h.005c.441.2.877.409,1.312.624.032.726.043,1.457.043,2.188q0,1.2-.048,2.387c-.022.683-.059,1.36-.108,2.032-.054.817-.124,1.629-.215,2.435q-.113,1.1-.274,2.177c-.1.731-.215,1.457-.349,2.183-.118.661-.247,1.323-.387,1.973-.156.758-.333,1.516-.527,2.263-.14.575-.3,1.156-.457,1.726a18.018,18.018,0,0,0,3.956,1c.016-.065.038-.135.054-.2q.516-1.871.93-3.785c.037-.172.075-.349.113-.521.237-1.156.446-2.328.624-3.5.048-.312.091-.624.14-.941.14-1.027.258-2.064.344-3.107.049-.478.086-.957.118-1.441q.161-2.315.161-4.666v-.005Q536.5,131.793,536.329,129.374Z" transform="translate(-519.675 -123.557)" fill="#1a1718"/>
          </g>
          <g id="Group_49" data-name="Group 49" transform="translate(0)">
            <path id="Path_64" data-name="Path 64" d="M533.168,151.555l-.329-.046a18.4,18.4,0,0,1-4.038-1.021l-.318-.121.093-.327c.18-.635.328-1.195.453-1.712.2-.766.374-1.521.524-2.25.135-.631.265-1.29.385-1.964.121-.654.235-1.363.347-2.168.107-.72.2-1.447.272-2.164.088-.772.157-1.563.214-2.422.052-.722.087-1.381.107-2.019.032-.787.048-1.585.048-2.375,0-.722-.011-1.363-.034-1.952-.354-.172-.7-.336-1.034-.49l-.077-.033c-.907-.42-1.836-.826-2.84-1.241-.291-.117-.592-.235-.892-.353-1.179-.459-2.26-.847-3.3-1.186l-.025-.008c-.167-.055-.334-.111-.5-.161-1.212-.394-2.457-.755-3.7-1.076l-.249-.064-.028-.255q-.023-.213-.061-.426l-.006-.065v-.078l.031-.077a19.059,19.059,0,0,1,1.968-3.454l.15-.209.248.067c.668.181,1.218.338,1.73.492.781.232,1.594.49,2.484.789.675.227,1.322.456,1.921.682.728.268,1.484.562,2.247.875l.07.026c.7.285,1.364.574,2.04.882.879.389,1.731.789,2.528,1.188.656.325,1.24.624,1.782.913l.181.1.014.205c.115,1.64.173,3.293.173,4.912,0,1.573-.055,3.152-.162,4.7-.037.549-.075,1.011-.119,1.452-.082.99-.195,2.013-.345,3.12-.024.155-.045.3-.067.45-.024.166-.048.332-.074.5-.175,1.159-.386,2.345-.627,3.523l-.114.526c-.269,1.249-.583,2.529-.935,3.8-.007.031-.019.077-.032.121Zm-3.786-1.643a17.687,17.687,0,0,0,3.234.814c.337-1.233.637-2.457.894-3.652l.113-.522c.238-1.16.446-2.333.619-3.481.025-.165.049-.328.073-.492.022-.149.043-.3.067-.449.148-1.087.26-2.1.341-3.082.044-.439.082-.893.118-1.435.107-1.529.161-3.091.161-4.642s-.053-3.105-.157-4.661c-.485-.256-1-.521-1.583-.807-.788-.394-1.629-.79-2.5-1.176-.648-.3-1.286-.572-1.95-.844h0l-.073-.028c-.776-.319-1.546-.62-2.288-.893-.593-.223-1.231-.449-1.9-.674-.882-.3-1.687-.551-2.46-.781-.441-.133-.911-.268-1.462-.419a18.332,18.332,0,0,0-1.7,3.01c.006.037.011.074.017.111,1.181.309,2.356.653,3.5,1.024.166.05.339.108.512.165,1.075.35,2.168.743,3.362,1.207.3.119.6.238.9.356.976.4,1.916.814,2.8,1.22h0l.08.034c.417.194.866.4,1.32.628l.2.1.01.219c.029.659.044,1.38.044,2.2,0,.8-.016,1.608-.048,2.4-.02.644-.056,1.314-.108,2.044-.057.868-.128,1.67-.216,2.45-.074.725-.167,1.463-.276,2.19-.114.813-.229,1.532-.352,2.2-.121.679-.252,1.347-.389,1.983-.152.739-.331,1.506-.531,2.278C529.645,148.939,529.524,149.4,529.382,149.912Z" transform="translate(-518.175 -121.837)" fill="#1a1718"/>
          </g>
        </g>
        <g id="Group_53" data-name="Group 53" transform="translate(32.599 8.263)">
          <g id="Group_51" data-name="Group 51" transform="translate(0.371 0.377)">
            <path id="Path_65" data-name="Path 65" d="M456.216,147.4c-.892-.113-1.8-.2-2.7-.269-.457-.032-.914-.059-1.371-.086-.919-.049-1.839-.081-2.763-.081-.22-.011-.446-.011-.667-.011s-.452,0-.677.011a34.033,34.033,0,0,0-.339,4.08c-.005.274-.011.548-.011.823,0,1.1.048,2.177.151,3.247a34.843,34.843,0,0,0,.623,4.07h.005c.07.355.15.71.242,1.059q.379,1.54.9,3.021a34.512,34.512,0,0,0,1.323,3.258c.14.3.285.591.43.887h.005a33.2,33.2,0,0,0,2.038,3.526q.274.419.565.823a33.75,33.75,0,0,0,2.156,2.768q1.04,1.2,2.177,2.3h.005c.258.253.516.495.78.731a34.426,34.426,0,0,0,6.671,4.741c.349-.575.683-1.156,1.011-1.747s.656-1.2.973-1.812a30.388,30.388,0,0,1-3.462-2.2,29.808,29.808,0,0,1-3.215-2.715c-.2-.194-.4-.4-.6-.6h-.005A29.8,29.8,0,0,1,458.1,170.5q-.927-1.2-1.731-2.494c-.349-.554-.677-1.124-.989-1.7-.473-.887-.908-1.806-1.3-2.747a29.8,29.8,0,0,1-1.177-3.376v-.005c-.081-.279-.156-.559-.226-.844a29.952,29.952,0,0,1-.737-4.134,29.638,29.638,0,0,1-.183-3.333c0-.253.006-.511.011-.764.677.038,1.355.081,2.027.145s1.366.124,2.043.21c-.005.134-.005.274-.005.409a26.783,26.783,0,0,0,1.226,7.994.266.266,0,0,1,.065.011.416.416,0,0,1-.022.118,26.217,26.217,0,0,0,1.866,4.392c.269.505.554.994.86,1.478a26.213,26.213,0,0,0,2.876,3.812.843.843,0,0,1,.107.038.224.224,0,0,1-.022.054,26.69,26.69,0,0,0,3.209,2.973,27.209,27.209,0,0,0,3.462,2.3c.269-.623.527-1.258.774-1.9s.484-1.3.71-1.951a21.909,21.909,0,0,1-3.462-2.516,23.254,23.254,0,0,1-2.4-2.473c-.279-.339-.548-.683-.811-1.037a22.221,22.221,0,0,1-2.473-4.279c-.177-.4-.339-.8-.495-1.21v-.005a22.16,22.16,0,0,1-.946-3.317,22.587,22.587,0,0,1-.446-4.252c.683.124,1.36.269,2.032.425q1.048.234,2.08.516a18.172,18.172,0,0,0,.85,4.484q.274.846.629,1.661v.005a18.48,18.48,0,0,0,2.086,3.607h.005a17.229,17.229,0,0,0,1.129,1.382,18.269,18.269,0,0,0,3.457,2.973c.183-.661.349-1.322.5-1.989.177-.78.344-1.564.484-2.355a14.206,14.206,0,0,1-2.892-3.311,10.868,10.868,0,0,1-.565-.973,13.8,13.8,0,0,1-1.424-4.166,14,14,0,0,1-.1-4.333c-.731-.242-1.468-.468-2.215-.677-.575-.161-1.156-.317-1.742-.462-.8-.2-1.6-.393-2.4-.559-.527-.113-1.054-.215-1.581-.312-.849-.161-1.709-.3-2.575-.419C457.189,147.516,456.705,147.451,456.216,147.4Z" transform="translate(-447.69 -146.951)" fill="#1a1718"/>
          </g>
          <g id="Group_52" data-name="Group 52" transform="translate(0 0)">
            <path id="Path_66" data-name="Path 66" d="M464.763,181.641l-.311-.169a34.836,34.836,0,0,1-6.744-4.793c-.236-.212-.466-.427-.7-.653l-.094-.086c-.771-.743-1.511-1.524-2.2-2.32a34.153,34.153,0,0,1-2.18-2.8c-.192-.266-.385-.547-.571-.832a33.748,33.748,0,0,1-1.955-3.358h0l-.107-.208c-.149-.3-.293-.6-.432-.892a35,35,0,0,1-1.338-3.295c-.354-1.019-.659-2.046-.908-3.055-.076-.29-.146-.592-.21-.9l-.04-.171a35.311,35.311,0,0,1-.63-4.113c-.1-1.057-.153-2.161-.153-3.281,0-.277.005-.553.011-.83a34.614,34.614,0,0,1,.343-4.126l.044-.3.306-.015c.466-.022.918-.022,1.38,0h.021c.823,0,1.7.026,2.744.081.463.027.92.054,1.378.086,1,.077,1.889.166,2.716.271.443.049.908.109,1.466.189.871.119,1.744.261,2.591.422.591.109,1.112.211,1.589.314.772.159,1.586.349,2.417.563.536.133,1.109.285,1.75.464.739.207,1.489.437,2.231.683l.292.1-.04.3a13.665,13.665,0,0,0,.094,4.218,13.436,13.436,0,0,0,1.387,4.058,10.615,10.615,0,0,0,.547.944,13.818,13.818,0,0,0,2.82,3.231l.165.138-.037.211c-.124.7-.279,1.459-.487,2.372-.15.662-.319,1.337-.5,2.006l-.136.493-.426-.282a18.67,18.67,0,0,1-3.527-3.033c-.38-.421-.729-.844-1.04-1.259h0l-.117-.15a18.869,18.869,0,0,1-2.127-3.68l-.031-.076c-.228-.529-.433-1.075-.611-1.624a18.548,18.548,0,0,1-.849-4.308c-.6-.16-1.2-.308-1.809-.443-.57-.132-1.087-.243-1.571-.338a22.207,22.207,0,0,0,.429,3.729,21.854,21.854,0,0,0,.93,3.261l.023.066c.168.438.316.8.463,1.127a21.934,21.934,0,0,0,2.433,4.21c.265.356.526.69.8,1.021a22.839,22.839,0,0,0,2.363,2.432,21.563,21.563,0,0,0,3.4,2.473l.262.154-.1.287c-.225.655-.466,1.316-.714,1.963s-.516,1.3-.78,1.912l-.163.377-.359-.2a27.682,27.682,0,0,1-3.509-2.327,27.113,27.113,0,0,1-3.255-3.015l-.087-.092a26.722,26.722,0,0,1-2.917-3.865c-.313-.494-.6-.986-.872-1.5a26.638,26.638,0,0,1-1.849-4.324h0l-.082-.259a27.136,27.136,0,0,1-1.243-8.106v-.081c-.559-.067-1.128-.123-1.7-.167s-1.126-.092-1.634-.123q0,.188,0,.371a29.3,29.3,0,0,0,.181,3.291,29.731,29.731,0,0,0,.727,4.085c.068.274.14.546.223.832l.014.056a29.6,29.6,0,0,0,1.149,3.285c.376.913.806,1.826,1.281,2.716.327.609.646,1.159.976,1.68.543.869,1.119,1.7,1.711,2.466a29.586,29.586,0,0,0,2.217,2.57h0l.115.112c.182.187.388.4.591.592a29.55,29.55,0,0,0,3.178,2.684,30.035,30.035,0,0,0,3.421,2.172l.32.174-.169.323c-.386.739-.687,1.3-.978,1.821-.36.649-.693,1.225-1.017,1.759Zm-7.439-6.339h0l.113.106c.256.251.507.487.768.72a34.1,34.1,0,0,0,6.29,4.52c.262-.44.532-.91.82-1.43.244-.437.5-.9.8-1.482a30.771,30.771,0,0,1-3.184-2.049,30.284,30.284,0,0,1-3.254-2.748c-.176-.167-.352-.346-.514-.512l-.1-.1a30.3,30.3,0,0,1-2.384-2.749c-.607-.786-1.2-1.636-1.751-2.524-.338-.535-.665-1.1-1-1.725-.487-.912-.928-1.848-1.312-2.781a30.379,30.379,0,0,1-1.191-3.416l-.014-.054c-.079-.277-.15-.542-.215-.808a30.453,30.453,0,0,1-.745-4.183,30.064,30.064,0,0,1-.185-3.373c0-.25.005-.5.011-.754l.008-.384.384,0c.607.033,1.325.077,2.042.146.685.054,1.378.125,2.054.211l.337.043-.013.34c-.005.129-.005.264-.005.394a26.423,26.423,0,0,0,1.145,7.679l.145.037v.289a.713.713,0,0,1-.008.1,25.877,25.877,0,0,0,1.807,4.233c.265.5.542.974.847,1.455a25.965,25.965,0,0,0,2.772,3.689l.043.018.318.136-.06.173a26.4,26.4,0,0,0,3.013,2.767,27,27,0,0,0,3.055,2.059c.2-.487.408-.991.606-1.5.209-.545.413-1.1.606-1.654a22.305,22.305,0,0,1-3.259-2.4,23.652,23.652,0,0,1-2.441-2.512c-.283-.342-.552-.687-.825-1.054a22.649,22.649,0,0,1-2.515-4.352c-.158-.355-.318-.746-.5-1.226l-.025-.071a22.56,22.56,0,0,1-.938-3.31,23.052,23.052,0,0,1-.454-4.322l-.005-.449.443.08c.621.113,1.292.253,2.05.428.7.156,1.4.331,2.094.519l.256.07.016.265a17.817,17.817,0,0,0,.832,4.392c.178.551.386,1.1.616,1.627l.031.076a18.086,18.086,0,0,0,1.9,3.314h0l.117.153a16.949,16.949,0,0,0,1.1,1.352,17.931,17.931,0,0,0,2.959,2.62c.13-.492.25-.984.36-1.47.185-.812.327-1.495.443-2.128a14.556,14.556,0,0,1-2.8-3.258,11.3,11.3,0,0,1-.581-1,14.17,14.17,0,0,1-1.461-4.274,14.419,14.419,0,0,1-.226-2.546,14.22,14.22,0,0,1,.089-1.592c-.637-.206-1.278-.4-1.91-.578s-1.2-.328-1.73-.459c-.823-.212-1.626-.4-2.389-.556-.473-.1-.987-.2-1.573-.31-.837-.159-1.7-.3-2.558-.417-.553-.08-1.012-.139-1.446-.187h-.007c-.816-.1-1.693-.191-2.681-.267-.452-.032-.906-.059-1.361-.085-1.04-.055-1.912-.08-2.745-.08-.232-.011-.45-.011-.667-.011-.117,0-.235,0-.353,0a33.939,33.939,0,0,0-.292,3.727c-.005.27-.011.542-.011.814,0,1.1.05,2.178.149,3.212a34.721,34.721,0,0,0,.555,3.733h0l.064.3c.069.352.149.7.237,1.037.244.991.543,2,.889,2.993a34.208,34.208,0,0,0,1.308,3.223c.113.239.229.478.347.718l.085.161a32.869,32.869,0,0,0,2.015,3.487c.181.277.368.549.556.811a33.613,33.613,0,0,0,2.135,2.742C455.919,173.878,456.607,174.606,457.324,175.3Z" transform="translate(-446.19 -145.429)" fill="#1a1718"/>
          </g>
        </g>
        <g id="Group_56" data-name="Group 56" transform="translate(24.449)">
          <g id="Group_54" data-name="Group 54" transform="translate(0.371 0.371)">
            <path id="Path_67" data-name="Path 67" d="M451.923,152.616a26.108,26.108,0,0,1-3.532-1.021c-.355.838-.737,1.666-1.129,2.484-.194.409-.393.812-.6,1.215-.419.828-.855,1.64-1.312,2.446-.215.387-.441.774-.672,1.156q-.7,1.2-1.468,2.36c-.247.382-.495.758-.758,1.129a37.51,37.51,0,0,1-3.7-1.806,36.906,36.906,0,0,1-3.456-2.172,37.43,37.43,0,0,1-3.209-2.521q-.3-.258-.6-.532h-.005c-.817-.747-1.608-1.527-2.36-2.344s-1.473-1.661-2.15-2.538c-.193-.247-.382-.494-.57-.747a37.386,37.386,0,0,1-2.279-3.462c-.065-.1-.129-.215-.188-.322a36.794,36.794,0,0,1-1.865-3.709c-.124-.28-.242-.559-.36-.844-.419-1.032-.8-2.08-1.134-3.156q-.484-1.564-.838-3.182v-.005c-.065-.274-.118-.543-.172-.817a38.175,38.175,0,0,1-.57-4.037q-.153-1.71-.156-3.462c0-.2,0-.414.005-.618a38.487,38.487,0,0,1,.285-4.118q.218-1.814.608-3.575v-.005c.038-.183.081-.366.123-.548,1.3-.081,2.6-.118,3.919-.124h.317c1.317.005,2.618.043,3.914.118a2.572,2.572,0,0,0,.285.016q2,.137,3.967.376c.059.005.124.016.183.022a25.643,25.643,0,0,1,1.726-4c-1-.145-2.011-.263-3.021-.366-.43-.043-.86-.086-1.29-.118h-.005c-1.032-.086-2.064-.145-3.107-.188-.414-.016-.828-.027-1.242-.038q-.782-.016-1.565-.016c-.527,0-1.054.005-1.575.016-.414.011-.828.022-1.242.038-1.043.043-2.075.1-3.107.194-.43.032-.865.07-1.3.118h-.005a41.627,41.627,0,0,0-1.107,4.338c-.027.118-.048.237-.07.355v.005c-.247,1.258-.436,2.543-.565,3.838q-.2,2.048-.21,4.15v.129c0,1.338.059,2.666.183,3.973.124,1.365.317,2.715.57,4.037a.1.1,0,0,1,.059-.011c-.011.038-.022.075-.037.118v.005c.247,1.306.559,2.6.93,3.854.237.833.505,1.65.8,2.462.172.489.36.979.554,1.462.43,1.075.9,2.134,1.425,3.166.113.237.237.473.36.71q.863,1.653,1.86,3.22c.145.226.29.451.44.672q.96,1.443,2.032,2.8c.328.419.661.828,1.005,1.231h.005q.814.976,1.709,1.892c.919.968,1.892,1.892,2.9,2.763a.454.454,0,0,1,.092.022.142.142,0,0,0-.027.032c1.027.887,2.1,1.725,3.209,2.516s2.263,1.527,3.451,2.2a40.883,40.883,0,0,0,3.709,1.9c1.161.527,2.355,1,3.57,1.419l.376.129q1.2-1.581,2.3-3.226c.059-.086.118-.177.177-.263.715-1.081,1.4-2.183,2.054-3.306.059-.1.118-.2.177-.3q.967-1.677,1.833-3.419c.048-.1.1-.188.145-.285.581-1.177,1.134-2.376,1.645-3.591-.113-.1-.221-.2-.333-.29Z" transform="translate(-414.76 -113.544)" fill="#1a1718"/>
          </g>
          <g id="Group_55" data-name="Group 55" transform="translate(0)">
            <path id="Path_68" data-name="Path 68" d="M442.933,166.612l-.631-.218c-1.235-.426-2.447-.908-3.6-1.432a41.19,41.19,0,0,1-3.742-1.915c-1.177-.671-2.349-1.419-3.48-2.223s-2.219-1.659-3.22-2.522h0l-.079-.069c-1.031-.893-2.014-1.831-2.923-2.788-.577-.592-1.13-1.2-1.642-1.811l-.086-.1c-.346-.405-.678-.812-1.015-1.243-.709-.895-1.4-1.846-2.049-2.824-.146-.214-.289-.436-.432-.659-.667-1.043-1.3-2.136-1.889-3.267-.125-.24-.251-.481-.366-.721-.5-1-.989-2.074-1.434-3.188-.226-.565-.4-1.034-.559-1.477-.318-.891-.581-1.7-.8-2.484-.332-1.125-.618-2.284-.852-3.449h0l-.052-.275-.031-.163-.021-.112c-.26-1.361-.454-2.731-.575-4.073-.122-1.292-.184-2.64-.184-4.006v-.129c.005-1.407.077-2.815.212-4.187.13-1.3.32-2.6.565-3.848l0-.025c.022-.124.045-.247.073-.371a42.107,42.107,0,0,1,1.115-4.366l.081-.261h.258c.382-.043.792-.08,1.289-.117.932-.082,1.954-.146,3.12-.194.416-.016.832-.027,1.247-.038,1.047-.022,2.1-.022,3.156,0,.418.011.833.022,1.249.038,1.132.047,2.149.108,3.111.188h.014c.433.032.867.076,1.3.119,1.119.113,2.113.233,3.038.368l.524.076-.25.467a25.328,25.328,0,0,0-1.7,3.942l-.093.279-.293-.026-.107-.013-.076-.009c-1.273-.156-2.6-.282-3.947-.375a2.991,2.991,0,0,1-.313-.018c-1.232-.071-2.542-.111-3.874-.116h-.316c-1.279.005-2.467.04-3.62.106-.018.077-.035.155-.051.233l-.009.047c-.257,1.168-.459,2.359-.6,3.539a38.221,38.221,0,0,0-.282,4.079c-.005.2-.005.411-.005.613,0,1.133.052,2.287.154,3.429a37.881,37.881,0,0,0,.565,4c.053.27.105.534.168.8l.01.05c.23,1.045.506,2.093.822,3.113s.684,2.043,1.124,3.126c.116.279.233.556.356.833a36.534,36.534,0,0,0,1.848,3.674c.059.107.12.214.18.31a37.352,37.352,0,0,0,2.264,3.439c.186.25.373.495.564.74.667.863,1.383,1.708,2.13,2.514.683.741,1.433,1.489,2.232,2.225l.112.1q.294.27.589.525a37.262,37.262,0,0,0,3.18,2.5,36.673,36.673,0,0,0,3.423,2.15,37.165,37.165,0,0,0,3.393,1.672c.186-.27.37-.551.578-.871.514-.78,1-1.568,1.459-2.346.239-.4.463-.781.668-1.149.454-.8.893-1.62,1.3-2.434.2-.386.4-.78.6-1.206.44-.915.806-1.722,1.123-2.469l.138-.325.332.121a25.836,25.836,0,0,0,3.482,1.007l.108.023.069.069c.113.092.221.189.334.291l.195.176-.1.243c-.486,1.155-1.042,2.37-1.654,3.611l-.146.287c-.564,1.139-1.185,2.3-1.844,3.439l-.177.3c-.627,1.083-1.322,2.2-2.065,3.325l-.181.268c-.715,1.073-1.494,2.165-2.312,3.24Zm-13.9-8.629c.9.765,1.871,1.517,2.881,2.238,1.111.789,2.261,1.523,3.42,2.184a40.48,40.48,0,0,0,3.677,1.882c1.134.515,2.324.988,3.539,1.407l.121.042c.749-.994,1.464-2,2.126-2.993l.086-.127c.032-.047.063-.095.095-.141.732-1.106,1.419-2.212,2.038-3.282l.177-.3c.651-1.129,1.264-2.272,1.822-3.4l.146-.286c.562-1.139,1.077-2.257,1.531-3.325l-.061-.052a26.523,26.523,0,0,1-3.16-.9c-.288.667-.617,1.383-1,2.177-.205.433-.4.834-.607,1.225-.415.82-.86,1.649-1.318,2.458-.207.373-.436.766-.677,1.165-.458.784-.956,1.584-1.476,2.372-.274.423-.51.78-.765,1.139l-.172.243-.275-.116a38.058,38.058,0,0,1-3.741-1.824,37.423,37.423,0,0,1-3.49-2.193,37.936,37.936,0,0,1-3.24-2.545c-.164-.142-.33-.289-.5-.44l-.112-.1c-.855-.782-1.657-1.578-2.383-2.366-.761-.821-1.492-1.683-2.171-2.562-.194-.248-.384-.5-.574-.753a37.9,37.9,0,0,1-2.3-3.5c-.061-.1-.13-.217-.193-.33a37.264,37.264,0,0,1-1.881-3.741c-.124-.28-.243-.562-.363-.85-.449-1.105-.823-2.147-1.146-3.188s-.611-2.134-.847-3.213l-.009-.042c-.062-.264-.113-.524-.165-.789a38.642,38.642,0,0,1-.576-4.077c-.1-1.163-.157-2.339-.157-3.494,0-.208,0-.421.005-.628a38.862,38.862,0,0,1,.288-4.154c.143-1.194.347-2.4.607-3.581l.005-.029c.038-.186.082-.372.126-.558l.063-.268.275-.017c1.254-.078,2.543-.119,3.941-.124h.319c1.347.005,2.67.046,3.935.119a2.436,2.436,0,0,0,.264.015h.025c1.325.091,2.627.213,3.87.364a26.091,26.091,0,0,1,1.407-3.3c-.766-.1-1.585-.2-2.486-.291-.422-.042-.844-.084-1.267-.116h-.022c-.955-.079-1.966-.141-3.091-.187-.411-.016-.824-.026-1.236-.037-1.039-.021-2.089-.021-3.122,0-.411.011-.823.022-1.235.038-1.153.048-2.164.11-3.089.192-.4.03-.738.06-1.051.092a41.211,41.211,0,0,0-1.026,4.067c-.025.112-.045.215-.063.316l-.007.044c-.243,1.235-.431,2.515-.559,3.8-.133,1.348-.2,2.732-.208,4.115v.128c0,1.342.061,2.667.181,3.938.11,1.217.28,2.456.507,3.69h.245l-.135.473-.012.043c.241,1.258.545,2.511.9,3.728.218.767.476,1.565.789,2.443.153.434.327.894.549,1.449.438,1.094.913,2.15,1.411,3.137.115.24.236.472.358.7.58,1.112,1.2,2.186,1.844,3.192.15.234.29.451.435.663.642.965,1.319,1.9,2.017,2.78.3.378.586.736.886,1.09h0l.117.133c.523.627,1.092,1.257,1.69,1.871.874.921,1.816,1.821,2.8,2.679l.056.019.527.207Z" transform="translate(-413.26 -112.043)" fill="#1a1718"/>
          </g>
        </g>
        <g id="Group_59" data-name="Group 59" transform="translate(8.154 9.547)">
          <g id="Group_57" data-name="Group 57" transform="translate(0.372 0.463)">
            <path id="Path_69" data-name="Path 69" d="M354.912,154.183c-.64.2-1.274.419-1.9.651-.693.247-1.381.511-2.059.779s-1.36.559-2.027.855q.008,2.217.194,4.4c.022.3.049.6.081.9.1,1.14.247,2.274.425,3.392.091.607.194,1.215.312,1.812.14.79.306,1.58.484,2.36.156.667.317,1.328.5,1.989.177.693.376,1.382.586,2.064q.307.992.645,1.968c.226.661.462,1.312.715,1.957s.5,1.269.769,1.892.548,1.263.844,1.882c.28.613.581,1.22.882,1.822.317.613.639,1.22.978,1.817.322.586.656,1.167,1.005,1.742.355.591.715,1.172,1.1,1.747.366.564.742,1.124,1.134,1.677s.8,1.124,1.209,1.672.823,1.081,1.263,1.607c.425.543.871,1.075,1.328,1.6s.914,1.032,1.387,1.538c.484.521.984,1.037,1.489,1.548.484.484.978.957,1.479,1.419.586.554,1.188,1.091,1.8,1.607.462.4.93.8,1.409,1.172.887.72,1.8,1.414,2.731,2.075.237.177.478.344.726.511.247-.167.489-.333.726-.511.93-.661,1.844-1.355,2.731-2.075-.978-.634-1.93-1.306-2.865-2.016-.2-.145-.4-.3-.592-.446q-1.653-1.282-3.209-2.677c-.2-.188-.409-.371-.608-.564q-1.21-1.113-2.355-2.317c-.317-.328-.629-.667-.941-1.005q-.911-1.008-1.78-2.059c-.339-.408-.672-.828-.994-1.253q-.766-.976-1.473-1.994c-.333-.462-.651-.93-.962-1.4-.436-.661-.86-1.328-1.264-2.01q-.451-.742-.871-1.5-.581-1.032-1.113-2.1c-.258-.505-.505-1.021-.736-1.537q-.532-1.121-.989-2.269c-.21-.495-.409-.994-.592-1.494-.322-.844-.618-1.7-.892-2.57-.145-.435-.279-.876-.408-1.317-.307-1.048-.586-2.107-.828-3.177-.064-.274-.123-.548-.177-.828q-.443-2.032-.715-4.123c-.032-.237-.065-.468-.092-.7-.14-1.166-.242-2.339-.306-3.527.57-.226,1.145-.436,1.731-.634.753-.269,1.516-.521,2.285-.753.043,1.408.151,2.8.312,4.177.048.473.113.941.183,1.4.124.9.274,1.79.457,2.672q.323,1.669.774,3.3c.054.231.118.457.183.683q.556,1.968,1.274,3.871a.61.61,0,0,1,.091-.027.811.811,0,0,1-.07.075q.7,1.9,1.564,3.715a3.523,3.523,0,0,0,.167.349c.532,1.129,1.113,2.236,1.731,3.317.081.14.161.279.247.414.624,1.08,1.3,2.134,2.005,3.161.07.107.14.21.215.312.774,1.108,1.586,2.183,2.446,3.22l.086-.016a.6.6,0,0,0-.059.048c.86,1.048,1.769,2.064,2.72,3.037.167.177.339.355.511.527.8.79,1.607,1.559,2.451,2.3.688.608,1.387,1.193,2.107,1.758.36.29.726.57,1.1.844q1.677,1.25,3.457,2.36c.5-.462.994-.935,1.478-1.419.505-.511,1.005-1.027,1.489-1.548-1.188-.7-2.344-1.468-3.457-2.274-.812-.586-1.6-1.193-2.371-1.833h-.005c-.28-.237-.559-.468-.839-.71-1.021-.892-2.011-1.823-2.957-2.8-.285-.29-.559-.58-.828-.876-.656-.71-1.29-1.435-1.892-2.183-.446-.538-.871-1.086-1.285-1.645s-.8-1.1-1.188-1.666c-.457-.677-.892-1.36-1.317-2.059q-.468-.774-.9-1.564-.6-1.072-1.129-2.177c-.3-.607-.581-1.22-.849-1.844-.28-.64-.548-1.29-.8-1.951q-.508-1.331-.935-2.7c-.124-.393-.242-.79-.355-1.188-.366-1.3-.683-2.618-.935-3.962-.064-.344-.129-.683-.183-1.032v-.005q-.258-1.492-.409-3.011c-.14-1.365-.22-2.742-.231-4.139-.011-.215-.011-.435-.011-.65,0-1.193.043-2.371.129-3.543-.806.167-1.607.349-2.4.554q-.879.217-1.742.468C356.379,153.721,355.643,153.947,354.912,154.183Z" transform="translate(-348.923 -152.49)" fill="#1a1718"/>
          </g>
          <g id="Group_58" data-name="Group 58" transform="translate(0)">
            <path id="Path_70" data-name="Path 70" d="M373.257,203.67l-.207-.14c-.235-.158-.487-.331-.741-.521-.936-.666-1.861-1.369-2.742-2.084-.446-.35-.911-.738-1.419-1.181-.625-.53-1.234-1.076-1.806-1.617-.522-.483-1.023-.963-1.486-1.427-.57-.576-1.06-1.085-1.5-1.558-.5-.534-.957-1.04-1.4-1.547-.5-.566-.935-1.094-1.34-1.611-.468-.559-.9-1.13-1.267-1.613-.467-.619-.866-1.17-1.219-1.685-.376-.531-.75-1.083-1.139-1.686-.346-.522-.7-1.082-1.1-1.758-.334-.55-.666-1.124-1.012-1.753-.294-.519-.608-1.1-.983-1.826-.294-.587-.6-1.208-.89-1.839-.274-.574-.553-1.194-.848-1.891s-.548-1.307-.774-1.906c-.246-.628-.482-1.274-.719-1.968-.225-.648-.444-1.314-.649-1.978-.235-.766-.428-1.447-.591-2.082-.2-.723-.374-1.447-.5-2-.2-.889-.362-1.666-.488-2.38-.109-.55-.212-1.149-.313-1.821-.185-1.167-.329-2.317-.427-3.414-.031-.287-.059-.594-.081-.9-.123-1.449-.189-2.938-.194-4.423v-.242l.221-.1c.649-.288,1.335-.577,2.039-.86.764-.3,1.441-.559,2.072-.785.6-.22,1.225-.434,1.914-.654h0c.8-.257,1.524-.478,2.229-.676.574-.167,1.165-.325,1.753-.471.768-.2,1.559-.38,2.417-.557l.481-.1-.036.49c-.085,1.156-.128,2.339-.128,3.516,0,.209,0,.423.01.632.011,1.354.088,2.735.23,4.12.1,1.027.24,2.031.4,2.985l.005.04c.048.306.1.6.16.906l.016.086c.24,1.277.544,2.563.928,3.93.117.411.235.807.351,1.177.279.895.591,1.8.928,2.678.227.607.485,1.239.789,1.935.288.667.563,1.265.842,1.828.351.729.728,1.455,1.121,2.162.286.52.588,1.042.9,1.553.436.717.863,1.385,1.307,2.043.411.6.8,1.141,1.178,1.652.444.6.861,1.133,1.273,1.63.568.706,1.182,1.413,1.879,2.168.269.3.537.579.82.868.9.93,1.892,1.864,2.936,2.776.182.158.367.313.551.467l.287.237c.736.613,1.505,1.208,2.35,1.818,1.123.814,2.276,1.572,3.428,2.256l.4.234-.313.338c-.435.469-.925.979-1.5,1.557-.465.465-.966.945-1.49,1.431l-.208.192-.241-.15c-1.2-.747-2.367-1.547-3.482-2.377-.4-.3-.767-.579-1.108-.853-.7-.545-1.391-1.125-2.12-1.769-.784-.684-1.591-1.44-2.467-2.31-.176-.176-.35-.356-.519-.536-.941-.962-1.861-1.989-2.729-3.046l-.034-.041c-.831-1-1.66-2.094-2.465-3.244-.074-.1-.148-.208-.222-.322-.728-1.053-1.408-2.125-2.016-3.178-.08-.124-.163-.268-.246-.411-.639-1.116-1.226-2.241-1.747-3.347a3.63,3.63,0,0,1-.174-.367c-.529-1.116-1.022-2.277-1.461-3.439h0l-.126-.334c-.48-1.272-.912-2.585-1.284-3.9-.064-.224-.131-.457-.187-.7-.3-1.071-.56-2.191-.777-3.314-.177-.852-.332-1.759-.46-2.692-.083-.55-.142-1-.184-1.416-.147-1.252-.246-2.5-.3-3.718-.595.186-1.2.389-1.806.605-.518.176-1,.351-1.47.532.064,1.08.161,2.167.289,3.235.024.21.052.414.08.62l.011.078c.184,1.4.423,2.778.71,4.094.053.274.11.54.176.822.231,1.021.5,2.053.823,3.158.149.508.277.922.4,1.3.288.907.585,1.765.887,2.555.175.479.372.976.586,1.482.32.8.649,1.552.983,2.254.232.517.477,1.029.732,1.528.352.7.723,1.4,1.106,2.083.279.5.569,1,.864,1.489.358.607.757,1.241,1.257,2,.353.536.656.978.953,1.39.5.721.982,1.368,1.464,1.982.318.419.649.836.988,1.245.621.747,1.2,1.417,1.769,2.047.3.329.618.671.932,1,.769.807,1.556,1.581,2.339,2.3.153.149.3.285.452.422l.155.143c1.025.918,2.1,1.813,3.186,2.657.191.149.387.3.583.439.952.722,1.908,1.4,2.849,2l.428.278-.4.322c-.881.715-1.806,1.418-2.75,2.09-.246.184-.5.358-.733.516ZM348.165,155.3c.011,1.384.075,2.77.191,4.124.022.306.048.6.08.889.1,1.088.239,2.221.422,3.374.1.664.2,1.251.309,1.8.125.709.283,1.475.482,2.35.126.54.3,1.255.5,1.973.161.631.351,1.3.583,2.054.2.655.418,1.313.641,1.955.234.686.466,1.321.71,1.943.224.592.473,1.206.764,1.881s.565,1.3.838,1.868c.286.626.591,1.24.879,1.817.368.712.677,1.285.969,1.8.343.624.67,1.189,1,1.732.4.668.746,1.219,1.089,1.735.387.6.755,1.141,1.128,1.668.35.51.743,1.053,1.2,1.663.358.476.787,1.037,1.252,1.592.4.516.834,1.033,1.322,1.59.434.5.885,1,1.379,1.529.435.468.919.972,1.482,1.541.454.455.948.929,1.466,1.408.566.535,1.165,1.072,1.784,1.6.5.438.957.817,1.4,1.163.873.709,1.786,1.4,2.717,2.064.174.13.345.251.511.365.165-.113.335-.233.5-.359.8-.567,1.575-1.152,2.323-1.748-.817-.543-1.642-1.131-2.459-1.75-.2-.143-.4-.3-.6-.449-1.1-.854-2.188-1.76-3.229-2.694l-.158-.144c-.155-.142-.31-.283-.461-.431-.788-.725-1.587-1.51-2.365-2.327-.318-.329-.637-.675-.945-1.01-.578-.64-1.164-1.317-1.792-2.073-.346-.418-.684-.843-1-1.266-.487-.62-.973-1.278-1.482-2.006-.3-.416-.608-.866-.968-1.411-.507-.769-.911-1.413-1.273-2.026-.3-.489-.594-1-.876-1.509-.387-.688-.764-1.4-1.12-2.11-.259-.508-.51-1.031-.743-1.552-.337-.709-.672-1.48-.995-2.282-.216-.51-.417-1.019-.6-1.505-.3-.8-.607-1.669-.9-2.585-.128-.386-.26-.808-.411-1.325-.327-1.12-.6-2.167-.834-3.2-.068-.289-.127-.564-.18-.84-.29-1.328-.532-2.725-.719-4.145l-.01-.076c-.029-.212-.058-.421-.082-.635-.14-1.17-.244-2.365-.308-3.549l-.015-.267.248-.1c.56-.222,1.132-.431,1.748-.641.77-.275,1.544-.53,2.3-.757l.463-.139.015.484c.041,1.348.145,2.742.309,4.145.042.408.1.848.181,1.391.127.921.279,1.811.453,2.652.214,1.109.472,2.21.768,3.277.056.24.12.463.182.68.338,1.195.725,2.386,1.154,3.546l.747-.123-.538.675c.44,1.17.935,2.34,1.475,3.48a3.289,3.289,0,0,0,.157.331c.523,1.107,1.1,2.215,1.727,3.31.078.135.155.27.238.4.607,1.05,1.276,2.1,2,3.15.072.11.138.206.209.3.753,1.078,1.523,2.1,2.3,3.037l1.387-.233-.976.73c.784.94,1.608,1.852,2.453,2.716q.254.269.508.524c.864.858,1.66,1.6,2.433,2.278.72.635,1.4,1.206,2.092,1.745.336.271.691.544,1.088.838,1.025.764,2.1,1.5,3.192,2.193.442-.413.865-.821,1.26-1.216.432-.437.816-.834,1.166-1.2-1.04-.632-2.077-1.322-3.089-2.055-.819-.591-1.569-1.169-2.287-1.763h0l-.391-.324c-.187-.157-.374-.314-.56-.475-1.061-.927-2.063-1.874-2.98-2.818-.289-.295-.563-.585-.837-.886-.706-.764-1.331-1.485-1.906-2.2-.418-.5-.842-1.046-1.294-1.657-.387-.519-.778-1.068-1.2-1.677-.452-.67-.886-1.348-1.328-2.076-.314-.52-.62-1.051-.911-1.578-.4-.718-.782-1.457-1.138-2.2-.283-.571-.564-1.18-.856-1.858-.309-.707-.572-1.351-.8-1.969-.342-.894-.659-1.81-.942-2.718-.118-.376-.239-.779-.357-1.2-.391-1.389-.7-2.7-.943-3.994l-.016-.086c-.06-.319-.119-.634-.169-.958l0-.03c-.165-.962-.3-1.973-.407-3-.144-1.408-.223-2.812-.233-4.174-.011-.209-.011-.435-.011-.653,0-1.029.032-2.062.1-3.078-.665.143-1.293.291-1.907.449-.581.144-1.163.3-1.731.465-.7.2-1.418.414-2.2.669h0c-.679.217-1.3.428-1.888.645-.627.223-1.3.477-2.05.776C349.341,154.8,348.739,155.05,348.165,155.3Z" transform="translate(-347.42 -150.619)" fill="#1a1718"/>
          </g>
        </g>
      </g>
    </g>
    <g id="Group_66" data-name="Group 66" transform="translate(19.629 26.375)">
      <g id="Group_22" data-name="Group 22" transform="translate(0 0)">
        <g id="Group_5" data-name="Group 5" transform="translate(34.705 0)">
          <path id="Path_9" data-name="Path 9" d="M315.91,424.242a4.206,4.206,0,0,1-1.278-.194,4.131,4.131,0,0,1-1.173-.6V421.9h.764l.165,1.143a2.846,2.846,0,0,0,.7.309,2.933,2.933,0,0,0,.818.11,2.109,2.109,0,0,0,.846-.152,1.219,1.219,0,0,0,.532-.422,1.165,1.165,0,0,0,.025-1.218,1.334,1.334,0,0,0-.526-.447,4.255,4.255,0,0,0-1-.337,4.772,4.772,0,0,1-1.265-.466,2.169,2.169,0,0,1-.784-.709,1.731,1.731,0,0,1-.267-.956,1.784,1.784,0,0,1,.3-1.018,2.07,2.07,0,0,1,.841-.708,2.869,2.869,0,0,1,1.258-.259,3.646,3.646,0,0,1,1.35.232,3.326,3.326,0,0,1,.966.562v1.452h-.764l-.165-1.038a1.942,1.942,0,0,0-.559-.3,2.483,2.483,0,0,0-.828-.12,1.749,1.749,0,0,0-.739.147,1.19,1.19,0,0,0-.5.412,1.083,1.083,0,0,0-.18.624.941.941,0,0,0,.162.549,1.322,1.322,0,0,0,.529.412,5.291,5.291,0,0,0,.981.332,3.857,3.857,0,0,1,1.739.841,1.812,1.812,0,0,1,.592,1.375,1.77,1.77,0,0,1-.315,1.036,2.083,2.083,0,0,1-.886.706A3.283,3.283,0,0,1,315.91,424.242Z" transform="translate(-313.311 -416.617)" fill="#1a1818"/>
          <path id="Path_10" data-name="Path 10" d="M315.559,424.039a4.357,4.357,0,0,1-1.323-.2,4.283,4.283,0,0,1-1.215-.62l-.062-.044V421.4H314l.173,1.2a2.729,2.729,0,0,0,.608.258,2.8,2.8,0,0,0,.777.1,1.971,1.971,0,0,0,.786-.139,1.075,1.075,0,0,0,.468-.37,1.015,1.015,0,0,0,.022-1.055,1.194,1.194,0,0,0-.47-.394,4.126,4.126,0,0,0-.965-.323,4.957,4.957,0,0,1-1.3-.482,2.331,2.331,0,0,1-.836-.758,1.887,1.887,0,0,1-.29-1.036,1.938,1.938,0,0,1,.327-1.1,2.225,2.225,0,0,1,.9-.76,3.028,3.028,0,0,1,1.322-.274,3.814,3.814,0,0,1,1.4.242,3.491,3.491,0,0,1,1.009.587l.051.044v1.669h-1.039l-.175-1.1a1.864,1.864,0,0,0-.472-.241,2.346,2.346,0,0,0-.778-.111,1.61,1.61,0,0,0-.677.133,1.036,1.036,0,0,0-.438.36.93.93,0,0,0-.154.54.789.789,0,0,0,.136.465,1.192,1.192,0,0,0,.471.362,5.137,5.137,0,0,0,.952.321,4.02,4.02,0,0,1,1.8.877,1.965,1.965,0,0,1,.638,1.483,1.923,1.923,0,0,1-.341,1.121,2.236,2.236,0,0,1-.948.757A3.448,3.448,0,0,1,315.559,424.039Zm-2.3-1.019a3.96,3.96,0,0,0,1.069.534,4.068,4.068,0,0,0,1.232.188,3.148,3.148,0,0,0,1.284-.242,1.942,1.942,0,0,0,.825-.655,1.631,1.631,0,0,0,.288-.951,1.655,1.655,0,0,0-.545-1.267,3.739,3.739,0,0,0-1.673-.8,5.433,5.433,0,0,1-1.009-.342,1.47,1.47,0,0,1-.587-.461,1.091,1.091,0,0,1-.189-.633,1.231,1.231,0,0,1,.205-.707,1.343,1.343,0,0,1,.559-.463,1.9,1.9,0,0,1,.8-.161,2.625,2.625,0,0,1,.878.129,2.085,2.085,0,0,1,.6.323l.045.036.154.969h.488v-1.235a3.272,3.272,0,0,0-.872-.492,3.523,3.523,0,0,0-1.3-.221,2.738,2.738,0,0,0-1.193.245,1.929,1.929,0,0,0-.782.658,1.645,1.645,0,0,0-.276.935,1.6,1.6,0,0,0,.243.876,2.039,2.039,0,0,0,.732.659,4.641,4.641,0,0,0,1.226.451,4.421,4.421,0,0,1,1.036.35,1.48,1.48,0,0,1,.583.5,1.313,1.313,0,0,1-.028,1.381,1.372,1.372,0,0,1-.595.474,2.263,2.263,0,0,1-.906.164,3.109,3.109,0,0,1-.86-.115,3.01,3.01,0,0,1-.74-.326l-.059-.036-.156-1.085h-.486Z" transform="translate(-312.96 -416.266)" fill="#1a1818"/>
        </g>
        <g id="Group_6" data-name="Group 6" transform="translate(40.755 0)">
          <path id="Path_11" data-name="Path 11" d="M336.83,424.242a2.871,2.871,0,0,1-1.263-.269,2.706,2.706,0,0,1-.951-.761,3.5,3.5,0,0,1-.6-1.165,5.04,5.04,0,0,1-.207-1.487v-.1a5.046,5.046,0,0,1,.207-1.485,3.521,3.521,0,0,1,.6-1.17,2.692,2.692,0,0,1,.951-.764,2.867,2.867,0,0,1,1.263-.269,3,3,0,0,1,1.308.269,2.591,2.591,0,0,1,.946.764,3.451,3.451,0,0,1,.576,1.17,5.347,5.347,0,0,1,.195,1.485v.1a5.34,5.34,0,0,1-.195,1.487,3.426,3.426,0,0,1-.576,1.165,2.6,2.6,0,0,1-.946.761A3,3,0,0,1,336.83,424.242Zm0-.818a1.81,1.81,0,0,0,1.17-.359,2.068,2.068,0,0,0,.656-1.006,4.867,4.867,0,0,0,.21-1.5v-.115a4.745,4.745,0,0,0-.212-1.49,2.092,2.092,0,0,0-.661-1,1.8,1.8,0,0,0-1.163-.362,1.713,1.713,0,0,0-1.108.364,2.236,2.236,0,0,0-.689,1.006,4.31,4.31,0,0,0-.235,1.485v.115a4.37,4.37,0,0,0,.235,1.495,2.218,2.218,0,0,0,.689,1.008A1.721,1.721,0,0,0,336.83,423.423Z" transform="translate(-333.662 -416.617)" fill="#1a1818"/>
          <path id="Path_12" data-name="Path 12" d="M336.479,424.039a3.029,3.029,0,0,1-1.327-.284,2.861,2.861,0,0,1-1-.8,3.667,3.667,0,0,1-.625-1.214,5.215,5.215,0,0,1-.214-1.531v-.1a5.222,5.222,0,0,1,.214-1.529,3.675,3.675,0,0,1,.625-1.219,2.847,2.847,0,0,1,1-.805,3.029,3.029,0,0,1,1.327-.284,3.161,3.161,0,0,1,1.372.284,2.75,2.75,0,0,1,1,.807,3.614,3.614,0,0,1,.6,1.22,5.534,5.534,0,0,1,.2,1.526v.1a5.527,5.527,0,0,1-.2,1.529,3.6,3.6,0,0,1-.6,1.215,2.767,2.767,0,0,1-1,.8A3.161,3.161,0,0,1,336.479,424.039Zm0-7.476a2.738,2.738,0,0,0-1.2.254,2.55,2.55,0,0,0-.9.722,3.381,3.381,0,0,0-.573,1.121,4.922,4.922,0,0,0-.2,1.441v.1a4.917,4.917,0,0,0,.2,1.444,3.363,3.363,0,0,0,.573,1.116,2.572,2.572,0,0,0,.9.72,2.739,2.739,0,0,0,1.2.254,2.865,2.865,0,0,0,1.243-.255,2.468,2.468,0,0,0,.892-.718,3.3,3.3,0,0,0,.551-1.115,5.231,5.231,0,0,0,.189-1.446v-.1a5.237,5.237,0,0,0-.189-1.444,3.323,3.323,0,0,0-.551-1.12,2.455,2.455,0,0,0-.892-.721A2.865,2.865,0,0,0,336.479,416.563Zm0,6.658a1.872,1.872,0,0,1-1.2-.394,2.372,2.372,0,0,1-.736-1.073,4.541,4.541,0,0,1-.243-1.545v-.115a4.476,4.476,0,0,1,.244-1.536,2.391,2.391,0,0,1,.735-1.071,1.865,1.865,0,0,1,1.2-.4,1.946,1.946,0,0,1,1.256.394,2.25,2.25,0,0,1,.709,1.072,4.918,4.918,0,0,1,.22,1.537v.115a5.037,5.037,0,0,1-.217,1.546,2.224,2.224,0,0,1-.7,1.076A1.964,1.964,0,0,1,336.479,423.221Zm0-5.834a1.577,1.577,0,0,0-1.015.331,2.1,2.1,0,0,0-.642.941,4.185,4.185,0,0,0-.226,1.434v.115a4.246,4.246,0,0,0,.226,1.444,2.084,2.084,0,0,0,.642.943,1.585,1.585,0,0,0,1.015.329,1.675,1.675,0,0,0,1.077-.327,1.931,1.931,0,0,0,.608-.935,4.737,4.737,0,0,0,.2-1.454v-.115a4.629,4.629,0,0,0-.2-1.443,1.956,1.956,0,0,0-.614-.934A1.658,1.658,0,0,0,336.479,417.387Z" transform="translate(-333.311 -416.266)" fill="#1a1818"/>
        </g>
        <g id="Group_7" data-name="Group 7" transform="translate(48.078 0)">
          <path id="Path_13" data-name="Path 13" d="M361.733,424.242a3.262,3.262,0,0,1-1.824-.479,2.951,2.951,0,0,1-1.1-1.313,4.649,4.649,0,0,1-.367-1.891v-.1a4.479,4.479,0,0,1,.384-1.9,3.1,3.1,0,0,1,1.1-1.31,3.024,3.024,0,0,1,1.717-.479,3.636,3.636,0,0,1,1.288.219,3.094,3.094,0,0,1,.968.559v1.567h-.784l-.1-1.148a1.548,1.548,0,0,0-.367-.21,2.236,2.236,0,0,0-.459-.13,3.131,3.131,0,0,0-.546-.045,1.967,1.967,0,0,0-1.207.367,2.255,2.255,0,0,0-.749,1.011,4.024,4.024,0,0,0-.254,1.487v.115a4.013,4.013,0,0,0,.272,1.559,2.116,2.116,0,0,0,.793.986,2.276,2.276,0,0,0,1.27.339,2.761,2.761,0,0,0,.684-.085,2,2,0,0,0,.554-.219l.11-1.013h.768V423.7a3.409,3.409,0,0,1-.978.4A4.82,4.82,0,0,1,361.733,424.242Z" transform="translate(-358.295 -416.617)" fill="#1a1818"/>
          <path id="Path_14" data-name="Path 14" d="M361.381,424.039a3.42,3.42,0,0,1-1.905-.5,3.116,3.116,0,0,1-1.152-1.377,4.818,4.818,0,0,1-.379-1.951v-.1a4.641,4.641,0,0,1,.4-1.962,3.261,3.261,0,0,1,1.155-1.371,3.183,3.183,0,0,1,1.8-.5,3.79,3.79,0,0,1,1.34.229,3.264,3.264,0,0,1,1.015.587l.05.044v1.783h-1.068l-.111-1.217a1.442,1.442,0,0,0-.282-.152,2.072,2.072,0,0,0-.429-.121,2.968,2.968,0,0,0-.521-.043,1.831,1.831,0,0,0-1.119.338,2.118,2.118,0,0,0-.7.946,3.9,3.9,0,0,0-.244,1.433v.115a3.88,3.88,0,0,0,.26,1.5,1.975,1.975,0,0,0,.738.919,2.142,2.142,0,0,0,1.189.315,2.633,2.633,0,0,0,.647-.08,2.012,2.012,0,0,0,.451-.167l.116-1.07h1.051v1.808l-.07.044a3.564,3.564,0,0,1-1.02.415A4.991,4.991,0,0,1,361.381,424.039Zm-.085-7.476a2.891,2.891,0,0,0-1.634.454,2.971,2.971,0,0,0-1.051,1.249,4.35,4.35,0,0,0-.37,1.837v.1a4.529,4.529,0,0,0,.354,1.832,2.826,2.826,0,0,0,1.044,1.248,3.132,3.132,0,0,0,1.742.455,4.679,4.679,0,0,0,1.137-.138,3.359,3.359,0,0,0,.866-.337v-1.344H362.9l-.1.953-.062.038a2.167,2.167,0,0,1-.6.237,2.938,2.938,0,0,1-.72.089,2.434,2.434,0,0,1-1.351-.364,2.274,2.274,0,0,1-.849-1.052,4.179,4.179,0,0,1-.284-1.617v-.115a4.193,4.193,0,0,1,.265-1.542,2.408,2.408,0,0,1,.8-1.075,2.12,2.12,0,0,1,1.3-.4,3.3,3.3,0,0,1,.573.047,2.426,2.426,0,0,1,.49.139,1.709,1.709,0,0,1,.4.23l.051.04.1,1.077h.5v-1.35a3.028,3.028,0,0,0-.872-.488A3.5,3.5,0,0,0,361.3,416.563Z" transform="translate(-357.944 -416.266)" fill="#1a1818"/>
        </g>
        <g id="Group_8" data-name="Group 8" transform="translate(54.776 0.105)">
          <path id="Path_15" data-name="Path 15" d="M380.977,424.385v-.629l.814-.14v-5.724l-.814-.14v-.634h2.61v.634l-.813.14v5.724l.813.14v.629Z" transform="translate(-380.828 -416.969)" fill="#1a1818"/>
          <path id="Path_16" data-name="Path 16" d="M383.384,424.182h-2.907v-.9l.814-.14v-5.474l-.814-.14v-.908h2.907v.908l-.813.14v5.474l.813.14Zm-2.61-.3h2.313v-.355l-.813-.14v-5.974l.813-.14v-.36h-2.313v.36l.814.14v5.974l-.814.14Z" transform="translate(-380.477 -416.618)" fill="#1a1818"/>
        </g>
        <g id="Group_9" data-name="Group 9" transform="translate(58.45 0.105)">
          <path id="Path_17" data-name="Path 17" d="M393.337,424.385v-.629l.814-.14v-5.724l-.814-.14v-.634h5.38v1.747h-.788l-.11-.988h-2.685v2.366h2.68v.773h-2.68v2.63h2.845l.11-1h.784v1.742Z" transform="translate(-393.188 -416.969)" fill="#1a1818"/>
          <path id="Path_18" data-name="Path 18" d="M398.669,424.182h-5.832v-.9l.814-.14v-5.474l-.814-.14v-.908h5.677v2.044h-1.07l-.11-.988h-2.4v2.068h2.68v1.071h-2.68v2.333h2.563l.11-1h1.065Zm-5.535-.3h5.237V422.44h-.5l-.11,1h-3.126v-2.927h2.68v-.476h-2.68v-2.663H397.6l.11.988h.507v-1.449h-5.083v.36l.814.14v5.974l-.814.14Z" transform="translate(-392.837 -416.618)" fill="#1a1818"/>
        </g>
        <g id="Group_10" data-name="Group 10" transform="translate(65.398 0.105)">
          <path id="Path_19" data-name="Path 19" d="M418.427,424.385v-.629l.814-.14v-5.754h-1.647l-.145,1.008h-.739v-1.752h6.039v1.752h-.729l-.15-1.008h-1.647v5.754l.814.14v.629Z" transform="translate(-416.561 -416.969)" fill="#1a1818"/>
          <path id="Path_20" data-name="Path 20" d="M420.834,424.182h-2.907v-.9l.814-.14v-5.48h-1.37l-.145,1.008H416.21v-2.049h6.336v2.049h-1.005l-.15-1.008h-1.37v5.48l.814.14Zm-2.61-.3h2.313v-.355l-.814-.14v-6.028h1.924l.15,1.008h.452v-1.455h-5.742v1.455h.461l.145-1.008h1.924v6.028l-.814.14Z" transform="translate(-416.21 -416.618)" fill="#1a1818"/>
        </g>
        <g id="Group_11" data-name="Group 11" transform="translate(72.596 0.105)">
          <path id="Path_21" data-name="Path 21" d="M442.944,424.385v-.629l.813-.14v-1.877l-2.236-3.893-.6-.095v-.634h2.505v.634l-.828.095,1.542,2.855.1.194.005-.01.1-.185,1.617-2.855-.859-.095v-.634h2.456v.634l-.634.095-2.2,3.818v1.951l.813.14v.629Z" transform="translate(-440.774 -416.969)" fill="#1a1818"/>
          <path id="Path_22" data-name="Path 22" d="M445.347,424.182h-2.9v-.9l.813-.14v-1.712l-2.181-3.8-.654-.1v-.909h2.8v.915l-.742.085,1.412,2.615,1.481-2.614-.767-.085v-.916h2.753v.91l-.689.1-2.14,3.721v1.786l.813.14Zm-2.6-.3h2.308v-.355l-.813-.14v-2.116l2.251-3.915.578-.086v-.357h-2.158v.352l.95.1-1.957,3.476-.24-.428-1.647-3.048.915-.1v-.353H440.72v.358l.544.086,2.291,3.988v2.041l-.813.14Z" transform="translate(-440.423 -416.618)" fill="#1a1818"/>
        </g>
        <g id="Group_12" data-name="Group 12" transform="translate(82.963 0)">
          <path id="Path_23" data-name="Path 23" d="M478.819,424.242a2.873,2.873,0,0,1-1.263-.269,2.7,2.7,0,0,1-.95-.761,3.5,3.5,0,0,1-.6-1.165,5.038,5.038,0,0,1-.207-1.487v-.1a5.044,5.044,0,0,1,.207-1.485,3.521,3.521,0,0,1,.6-1.17,2.688,2.688,0,0,1,.95-.764,2.869,2.869,0,0,1,1.263-.269,3,3,0,0,1,1.307.269,2.589,2.589,0,0,1,.946.764,3.463,3.463,0,0,1,.577,1.17,5.37,5.37,0,0,1,.194,1.485v.1a5.363,5.363,0,0,1-.194,1.487,3.437,3.437,0,0,1-.577,1.165,2.6,2.6,0,0,1-.946.761A3,3,0,0,1,478.819,424.242Zm0-.818a1.811,1.811,0,0,0,1.171-.359,2.072,2.072,0,0,0,.656-1.006,4.867,4.867,0,0,0,.21-1.5v-.115a4.763,4.763,0,0,0-.212-1.49,2.1,2.1,0,0,0-.661-1,1.8,1.8,0,0,0-1.163-.362,1.712,1.712,0,0,0-1.108.364,2.234,2.234,0,0,0-.689,1.006,4.311,4.311,0,0,0-.235,1.485v.115a4.371,4.371,0,0,0,.235,1.495,2.216,2.216,0,0,0,.689,1.008A1.721,1.721,0,0,0,478.819,423.423Z" transform="translate(-475.651 -416.617)" fill="#1a1818"/>
          <path id="Path_24" data-name="Path 24" d="M478.468,424.039a3.029,3.029,0,0,1-1.327-.284,2.861,2.861,0,0,1-1-.8,3.662,3.662,0,0,1-.625-1.214,5.2,5.2,0,0,1-.214-1.531v-.1a5.219,5.219,0,0,1,.213-1.529,3.675,3.675,0,0,1,.625-1.219,2.846,2.846,0,0,1,1-.805,3.029,3.029,0,0,1,1.327-.284,3.16,3.16,0,0,1,1.372.284,2.749,2.749,0,0,1,1,.807,3.625,3.625,0,0,1,.6,1.22,5.541,5.541,0,0,1,.2,1.526v.1a5.533,5.533,0,0,1-.2,1.529,3.611,3.611,0,0,1-.6,1.215,2.771,2.771,0,0,1-1,.8A3.16,3.16,0,0,1,478.468,424.039Zm0-7.476a2.739,2.739,0,0,0-1.2.254,2.553,2.553,0,0,0-.9.722,3.383,3.383,0,0,0-.573,1.121,4.91,4.91,0,0,0-.2,1.441v.1a4.916,4.916,0,0,0,.2,1.444,3.37,3.37,0,0,0,.573,1.116,2.57,2.57,0,0,0,.9.72,2.739,2.739,0,0,0,1.2.254,2.867,2.867,0,0,0,1.243-.255,2.471,2.471,0,0,0,.893-.718,3.312,3.312,0,0,0,.551-1.115,5.239,5.239,0,0,0,.189-1.446v-.1a5.247,5.247,0,0,0-.189-1.444,3.333,3.333,0,0,0-.551-1.12,2.457,2.457,0,0,0-.892-.721A2.867,2.867,0,0,0,478.468,416.563Zm0,6.658a1.872,1.872,0,0,1-1.2-.394,2.371,2.371,0,0,1-.736-1.073,4.533,4.533,0,0,1-.243-1.545v-.115a4.476,4.476,0,0,1,.243-1.536,2.391,2.391,0,0,1,.736-1.071,1.865,1.865,0,0,1,1.2-.4,1.948,1.948,0,0,1,1.256.394,2.249,2.249,0,0,1,.709,1.072,4.917,4.917,0,0,1,.22,1.537v.115a5.023,5.023,0,0,1-.217,1.546,2.229,2.229,0,0,1-.7,1.076A1.964,1.964,0,0,1,478.468,423.221Zm0-5.834a1.556,1.556,0,0,0-1.015.331,2.1,2.1,0,0,0-.642.941,4.179,4.179,0,0,0-.226,1.434v.115a4.24,4.24,0,0,0,.226,1.444,2.083,2.083,0,0,0,.642.943,1.583,1.583,0,0,0,1.015.33,1.675,1.675,0,0,0,1.077-.327,1.936,1.936,0,0,0,.608-.935,4.735,4.735,0,0,0,.2-1.454v-.115a4.638,4.638,0,0,0-.2-1.444,1.963,1.963,0,0,0-.613-.933A1.66,1.66,0,0,0,478.468,417.387Z" transform="translate(-475.3 -416.266)" fill="#1a1818"/>
        </g>
        <g id="Group_13" data-name="Group 13" transform="translate(90.016 0.105)">
          <path id="Path_25" data-name="Path 25" d="M499.525,424.385v-.629l.814-.14v-5.724l-.814-.14v-.634h5.465v1.747H504.2l-.11-.983h-2.77V420.4h2.66v.774h-2.66v2.445l.814.14v.629Z" transform="translate(-499.376 -416.969)" fill="#1a1818"/>
          <path id="Path_26" data-name="Path 26" d="M501.933,424.182h-2.908v-.9l.814-.14v-5.474l-.814-.14v-.908h5.762v2.044h-1.07l-.11-.983h-2.488V419.9h2.66v1.071h-2.66v2.172l.814.14Zm-2.61-.3h2.313v-.355l-.814-.14v-2.719h2.66v-.477h-2.66v-2.812h3.051l.11.983h.507v-1.449h-5.168v.36l.814.14v5.974l-.814.14Z" transform="translate(-499.025 -416.618)" fill="#1a1818"/>
        </g>
        <g id="Group_14" data-name="Group 14" transform="translate(99.336 0.105)">
          <path id="Path_27" data-name="Path 27" d="M530.877,424.385v-.629l.813-.14v-5.724l-.813-.14v-.634h5.38v1.747h-.789l-.11-.988h-2.685v2.366h2.68v.773h-2.68v2.63h2.845l.11-1h.784v1.742Z" transform="translate(-530.728 -416.969)" fill="#1a1818"/>
          <path id="Path_28" data-name="Path 28" d="M536.209,424.182h-5.832v-.9l.813-.14v-5.474l-.813-.14v-.908h5.677v2.044h-1.07l-.11-.988h-2.4v2.068h2.68v1.071h-2.68v2.333h2.563l.11-1h1.065Zm-5.534-.3h5.237V422.44h-.5l-.11,1h-3.127v-2.927h2.68v-.476h-2.68v-2.663h2.967l.11.988h.507v-1.449h-5.083v.36l.813.14v5.974l-.813.14Z" transform="translate(-530.377 -416.618)" fill="#1a1818"/>
        </g>
        <g id="Group_15" data-name="Group 15" transform="translate(106.284 0.105)">
          <path id="Path_29" data-name="Path 29" d="M555.967,424.385v-.629l.814-.14v-5.754h-1.647l-.145,1.008h-.738v-1.752h6.039v1.752h-.729l-.15-1.008h-1.647v5.754l.814.14v.629Z" transform="translate(-554.101 -416.969)" fill="#1a1818"/>
          <path id="Path_30" data-name="Path 30" d="M558.374,424.182h-2.908v-.9l.814-.14v-5.48h-1.37l-.145,1.008H553.75v-2.049h6.336v2.049h-1.005l-.15-1.008h-1.37v5.48l.814.14Zm-2.61-.3h2.313v-.355l-.814-.14v-6.028h1.924l.15,1.008h.452v-1.455h-5.741v1.455h.461l.145-1.008h1.924v6.028l-.814.14Z" transform="translate(-553.75 -416.618)" fill="#1a1818"/>
        </g>
        <g id="Group_16" data-name="Group 16" transform="translate(113.482 0.105)">
          <path id="Path_31" data-name="Path 31" d="M578.463,424.385v-.629l.813-.14v-5.724l-.813-.14v-.634h2.61v.634l-.813.14v2.51h3.474v-2.51l-.813-.14v-.634h2.61v.634l-.814.14v5.724l.814.14v.629h-2.61v-.629l.813-.14v-2.44h-3.474v2.44l.813.14v.629Z" transform="translate(-578.314 -416.969)" fill="#1a1818"/>
          <path id="Path_32" data-name="Path 32" d="M585.327,424.182H582.42v-.9l.813-.14v-2.166h-3.176v2.166l.813.14v.9h-2.907v-.9l.813-.14v-5.474l-.813-.14v-.908h2.907v.908l-.813.14V419.9h3.176v-2.236l-.813-.14v-.908h2.907v.908l-.814.14v5.474l.814.14Zm-2.61-.3h2.313v-.355l-.814-.14v-5.974l.814-.14v-.36h-2.313v.36l.813.14V420.2h-3.771v-2.784l.813-.14v-.36H578.26v.36l.813.14v5.974l-.813.14v.355h2.312v-.355l-.813-.14v-2.714h3.771v2.714l-.813.14Z" transform="translate(-577.963 -416.618)" fill="#1a1818"/>
        </g>
        <g id="Group_17" data-name="Group 17" transform="translate(121.612 0.105)">
          <path id="Path_33" data-name="Path 33" d="M605.814,424.385v-.629l.814-.14v-5.724l-.814-.14v-.634h2.611v.634l-.814.14v5.724l.814.14v.629Z" transform="translate(-605.665 -416.969)" fill="#1a1818"/>
          <path id="Path_34" data-name="Path 34" d="M608.222,424.182h-2.908v-.9l.814-.14v-5.474l-.814-.14v-.908h2.908v.908l-.814.14v5.474l.814.14Zm-2.611-.3h2.313v-.355l-.814-.14v-5.974l.814-.14v-.36h-2.313v.36l.814.14v5.974l-.814.14Z" transform="translate(-605.314 -416.618)" fill="#1a1818"/>
        </g>
        <g id="Group_18" data-name="Group 18" transform="translate(125.231 0)">
          <path id="Path_35" data-name="Path 35" d="M621.009,424.242a2.871,2.871,0,0,1-1.263-.269,2.708,2.708,0,0,1-.951-.761,3.484,3.484,0,0,1-.6-1.165,5.039,5.039,0,0,1-.207-1.487v-.1a5.045,5.045,0,0,1,.207-1.485,3.51,3.51,0,0,1,.6-1.17,2.694,2.694,0,0,1,.951-.764,2.867,2.867,0,0,1,1.263-.269,3,3,0,0,1,1.308.269,2.587,2.587,0,0,1,.946.764,3.456,3.456,0,0,1,.576,1.17,5.348,5.348,0,0,1,.194,1.485v.1a5.342,5.342,0,0,1-.194,1.487,3.431,3.431,0,0,1-.576,1.165,2.6,2.6,0,0,1-.946.761A3,3,0,0,1,621.009,424.242Zm0-.818a1.811,1.811,0,0,0,1.171-.359,2.068,2.068,0,0,0,.656-1.006,4.861,4.861,0,0,0,.21-1.5v-.115a4.748,4.748,0,0,0-.212-1.49,2.093,2.093,0,0,0-.661-1,1.8,1.8,0,0,0-1.163-.362,1.712,1.712,0,0,0-1.108.364,2.231,2.231,0,0,0-.688,1.006,4.3,4.3,0,0,0-.235,1.485v.115a4.355,4.355,0,0,0,.235,1.495,2.213,2.213,0,0,0,.688,1.008A1.721,1.721,0,0,0,621.009,423.423Z" transform="translate(-617.841 -416.617)" fill="#1a1818"/>
          <path id="Path_36" data-name="Path 36" d="M620.658,424.039a3.025,3.025,0,0,1-1.327-.284,2.858,2.858,0,0,1-1-.8,3.65,3.65,0,0,1-.625-1.214,5.2,5.2,0,0,1-.214-1.531v-.1a5.218,5.218,0,0,1,.213-1.529,3.675,3.675,0,0,1,.625-1.219,2.845,2.845,0,0,1,1-.805,3.024,3.024,0,0,1,1.327-.284,3.158,3.158,0,0,1,1.372.284,2.74,2.74,0,0,1,1,.807,3.609,3.609,0,0,1,.6,1.22,5.522,5.522,0,0,1,.2,1.526v.1a5.515,5.515,0,0,1-.2,1.529,3.59,3.59,0,0,1-.6,1.215,2.76,2.76,0,0,1-1,.8A3.158,3.158,0,0,1,620.658,424.039Zm0-7.476a2.737,2.737,0,0,0-1.2.254,2.557,2.557,0,0,0-.9.722,3.38,3.38,0,0,0-.573,1.121,4.92,4.92,0,0,0-.2,1.441v.1a4.925,4.925,0,0,0,.2,1.444,3.362,3.362,0,0,0,.573,1.116,2.574,2.574,0,0,0,.9.72,2.738,2.738,0,0,0,1.2.254,2.864,2.864,0,0,0,1.243-.255,2.46,2.46,0,0,0,.892-.718,3.291,3.291,0,0,0,.551-1.115,5.238,5.238,0,0,0,.188-1.446v-.1a5.243,5.243,0,0,0-.188-1.444,3.317,3.317,0,0,0-.551-1.12,2.45,2.45,0,0,0-.892-.721A2.864,2.864,0,0,0,620.658,416.563Zm0,6.658a1.872,1.872,0,0,1-1.2-.394,2.369,2.369,0,0,1-.735-1.074,4.525,4.525,0,0,1-.244-1.545v-.115a4.467,4.467,0,0,1,.244-1.536,2.39,2.39,0,0,1,.735-1.071,1.865,1.865,0,0,1,1.2-.4,1.948,1.948,0,0,1,1.256.394,2.25,2.25,0,0,1,.709,1.072,4.915,4.915,0,0,1,.219,1.537v.115a5.033,5.033,0,0,1-.217,1.546,2.223,2.223,0,0,1-.7,1.076A1.963,1.963,0,0,1,620.658,423.221Zm0-5.834a1.575,1.575,0,0,0-1.015.331,2.1,2.1,0,0,0-.642.941,4.173,4.173,0,0,0-.226,1.434v.115a4.232,4.232,0,0,0,.226,1.444,2.084,2.084,0,0,0,.641.943,1.586,1.586,0,0,0,1.015.329,1.676,1.676,0,0,0,1.078-.327,1.93,1.93,0,0,0,.608-.935,4.726,4.726,0,0,0,.2-1.454v-.115a4.629,4.629,0,0,0-.2-1.443,1.96,1.96,0,0,0-.614-.934A1.659,1.659,0,0,0,620.658,417.387Z" transform="translate(-617.49 -416.266)" fill="#1a1818"/>
        </g>
        <g id="Group_19" data-name="Group 19" transform="translate(132.284 0.105)">
          <path id="Path_37" data-name="Path 37" d="M641.716,424.385v-.629l.814-.14v-5.724l-.814-.14v-.634h3.339a2.966,2.966,0,0,1,1.328.272,1.956,1.956,0,0,1,.839.761,2.412,2.412,0,0,1,0,2.291,1.942,1.942,0,0,1-.839.759,2.99,2.99,0,0,1-1.328.269h-1.542v2.146l.813.14v.629Zm1.8-3.683h1.542a1.433,1.433,0,0,0,1.106-.4,1.418,1.418,0,0,0,.367-1,1.445,1.445,0,0,0-.367-1.008,1.419,1.419,0,0,0-1.106-.4h-1.542Z" transform="translate(-641.567 -416.969)" fill="#1a1818"/>
          <path id="Path_38" data-name="Path 38" d="M644.123,424.182h-2.907v-.9l.814-.14v-5.474l-.814-.14v-.908H644.7a3.121,3.121,0,0,1,1.394.287,2.11,2.11,0,0,1,.9.819,2.561,2.561,0,0,1,0,2.442,2.1,2.1,0,0,1-.9.816,3.151,3.151,0,0,1-1.393.284H643.31v1.872l.813.14Zm-2.61-.3h2.313v-.355l-.813-.14V420.97H644.7a2.853,2.853,0,0,0,1.262-.254,1.8,1.8,0,0,0,.777-.7,2.266,2.266,0,0,0,0-2.139,1.819,1.819,0,0,0-.777-.7,2.833,2.833,0,0,0-1.262-.257h-3.19v.36l.814.14v5.974l-.814.14Zm3.19-3.386h-1.691v-3.107H644.7a1.565,1.565,0,0,1,1.215.453,1.6,1.6,0,0,1,.406,1.108A1.47,1.47,0,0,1,644.7,420.5Zm-1.393-.3H644.7a1.3,1.3,0,0,0,1-.349,1.263,1.263,0,0,0,.327-.9,1.186,1.186,0,0,0-1.324-1.264H643.31Z" transform="translate(-641.216 -416.618)" fill="#1a1818"/>
        </g>
        <g id="Group_20" data-name="Group 20" transform="translate(139.013 0.105)">
          <path id="Path_39" data-name="Path 39" d="M664.35,424.385v-.629l.814-.14v-5.724l-.814-.14v-.634h2.61v.634l-.813.14v5.724l.813.14v.629Z" transform="translate(-664.201 -416.969)" fill="#1a1818"/>
          <path id="Path_40" data-name="Path 40" d="M666.758,424.182H663.85v-.9l.814-.14v-5.474l-.814-.14v-.908h2.908v.908l-.813.14v5.474l.813.14Zm-2.61-.3h2.313v-.355l-.813-.14v-5.974l.813-.14v-.36h-2.313v.36l.814.14v5.974l-.814.14Z" transform="translate(-663.85 -416.618)" fill="#1a1818"/>
        </g>
        <g id="Group_21" data-name="Group 21" transform="translate(142.632 0.105)">
          <path id="Path_41" data-name="Path 41" d="M676.525,424.385v-.629l.539-.075,2.54-6.563h.843l2.5,6.563.534.075v.629h-2.086v-.629l.549-.095-.479-1.337h-2.909l-.494,1.337.549.095v.629Zm2.331-2.885h2.306l-1.068-2.954-.06-.165H680l-.06.165Z" transform="translate(-676.376 -416.969)" fill="#1a1818"/>
          <path id="Path_42" data-name="Path 42" d="M683.274,424.182h-2.383v-.9l.5-.086L681,422.121h-2.7l-.4,1.073.5.086v.9h-2.378v-.907l.581-.081,2.545-6.576H680.2l2.5,6.576.575.081Zm-2.086-.3h1.789v-.351l-.493-.069-2.49-6.549h-.639l-2.535,6.549-.5.069v.351h1.784v-.355l-.6-.1.592-1.6h3.117l.574,1.6-.6.1Zm-.167-2.588h-2.731l1.257-3.416h.239Zm-2.3-.3H680.6l-.932-2.577Z" transform="translate(-676.025 -416.618)" fill="#1a1818"/>
        </g>
      </g>
      <g id="Group_39" data-name="Group 39" transform="translate(40.659 11.336)">
        <g id="Group_23" data-name="Group 23" transform="translate(0 1.243)">
          <path id="Path_43" data-name="Path 43" d="M277.809,458.583l-1.079,3.427h-.271l-1.092-3.035-1.1,3.035H274l-1.079-3.427h.3l.921,3.1,1.1-3.1h.271l1.092,3.092.922-3.092Z" transform="translate(-272.918 -458.583)" fill="#1a1718"/>
        </g>
        <g id="Group_24" data-name="Group 24" transform="translate(7.863 1.199)">
          <path id="Path_44" data-name="Path 44" d="M302.618,460.3h-2.96a1.566,1.566,0,0,0,.2.776,1.222,1.222,0,0,0,.5.474,1.465,1.465,0,0,0,.675.158,1.392,1.392,0,0,0,.846-.249,1.078,1.078,0,0,0,.429-.678h.3a1.37,1.37,0,0,1-.517.849,1.663,1.663,0,0,1-1.054.325,1.71,1.71,0,0,1-.858-.214,1.506,1.506,0,0,1-.593-.616,2.161,2.161,0,0,1,0-1.871,1.471,1.471,0,0,1,.59-.609,1.742,1.742,0,0,1,.864-.211,1.669,1.669,0,0,1,.855.211,1.43,1.43,0,0,1,.552.562,1.56,1.56,0,0,1,.189.754Q302.63,460.189,302.618,460.3Zm-.433-1a1.142,1.142,0,0,0-.489-.47,1.474,1.474,0,0,0-.669-.155,1.457,1.457,0,0,0-.666.155,1.226,1.226,0,0,0-.5.47,1.535,1.535,0,0,0-.205.77h2.688A1.41,1.41,0,0,0,302.185,459.3Z" transform="translate(-299.368 -458.435)" fill="#1a1718"/>
        </g>
        <g id="Group_25" data-name="Group 25" transform="translate(18.811 1.199)">
          <path id="Path_45" data-name="Path 45" d="M337.01,458.7a1.582,1.582,0,0,1,.924-.265,1.7,1.7,0,0,1,.855.214,1.5,1.5,0,0,1,.587.612,1.947,1.947,0,0,1,.211.927,1.968,1.968,0,0,1-.211.931,1.518,1.518,0,0,1-.587.618,1.676,1.676,0,0,1-.855.218,1.557,1.557,0,0,1-.918-.268,1.419,1.419,0,0,1-.533-.678v2.512H336.2v-5.042h.284v.9A1.363,1.363,0,0,1,337.01,458.7Zm2.111.682a1.233,1.233,0,0,0-.5-.521,1.471,1.471,0,0,0-.735-.18,1.413,1.413,0,0,0-.719.186,1.308,1.308,0,0,0-.5.53,1.818,1.818,0,0,0,0,1.59,1.305,1.305,0,0,0,.5.53,1.41,1.41,0,0,0,.719.186,1.448,1.448,0,0,0,.735-.183,1.257,1.257,0,0,0,.5-.523,1.936,1.936,0,0,0,0-1.616Z" transform="translate(-336.199 -458.435)" fill="#1a1718"/>
        </g>
        <g id="Group_26" data-name="Group 26" transform="translate(25.582 1.174)">
          <path id="Path_46" data-name="Path 46" d="M359.709,458.549a1.538,1.538,0,0,1,.82-.2v.3h-.094a1.243,1.243,0,0,0-.839.287,1.174,1.174,0,0,0-.335.937v1.975h-.284v-3.427h.284v.707A1.042,1.042,0,0,1,359.709,458.549Z" transform="translate(-358.977 -458.35)" fill="#1a1718"/>
        </g>
        <g id="Group_27" data-name="Group 27" transform="translate(30.139 1.199)">
          <path id="Path_47" data-name="Path 47" d="M377.554,460.3h-2.96a1.569,1.569,0,0,0,.2.776,1.225,1.225,0,0,0,.5.474,1.467,1.467,0,0,0,.675.158,1.391,1.391,0,0,0,.845-.249,1.077,1.077,0,0,0,.429-.678h.3a1.372,1.372,0,0,1-.518.849,1.661,1.661,0,0,1-1.054.325,1.71,1.71,0,0,1-.858-.214,1.507,1.507,0,0,1-.593-.616,2.162,2.162,0,0,1,0-1.871,1.469,1.469,0,0,1,.59-.609,1.742,1.742,0,0,1,.864-.211,1.668,1.668,0,0,1,.855.211,1.431,1.431,0,0,1,.552.562,1.563,1.563,0,0,1,.189.754A3.391,3.391,0,0,1,377.554,460.3Zm-.432-1a1.145,1.145,0,0,0-.489-.47,1.476,1.476,0,0,0-.669-.155,1.455,1.455,0,0,0-.666.155,1.226,1.226,0,0,0-.5.47,1.535,1.535,0,0,0-.205.77h2.688A1.407,1.407,0,0,0,377.121,459.3Z" transform="translate(-374.304 -458.435)" fill="#1a1718"/>
        </g>
        <g id="Group_28" data-name="Group 28" transform="translate(36.581 1.199)">
          <path id="Path_48" data-name="Path 48" d="M396.385,461.7a.938.938,0,0,1-.407-.719h.29a.7.7,0,0,0,.306.53,1.266,1.266,0,0,0,.748.2.919.919,0,0,0,.622-.2.621.621,0,0,0,.23-.489.463.463,0,0,0-.123-.332.816.816,0,0,0-.306-.2,5.009,5.009,0,0,0-.5-.151,4.946,4.946,0,0,1-.612-.2,1.031,1.031,0,0,1-.4-.294.786.786,0,0,1-.164-.523.753.753,0,0,1,.145-.445.991.991,0,0,1,.4-.325,1.379,1.379,0,0,1,.587-.12,1.336,1.336,0,0,1,.868.268.972.972,0,0,1,.356.741h-.284a.763.763,0,0,0-.265-.555,1,1,0,0,0-.681-.215.949.949,0,0,0-.606.189.569.569,0,0,0-.24.461.551.551,0,0,0,.136.388.888.888,0,0,0,.334.227,5.038,5.038,0,0,0,.527.167,4.384,4.384,0,0,1,.577.186.993.993,0,0,1,.37.265.682.682,0,0,1,.151.464.838.838,0,0,1-.145.479.966.966,0,0,1-.4.334,1.364,1.364,0,0,1-.581.12A1.605,1.605,0,0,1,396.385,461.7Z" transform="translate(-395.978 -458.435)" fill="#1a1718"/>
        </g>
        <g id="Group_29" data-name="Group 29" transform="translate(42.267 1.199)">
          <path id="Path_49" data-name="Path 49" d="M418.354,460.3h-2.96a1.563,1.563,0,0,0,.2.776,1.222,1.222,0,0,0,.5.474,1.465,1.465,0,0,0,.675.158,1.392,1.392,0,0,0,.846-.249,1.079,1.079,0,0,0,.429-.678h.3a1.372,1.372,0,0,1-.517.849,1.663,1.663,0,0,1-1.054.325,1.71,1.71,0,0,1-.858-.214,1.506,1.506,0,0,1-.593-.616,2.161,2.161,0,0,1,0-1.871,1.471,1.471,0,0,1,.59-.609,1.742,1.742,0,0,1,.864-.211,1.667,1.667,0,0,1,.855.211,1.427,1.427,0,0,1,.552.562,1.557,1.557,0,0,1,.189.754Q418.366,460.189,418.354,460.3Zm-.433-1a1.143,1.143,0,0,0-.489-.47,1.474,1.474,0,0,0-.669-.155,1.456,1.456,0,0,0-.666.155,1.226,1.226,0,0,0-.5.47,1.528,1.528,0,0,0-.205.77h2.688A1.407,1.407,0,0,0,417.922,459.3Z" transform="translate(-415.104 -458.435)" fill="#1a1718"/>
        </g>
        <g id="Group_30" data-name="Group 30" transform="translate(48.912 1.174)">
          <path id="Path_50" data-name="Path 50" d="M438.189,458.549a1.539,1.539,0,0,1,.82-.2v.3h-.095a1.244,1.244,0,0,0-.839.287,1.174,1.174,0,0,0-.335.937v1.975h-.284v-3.427h.284v.707A1.041,1.041,0,0,1,438.189,458.549Z" transform="translate(-437.457 -458.35)" fill="#1a1718"/>
        </g>
        <g id="Group_31" data-name="Group 31" transform="translate(53.234 1.243)">
          <path id="Path_51" data-name="Path 51" d="M453.569,461.7l1.262-3.117h.3l-1.42,3.427h-.3L452,458.583h.309Z" transform="translate(-451.998 -458.583)" fill="#1a1718"/>
        </g>
        <g id="Group_32" data-name="Group 32" transform="translate(59.343 1.199)">
          <path id="Path_52" data-name="Path 52" d="M475.8,460.3h-2.96a1.57,1.57,0,0,0,.2.776,1.224,1.224,0,0,0,.5.474,1.465,1.465,0,0,0,.675.158,1.392,1.392,0,0,0,.846-.249,1.078,1.078,0,0,0,.429-.678h.3a1.37,1.37,0,0,1-.517.849,1.662,1.662,0,0,1-1.054.325,1.708,1.708,0,0,1-.858-.214,1.5,1.5,0,0,1-.593-.616,2.16,2.16,0,0,1,0-1.871,1.473,1.473,0,0,1,.59-.609,1.743,1.743,0,0,1,.864-.211,1.666,1.666,0,0,1,.855.211,1.428,1.428,0,0,1,.552.562,1.557,1.557,0,0,1,.189.754C475.809,460.113,475.805,460.227,475.8,460.3Zm-.432-1a1.143,1.143,0,0,0-.489-.47,1.476,1.476,0,0,0-.669-.155,1.455,1.455,0,0,0-.666.155,1.225,1.225,0,0,0-.5.47,1.535,1.535,0,0,0-.205.77h2.688A1.4,1.4,0,0,0,475.364,459.3Z" transform="translate(-472.547 -458.435)" fill="#1a1718"/>
        </g>
        <g id="Group_33" data-name="Group 33" transform="translate(70.292)">
          <path id="Path_53" data-name="Path 53" d="M509.663,454.4v4.67h-.284V454.4Z" transform="translate(-509.379 -454.401)" fill="#1a1718"/>
        </g>
        <g id="Group_34" data-name="Group 34" transform="translate(73.964 1.199)">
          <path id="Path_54" data-name="Path 54" d="M524.982,460.3h-2.96a1.567,1.567,0,0,0,.2.776,1.221,1.221,0,0,0,.5.474,1.467,1.467,0,0,0,.675.158,1.392,1.392,0,0,0,.846-.249,1.08,1.08,0,0,0,.429-.678h.3a1.373,1.373,0,0,1-.517.849,1.663,1.663,0,0,1-1.054.325,1.711,1.711,0,0,1-.858-.214,1.508,1.508,0,0,1-.593-.616,2.16,2.16,0,0,1,0-1.871,1.473,1.473,0,0,1,.59-.609,1.742,1.742,0,0,1,.865-.211,1.668,1.668,0,0,1,.855.211,1.429,1.429,0,0,1,.552.562,1.558,1.558,0,0,1,.189.754Q524.994,460.189,524.982,460.3Zm-.433-1a1.142,1.142,0,0,0-.489-.47,1.474,1.474,0,0,0-.669-.155,1.457,1.457,0,0,0-.666.155,1.227,1.227,0,0,0-.5.47,1.535,1.535,0,0,0-.205.77h2.688A1.407,1.407,0,0,0,524.55,459.3Z" transform="translate(-521.732 -458.435)" fill="#1a1718"/>
        </g>
        <g id="Group_35" data-name="Group 35" transform="translate(80.432 1.199)">
          <path id="Path_55" data-name="Path 55" d="M546.067,458.7a1.392,1.392,0,0,1,.53.672v-.89h.284v3.534a1.616,1.616,0,0,1-.208.83,1.433,1.433,0,0,1-.562.549,1.621,1.621,0,0,1-.789.193,1.76,1.76,0,0,1-1.066-.309,1.436,1.436,0,0,1-.556-.833h.284a1.208,1.208,0,0,0,.473.653,1.473,1.473,0,0,0,.864.243,1.318,1.318,0,0,0,.65-.161,1.166,1.166,0,0,0,.458-.461,1.423,1.423,0,0,0,.167-.7v-1a1.421,1.421,0,0,1-.533.678,1.558,1.558,0,0,1-.918.268,1.674,1.674,0,0,1-.855-.218,1.517,1.517,0,0,1-.587-.618,1.967,1.967,0,0,1-.211-.931,1.946,1.946,0,0,1,.211-.927,1.5,1.5,0,0,1,.587-.612,1.7,1.7,0,0,1,.855-.214A1.581,1.581,0,0,1,546.067,458.7Zm.344.7a1.333,1.333,0,0,0-.508-.53,1.414,1.414,0,0,0-.719-.186,1.453,1.453,0,0,0-.732.18,1.24,1.24,0,0,0-.493.521,1.939,1.939,0,0,0,0,1.616,1.258,1.258,0,0,0,.5.523,1.519,1.519,0,0,0,1.451,0,1.3,1.3,0,0,0,.508-.53,1.675,1.675,0,0,0,.183-.8A1.639,1.639,0,0,0,546.411,459.4Z" transform="translate(-543.492 -458.435)" fill="#1a1718"/>
        </g>
        <g id="Group_36" data-name="Group 36" transform="translate(87.203 1.199)">
          <path id="Path_56" data-name="Path 56" d="M566.481,459.262a1.5,1.5,0,0,1,.587-.612,1.7,1.7,0,0,1,.855-.214,1.567,1.567,0,0,1,.922.265,1.411,1.411,0,0,1,.53.675v-.9h.284v3.427h-.284V461a1.417,1.417,0,0,1-.533.685,1.558,1.558,0,0,1-.918.268,1.673,1.673,0,0,1-.855-.218,1.517,1.517,0,0,1-.587-.618,1.967,1.967,0,0,1-.211-.931A1.946,1.946,0,0,1,566.481,459.262Zm2.708.136a1.331,1.331,0,0,0-.508-.53,1.413,1.413,0,0,0-.719-.186,1.453,1.453,0,0,0-.732.18,1.236,1.236,0,0,0-.492.521,1.936,1.936,0,0,0,0,1.616,1.254,1.254,0,0,0,.5.523,1.519,1.519,0,0,0,1.451,0,1.3,1.3,0,0,0,.508-.53,1.675,1.675,0,0,0,.183-.8A1.639,1.639,0,0,0,569.189,459.4Z" transform="translate(-566.27 -458.435)" fill="#1a1718"/>
        </g>
        <g id="Group_37" data-name="Group 37" transform="translate(93.974 1.199)">
          <path id="Path_57" data-name="Path 57" d="M589.258,459.255a1.478,1.478,0,0,1,.587-.609,1.727,1.727,0,0,1,.862-.211,1.669,1.669,0,0,1,1.057.322,1.374,1.374,0,0,1,.514.864h-.3a1.069,1.069,0,0,0-.426-.694,1.393,1.393,0,0,0-.848-.253,1.427,1.427,0,0,0-.688.167,1.224,1.224,0,0,0-.5.511,1.976,1.976,0,0,0,0,1.675,1.248,1.248,0,0,0,.5.511,1.518,1.518,0,0,0,1.537-.082,1.069,1.069,0,0,0,.426-.694h.3a1.394,1.394,0,0,1-.517.865,1.653,1.653,0,0,1-1.054.328,1.707,1.707,0,0,1-.862-.214,1.493,1.493,0,0,1-.587-.616,2.176,2.176,0,0,1,0-1.871Z" transform="translate(-589.047 -458.435)" fill="#1a1718"/>
        </g>
        <g id="Group_38" data-name="Group 38" transform="translate(100.184 1.243)">
          <path id="Path_58" data-name="Path 58" d="M613.022,458.583l-1.994,5.036h-.29l.637-1.609-1.438-3.427h.309l1.287,3.111,1.2-3.111Z" transform="translate(-609.936 -458.583)" fill="#1a1718"/>
        </g>
      </g>
    </g>
    <g id="Group_397" data-name="Group 397" transform="translate(72.334 -2.809)">
      <g id="Group_1" data-name="Group 1">
        <path id="Path_1" data-name="Path 1" d="M205.251,436.178a8.468,8.468,0,0,1-4.736-1.244,7.67,7.67,0,0,1-2.851-3.409,12.084,12.084,0,0,1-.952-4.911v-.272a11.62,11.62,0,0,1,1-4.931,8.057,8.057,0,0,1,2.864-3.4,7.853,7.853,0,0,1,4.458-1.243,9.434,9.434,0,0,1,3.343.57,8.035,8.035,0,0,1,2.514,1.452v4.068h-2.035l-.272-2.98a4.032,4.032,0,0,0-.952-.544,5.837,5.837,0,0,0-1.193-.337,8.141,8.141,0,0,0-1.419-.117,5.111,5.111,0,0,0-3.136.953,5.853,5.853,0,0,0-1.944,2.624,10.448,10.448,0,0,0-.661,3.862v.3a10.42,10.42,0,0,0,.706,4.049,5.5,5.5,0,0,0,2.061,2.56,5.911,5.911,0,0,0,3.3.881,7.165,7.165,0,0,0,1.775-.221,5.209,5.209,0,0,0,1.439-.57l.285-2.63h2v4.095a8.869,8.869,0,0,1-2.54,1.03A12.507,12.507,0,0,1,205.251,436.178Z" transform="translate(-196.325 -416.38)" fill="#1a1818"/>
        <path id="Path_2" data-name="Path 2" d="M205.137,436.449a8.878,8.878,0,0,1-4.948-1.307,8.079,8.079,0,0,1-2.993-3.576,12.509,12.509,0,0,1-.986-5.067v-.272a12.063,12.063,0,0,1,1.034-5.094,8.47,8.47,0,0,1,3-3.561,8.263,8.263,0,0,1,4.672-1.308,9.846,9.846,0,0,1,3.479.594,8.464,8.464,0,0,1,2.634,1.524l.13.115v4.629h-2.773l-.289-3.159a3.709,3.709,0,0,0-.73-.394,5.392,5.392,0,0,0-1.113-.314,7.712,7.712,0,0,0-1.352-.111,4.757,4.757,0,0,0-2.906.877,5.505,5.505,0,0,0-1.815,2.455,10.14,10.14,0,0,0-.633,3.72v.3a10.091,10.091,0,0,0,.675,3.9,5.138,5.138,0,0,0,1.915,2.386,5.565,5.565,0,0,0,3.088.819,6.829,6.829,0,0,0,1.68-.208,5.213,5.213,0,0,0,1.171-.433l.3-2.779h2.728v4.694l-.182.113a9.264,9.264,0,0,1-2.65,1.078A12.96,12.96,0,0,1,205.137,436.449Zm-.22-19.411a7.5,7.5,0,0,0-4.244,1.178,7.709,7.709,0,0,0-2.728,3.243,11.294,11.294,0,0,0-.962,4.769v.272a11.748,11.748,0,0,0,.92,4.756,7.332,7.332,0,0,0,2.709,3.241,8.136,8.136,0,0,0,4.525,1.18,12.157,12.157,0,0,0,2.952-.358,8.725,8.725,0,0,0,2.248-.875v-3.49h-1.264l-.268,2.475-.162.1a5.617,5.617,0,0,1-1.545.615,7.616,7.616,0,0,1-1.869.232,6.32,6.32,0,0,1-3.509-.944,5.907,5.907,0,0,1-2.206-2.732,10.853,10.853,0,0,1-.736-4.2v-.3a10.873,10.873,0,0,1,.688-4,6.257,6.257,0,0,1,2.072-2.792,5.507,5.507,0,0,1,3.366-1.029,8.554,8.554,0,0,1,1.486.123,6.261,6.261,0,0,1,1.271.36,4.443,4.443,0,0,1,1.044.6l.132.1.255,2.8h1.3v-3.505a7.847,7.847,0,0,0-2.264-1.268A9.09,9.09,0,0,0,204.917,417.038Z" transform="translate(-196.211 -416.266)" fill="#1a1818"/>
      </g>
      <g id="Group_2" data-name="Group 2" transform="translate(17.419 0.272)">
        <path id="Path_3" data-name="Path 3" d="M219.279,435.986v-1.633l2.112-.363V419.127l-2.112-.364v-1.646h4.691l9.252,14.708.078-.026V419.127l-2.32-.364v-1.646h6.777v1.646l-2.112.364v16.859h-2.333l-9.5-14.786-.078.026V433.99l2.32.363v1.633Z" transform="translate(-218.893 -416.732)" fill="#1a1818"/>
        <path id="Path_4" data-name="Path 4" d="M235.917,436.258h-2.929l-8.98-13.978v11.266l2.319.364v2.349h-7.549v-2.344l2.112-.363V419.338l-2.112-.364v-2.356h5.29L232.8,430.5V419.343l-2.319-.363v-2.362h7.549v2.356l-2.112.364Zm-2.508-.772h1.736v-16.8l2.112-.364v-.935h-6.005v.929l2.319.364v13.282l-.63.208-9.3-14.783h-4.092v.935l2.112.364V434.2l-2.112.364v.922h6.005v-.917l-2.319-.364v-13.37l.625-.212Z" transform="translate(-218.779 -416.618)" fill="#1a1818"/>
      </g>
      <g id="Group_3" data-name="Group 3" transform="translate(38.673)">
        <path id="Path_5" data-name="Path 5" d="M255.355,436.178a8.468,8.468,0,0,1-4.736-1.244,7.67,7.67,0,0,1-2.851-3.409,12.083,12.083,0,0,1-.953-4.911v-.272a11.621,11.621,0,0,1,1-4.931,8.057,8.057,0,0,1,2.864-3.4,7.854,7.854,0,0,1,4.458-1.243,9.435,9.435,0,0,1,3.343.57,8.035,8.035,0,0,1,2.514,1.452v4.068h-2.035l-.272-2.98a4.031,4.031,0,0,0-.953-.544,5.839,5.839,0,0,0-1.192-.337,8.142,8.142,0,0,0-1.419-.117,5.111,5.111,0,0,0-3.136.953,5.853,5.853,0,0,0-1.944,2.624,10.448,10.448,0,0,0-.661,3.862v.3a10.419,10.419,0,0,0,.706,4.049,5.5,5.5,0,0,0,2.061,2.56,5.91,5.91,0,0,0,3.3.881,7.164,7.164,0,0,0,1.774-.221,5.21,5.21,0,0,0,1.439-.57l.285-2.63h2v4.095a8.871,8.871,0,0,1-2.54,1.03A12.508,12.508,0,0,1,255.355,436.178Z" transform="translate(-246.429 -416.38)" fill="#1a1818"/>
        <path id="Path_6" data-name="Path 6" d="M255.241,436.449a8.878,8.878,0,0,1-4.948-1.307,8.08,8.08,0,0,1-2.992-3.576,12.509,12.509,0,0,1-.986-5.067v-.272a12.063,12.063,0,0,1,1.034-5.094,8.47,8.47,0,0,1,3-3.561,8.263,8.263,0,0,1,4.672-1.308,9.846,9.846,0,0,1,3.479.594,8.464,8.464,0,0,1,2.634,1.524l.13.115v4.629h-2.773l-.289-3.159a3.707,3.707,0,0,0-.73-.394,5.39,5.39,0,0,0-1.113-.314,7.712,7.712,0,0,0-1.352-.111,4.757,4.757,0,0,0-2.906.877,5.5,5.5,0,0,0-1.815,2.455,10.139,10.139,0,0,0-.633,3.72v.3a10.092,10.092,0,0,0,.675,3.9,5.138,5.138,0,0,0,1.915,2.386,5.565,5.565,0,0,0,3.088.819,6.829,6.829,0,0,0,1.68-.208,5.213,5.213,0,0,0,1.171-.433l.3-2.779h2.728v4.694l-.182.113a9.262,9.262,0,0,1-2.65,1.078A12.961,12.961,0,0,1,255.241,436.449Zm-.22-19.411a7.5,7.5,0,0,0-4.244,1.178,7.709,7.709,0,0,0-2.728,3.243,11.294,11.294,0,0,0-.963,4.769v.272a11.748,11.748,0,0,0,.92,4.756,7.332,7.332,0,0,0,2.709,3.241,8.136,8.136,0,0,0,4.525,1.18,12.157,12.157,0,0,0,2.952-.358,8.725,8.725,0,0,0,2.248-.875v-3.49h-1.264l-.268,2.475-.162.1a5.618,5.618,0,0,1-1.545.615,7.616,7.616,0,0,1-1.869.232,6.32,6.32,0,0,1-3.509-.944,5.905,5.905,0,0,1-2.206-2.732,10.851,10.851,0,0,1-.736-4.2v-.3a10.873,10.873,0,0,1,.688-4,6.257,6.257,0,0,1,2.072-2.792,5.507,5.507,0,0,1,3.366-1.029,8.554,8.554,0,0,1,1.486.123,6.264,6.264,0,0,1,1.271.36,4.443,4.443,0,0,1,1.044.6l.132.1.255,2.8h1.3v-3.505a7.847,7.847,0,0,0-2.264-1.268A9.089,9.089,0,0,0,255.021,417.038Z" transform="translate(-246.315 -416.266)" fill="#1a1818"/>
      </g>
      <g id="Group_4" data-name="Group 4" transform="translate(56.235 0.272)">
        <path id="Path_7" data-name="Path 7" d="M269.567,435.986v-1.633l2.113-.363V419.127l-2.113-.364v-1.646h5.52l6.078,14.32h.078l5.883-14.32h5.689v1.646l-2.113.364V433.99l2.113.363v1.633h-6.778v-1.633l2.228-.363V420.6l-.065-.014-6.129,14.721h-1.7l-6.337-14.695-.065.013.091,7.892v5.468l2.281.363v1.633Z" transform="translate(-269.181 -416.732)" fill="#1a1818"/>
        <path id="Path_8" data-name="Path 8" d="M293.087,436.258h-7.55v-2.347l2.228-.363v-11.3l-5.55,13.332h-2.209l-5.741-13.315.07,6.135v5.143l2.281.364v2.348h-7.549v-2.344l2.113-.363V419.338l-2.113-.364v-2.356h6.162l5.856,13.8,5.669-13.8h6.334v2.356l-2.113.364v14.213l2.113.363Zm-6.778-.772h6.006v-.922L290.2,434.2V418.688l2.113-.364v-.935h-5.045l-5.883,14.32H280.8l-6.078-14.32h-4.879v.935l2.113.364V434.2l-2.113.364v.922h6.006v-.918l-2.281-.364v-5.8l-.094-8.209.621-.122.188.272,6.237,14.462H281.7l6.153-14.778.619.13.065.327V434.2l-2.228.364Z" transform="translate(-269.067 -416.618)" fill="#1a1818"/>
      </g>
    </g>
  </g>
</svg>
