<svg xmlns="http://www.w3.org/2000/svg" width="120.429" height="147.191" viewBox="0 0 120.429 147.191"><g transform="translate(-166 -162)"><path d="M190,162.586V180.7h18.111Z" transform="translate(56.286 1.374)"/><path d="M259.667,248.977a33.4,33.4,0,0,1,6.69.676v-60.89H242.941a3.342,3.342,0,0,1-3.345-3.345V162h-70.25A3.342,3.342,0,0,0,166,165.345V285.774a3.342,3.342,0,0,0,3.345,3.345H226.89a33.453,33.453,0,0,1,32.777-40.143Z" transform="translate(0 0)" fill="#919191"/><path d="M212.762,190a26.762,26.762,0,1,0,26.762,26.762A26.791,26.791,0,0,0,212.762,190Zm0,33.453a6.659,6.659,0,0,0,4.73-1.96,3.345,3.345,0,0,1,4.73,4.73,13.381,13.381,0,1,1,0-18.921,3.345,3.345,0,0,1-4.73,4.73,6.69,6.69,0,1,0-4.73,11.421Z" transform="translate(46.905 65.667)"/></g></svg>