<svg xmlns="http://www.w3.org/2000/svg" width="44.006" height="44.023" viewBox="0 0 44.006 44.023">
  <path id="Phone" d="M1171.548,90.448a22,22,0,0,0-32.038,30.123,13.787,13.787,0,0,0,5.3,4.361l.046.036a22.966,22.966,0,0,0,2.745,1.364,21.992,21.992,0,0,0,23.943-35.884Zm-8.3,24.958c-.485.494-1,.951-1.454,1.462a2.866,2.866,0,0,1-2.46.933,10.136,10.136,0,0,1-3.915-1.143,21.277,21.277,0,0,1-7.07-5.531,19.515,19.515,0,0,1-3.448-5.741,7.527,7.527,0,0,1-.576-3.2,2.632,2.632,0,0,1,.814-1.755c.549-.521,1.061-1.061,1.6-1.591a1.521,1.521,0,0,1,2.286,0c.439.429.86.859,1.29,1.288s.841.832,1.253,1.253a1.522,1.522,0,0,1,0,2.34c-.521.53-1.042,1.061-1.582,1.573a.326.326,0,0,0-.082.42,9.219,9.219,0,0,0,1.427,2.286,16.26,16.26,0,0,0,4,3.629c.329.211.695.357,1.042.549a.313.313,0,0,0,.439-.083c.521-.539,1.061-1.069,1.591-1.6a1.5,1.5,0,0,1,2.277,0c.86.85,1.71,1.7,2.561,2.56A1.538,1.538,0,0,1,1163.243,115.406Zm-8.112-14.208.274-1.956a8.745,8.745,0,0,1,7.4,7.167l-1.948.338a6.784,6.784,0,0,0-5.725-5.549Zm10.856,5.211a12.519,12.519,0,0,0-10.6-10.276l.274-1.957a14.516,14.516,0,0,1,12.274,11.894Z" transform="translate(-1133.992 -84.002)" fill="#1def55"/>
</svg>
