<svg xmlns="http://www.w3.org/2000/svg" width="242.952" height="88.399" viewBox="0 0 242.952 88.399"><g transform="translate(29 18.74)"><g transform="translate(-29 -18.74)"><g transform="translate(84.99 2.721)"><g transform="translate(1.933 1.564)"><path d="M603.34,130.5a1.881,1.881,0,0,1-1.051-.276,1.7,1.7,0,0,1-.632-.756,2.683,2.683,0,0,1-.211-1.09v-.06a2.575,2.575,0,0,1,.221-1.094,1.785,1.785,0,0,1,.635-.755,1.742,1.742,0,0,1,.989-.276,2.093,2.093,0,0,1,.742.127,1.78,1.78,0,0,1,.558.322v.9h-.451l-.06-.661a.9.9,0,0,0-.212-.121,1.323,1.323,0,0,0-.265-.075,1.822,1.822,0,0,0-.315-.026,1.136,1.136,0,0,0-.7.211,1.3,1.3,0,0,0-.431.582,2.316,2.316,0,0,0-.147.857v.066a2.311,2.311,0,0,0,.157.9,1.221,1.221,0,0,0,.458.568,1.309,1.309,0,0,0,.731.2,1.592,1.592,0,0,0,.394-.049,1.159,1.159,0,0,0,.319-.126l.063-.584h.443v.908a1.969,1.969,0,0,1-.563.229A2.784,2.784,0,0,1,603.34,130.5Z" transform="translate(-601.445 -126.19)" fill="#fff"/></g><g transform="translate(0 0)"><path d="M598.747,128.395a3.684,3.684,0,1,1,3.684-3.684A3.689,3.689,0,0,1,598.747,128.395Zm0-7.066a3.382,3.382,0,1,0,3.382,3.382A3.385,3.385,0,0,0,598.747,121.329Z" transform="translate(-595.062 -121.026)" fill="#fff"/></g></g><g transform="translate(0 2.058)"><g transform="translate(0.454 0.607)"><path d="M367.724,192.189c-.605.553-1.224,1.092-1.849,1.612-.684.586-1.382,1.158-2.085,1.71s-1.421,1.1-2.145,1.625c-.8.592-1.612,1.165-2.441,1.73-.684.461-1.382.914-2.086,1.349-.7-.434-1.395-.888-2.079-1.349-.829-.559-1.645-1.132-2.447-1.73q-1.085-.789-2.138-1.618t-2.092-1.717c-.625-.52-1.237-1.059-1.842-1.605-.7-.632-1.4-1.283-2.079-1.948-.526-.507-1.046-1.02-1.546-1.546-.717-.73-1.415-1.467-2.086-2.224-.441-.48-.868-.974-1.29-1.467q-1.046-1.214-2.046-2.48c-.362-.467-.724-.934-1.073-1.408q-1.006-1.333-1.947-2.717c-.316-.454-.625-.914-.921-1.375-.625-.947-1.23-1.915-1.8-2.9-.283-.467-.553-.934-.816-1.408-.566-.987-1.1-1.987-1.612-3q-.375-.73-.73-1.48c-.487-1.007-.954-2.02-1.388-3.053-.237-.539-.461-1.079-.678-1.619-.4-1-.783-2.006-1.138-3.026-.217-.605-.428-1.224-.625-1.842q-.473-1.451-.888-2.921c-.2-.7-.388-1.4-.559-2.105-.237-.921-.448-1.842-.645-2.777q-.257-1.194-.474-2.408c-.158-.888-.3-1.783-.428-2.678s-.244-1.763-.336-2.658c-.112-.987-.2-1.987-.263-2.987-.059-.823-.105-1.651-.131-2.48-.039-.967-.059-1.948-.059-2.928,0-.895.013-1.783.053-2.671.533-.263,1.073-.52,1.612-.77q1.727-.8,3.494-1.52c.362-.145.73-.29,1.1-.434q2-.79,4.066-1.467c.217-.072.434-.138.652-.211q2.25-.721,4.553-1.316c.02-.191.046-.375.079-.566q.355-2.517.921-4.968c-1.105.257-2.2.533-3.283.822-.7.191-1.408.395-2.105.605-1.02.3-2.026.619-3.027.961-.783.263-1.566.539-2.336.822-.947.355-1.888.724-2.816,1.105q-1.254.513-2.487,1.066c-1.033.461-2.059.947-3.072,1.448-.731.362-1.454.737-2.178,1.119q-.207,2.961-.211,5.974v.013q0,2.882.2,5.711c.04.586.086,1.171.145,1.757q.168,1.924.428,3.816c.053.382.105.757.164,1.138q.326,2.171.77,4.3c.04.211.086.414.132.625.336,1.566.717,3.119,1.138,4.645.026.079.046.158.066.237.46,1.625.96,3.23,1.513,4.816l.105-.02a.822.822,0,0,0-.086.072c.552,1.579,1.151,3.145,1.8,4.684.033.086.072.171.105.257q.948,2.23,2.013,4.388c.059.118.118.244.178.362q1.065,2.122,2.244,4.172c.072.125.145.25.224.375.8,1.375,1.632,2.717,2.507,4.04.072.112.145.217.224.329q1.342,2.013,2.809,3.941c.046.066.1.138.151.2q1.53,2,3.178,3.908a.236.236,0,0,0,.059-.026c-.013.013-.026.033-.039.046,1.092,1.276,2.237,2.513,3.415,3.717a2.72,2.72,0,0,0,.2.2c1.105,1.138,2.25,2.231,3.421,3.3.171.152.336.3.5.448,1.079.961,2.184,1.895,3.309,2.789.3.25.612.493.921.73,1.007.79,2.033,1.546,3.072,2.283.48.342.967.678,1.454,1.007q2.359,1.589,4.836,3.027,2.477-1.431,4.836-3.027c.493-.336.98-.671,1.467-1.013q1.559-1.105,3.06-2.277c.309-.237.618-.48.928-.737q1.688-1.342,3.3-2.783c.171-.151.336-.3.507-.454,1.165-1.059,2.309-2.158,3.415-3.29q-2.477-1.006-4.836-2.224Q368.78,191.244,367.724,192.189Z" transform="translate(-315.971 -120.842)" fill="#fff"/></g><g transform="translate(0 0)"><path d="M356.073,205.179l-.227-.131c-1.607-.928-3.243-1.952-4.862-3.043-.54-.364-1.018-.7-1.464-1.013-1.135-.805-2.146-1.556-3.089-2.3-.344-.263-.649-.506-.93-.738-1.092-.868-2.212-1.813-3.323-2.8-.148-.136-.291-.263-.438-.393l-.061-.054c-1.289-1.172-2.414-2.257-3.446-3.32a2.86,2.86,0,0,1-.209-.21c-1.214-1.241-2.307-2.428-3.326-3.614l-.115-.131c-1.1-1.269-2.174-2.592-3.2-3.93-.052-.065-.111-.145-.162-.218-.942-1.232-1.893-2.566-2.816-3.95-.076-.107-.151-.217-.227-.334-.893-1.35-1.742-2.717-2.518-4.059-.068-.106-.139-.229-.21-.351-.826-1.444-1.585-2.855-2.27-4.218l-.178-.363c-.719-1.458-1.4-2.942-2.025-4.414-.02-.052-.036-.09-.052-.128s-.041-.1-.059-.144c-.589-1.405-1.158-2.88-1.689-4.378h0l-.13-.373c-.537-1.541-1.035-3.125-1.521-4.842-.02-.081-.037-.149-.059-.217-.434-1.571-.819-3.142-1.152-4.694l-.018-.08c-.041-.187-.081-.369-.116-.557-.3-1.417-.556-2.873-.773-4.32-.059-.382-.112-.759-.165-1.143-.18-1.331-.321-2.586-.43-3.839-.053-.526-.1-1.106-.146-1.766-.131-1.889-.2-3.821-.2-5.741,0-1.992.071-4.013.211-6.019l.018-.252.224-.118c.852-.45,1.547-.807,2.188-1.124,1.1-.544,2.114-1.02,3.09-1.455.819-.367,1.66-.728,2.5-1.071.9-.37,1.853-.744,2.828-1.11.8-.293,1.587-.571,2.351-.828,1.07-.366,2.067-.682,3.044-.966.76-.229,1.453-.429,2.113-.608,1.182-.315,2.26-.585,3.3-.826l.708-.164-.163.709c-.375,1.633-.683,3.291-.914,4.929-.034.194-.058.368-.077.549l-.032.315-.306.079c-1.492.384-3.016.824-4.528,1.309-.107.036-.22.071-.333.108l-.314.1c-1.4.461-2.755.951-4.043,1.459l-.107.042c-.332.131-.663.261-.989.391-1.164.475-2.333.983-3.472,1.511-.488.226-.936.439-1.36.646-.028.722-.041,1.487-.041,2.383,0,.976.02,1.955.059,2.909.025.785.068,1.59.13,2.467.069,1.044.157,2.042.261,2.968.092.888.2,1.751.333,2.642.119.853.258,1.723.426,2.666.143.8.3,1.607.47,2.392.214,1.01.423,1.912.641,2.759.152.624.328,1.287.556,2.095.274.97.571,1.948.883,2.9.193.6.4,1.218.621,1.83.337.967.707,1.95,1.133,3.011.241.6.461,1.123.672,1.605.393.935.844,1.927,1.382,3.038.235.5.478.99.725,1.471.549,1.083,1.072,2.057,1.6,2.982.277.5.541.954.81,1.4.548.939,1.151,1.906,1.794,2.88.287.446.594.9.915,1.366.616.907,1.266,1.815,1.937,2.7.349.474.715.947,1.069,1.4.654.829,1.339,1.659,2.031,2.462.373.437.816.951,1.28,1.457.617.7,1.294,1.417,2.075,2.213.441.464.928.951,1.537,1.537.652.64,1.347,1.29,2.068,1.937.7.636,1.285,1.142,1.829,1.594.68.582,1.379,1.156,2.083,1.709.729.573,1.424,1.1,2.125,1.608.746.556,1.541,1.118,2.434,1.721.7.468,1.283.851,1.825,1.19.582-.363,1.185-.754,1.832-1.191.852-.582,1.647-1.145,2.425-1.719s1.49-1.1,2.132-1.615c.695-.545,1.392-1.117,2.073-1.7.621-.516,1.237-1.053,1.838-1.6l0,0c.719-.644,1.411-1.293,2.058-1.927l.234-.23.292.15c1.574.81,3.189,1.552,4.8,2.207l.626.254-.472.484c-1.073,1.1-2.228,2.212-3.434,3.308l-.261.234-.251.225c-1.1.979-2.218,1.921-3.321,2.8-.277.23-.576.467-.934.742-.963.754-2,1.524-3.073,2.287-.49.344-.979.682-1.475,1.018-1.623,1.093-3.259,2.118-4.864,3.044Zm-20.781-18.315c1.033,1.207,2.143,2.416,3.395,3.7.062.069.117.124.178.179,1.039,1.069,2.151,2.141,3.421,3.3l.056.049c.152.134.3.264.446.4,1.092.972,2.2,1.9,3.284,2.768.279.23.576.466.915.725.935.733,1.934,1.476,3.059,2.273.441.314.913.641,1.446,1,1.525,1.027,3.065,2,4.581,2.878,1.514-.881,3.054-1.849,4.582-2.878.49-.333.975-.667,1.46-1.008,1.061-.753,2.085-1.514,3.041-2.262.352-.27.643-.5.918-.729,1.1-.873,2.2-1.8,3.29-2.772l.245-.22c.087-.078.173-.157.262-.235,1.014-.922,1.994-1.858,2.918-2.787-1.327-.558-2.654-1.173-3.955-1.833-.588.57-1.21,1.149-1.852,1.725-.61.558-1.237,1.1-1.863,1.624-.686.588-1.393,1.167-2.1,1.719-.651.517-1.357,1.052-2.158,1.635-.785.579-1.588,1.149-2.452,1.738-.749.5-1.436.948-2.1,1.36l-.238.147-.238-.147c-.62-.382-1.285-.814-2.094-1.358-.906-.612-1.713-1.182-2.465-1.743-.705-.513-1.409-1.045-2.148-1.625-.714-.562-1.422-1.144-2.107-1.729-.549-.456-1.139-.971-1.851-1.614-.729-.654-1.434-1.314-2.093-1.96-.616-.593-1.112-1.089-1.557-1.558-.787-.8-1.475-1.534-2.1-2.235-.469-.511-.919-1.032-1.3-1.474-.7-.812-1.392-1.652-2.057-2.494-.36-.465-.73-.942-1.082-1.42-.677-.9-1.336-1.816-1.957-2.731-.324-.466-.637-.933-.927-1.385-.649-.984-1.26-1.965-1.813-2.911-.272-.448-.541-.914-.821-1.416-.535-.933-1.066-1.921-1.62-3.016-.25-.487-.5-.989-.735-1.491-.543-1.122-1-2.128-1.4-3.071-.212-.484-.436-1.017-.68-1.625-.431-1.074-.806-2.07-1.146-3.046-.222-.618-.434-1.243-.628-1.854-.315-.965-.616-1.954-.893-2.936-.232-.818-.41-1.492-.564-2.121-.22-.854-.432-1.768-.648-2.79-.17-.793-.331-1.609-.476-2.422-.17-.954-.31-1.835-.43-2.695-.135-.9-.245-1.777-.338-2.674-.106-.936-.2-1.948-.264-3-.064-.886-.107-1.7-.132-2.5-.039-.962-.059-1.954-.059-2.942,0-1.021.017-1.877.053-2.692l.012-.268.241-.119c.5-.248,1.033-.5,1.622-.775,1.152-.533,2.334-1.047,3.513-1.528q.5-.2,1-.395l.107-.042c1.3-.513,2.679-1.01,4.09-1.476.107-.036.216-.07.324-.1l.326-.105c1.432-.459,2.871-.877,4.284-1.247.013-.091.028-.185.044-.281.2-1.414.458-2.854.767-4.281-.813.2-1.658.411-2.565.652-.65.176-1.335.373-2.091.6-.968.281-1.952.593-3.011.955-.758.255-1.541.53-2.326.819-.964.362-1.907.732-2.8,1.1-.831.34-1.663.7-2.474,1.06-.966.43-1.966.9-3.057,1.44-.576.285-1.2.6-1.943.995-.127,1.9-.192,3.815-.192,5.69,0,1.912.066,3.823.2,5.692.044.651.091,1.22.143,1.743.109,1.244.248,2.486.426,3.8.052.378.1.75.163,1.129.214,1.432.472,2.871.765,4.28.035.187.074.361.112.538l.018.082c.329,1.537.71,3.091,1.132,4.621.023.067.046.158.069.248.439,1.549.891,3,1.373,4.4l1.691-.333-1.434,1.066c.526,1.484,1.09,2.947,1.678,4.351.02.051.036.09.053.128s.04.094.058.141c.613,1.442,1.286,2.911,2,4.351l.177.36c.677,1.348,1.428,2.745,2.232,4.149.077.133.142.245.213.357.777,1.342,1.615,2.693,2.5,4.032.072.111.141.211.216.318.919,1.379,1.859,2.7,2.8,3.927.051.073.1.137.145.2,1.017,1.332,2.08,2.64,3.167,3.9l-.263.227.018.022Zm-.513-.153a.3.3,0,0,0-.042.023l.087.109Z" transform="translate(-314.472 -118.838)" fill="#fff"/></g></g><g transform="translate(61.701 2.967)"><g transform="translate(0.454 0.521)"><path d="M540.058,130.676c-.717-.382-1.441-.75-2.172-1.112q-1.519-.76-3.079-1.448c-.822-.375-1.645-.73-2.481-1.072h-.007c-.928-.382-1.868-.75-2.816-1.1-.77-.29-1.553-.566-2.335-.829-1-.335-2.007-.658-3.027-.96-.7-.21-1.4-.408-2.105-.6a22.784,22.784,0,0,0-2.362,4.145v.007q.05.276.079.553,2.3.592,4.553,1.322c.217.066.434.138.651.21,1.375.447,2.73.941,4.066,1.461.368.145.737.29,1.1.434q1.766.73,3.493,1.526h.007c.539.25,1.073.5,1.605.763.039.888.053,1.783.053,2.678q0,1.47-.059,2.921c-.026.836-.072,1.664-.132,2.487-.066,1-.152,1.993-.263,2.98q-.138,1.342-.336,2.665c-.125.9-.263,1.783-.427,2.671-.145.809-.3,1.619-.474,2.415-.191.928-.408,1.856-.645,2.77-.171.7-.362,1.415-.559,2.112a22.051,22.051,0,0,0,4.842,1.224c.02-.079.046-.165.066-.25q.631-2.289,1.138-4.632c.046-.211.092-.428.138-.638.29-1.414.546-2.849.763-4.29.059-.382.112-.763.171-1.151.171-1.257.316-2.526.421-3.8.059-.585.105-1.171.145-1.763q.2-2.833.2-5.711v-.006Q540.268,133.637,540.058,130.676Z" transform="translate(-519.675 -123.557)" fill="#fff"/></g><g transform="translate(0)"><path d="M536.524,158.208l-.4-.056a22.519,22.519,0,0,1-4.942-1.249l-.389-.148.113-.4c.22-.777.4-1.462.555-2.1.243-.937.458-1.862.641-2.754.166-.772.324-1.579.472-2.4.148-.8.287-1.668.425-2.654.131-.881.243-1.77.333-2.648.107-.945.193-1.913.262-2.964.064-.883.107-1.691.131-2.471.039-.963.059-1.94.059-2.907,0-.884-.014-1.669-.041-2.389-.433-.211-.861-.411-1.266-.6l-.094-.041c-1.11-.514-2.247-1.011-3.476-1.519-.356-.143-.724-.287-1.092-.432-1.443-.562-2.766-1.037-4.04-1.451l-.03-.01c-.2-.068-.408-.136-.612-.2-1.484-.482-3.007-.924-4.534-1.317l-.3-.079-.034-.313q-.028-.261-.074-.522l-.007-.08v-.1l.038-.094a23.327,23.327,0,0,1,2.409-4.228l.184-.256.3.082c.818.222,1.491.413,2.118.6.955.284,1.95.6,3.04.965.827.278,1.618.559,2.351.834.891.328,1.816.688,2.75,1.071l.086.032c.853.349,1.67.7,2.5,1.08,1.076.476,2.118.966,3.094,1.454.8.4,1.517.764,2.182,1.117l.222.118.018.251c.141,2.007.212,4.03.212,6.012,0,1.926-.067,3.858-.2,5.749-.045.672-.091,1.238-.146,1.777-.1,1.212-.238,2.464-.422,3.818-.029.19-.055.371-.082.551-.03.2-.059.406-.09.609-.214,1.419-.472,2.87-.767,4.311l-.14.644c-.329,1.528-.714,3.1-1.144,4.656-.008.038-.024.094-.039.148Zm-4.633-2.011a21.645,21.645,0,0,0,3.958,1c.413-1.509.78-3.007,1.094-4.469l.138-.639c.291-1.42.546-2.855.758-4.261.031-.2.06-.4.09-.6.026-.182.053-.365.081-.55.181-1.331.318-2.567.417-3.772.054-.538.1-1.093.144-1.756.131-1.872.2-3.783.2-5.681s-.065-3.8-.192-5.7c-.593-.313-1.229-.638-1.937-.988-.965-.483-1.994-.967-3.061-1.439-.794-.362-1.574-.7-2.386-1.033h0l-.09-.034c-.95-.391-1.892-.758-2.8-1.093-.726-.273-1.507-.55-2.323-.825-1.079-.362-2.064-.675-3.011-.956-.54-.163-1.115-.328-1.789-.512a22.433,22.433,0,0,0-2.079,3.684c.007.045.014.091.021.136,1.445.379,2.884.8,4.281,1.253.2.062.415.132.627.2,1.316.429,2.654.909,4.115,1.478q.557.219,1.1.436c1.195.494,2.345,1,3.425,1.494h0l.1.042c.511.237,1.06.494,1.616.768l.241.119.012.268c.036.807.053,1.689.053,2.7,0,.979-.02,1.969-.059,2.94-.025.789-.069,1.608-.133,2.5-.07,1.062-.157,2.044-.265,3-.091.887-.2,1.79-.338,2.681-.139,1-.28,1.875-.43,2.687-.148.831-.309,1.649-.476,2.427-.186.9-.4,1.843-.65,2.789C532.212,155.006,532.064,155.573,531.891,156.2Z" transform="translate(-518.175 -121.837)" fill="#fff"/></g></g><g transform="translate(39.897 10.113)"><g transform="translate(0.454 0.461)"><path d="M458.125,147.5c-1.092-.138-2.2-.244-3.3-.329-.559-.039-1.118-.072-1.678-.105-1.125-.059-2.25-.1-3.382-.1-.27-.013-.546-.013-.816-.013s-.553,0-.829.013a41.648,41.648,0,0,0-.414,4.994c-.007.336-.013.671-.013,1.007,0,1.342.059,2.665.184,3.974a42.649,42.649,0,0,0,.763,4.981h.007c.085.434.184.869.3,1.3q.464,1.885,1.1,3.7a42.231,42.231,0,0,0,1.619,3.987c.171.362.349.724.526,1.086h.006a40.632,40.632,0,0,0,2.494,4.316q.336.513.691,1.007a41.3,41.3,0,0,0,2.638,3.388q1.273,1.471,2.664,2.809h.007c.316.309.632.605.954.9a42.132,42.132,0,0,0,8.165,5.8c.428-.7.835-1.415,1.237-2.138s.8-1.474,1.191-2.217a37.2,37.2,0,0,1-4.237-2.691,36.487,36.487,0,0,1-3.934-3.322c-.25-.237-.493-.487-.737-.737h-.006a36.471,36.471,0,0,1-2.882-3.322q-1.135-1.471-2.119-3.053c-.428-.678-.829-1.375-1.211-2.086-.579-1.086-1.112-2.211-1.585-3.362a36.464,36.464,0,0,1-1.441-4.132v-.007c-.1-.342-.191-.684-.276-1.033a36.657,36.657,0,0,1-.9-5.06,36.274,36.274,0,0,1-.224-4.079c0-.309.007-.625.013-.934.829.046,1.658.1,2.48.178s1.671.151,2.5.257c-.006.165-.006.336-.006.5a32.78,32.78,0,0,0,1.5,9.783.327.327,0,0,1,.079.013.509.509,0,0,1-.026.145,32.087,32.087,0,0,0,2.283,5.375c.329.619.678,1.217,1.053,1.809a32.086,32.086,0,0,0,3.52,4.665,1.028,1.028,0,0,1,.131.046.272.272,0,0,1-.026.066,32.667,32.667,0,0,0,3.928,3.638,33.3,33.3,0,0,0,4.237,2.809c.329-.763.645-1.54.947-2.323s.592-1.585.869-2.388a26.811,26.811,0,0,1-4.237-3.079,28.455,28.455,0,0,1-2.941-3.027c-.342-.414-.671-.835-.993-1.27a27.2,27.2,0,0,1-3.027-5.237c-.217-.487-.415-.98-.605-1.481V162.5a27.128,27.128,0,0,1-1.158-4.06,27.644,27.644,0,0,1-.546-5.2c.835.151,1.664.329,2.487.52q1.283.286,2.546.632a22.241,22.241,0,0,0,1.04,5.487q.335,1.036.77,2.033v.006a22.617,22.617,0,0,0,2.553,4.415h.007a21.094,21.094,0,0,0,1.382,1.691,22.36,22.36,0,0,0,4.231,3.638c.224-.809.428-1.618.612-2.434.217-.954.421-1.915.592-2.882a17.385,17.385,0,0,1-3.54-4.053,13.3,13.3,0,0,1-.691-1.191A16.885,16.885,0,0,1,472.9,156a17.138,17.138,0,0,1-.119-5.3c-.895-.3-1.8-.572-2.711-.829-.7-.2-1.415-.388-2.132-.566-.974-.25-1.954-.48-2.941-.684-.645-.138-1.29-.263-1.935-.382-1.039-.2-2.092-.369-3.151-.513C459.316,147.642,458.724,147.563,458.125,147.5Z" transform="translate(-447.69 -146.951)" fill="#fff"/></g><g transform="translate(0 0)"><path d="M468.921,189.748l-.38-.206a42.634,42.634,0,0,1-8.254-5.866c-.289-.26-.57-.522-.855-.8l-.114-.105c-.944-.91-1.85-1.865-2.692-2.839a41.794,41.794,0,0,1-2.668-3.425c-.234-.326-.471-.67-.7-1.018a41.306,41.306,0,0,1-2.393-4.11h0l-.131-.254c-.183-.372-.359-.732-.529-1.091A42.838,42.838,0,0,1,448.564,166c-.433-1.247-.807-2.5-1.111-3.738-.092-.355-.179-.725-.257-1.1l-.049-.21a43.233,43.233,0,0,1-.771-5.034c-.124-1.293-.187-2.645-.187-4.016,0-.339.007-.677.013-1.016a42.355,42.355,0,0,1,.419-5.05l.054-.371.374-.018c.571-.027,1.124-.027,1.689,0h.026c1.007,0,2.082.032,3.358.1.566.033,1.126.066,1.686.106,1.226.094,2.312.2,3.324.331.542.059,1.112.133,1.795.232,1.066.145,2.134.319,3.171.516.724.133,1.36.259,1.945.384.945.2,1.941.427,2.959.689.656.162,1.357.349,2.141.568.9.254,1.823.535,2.731.835l.357.118-.049.373a16.723,16.723,0,0,0,.115,5.163,16.444,16.444,0,0,0,1.7,4.966,13,13,0,0,0,.67,1.155,16.912,16.912,0,0,0,3.452,3.954l.2.169-.046.259c-.152.863-.342,1.786-.6,2.9-.183.81-.391,1.636-.617,2.455l-.167.6-.522-.346a22.848,22.848,0,0,1-4.317-3.713c-.465-.515-.892-1.033-1.273-1.541h0l-.143-.184a23.094,23.094,0,0,1-2.6-4.5l-.038-.094c-.279-.647-.53-1.315-.747-1.987a22.7,22.7,0,0,1-1.039-5.273c-.731-.2-1.474-.377-2.214-.543-.7-.162-1.331-.3-1.923-.413a27.172,27.172,0,0,0,.525,4.564,26.741,26.741,0,0,0,1.139,3.992l.029.081c.206.536.386.976.566,1.379a26.844,26.844,0,0,0,2.977,5.153c.324.436.644.845.978,1.25a27.953,27.953,0,0,0,2.892,2.976,26.39,26.39,0,0,0,4.165,3.027l.32.188-.121.352c-.276.8-.57,1.61-.874,2.4s-.632,1.591-.954,2.34l-.2.462-.439-.245a33.883,33.883,0,0,1-4.3-2.847,33.182,33.182,0,0,1-3.984-3.69l-.106-.113a32.7,32.7,0,0,1-3.57-4.731c-.383-.605-.733-1.207-1.068-1.836a32.6,32.6,0,0,1-2.264-5.293h0l-.1-.317a33.214,33.214,0,0,1-1.521-9.92v-.1c-.685-.081-1.381-.15-2.075-.2s-1.378-.113-2-.15q0,.23,0,.454a35.867,35.867,0,0,0,.221,4.028,36.389,36.389,0,0,0,.89,5c.083.336.172.668.273,1.018l.018.069a36.237,36.237,0,0,0,1.406,4.02c.46,1.117.987,2.235,1.567,3.324.4.745.791,1.418,1.194,2.057.665,1.064,1.369,2.078,2.094,3.018a36.2,36.2,0,0,0,2.713,3.146h0l.141.138c.222.229.475.488.724.724a36.167,36.167,0,0,0,3.89,3.285,36.76,36.76,0,0,0,4.187,2.659l.392.214-.207.4c-.472.9-.841,1.591-1.2,2.228-.441.794-.848,1.5-1.245,2.153Zm-9.1-7.758h0l.139.13c.314.307.621.6.94.881a41.731,41.731,0,0,0,7.7,5.533c.32-.538.651-1.114,1-1.75.3-.535.607-1.106.979-1.814a37.66,37.66,0,0,1-3.9-2.508A37.069,37.069,0,0,1,462.7,179.1c-.215-.2-.431-.423-.629-.626l-.122-.118a37.093,37.093,0,0,1-2.918-3.364c-.743-.962-1.464-2-2.144-3.089-.413-.655-.814-1.346-1.225-2.111-.6-1.117-1.135-2.261-1.606-3.4a37.182,37.182,0,0,1-1.458-4.181l-.017-.066c-.1-.34-.183-.664-.263-.989a37.274,37.274,0,0,1-.912-5.119,36.793,36.793,0,0,1-.227-4.128c0-.306.007-.618.013-.923l.01-.47.47.005c.743.041,1.621.095,2.5.179.838.066,1.686.153,2.514.258l.413.052-.016.416c-.006.158-.006.324-.006.482a32.339,32.339,0,0,0,1.4,9.4l.178.045v.354a.873.873,0,0,1-.01.124,31.67,31.67,0,0,0,2.212,5.181c.325.61.663,1.192,1.037,1.781a31.778,31.778,0,0,0,3.393,4.514l.053.021.39.166-.073.212a32.316,32.316,0,0,0,3.688,3.387,33.047,33.047,0,0,0,3.738,2.52c.251-.6.5-1.212.742-1.84.256-.667.505-1.347.742-2.024a27.3,27.3,0,0,1-3.989-2.94,28.948,28.948,0,0,1-2.988-3.075c-.346-.419-.675-.841-1.01-1.29a27.721,27.721,0,0,1-3.078-5.326c-.194-.435-.389-.913-.613-1.5l-.03-.087a27.613,27.613,0,0,1-1.149-4.051,28.216,28.216,0,0,1-.555-5.29l-.006-.55.542.1c.761.138,1.581.309,2.509.524.855.191,1.719.4,2.563.636l.314.086.02.324a21.805,21.805,0,0,0,1.019,5.375c.218.675.472,1.345.754,1.992l.038.093a22.136,22.136,0,0,0,2.329,4.055h0l.143.187a20.755,20.755,0,0,0,1.352,1.654,21.947,21.947,0,0,0,3.622,3.207c.159-.6.307-1.2.441-1.8.226-.994.4-1.83.542-2.6a17.816,17.816,0,0,1-3.43-3.987,13.831,13.831,0,0,1-.711-1.225,17.342,17.342,0,0,1-1.788-5.231,17.644,17.644,0,0,1-.276-3.116,17.413,17.413,0,0,1,.109-1.948c-.779-.253-1.564-.49-2.337-.707s-1.468-.4-2.118-.562c-1.007-.259-1.99-.487-2.924-.68-.578-.124-1.207-.248-1.925-.38-1.025-.194-2.077-.366-3.131-.51-.677-.1-1.239-.17-1.77-.228h-.008c-1-.127-2.072-.234-3.281-.327-.553-.039-1.109-.072-1.665-.1-1.273-.067-2.34-.1-3.36-.1-.284-.013-.551-.013-.816-.013-.144,0-.288,0-.432,0a41.545,41.545,0,0,0-.357,4.561c-.006.331-.013.664-.013,1,0,1.343.061,2.665.182,3.931a42.5,42.5,0,0,0,.68,4.569h0l.079.367c.085.43.182.857.29,1.269.3,1.213.664,2.443,1.088,3.663a41.871,41.871,0,0,0,1.6,3.944c.138.292.281.585.425.878l.1.2a40.233,40.233,0,0,0,2.466,4.268c.222.339.45.672.68.992a41.138,41.138,0,0,0,2.613,3.356C458.1,180.246,458.939,181.138,459.816,181.991Z" transform="translate(-446.19 -145.429)" fill="#fff"/></g></g><g transform="translate(29.923)"><g transform="translate(0.454 0.455)"><path d="M460.243,161.363a31.956,31.956,0,0,1-4.323-1.25c-.434,1.026-.9,2.039-1.382,3.04-.237.5-.48.994-.737,1.487-.513,1.013-1.046,2.007-1.605,2.994-.263.474-.539.947-.822,1.415q-.859,1.471-1.8,2.888c-.3.467-.605.928-.928,1.382a45.9,45.9,0,0,1-4.533-2.211,45.173,45.173,0,0,1-4.23-2.658,45.806,45.806,0,0,1-3.928-3.086q-.365-.316-.73-.651h-.007c-1-.914-1.967-1.869-2.888-2.868s-1.8-2.033-2.632-3.106c-.237-.3-.467-.605-.7-.914a45.738,45.738,0,0,1-2.789-4.237c-.079-.125-.158-.263-.23-.395a45.024,45.024,0,0,1-2.283-4.54c-.151-.342-.3-.684-.441-1.033-.513-1.263-.981-2.546-1.388-3.862q-.592-1.914-1.026-3.895v-.006c-.079-.336-.145-.665-.211-1a46.739,46.739,0,0,1-.7-4.941q-.187-2.092-.191-4.237c0-.25,0-.507.007-.757a47.1,47.1,0,0,1,.349-5.04q.267-2.22.744-4.375V119.5c.046-.224.1-.448.151-.671,1.586-.1,3.185-.145,4.8-.151h.388c1.612.007,3.2.053,4.79.145a3.151,3.151,0,0,0,.349.02q2.448.168,4.856.46c.072.007.151.02.224.026a31.385,31.385,0,0,1,2.112-4.9c-1.224-.177-2.461-.322-3.7-.447-.526-.053-1.052-.105-1.579-.145h-.007c-1.263-.105-2.526-.178-3.8-.23-.506-.02-1.013-.033-1.52-.046q-.957-.02-1.915-.02c-.645,0-1.289.006-1.928.02-.507.013-1.013.026-1.52.046-1.276.053-2.54.125-3.8.237-.526.039-1.059.085-1.586.145h-.007a50.948,50.948,0,0,0-1.355,5.31c-.033.145-.059.29-.085.434v.006c-.3,1.54-.533,3.112-.691,4.7q-.247,2.507-.257,5.079v.158c0,1.638.072,3.263.224,4.862.151,1.671.388,3.322.7,4.941a.128.128,0,0,1,.072-.013c-.013.046-.026.092-.046.145v.007c.3,1.6.684,3.178,1.138,4.717.29,1.02.619,2.02.974,3.013.211.6.441,1.2.678,1.79.526,1.316,1.106,2.612,1.743,3.875.138.29.29.579.441.868q1.056,2.023,2.277,3.941c.177.276.355.552.539.822q1.175,1.766,2.487,3.428c.4.513.809,1.013,1.23,1.507h.007q1,1.194,2.092,2.316c1.125,1.184,2.316,2.316,3.546,3.382a.554.554,0,0,1,.112.026.173.173,0,0,0-.033.039c1.256,1.086,2.572,2.112,3.928,3.079s2.77,1.869,4.224,2.7a50.022,50.022,0,0,0,4.54,2.323c1.421.645,2.882,1.224,4.369,1.737l.461.158q1.47-1.935,2.816-3.948c.073-.105.145-.217.217-.322.875-1.323,1.717-2.671,2.513-4.046.072-.125.145-.244.217-.368q1.184-2.053,2.244-4.185c.059-.118.119-.23.177-.349.711-1.441,1.388-2.908,2.013-4.395-.138-.125-.27-.243-.408-.355Z" transform="translate(-414.76 -113.544)" fill="#fff"/></g><g transform="translate(0)"><path d="M449.576,178.829l-.772-.266c-1.511-.522-2.994-1.112-4.407-1.752a50.417,50.417,0,0,1-4.58-2.343c-1.441-.821-2.875-1.737-4.259-2.72s-2.715-2.03-3.94-3.087h0l-.1-.084c-1.262-1.093-2.465-2.241-3.578-3.412-.706-.725-1.383-1.471-2.01-2.217l-.105-.118c-.423-.5-.83-.994-1.242-1.522-.867-1.1-1.711-2.259-2.508-3.456-.178-.261-.354-.534-.529-.806-.816-1.277-1.589-2.614-2.311-4-.154-.294-.307-.588-.448-.883-.618-1.223-1.21-2.539-1.755-3.9-.277-.691-.494-1.266-.685-1.808-.39-1.091-.711-2.086-.982-3.04-.406-1.377-.757-2.8-1.043-4.221h0l-.064-.337-.038-.2-.026-.137c-.318-1.665-.555-3.343-.7-4.985-.15-1.581-.226-3.232-.226-4.9v-.158c.007-1.722.094-3.445.259-5.124.159-1.6.391-3.18.691-4.71l0-.031c.027-.151.055-.3.089-.454a51.53,51.53,0,0,1,1.365-5.344l.1-.319h.315c.467-.052.969-.1,1.577-.144,1.141-.1,2.392-.179,3.818-.238.509-.02,1.018-.033,1.527-.046,1.281-.027,2.574-.027,3.863,0,.511.013,1.02.027,1.529.046,1.385.057,2.631.132,3.808.23h.017c.53.039,1.061.093,1.591.145,1.37.138,2.586.286,3.718.45l.641.093-.306.571a31,31,0,0,0-2.082,4.824l-.114.341-.358-.032c-.042,0-.087-.01-.131-.015l-.093-.011c-1.558-.191-3.179-.345-4.83-.459a3.662,3.662,0,0,1-.383-.022c-1.507-.087-3.111-.135-4.741-.142h-.386c-1.565.006-3.019.049-4.43.13-.022.095-.043.19-.063.285l-.011.058c-.315,1.429-.562,2.887-.736,4.332a46.782,46.782,0,0,0-.346,4.993c-.006.251-.006.5-.006.75,0,1.387.064,2.8.189,4.2a46.355,46.355,0,0,0,.691,4.894c.064.33.129.653.206.983l.013.061c.281,1.279.62,2.561,1.006,3.81s.837,2.5,1.375,3.825c.142.342.285.681.435,1.02a44.717,44.717,0,0,0,2.261,4.5c.072.131.146.261.221.379a45.7,45.7,0,0,0,2.77,4.209c.228.306.456.605.691.905.816,1.057,1.693,2.091,2.607,3.077.836.907,1.754,1.823,2.732,2.723l.137.12q.36.331.72.642a45.606,45.606,0,0,0,3.892,3.058,44.888,44.888,0,0,0,4.189,2.632,45.488,45.488,0,0,0,4.152,2.046c.228-.331.453-.674.707-1.066.629-.954,1.23-1.919,1.786-2.871.293-.484.567-.955.817-1.406.556-.982,1.093-1.982,1.6-2.978.246-.473.484-.954.732-1.476.538-1.12.987-2.108,1.374-3.022l.168-.4.406.149a31.617,31.617,0,0,0,4.261,1.232l.132.028.085.085c.138.113.27.231.408.356l.239.216-.125.3c-.594,1.414-1.276,2.9-2.025,4.42l-.179.351c-.69,1.394-1.45,2.81-2.256,4.208l-.217.369c-.768,1.325-1.618,2.694-2.528,4.069l-.221.328c-.875,1.313-1.828,2.649-2.829,3.966Zm-17.018-10.561c1.106.937,2.29,1.856,3.526,2.739,1.36.965,2.768,1.864,4.185,2.672a49.545,49.545,0,0,0,4.5,2.3c1.388.63,2.845,1.209,4.331,1.722l.148.051c.917-1.216,1.792-2.448,2.6-3.663l.1-.156c.039-.058.077-.116.116-.172.9-1.353,1.736-2.707,2.495-4.016l.217-.368c.8-1.381,1.547-2.781,2.23-4.159l.178-.35c.687-1.394,1.318-2.762,1.874-4.069l-.075-.064a32.463,32.463,0,0,1-3.868-1.1c-.353.816-.755,1.692-1.221,2.664-.251.53-.494,1.021-.743,1.5-.508,1-1.052,2.018-1.613,3.008-.254.457-.533.938-.829,1.426-.561.96-1.17,1.939-1.806,2.9-.336.518-.624.955-.937,1.395l-.211.3-.336-.142a46.588,46.588,0,0,1-4.578-2.233,45.812,45.812,0,0,1-4.271-2.684,46.427,46.427,0,0,1-3.965-3.115c-.2-.174-.4-.353-.607-.538L433.87,164c-1.046-.957-2.027-1.931-2.916-2.9-.931-1-1.826-2.06-2.657-3.135-.238-.3-.47-.609-.7-.921a46.372,46.372,0,0,1-2.818-4.28c-.075-.119-.159-.265-.236-.4a45.606,45.606,0,0,1-2.3-4.578c-.151-.343-.3-.688-.444-1.04-.549-1.353-1.008-2.628-1.4-3.9-.4-1.289-.747-2.612-1.036-3.933l-.011-.051c-.075-.324-.138-.642-.2-.965a47.294,47.294,0,0,1-.7-4.989c-.128-1.423-.192-2.862-.192-4.276,0-.254,0-.515.007-.768a47.562,47.562,0,0,1,.352-5.084c.175-1.461.425-2.936.743-4.382l.007-.036c.047-.227.1-.455.154-.683l.077-.328.337-.021c1.535-.1,3.112-.145,4.823-.152h.39c1.648.007,3.268.056,4.816.146a2.982,2.982,0,0,0,.323.019h.031c1.622.111,3.215.261,4.736.445a31.937,31.937,0,0,1,1.723-4.04c-.937-.127-1.939-.244-3.042-.356-.517-.051-1.033-.1-1.551-.142l-.027,0c-1.168-.1-2.406-.172-3.783-.229-.5-.019-1.008-.032-1.513-.046-1.271-.026-2.557-.026-3.821,0-.5.013-1.007.026-1.512.046-1.411.058-2.648.135-3.781.235-.488.037-.9.073-1.286.113a50.435,50.435,0,0,0-1.255,4.977c-.031.137-.055.263-.077.387l-.009.054c-.3,1.511-.527,3.078-.684,4.655-.163,1.649-.248,3.344-.255,5.036v.156c0,1.643.075,3.265.222,4.819.135,1.489.343,3.006.62,4.516h.3l-.165.579-.015.052c.3,1.539.667,3.074,1.107,4.563.267.939.582,1.916.966,2.989.187.532.4,1.095.672,1.774.536,1.339,1.117,2.631,1.727,3.839.14.294.289.578.438.863.71,1.361,1.469,2.676,2.257,3.907.184.286.355.552.532.811.785,1.181,1.615,2.324,2.468,3.4.362.463.718.9,1.084,1.334h0l.143.163c.641.768,1.337,1.538,2.069,2.29,1.07,1.127,2.223,2.228,3.43,3.279.022.006.045.014.069.023l.645.254Z" transform="translate(-413.26 -112.043)" fill="#fff"/></g></g><g transform="translate(9.98 11.685)"><g transform="translate(0.455 0.567)"><path d="M356.252,154.562c-.783.25-1.559.513-2.329.8-.849.3-1.691.625-2.52.954s-1.664.684-2.48,1.046q.01,2.714.237,5.382c.026.368.059.737.1,1.1.125,1.395.3,2.783.52,4.152.112.743.237,1.487.382,2.217.171.967.375,1.934.592,2.888.191.816.388,1.625.612,2.434.217.849.461,1.691.717,2.526q.375,1.214.79,2.408c.276.809.566,1.605.875,2.395s.612,1.553.941,2.316.671,1.546,1.033,2.3c.342.75.711,1.493,1.079,2.23.388.75.783,1.494,1.2,2.224.395.717.8,1.428,1.23,2.132.434.724.875,1.434,1.342,2.138.447.691.908,1.375,1.388,2.053s.974,1.375,1.48,2.046,1.007,1.322,1.546,1.967c.52.665,1.066,1.316,1.625,1.954s1.119,1.263,1.7,1.882c.592.638,1.2,1.27,1.823,1.895.592.592,1.2,1.171,1.81,1.737.717.678,1.454,1.336,2.2,1.967.566.493,1.138.974,1.724,1.434,1.085.882,2.2,1.73,3.342,2.54.29.217.586.421.888.625.3-.2.6-.408.888-.625,1.138-.809,2.257-1.658,3.342-2.54-1.2-.776-2.362-1.6-3.507-2.467-.244-.178-.487-.362-.724-.546q-2.023-1.569-3.928-3.277c-.25-.23-.5-.454-.744-.691q-1.48-1.362-2.882-2.836c-.388-.4-.77-.816-1.151-1.23q-1.115-1.234-2.178-2.52c-.414-.5-.822-1.013-1.217-1.533q-.938-1.194-1.8-2.441c-.408-.566-.8-1.138-1.178-1.717-.533-.809-1.053-1.625-1.546-2.46q-.553-.908-1.066-1.836-.711-1.263-1.362-2.566c-.316-.619-.618-1.25-.9-1.882q-.651-1.372-1.21-2.777c-.257-.605-.5-1.217-.724-1.829-.395-1.033-.757-2.086-1.092-3.145-.178-.533-.342-1.073-.5-1.612-.375-1.283-.717-2.579-1.013-3.888-.079-.336-.151-.671-.217-1.013q-.542-2.487-.875-5.046c-.04-.29-.079-.573-.112-.862-.171-1.428-.3-2.862-.375-4.316.7-.277,1.4-.533,2.118-.776.921-.329,1.855-.638,2.8-.921.053,1.724.184,3.428.382,5.112.059.579.138,1.151.224,1.717.151,1.1.335,2.191.559,3.27q.395,2.043.948,4.04c.066.283.145.559.224.836q.681,2.408,1.559,4.737a.747.747,0,0,1,.112-.033,1,1,0,0,1-.085.092q.859,2.319,1.915,4.547a4.307,4.307,0,0,0,.2.428c.652,1.382,1.362,2.737,2.119,4.059.1.171.2.342.3.507.763,1.322,1.586,2.612,2.454,3.869.085.132.171.257.263.381.947,1.355,1.941,2.671,2.994,3.941.033-.007.066-.013.105-.02a.734.734,0,0,0-.073.059c1.053,1.283,2.165,2.526,3.329,3.717.2.217.414.434.625.645.974.967,1.967,1.908,3,2.809.842.744,1.7,1.461,2.579,2.151.441.355.888.7,1.342,1.033q2.053,1.53,4.231,2.888c.612-.566,1.217-1.145,1.809-1.737.618-.625,1.23-1.257,1.822-1.895-1.454-.862-2.868-1.8-4.23-2.783-.994-.717-1.961-1.461-2.9-2.244h-.006c-.342-.29-.685-.572-1.027-.868-1.25-1.092-2.461-2.231-3.619-3.422-.349-.355-.684-.71-1.013-1.072-.8-.869-1.579-1.757-2.316-2.671-.546-.658-1.066-1.329-1.572-2.013s-.98-1.349-1.454-2.039c-.559-.829-1.092-1.665-1.612-2.52q-.573-.947-1.106-1.915-.73-1.313-1.381-2.665c-.368-.743-.711-1.494-1.04-2.257-.342-.783-.671-1.579-.974-2.388q-.622-1.628-1.145-3.3c-.151-.48-.3-.967-.434-1.454-.447-1.592-.835-3.2-1.145-4.849-.079-.421-.158-.836-.224-1.263v-.007q-.316-1.826-.5-3.684c-.171-1.671-.27-3.355-.283-5.066-.013-.263-.013-.533-.013-.8,0-1.461.052-2.9.158-4.336-.987.2-1.967.428-2.941.678q-1.076.266-2.132.572C358.048,154,357.147,154.273,356.252,154.562Z" transform="translate(-348.923 -152.49)" fill="#fff"/></g><g transform="translate(0)"><path d="M379.042,215.547l-.254-.172c-.288-.194-.6-.406-.907-.638-1.146-.815-2.278-1.675-3.356-2.551-.546-.429-1.115-.9-1.736-1.445-.764-.649-1.51-1.316-2.211-1.979-.639-.591-1.252-1.179-1.819-1.746-.7-.7-1.3-1.328-1.834-1.907-.611-.653-1.171-1.273-1.708-1.894-.608-.693-1.145-1.339-1.639-1.972-.573-.684-1.106-1.382-1.551-1.974-.572-.757-1.06-1.432-1.492-2.062-.46-.649-.918-1.326-1.395-2.063-.424-.639-.854-1.324-1.351-2.151-.409-.673-.815-1.376-1.239-2.146-.36-.636-.744-1.347-1.2-2.234-.36-.719-.737-1.479-1.089-2.251-.336-.7-.677-1.462-1.038-2.314-.36-.836-.671-1.6-.948-2.333-.3-.769-.589-1.559-.88-2.409-.276-.793-.543-1.608-.794-2.421-.288-.937-.524-1.77-.723-2.548-.245-.885-.457-1.771-.614-2.443-.247-1.088-.443-2.039-.6-2.913-.134-.674-.26-1.406-.384-2.229-.226-1.428-.4-2.835-.523-4.179-.039-.351-.072-.727-.1-1.107-.151-1.773-.231-3.6-.238-5.413v-.3l.271-.12c.794-.352,1.634-.706,2.5-1.053.935-.371,1.764-.685,2.536-.96.732-.269,1.5-.531,2.342-.8h0c.974-.315,1.866-.586,2.728-.827.7-.2,1.426-.4,2.146-.576.94-.241,1.908-.465,2.958-.682l.589-.122-.044.6c-.1,1.415-.157,2.862-.157,4.3,0,.255,0,.518.012.773.013,1.657.108,3.347.281,5.043.127,1.257.293,2.486.5,3.653l.007.049c.058.375.127.74.2,1.109l.02.105c.294,1.563.666,3.137,1.136,4.809.143.5.287.988.43,1.441.342,1.1.724,2.2,1.136,3.277.278.743.593,1.517.966,2.369.352.817.689,1.548,1.03,2.237.43.892.89,1.781,1.372,2.645.35.636.719,1.275,1.1,1.9.533.877,1.056,1.7,1.6,2.5.5.733.975,1.4,1.442,2.022.544.735,1.053,1.387,1.558,1.995.7.864,1.447,1.73,2.3,2.653.329.362.657.709,1,1.062,1.107,1.139,2.315,2.281,3.593,3.4.223.193.449.383.674.572l.351.29c.9.751,1.842,1.478,2.876,2.225,1.374,1,2.786,1.924,4.2,2.761l.484.287-.383.413c-.533.574-1.132,1.2-1.832,1.905-.569.569-1.182,1.157-1.824,1.751l-.255.235-.294-.184c-1.464-.914-2.9-1.893-4.262-2.91-.5-.366-.939-.708-1.355-1.044-.852-.667-1.7-1.377-2.595-2.164-.959-.837-1.948-1.763-3.02-2.828-.215-.215-.429-.436-.636-.656-1.152-1.178-2.278-2.434-3.34-3.728l-.041-.05c-1.017-1.227-2.032-2.563-3.017-3.971-.091-.123-.181-.255-.271-.394-.891-1.289-1.723-2.6-2.467-3.89-.1-.151-.2-.327-.3-.5-.782-1.366-1.5-2.743-2.138-4.1a4.443,4.443,0,0,1-.213-.449c-.648-1.366-1.251-2.786-1.789-4.209h0l-.154-.409c-.587-1.557-1.116-3.163-1.571-4.774-.078-.274-.16-.559-.229-.856-.364-1.311-.686-2.682-.951-4.056-.216-1.043-.406-2.153-.563-3.294-.1-.673-.174-1.225-.226-1.733-.18-1.532-.3-3.061-.363-4.55-.728.228-1.468.476-2.211.741-.634.215-1.224.429-1.8.652.079,1.322.2,2.652.354,3.959.029.257.064.506.1.759l.013.1c.225,1.715.517,3.4.869,5.011.065.336.134.661.216,1.006.282,1.249.612,2.513,1.007,3.865.182.621.339,1.128.495,1.6.352,1.11.716,2.16,1.086,3.127.215.587.456,1.195.717,1.814.391.974.795,1.9,1.2,2.759.284.633.584,1.259.9,1.87.43.861.885,1.718,1.353,2.55.341.616.7,1.229,1.058,1.822.439.743.926,1.519,1.538,2.447.433.656.8,1.2,1.167,1.7.617.883,1.2,1.675,1.791,2.426.389.512.795,1.023,1.21,1.524.761.915,1.469,1.734,2.165,2.5.37.4.756.822,1.141,1.219.941.987,1.9,1.935,2.863,2.817.188.182.37.349.553.516l.19.175c1.254,1.124,2.567,2.219,3.9,3.252.234.182.473.363.713.538,1.165.884,2.335,1.707,3.486,2.453l.524.34-.485.394c-1.078.876-2.21,1.736-3.365,2.557-.3.226-.61.438-.9.631Zm-30.71-59.2c.014,1.694.092,3.39.234,5.048.027.375.059.739.1,1.088.119,1.332.293,2.718.517,4.13.122.812.246,1.531.379,2.2.154.868.346,1.806.59,2.876.155.661.364,1.536.607,2.414.2.772.43,1.591.713,2.514.248.8.512,1.607.784,2.392.287.84.57,1.617.869,2.378.274.725.579,1.476.935,2.3.357.842.692,1.589,1.025,2.287.35.766.723,1.518,1.076,2.223.451.871.829,1.573,1.186,2.2.42.764.82,1.455,1.224,2.12.49.818.914,1.492,1.332,2.123.473.731.924,1.4,1.38,2.041.428.625.909,1.288,1.473,2.035.438.582.963,1.269,1.532,1.949.494.631,1.02,1.264,1.618,1.946.531.614,1.083,1.225,1.687,1.871.532.573,1.125,1.189,1.814,1.886.556.556,1.16,1.136,1.795,1.723.693.655,1.426,1.312,2.183,1.954.614.536,1.172,1,1.71,1.424,1.069.868,2.185,1.717,3.325,2.526.213.159.422.307.625.446.2-.138.409-.285.616-.44.975-.694,1.927-1.41,2.843-2.139-1-.665-2.01-1.384-3.01-2.142-.241-.175-.488-.363-.729-.55-1.348-1.045-2.678-2.155-3.952-3.3l-.193-.176c-.19-.174-.379-.347-.564-.527-.965-.887-1.942-1.848-2.894-2.848-.389-.4-.779-.827-1.156-1.236-.708-.783-1.425-1.612-2.193-2.537-.424-.511-.837-1.032-1.229-1.549-.6-.758-1.191-1.564-1.813-2.455-.367-.509-.745-1.06-1.185-1.727-.62-.942-1.115-1.73-1.558-2.48-.365-.6-.727-1.222-1.072-1.847-.474-.842-.935-1.712-1.371-2.582-.317-.621-.624-1.261-.91-1.9-.412-.868-.823-1.811-1.218-2.793-.265-.625-.511-1.247-.729-1.842-.373-.977-.743-2.043-1.1-3.164-.157-.472-.318-.989-.5-1.621-.4-1.371-.735-2.652-1.02-3.916-.083-.354-.155-.691-.22-1.028-.355-1.625-.651-3.335-.879-5.073l-.012-.093c-.036-.26-.071-.516-.1-.777-.171-1.432-.3-2.894-.377-4.343l-.018-.327.3-.121c.685-.271,1.385-.528,2.14-.784.942-.337,1.89-.649,2.811-.926l.567-.171.018.592c.05,1.65.178,3.356.378,5.073.051.5.121,1.038.222,1.7.155,1.127.341,2.217.555,3.246.262,1.357.578,2.7.94,4.011.069.293.147.567.223.832.413,1.462.888,2.92,1.412,4.339l.914-.151-.658.826c.538,1.432,1.145,2.864,1.806,4.259a4.022,4.022,0,0,0,.192.4c.64,1.355,1.347,2.71,2.114,4.051.1.166.19.33.291.487.742,1.285,1.561,2.576,2.445,3.855.088.134.169.252.256.37.922,1.319,1.864,2.566,2.81,3.717l1.7-.285-1.2.893c.96,1.15,1.968,2.267,3,3.325q.31.33.622.641c1.057,1.05,2.031,1.962,2.978,2.788.881.778,1.718,1.476,2.56,2.136.411.331.845.666,1.332,1.025,1.254.935,2.567,1.836,3.907,2.683.541-.505,1.059-1,1.542-1.488.529-.534,1-1.02,1.427-1.474-1.272-.773-2.542-1.617-3.781-2.515-1-.723-1.92-1.43-2.8-2.157h0l-.478-.4c-.229-.192-.457-.384-.686-.582-1.3-1.134-2.525-2.294-3.647-3.448-.354-.36-.689-.715-1.024-1.084-.865-.935-1.629-1.817-2.333-2.692-.511-.616-1.03-1.281-1.584-2.028-.473-.635-.952-1.307-1.464-2.053-.553-.82-1.084-1.65-1.626-2.541-.384-.637-.759-1.286-1.115-1.931-.489-.878-.957-1.783-1.393-2.687-.346-.7-.69-1.444-1.047-2.274-.378-.865-.7-1.654-.982-2.409-.418-1.094-.806-2.215-1.153-3.326-.145-.46-.292-.954-.437-1.466-.478-1.7-.856-3.3-1.155-4.889l-.02-.106c-.073-.39-.145-.776-.207-1.173l-.005-.037c-.2-1.177-.37-2.414-.5-3.678-.176-1.723-.272-3.442-.285-5.108-.013-.255-.013-.532-.013-.8,0-1.259.04-2.523.118-3.767-.814.175-1.582.356-2.334.549-.711.176-1.423.367-2.118.569-.854.24-1.735.507-2.7.818h0c-.831.266-1.587.524-2.31.79-.767.273-1.586.583-2.509.95C349.771,155.733,349.034,156.042,348.331,156.35Z" transform="translate(-347.42 -150.619)" fill="#fff"/></g></g></g><g transform="translate(72.991 36.475)"><g transform="translate(0 0)"><g transform="translate(0 0)"><path d="M316.459,425.916a5.147,5.147,0,0,1-1.564-.238,5.056,5.056,0,0,1-1.435-.733v-1.9h.935l.2,1.4a3.483,3.483,0,0,0,.861.379,3.589,3.589,0,0,0,1,.134,2.582,2.582,0,0,0,1.035-.186,1.492,1.492,0,0,0,.651-.516,1.426,1.426,0,0,0,.031-1.491,1.633,1.633,0,0,0-.644-.547,5.208,5.208,0,0,0-1.225-.412,5.841,5.841,0,0,1-1.548-.571,2.655,2.655,0,0,1-.959-.868,2.118,2.118,0,0,1-.327-1.17,2.184,2.184,0,0,1,.369-1.246,2.534,2.534,0,0,1,1.029-.867,3.511,3.511,0,0,1,1.539-.318,4.462,4.462,0,0,1,1.652.284,4.07,4.07,0,0,1,1.182.687v1.777h-.935l-.2-1.27a2.377,2.377,0,0,0-.684-.366,3.038,3.038,0,0,0-1.014-.147,2.14,2.14,0,0,0-.9.18,1.456,1.456,0,0,0-.611.5,1.325,1.325,0,0,0-.22.763,1.151,1.151,0,0,0,.2.672,1.618,1.618,0,0,0,.647.5,6.474,6.474,0,0,0,1.2.406,4.72,4.72,0,0,1,2.129,1.029,2.218,2.218,0,0,1,.724,1.683,2.166,2.166,0,0,1-.385,1.268,2.549,2.549,0,0,1-1.084.864A4.019,4.019,0,0,1,316.459,425.916Z" transform="translate(-313.278 -416.584)" fill="#fff"/><path d="M316.141,425.779a5.333,5.333,0,0,1-1.619-.247,5.244,5.244,0,0,1-1.487-.759l-.075-.054v-2.175h1.274l.211,1.469a3.338,3.338,0,0,0,.744.316,3.423,3.423,0,0,0,.951.127,2.413,2.413,0,0,0,.962-.171,1.316,1.316,0,0,0,.573-.453,1.243,1.243,0,0,0,.027-1.291,1.461,1.461,0,0,0-.575-.483,5.05,5.05,0,0,0-1.181-.4,6.07,6.07,0,0,1-1.6-.59,2.854,2.854,0,0,1-1.023-.928,2.309,2.309,0,0,1-.355-1.268,2.372,2.372,0,0,1,.4-1.348,2.724,2.724,0,0,1,1.1-.93,3.706,3.706,0,0,1,1.618-.335,4.668,4.668,0,0,1,1.719.3,4.274,4.274,0,0,1,1.234.719l.063.054v2.042h-1.272l-.214-1.352a2.282,2.282,0,0,0-.577-.3,2.87,2.87,0,0,0-.952-.136,1.971,1.971,0,0,0-.828.163,1.267,1.267,0,0,0-.536.441,1.139,1.139,0,0,0-.188.661.965.965,0,0,0,.166.569,1.459,1.459,0,0,0,.577.443,6.288,6.288,0,0,0,1.165.393,4.919,4.919,0,0,1,2.209,1.073,2.4,2.4,0,0,1,.781,1.815,2.354,2.354,0,0,1-.417,1.372,2.736,2.736,0,0,1-1.16.927A4.221,4.221,0,0,1,316.141,425.779Zm-2.817-1.247a4.847,4.847,0,0,0,1.309.653,4.978,4.978,0,0,0,1.508.23,3.853,3.853,0,0,0,1.572-.3,2.378,2.378,0,0,0,1.009-.8,2,2,0,0,0,.352-1.164,2.026,2.026,0,0,0-.667-1.55,4.576,4.576,0,0,0-2.048-.985,6.649,6.649,0,0,1-1.235-.419,1.8,1.8,0,0,1-.718-.564,1.335,1.335,0,0,1-.231-.775,1.507,1.507,0,0,1,.251-.866,1.644,1.644,0,0,1,.685-.567,2.331,2.331,0,0,1,.981-.2,3.213,3.213,0,0,1,1.075.158,2.553,2.553,0,0,1,.736.4l.055.044.188,1.186h.6V417.5a4.007,4.007,0,0,0-1.067-.6,4.312,4.312,0,0,0-1.585-.271,3.351,3.351,0,0,0-1.46.3,2.362,2.362,0,0,0-.957.805,2.014,2.014,0,0,0-.338,1.144,1.953,1.953,0,0,0,.3,1.072,2.494,2.494,0,0,0,.9.807,5.68,5.68,0,0,0,1.5.552,5.409,5.409,0,0,1,1.268.428,1.811,1.811,0,0,1,.714.611,1.607,1.607,0,0,1-.034,1.69,1.678,1.678,0,0,1-.728.58,2.77,2.77,0,0,1-1.109.2,3.805,3.805,0,0,1-1.052-.141,3.682,3.682,0,0,1-.906-.4l-.073-.044-.191-1.328h-.6Z" transform="translate(-312.96 -416.266)" fill="#fff"/></g><g transform="translate(7.404 0)"><path d="M337.506,425.916a3.515,3.515,0,0,1-1.545-.33,3.312,3.312,0,0,1-1.164-.932,4.278,4.278,0,0,1-.733-1.426,6.169,6.169,0,0,1-.254-1.82v-.128a6.176,6.176,0,0,1,.254-1.817,4.309,4.309,0,0,1,.733-1.432,3.3,3.3,0,0,1,1.164-.935,3.509,3.509,0,0,1,1.545-.33,3.669,3.669,0,0,1,1.6.33,3.171,3.171,0,0,1,1.157.935,4.224,4.224,0,0,1,.705,1.432,6.544,6.544,0,0,1,.238,1.817v.128a6.536,6.536,0,0,1-.238,1.82,4.193,4.193,0,0,1-.705,1.426,3.187,3.187,0,0,1-1.157.932A3.675,3.675,0,0,1,337.506,425.916Zm0-1a2.215,2.215,0,0,0,1.432-.44,2.531,2.531,0,0,0,.8-1.231,5.957,5.957,0,0,0,.256-1.836v-.14a5.807,5.807,0,0,0-.26-1.823,2.561,2.561,0,0,0-.809-1.228,2.2,2.2,0,0,0-1.423-.443,2.1,2.1,0,0,0-1.356.446,2.737,2.737,0,0,0-.843,1.231,5.275,5.275,0,0,0-.287,1.817v.14a5.349,5.349,0,0,0,.287,1.829,2.715,2.715,0,0,0,.843,1.234A2.107,2.107,0,0,0,337.506,424.914Z" transform="translate(-333.629 -416.584)" fill="#fff"/><path d="M337.188,425.779a3.707,3.707,0,0,1-1.624-.348,3.5,3.5,0,0,1-1.227-.982,4.489,4.489,0,0,1-.764-1.486,6.382,6.382,0,0,1-.262-1.874v-.128a6.391,6.391,0,0,1,.262-1.871,4.5,4.5,0,0,1,.764-1.492,3.484,3.484,0,0,1,1.227-.986,3.706,3.706,0,0,1,1.624-.348,3.868,3.868,0,0,1,1.679.347,3.366,3.366,0,0,1,1.223.988,4.423,4.423,0,0,1,.736,1.493,6.773,6.773,0,0,1,.245,1.868v.128a6.764,6.764,0,0,1-.245,1.871,4.406,4.406,0,0,1-.737,1.487,3.387,3.387,0,0,1-1.222.984A3.868,3.868,0,0,1,337.188,425.779Zm0-9.15a3.351,3.351,0,0,0-1.466.311,3.121,3.121,0,0,0-1.1.884,4.137,4.137,0,0,0-.7,1.372,6.024,6.024,0,0,0-.246,1.764v.128a6.018,6.018,0,0,0,.246,1.767,4.116,4.116,0,0,0,.7,1.366,3.148,3.148,0,0,0,1.1.881,3.352,3.352,0,0,0,1.466.311,3.506,3.506,0,0,0,1.522-.312,3.02,3.02,0,0,0,1.092-.879,4.037,4.037,0,0,0,.674-1.365,6.4,6.4,0,0,0,.231-1.77v-.128a6.41,6.41,0,0,0-.231-1.767,4.067,4.067,0,0,0-.674-1.371,3,3,0,0,0-1.092-.882A3.507,3.507,0,0,0,337.188,416.63Zm0,8.148a2.291,2.291,0,0,1-1.469-.483,2.9,2.9,0,0,1-.9-1.314,5.557,5.557,0,0,1-.3-1.891v-.14a5.478,5.478,0,0,1,.3-1.879,2.926,2.926,0,0,1,.9-1.31,2.283,2.283,0,0,1,1.469-.486,2.382,2.382,0,0,1,1.537.483,2.754,2.754,0,0,1,.868,1.312,6.019,6.019,0,0,1,.269,1.881v.14a6.164,6.164,0,0,1-.266,1.892,2.722,2.722,0,0,1-.862,1.316A2.4,2.4,0,0,1,337.188,424.778Zm0-7.14a1.93,1.93,0,0,0-1.242.406,2.573,2.573,0,0,0-.786,1.151,5.122,5.122,0,0,0-.276,1.755v.14a5.2,5.2,0,0,0,.276,1.767,2.551,2.551,0,0,0,.785,1.154,1.94,1.94,0,0,0,1.242.4,2.05,2.05,0,0,0,1.318-.4,2.363,2.363,0,0,0,.744-1.145,5.8,5.8,0,0,0,.248-1.779v-.14a5.666,5.666,0,0,0-.25-1.766,2.394,2.394,0,0,0-.751-1.143A2.029,2.029,0,0,0,337.188,417.638Z" transform="translate(-333.311 -416.266)" fill="#fff"/></g><g transform="translate(16.366 0)"><path d="M362.469,425.916a3.992,3.992,0,0,1-2.232-.586,3.612,3.612,0,0,1-1.344-1.607,5.69,5.69,0,0,1-.449-2.315v-.128a5.482,5.482,0,0,1,.47-2.324,3.8,3.8,0,0,1,1.35-1.6,3.7,3.7,0,0,1,2.1-.586,4.45,4.45,0,0,1,1.576.268,3.787,3.787,0,0,1,1.185.684v1.918h-.959l-.128-1.4a1.9,1.9,0,0,0-.449-.257,2.737,2.737,0,0,0-.562-.159,3.829,3.829,0,0,0-.669-.055,2.407,2.407,0,0,0-1.478.449,2.759,2.759,0,0,0-.916,1.237,4.925,4.925,0,0,0-.311,1.82v.14a4.911,4.911,0,0,0,.333,1.909,2.589,2.589,0,0,0,.971,1.206,2.786,2.786,0,0,0,1.555.415,3.379,3.379,0,0,0,.837-.1,2.456,2.456,0,0,0,.678-.268l.134-1.24h.941v1.93a4.172,4.172,0,0,1-1.2.486A5.9,5.9,0,0,1,362.469,425.916Z" transform="translate(-358.262 -416.584)" fill="#fff"/><path d="M362.151,425.779a4.186,4.186,0,0,1-2.332-.616,3.813,3.813,0,0,1-1.411-1.686,5.9,5.9,0,0,1-.464-2.388v-.128a5.68,5.68,0,0,1,.487-2.4,3.992,3.992,0,0,1,1.414-1.678,3.9,3.9,0,0,1,2.2-.617,4.639,4.639,0,0,1,1.64.28,4,4,0,0,1,1.242.718l.061.054V419.5h-1.307l-.136-1.489a1.762,1.762,0,0,0-.345-.186,2.534,2.534,0,0,0-.525-.148,3.634,3.634,0,0,0-.637-.052,2.241,2.241,0,0,0-1.369.413,2.592,2.592,0,0,0-.856,1.157,4.772,4.772,0,0,0-.3,1.754v.14a4.749,4.749,0,0,0,.319,1.838,2.417,2.417,0,0,0,.9,1.125,2.621,2.621,0,0,0,1.455.386,3.22,3.22,0,0,0,.792-.1,2.462,2.462,0,0,0,.552-.2l.142-1.31h1.286v2.213l-.086.053a4.362,4.362,0,0,1-1.249.508A6.108,6.108,0,0,1,362.151,425.779Zm-.1-9.15a3.539,3.539,0,0,0-2,.555,3.636,3.636,0,0,0-1.286,1.528,5.323,5.323,0,0,0-.453,2.248v.128a5.543,5.543,0,0,0,.433,2.242,3.458,3.458,0,0,0,1.277,1.528,3.834,3.834,0,0,0,2.132.556,5.729,5.729,0,0,0,1.391-.169,4.113,4.113,0,0,0,1.059-.412V423.19h-.6l-.126,1.166-.076.047a2.651,2.651,0,0,1-.728.29,3.6,3.6,0,0,1-.882.11,2.979,2.979,0,0,1-1.654-.445,2.783,2.783,0,0,1-1.039-1.288,5.114,5.114,0,0,1-.347-1.98v-.14a5.131,5.131,0,0,1,.324-1.887,2.947,2.947,0,0,1,.977-1.316,2.6,2.6,0,0,1,1.586-.485,4.039,4.039,0,0,1,.7.058,2.969,2.969,0,0,1,.6.169,2.091,2.091,0,0,1,.491.281l.062.049.12,1.318h.611v-1.652a3.707,3.707,0,0,0-1.067-.6A4.282,4.282,0,0,0,362.047,416.63Z" transform="translate(-357.944 -416.266)" fill="#fff"/></g><g transform="translate(24.564 0.128)"><path d="M380.977,426.012v-.77l1-.171v-7.006l-1-.171v-.776h3.194v.776l-1,.171v7.006l1,.171v.77Z" transform="translate(-380.795 -416.936)" fill="#fff"/><path d="M384.035,425.875h-3.558v-1.1l1-.171v-6.7l-1-.171v-1.111h3.558v1.111l-1,.171v6.7l1,.171Zm-3.194-.364h2.831v-.435l-1-.171v-7.312l1-.171v-.441h-2.831v.441l1,.171v7.312l-1,.171Z" transform="translate(-380.477 -416.618)" fill="#fff"/></g><g transform="translate(29.061 0.128)"><path d="M393.337,426.012v-.77l1-.171v-7.006l-1-.171v-.776h6.584v2.138h-.965l-.135-1.209h-3.286v2.9h3.28v.947h-3.28v3.219h3.481l.135-1.228h.959v2.132Z" transform="translate(-393.155 -416.936)" fill="#fff"/><path d="M399.975,425.875h-7.138v-1.1l1-.171v-6.7l-1-.171v-1.111h6.948v2.5h-1.31l-.134-1.209H395.4v2.531h3.28v1.31H395.4v2.855h3.136l.135-1.228h1.3Zm-6.774-.364h6.41v-1.768H399l-.135,1.228h-3.826v-3.583h3.28v-.583h-3.28v-3.259h3.631l.135,1.209h.62v-1.774H393.2v.441l1,.171v7.312l-1,.171Z" transform="translate(-392.837 -416.618)" fill="#fff"/></g><g transform="translate(37.564 0.128)"><path d="M418.811,426.012v-.77l1-.171v-7.042h-2.016l-.177,1.234h-.9v-2.144H424.1v2.144h-.892l-.183-1.234H421.01v7.042l1,.171v.77Z" transform="translate(-416.528 -416.936)" fill="#fff"/><path d="M421.87,425.875h-3.558v-1.1l1-.171v-6.707h-1.676l-.177,1.234H416.21v-2.508h7.755v2.508h-1.23l-.183-1.234h-1.677V424.6l1,.171Zm-3.194-.364h2.83v-.435l-1-.171v-7.377h2.355l.183,1.234h.553v-1.78h-7.027v1.78h.565l.177-1.234h2.355v7.377l-1,.171Z" transform="translate(-416.21 -416.618)" fill="#fff"/></g><g transform="translate(46.373 0.128)"><path d="M443.4,426.012v-.77l1-.171v-2.3l-2.737-4.764-.733-.116v-.776h3.066v.776l-1.014.116,1.887,3.494.128.238.006-.012.122-.226,1.979-3.494-1.051-.116v-.776h3.005v.776l-.776.116-2.687,4.673v2.388l1,.171v.77Z" transform="translate(-440.741 -416.936)" fill="#fff"/><path d="M446.449,425.875H442.9v-1.1l1-.171V422.5l-2.669-4.647-.8-.127v-1.113h3.43v1.12l-.908.1,1.728,3.2,1.813-3.2-.939-.1v-1.12h3.369v1.114l-.844.126-2.619,4.555V424.6l1,.171Zm-3.188-.364h2.824v-.435l-1-.171v-2.59l2.756-4.791.708-.106v-.437h-2.642v.431l1.163.128-2.4,4.254-.294-.523-2.015-3.73,1.12-.128v-.431h-2.7v.438l.665.105,2.8,4.881v2.5l-1,.171Z" transform="translate(-440.423 -416.618)" fill="#fff"/></g><g transform="translate(59.062 0)"><path d="M479.5,425.916a3.517,3.517,0,0,1-1.545-.33,3.306,3.306,0,0,1-1.163-.932,4.277,4.277,0,0,1-.733-1.426,6.166,6.166,0,0,1-.253-1.82v-.128a6.173,6.173,0,0,1,.253-1.817,4.308,4.308,0,0,1,.733-1.432,3.289,3.289,0,0,1,1.163-.935,3.511,3.511,0,0,1,1.545-.33,3.666,3.666,0,0,1,1.6.33,3.168,3.168,0,0,1,1.158.935,4.237,4.237,0,0,1,.706,1.432,6.572,6.572,0,0,1,.238,1.817v.128a6.564,6.564,0,0,1-.238,1.82,4.206,4.206,0,0,1-.706,1.426,3.184,3.184,0,0,1-1.158.932A3.672,3.672,0,0,1,479.5,425.916Zm0-1a2.216,2.216,0,0,0,1.433-.44,2.535,2.535,0,0,0,.8-1.231,5.957,5.957,0,0,0,.257-1.836v-.14a5.83,5.83,0,0,0-.259-1.823,2.564,2.564,0,0,0-.81-1.228,2.2,2.2,0,0,0-1.423-.443,2.1,2.1,0,0,0-1.356.446,2.734,2.734,0,0,0-.843,1.231,5.276,5.276,0,0,0-.287,1.817v.14a5.349,5.349,0,0,0,.287,1.829,2.712,2.712,0,0,0,.843,1.234A2.106,2.106,0,0,0,479.5,424.914Z" transform="translate(-475.618 -416.584)" fill="#fff"/><path d="M479.177,425.779a3.707,3.707,0,0,1-1.624-.348,3.5,3.5,0,0,1-1.227-.982,4.482,4.482,0,0,1-.764-1.486,6.368,6.368,0,0,1-.262-1.874v-.128a6.387,6.387,0,0,1,.261-1.871,4.5,4.5,0,0,1,.765-1.492,3.483,3.483,0,0,1,1.227-.986,3.706,3.706,0,0,1,1.624-.348,3.867,3.867,0,0,1,1.679.347,3.363,3.363,0,0,1,1.223.988,4.437,4.437,0,0,1,.736,1.493,6.781,6.781,0,0,1,.245,1.868v.128a6.772,6.772,0,0,1-.245,1.871,4.42,4.42,0,0,1-.736,1.487,3.392,3.392,0,0,1-1.223.984A3.867,3.867,0,0,1,479.177,425.779Zm0-9.15a3.352,3.352,0,0,0-1.467.311,3.125,3.125,0,0,0-1.1.884,4.141,4.141,0,0,0-.7,1.372,6.01,6.01,0,0,0-.246,1.764v.128a6.016,6.016,0,0,0,.245,1.767,4.126,4.126,0,0,0,.7,1.366,3.146,3.146,0,0,0,1.1.881,3.352,3.352,0,0,0,1.467.311,3.508,3.508,0,0,0,1.522-.312,3.024,3.024,0,0,0,1.093-.879,4.054,4.054,0,0,0,.674-1.365,6.411,6.411,0,0,0,.231-1.77v-.128a6.421,6.421,0,0,0-.231-1.767,4.079,4.079,0,0,0-.675-1.371,3.006,3.006,0,0,0-1.092-.882A3.509,3.509,0,0,0,479.177,416.63Zm0,8.148a2.291,2.291,0,0,1-1.469-.483,2.9,2.9,0,0,1-.9-1.314,5.548,5.548,0,0,1-.3-1.891v-.14a5.478,5.478,0,0,1,.3-1.879,2.926,2.926,0,0,1,.9-1.31,2.282,2.282,0,0,1,1.469-.486,2.385,2.385,0,0,1,1.537.483,2.753,2.753,0,0,1,.868,1.312,6.018,6.018,0,0,1,.269,1.881v.14a6.148,6.148,0,0,1-.266,1.892,2.728,2.728,0,0,1-.862,1.316A2.4,2.4,0,0,1,479.177,424.778Zm0-7.14a1.9,1.9,0,0,0-1.242.406,2.57,2.57,0,0,0-.786,1.151,5.113,5.113,0,0,0-.276,1.755v.14a5.188,5.188,0,0,0,.276,1.767,2.549,2.549,0,0,0,.786,1.154,1.938,1.938,0,0,0,1.242.4,2.051,2.051,0,0,0,1.318-.4,2.369,2.369,0,0,0,.744-1.145,5.8,5.8,0,0,0,.248-1.779v-.14a5.677,5.677,0,0,0-.25-1.767,2.4,2.4,0,0,0-.751-1.142A2.031,2.031,0,0,0,479.177,417.638Z" transform="translate(-475.3 -416.266)" fill="#fff"/></g><g transform="translate(67.693 0.128)"><path d="M499.525,426.012v-.77l1-.171v-7.006l-1-.171v-.776h6.688v2.138h-.965l-.134-1.2h-3.39v3.078h3.256v.947h-3.256v2.993l1,.171v.77Z" transform="translate(-499.343 -416.936)" fill="#fff"/><path d="M502.583,425.875h-3.558v-1.1l1-.171v-6.7l-1-.171v-1.111h7.052v2.5h-1.31l-.135-1.2h-3.045v2.714h3.256v1.311h-3.256V424.6l1,.171Zm-3.195-.364h2.831v-.435l-1-.171v-3.327h3.256v-.583h-3.256v-3.442h3.734l.134,1.2h.621v-1.774h-6.325v.441l1,.171v7.312l-1,.171Z" transform="translate(-499.025 -416.618)" fill="#fff"/></g><g transform="translate(79.1 0.128)"><path d="M530.877,426.012v-.77l1-.171v-7.006l-1-.171v-.776h6.584v2.138H536.5l-.134-1.209h-3.286v2.9h3.28v.947h-3.28v3.219h3.482l.134-1.228h.959v2.132Z" transform="translate(-530.695 -416.936)" fill="#fff"/><path d="M537.514,425.875h-7.137v-1.1l1-.171v-6.7l-1-.171v-1.111h6.948v2.5h-1.31l-.134-1.209h-2.942v2.531h3.28v1.31h-3.28v2.855h3.137l.134-1.228h1.3Zm-6.773-.364h6.41v-1.768h-.614l-.135,1.228h-3.827v-3.583h3.28v-.583h-3.28v-3.259h3.631l.135,1.209h.62v-1.774h-6.22v.441l1,.171v7.312l-1,.171Z" transform="translate(-530.377 -416.618)" fill="#fff"/></g><g transform="translate(87.603 0.128)"><path d="M556.351,426.012v-.77l1-.171v-7.042h-2.016l-.178,1.234h-.9v-2.144h7.391v2.144h-.892l-.183-1.234H558.55v7.042l1,.171v.77Z" transform="translate(-554.068 -416.936)" fill="#fff"/><path d="M559.409,425.875h-3.558v-1.1l1-.171v-6.707h-1.676l-.177,1.234H553.75v-2.508H561.5v2.508h-1.23l-.183-1.234h-1.677V424.6l1,.171Zm-3.195-.364h2.831v-.435l-1-.171v-7.377H560.4l.183,1.234h.553v-1.78h-7.027v1.78h.564l.177-1.234h2.355v7.377l-1,.171Z" transform="translate(-553.75 -416.618)" fill="#fff"/></g><g transform="translate(96.412 0.128)"><path d="M578.463,426.012v-.77l1-.171v-7.006l-1-.171v-.776h3.194v.776l-1,.171v3.072h4.251v-3.072l-1-.171v-.776h3.194v.776l-1,.171v7.006l1,.171v.77h-3.194v-.77l1-.171v-2.987h-4.251v2.987l1,.171v.77Z" transform="translate(-578.281 -416.936)" fill="#fff"/><path d="M586.975,425.875h-3.558v-1.1l1-.171v-2.651h-3.887V424.6l1,.171v1.1h-3.558v-1.1l1-.171v-6.7l-1-.171v-1.111h3.558v1.111l-1,.171v2.737h3.887V417.9l-1-.171v-1.111h3.558v1.111l-1,.171v6.7l1,.171Zm-3.194-.364h2.831v-.435l-1-.171v-7.312l1-.171v-.441h-2.831v.441l1,.171V421h-4.615v-3.407l1-.171v-.441h-2.83v.441l1,.171v7.312l-1,.171v.435h2.83v-.435l-1-.171v-3.321h4.615v3.321l-1,.171Z" transform="translate(-577.963 -416.618)" fill="#fff"/></g><g transform="translate(106.363 0.128)"><path d="M605.814,426.012v-.77l1-.171v-7.006l-1-.171v-.776h3.2v.776l-1,.171v7.006l1,.171v.77Z" transform="translate(-605.632 -416.936)" fill="#fff"/><path d="M608.873,425.875h-3.559v-1.1l1-.171v-6.7l-1-.171v-1.111h3.559v1.111l-1,.171v6.7l1,.171Zm-3.195-.364h2.831v-.435l-1-.171v-7.312l1-.171v-.441h-2.831v.441l1,.171v7.312l-1,.171Z" transform="translate(-605.314 -416.618)" fill="#fff"/></g><g transform="translate(110.793 0)"><path d="M621.685,425.916a3.514,3.514,0,0,1-1.545-.33,3.315,3.315,0,0,1-1.163-.932,4.265,4.265,0,0,1-.733-1.426,6.168,6.168,0,0,1-.254-1.82v-.128a6.175,6.175,0,0,1,.254-1.817,4.3,4.3,0,0,1,.733-1.432,3.3,3.3,0,0,1,1.163-.935,3.509,3.509,0,0,1,1.545-.33,3.668,3.668,0,0,1,1.6.33,3.165,3.165,0,0,1,1.158.935,4.23,4.23,0,0,1,.705,1.432,6.545,6.545,0,0,1,.238,1.817v.128a6.537,6.537,0,0,1-.238,1.82,4.2,4.2,0,0,1-.705,1.426,3.181,3.181,0,0,1-1.158.932A3.673,3.673,0,0,1,621.685,425.916Zm0-1a2.216,2.216,0,0,0,1.433-.44,2.531,2.531,0,0,0,.8-1.231,5.948,5.948,0,0,0,.256-1.836v-.14a5.812,5.812,0,0,0-.259-1.823,2.562,2.562,0,0,0-.809-1.228,2.2,2.2,0,0,0-1.424-.443,2.1,2.1,0,0,0-1.356.446,2.731,2.731,0,0,0-.843,1.231,5.257,5.257,0,0,0-.287,1.817v.14a5.33,5.33,0,0,0,.287,1.829,2.709,2.709,0,0,0,.843,1.234A2.106,2.106,0,0,0,621.685,424.914Z" transform="translate(-617.808 -416.584)" fill="#fff"/><path d="M621.367,425.779a3.7,3.7,0,0,1-1.624-.348,3.5,3.5,0,0,1-1.227-.982,4.468,4.468,0,0,1-.765-1.486,6.364,6.364,0,0,1-.262-1.874v-.128a6.384,6.384,0,0,1,.261-1.871,4.5,4.5,0,0,1,.765-1.492,3.481,3.481,0,0,1,1.227-.986,3.7,3.7,0,0,1,1.624-.348,3.865,3.865,0,0,1,1.679.347,3.352,3.352,0,0,1,1.223.988,4.417,4.417,0,0,1,.736,1.493,6.761,6.761,0,0,1,.245,1.868v.128a6.753,6.753,0,0,1-.245,1.871,4.4,4.4,0,0,1-.737,1.487,3.378,3.378,0,0,1-1.223.984A3.865,3.865,0,0,1,621.367,425.779Zm0-9.15a3.35,3.35,0,0,0-1.466.311,3.131,3.131,0,0,0-1.1.884,4.137,4.137,0,0,0-.7,1.372,6.022,6.022,0,0,0-.246,1.764v.128a6.028,6.028,0,0,0,.245,1.767,4.114,4.114,0,0,0,.7,1.366,3.15,3.15,0,0,0,1.1.881,3.35,3.35,0,0,0,1.466.311,3.5,3.5,0,0,0,1.522-.312,3.01,3.01,0,0,0,1.092-.879,4.025,4.025,0,0,0,.675-1.365,6.411,6.411,0,0,0,.231-1.77v-.128a6.417,6.417,0,0,0-.231-1.767,4.057,4.057,0,0,0-.675-1.371,3,3,0,0,0-1.092-.882A3.5,3.5,0,0,0,621.367,416.63Zm0,8.148a2.291,2.291,0,0,1-1.469-.483,2.9,2.9,0,0,1-.9-1.314,5.537,5.537,0,0,1-.3-1.891v-.14a5.466,5.466,0,0,1,.3-1.879,2.924,2.924,0,0,1,.9-1.31,2.282,2.282,0,0,1,1.469-.486,2.385,2.385,0,0,1,1.537.483,2.755,2.755,0,0,1,.868,1.312,6.014,6.014,0,0,1,.269,1.881v.14a6.161,6.161,0,0,1-.265,1.892,2.72,2.72,0,0,1-.862,1.316A2.4,2.4,0,0,1,621.367,424.778Zm0-7.14a1.928,1.928,0,0,0-1.242.406,2.57,2.57,0,0,0-.786,1.151,5.108,5.108,0,0,0-.276,1.755v.14a5.18,5.18,0,0,0,.276,1.767,2.551,2.551,0,0,0,.785,1.154,1.94,1.94,0,0,0,1.242.4,2.052,2.052,0,0,0,1.319-.4,2.362,2.362,0,0,0,.744-1.145,5.783,5.783,0,0,0,.248-1.779v-.14a5.663,5.663,0,0,0-.25-1.766,2.4,2.4,0,0,0-.751-1.143A2.031,2.031,0,0,0,621.367,417.638Z" transform="translate(-617.49 -416.266)" fill="#fff"/></g><g transform="translate(119.425 0.128)"><path d="M641.716,426.012v-.77l1-.171v-7.006l-1-.171v-.776H645.8a3.629,3.629,0,0,1,1.625.333,2.394,2.394,0,0,1,1.026.932,2.953,2.953,0,0,1,0,2.8,2.377,2.377,0,0,1-1.026.928,3.66,3.66,0,0,1-1.625.33h-1.887v2.626l1,.171v.77Zm2.2-4.508H645.8a1.754,1.754,0,0,0,1.353-.486,1.735,1.735,0,0,0,.449-1.225,1.769,1.769,0,0,0-.449-1.234,1.737,1.737,0,0,0-1.353-.494h-1.887Z" transform="translate(-641.534 -416.936)" fill="#fff"/><path d="M644.774,425.875h-3.558v-1.1l1-.171v-6.7l-1-.171v-1.111h4.268a3.819,3.819,0,0,1,1.706.352,2.582,2.582,0,0,1,1.1,1,3.134,3.134,0,0,1,0,2.989,2.573,2.573,0,0,1-1.1,1,3.857,3.857,0,0,1-1.705.348h-1.705V424.6l1,.171Zm-3.194-.364h2.831v-.435l-1-.171v-2.961h2.069a3.492,3.492,0,0,0,1.544-.311,2.208,2.208,0,0,0,.951-.857,2.774,2.774,0,0,0,0-2.618,2.227,2.227,0,0,0-.951-.862,3.467,3.467,0,0,0-1.544-.314h-3.9v.441l1,.171v7.312l-1,.171Zm3.9-4.144h-2.069v-3.8h2.069a1.916,1.916,0,0,1,1.488.554,1.954,1.954,0,0,1,.5,1.356,1.8,1.8,0,0,1-1.984,1.892ZM643.779,421h1.705a1.591,1.591,0,0,0,1.219-.427,1.546,1.546,0,0,0,.4-1.1,1.451,1.451,0,0,0-1.62-1.547h-1.705Z" transform="translate(-641.216 -416.618)" fill="#fff"/></g><g transform="translate(127.659 0.128)"><path d="M664.35,426.012v-.77l1-.171v-7.006l-1-.171v-.776h3.195v.776l-1,.171v7.006l1,.171v.77Z" transform="translate(-664.168 -416.936)" fill="#fff"/><path d="M667.408,425.875H663.85v-1.1l1-.171v-6.7l-1-.171v-1.111h3.559v1.111l-1,.171v6.7l1,.171Zm-3.195-.364h2.831v-.435l-1-.171v-7.312l1-.171v-.441h-2.831v.441l1,.171v7.312l-1,.171Z" transform="translate(-663.85 -416.618)" fill="#fff"/></g><g transform="translate(132.089 0.128)"><path d="M676.525,426.012v-.77l.66-.092,3.109-8.032h1.032l3.054,8.032.654.092v.77h-2.553v-.77l.672-.116-.587-1.637h-3.561l-.6,1.637.672.116v.77Zm2.852-3.531H682.2l-1.307-3.616-.073-.2h-.037l-.073.2Z" transform="translate(-676.343 -416.936)" fill="#fff"/><path d="M684.9,425.875h-2.917v-1.1l.609-.105-.47-1.312h-3.306l-.485,1.313.608.105v1.1h-2.911v-1.11l.711-.1,3.115-8.048h1.282l3.061,8.049.7.1Zm-2.553-.364h2.189v-.43l-.6-.085-3.048-8.015H680.1L677,425l-.609.085v.429h2.183v-.435l-.736-.127.724-1.961h3.815l.7,1.961-.734.127Zm-.2-3.167H678.8l1.538-4.181h.292Zm-2.821-.364h2.3l-1.14-3.154Z" transform="translate(-676.025 -416.618)" fill="#fff"/></g></g><g transform="translate(7.286 13.874)"><g transform="translate(0 1.521)"><path d="M278.9,458.583l-1.321,4.194h-.332l-1.336-3.715-1.344,3.715h-.332l-1.321-4.194h.363l1.127,3.8,1.344-3.8h.332l1.336,3.784,1.128-3.784Z" transform="translate(-272.918 -458.583)" fill="#fff"/></g><g transform="translate(9.623 1.468)"><path d="M303.346,460.721h-3.622a1.917,1.917,0,0,0,.247.95,1.5,1.5,0,0,0,.61.579,1.793,1.793,0,0,0,.826.193,1.7,1.7,0,0,0,1.035-.305,1.32,1.32,0,0,0,.525-.83h.363a1.677,1.677,0,0,1-.633,1.039,2.036,2.036,0,0,1-1.29.4,2.094,2.094,0,0,1-1.05-.262,1.843,1.843,0,0,1-.726-.753,2.645,2.645,0,0,1,0-2.29,1.8,1.8,0,0,1,.722-.745,2.133,2.133,0,0,1,1.058-.259,2.043,2.043,0,0,1,1.047.259,1.751,1.751,0,0,1,.676.687,1.909,1.909,0,0,1,.232.923C303.361,460.489,303.356,460.628,303.346,460.721Zm-.529-1.228a1.4,1.4,0,0,0-.6-.575,1.8,1.8,0,0,0-.819-.19,1.783,1.783,0,0,0-.815.19,1.5,1.5,0,0,0-.61.575,1.879,1.879,0,0,0-.251.942h3.29A1.725,1.725,0,0,0,302.816,459.493Z" transform="translate(-299.368 -458.435)" fill="#fff"/></g><g transform="translate(23.023 1.468)"><path d="M337.191,458.759a1.936,1.936,0,0,1,1.131-.324,2.078,2.078,0,0,1,1.047.262,1.839,1.839,0,0,1,.718.749,2.383,2.383,0,0,1,.259,1.135,2.408,2.408,0,0,1-.259,1.139,1.857,1.857,0,0,1-.718.757,2.051,2.051,0,0,1-1.047.266,1.906,1.906,0,0,1-1.124-.328,1.737,1.737,0,0,1-.653-.83v3.074H336.2v-6.171h.347v1.1A1.669,1.669,0,0,1,337.191,458.759Zm2.584.834a1.509,1.509,0,0,0-.607-.637,1.8,1.8,0,0,0-.9-.22,1.73,1.73,0,0,0-.88.228,1.6,1.6,0,0,0-.618.649,2.225,2.225,0,0,0,0,1.946,1.6,1.6,0,0,0,.618.649,1.725,1.725,0,0,0,.88.228,1.773,1.773,0,0,0,.9-.224,1.538,1.538,0,0,0,.607-.641,2.37,2.37,0,0,0,0-1.977Z" transform="translate(-336.199 -458.435)" fill="#fff"/></g><g transform="translate(31.31 1.437)"><path d="M359.873,458.593a1.883,1.883,0,0,1,1-.243v.363h-.116a1.522,1.522,0,0,0-1.027.351,1.437,1.437,0,0,0-.41,1.147v2.417h-.347v-4.194h.347v.865A1.275,1.275,0,0,1,359.873,458.593Z" transform="translate(-358.977 -458.35)" fill="#fff"/></g><g transform="translate(36.886 1.468)"><path d="M378.281,460.721h-3.622a1.92,1.92,0,0,0,.247.95,1.5,1.5,0,0,0,.61.579,1.8,1.8,0,0,0,.827.193,1.7,1.7,0,0,0,1.035-.305,1.319,1.319,0,0,0,.525-.83h.363a1.679,1.679,0,0,1-.633,1.039,2.033,2.033,0,0,1-1.29.4,2.093,2.093,0,0,1-1.05-.262,1.845,1.845,0,0,1-.726-.753,2.646,2.646,0,0,1,0-2.29,1.8,1.8,0,0,1,.722-.745,2.133,2.133,0,0,1,1.058-.259,2.041,2.041,0,0,1,1.046.259,1.752,1.752,0,0,1,.676.687,1.914,1.914,0,0,1,.231.923A4.154,4.154,0,0,1,378.281,460.721Zm-.529-1.228a1.4,1.4,0,0,0-.6-.575,1.806,1.806,0,0,0-.819-.19,1.78,1.78,0,0,0-.815.19,1.5,1.5,0,0,0-.61.575,1.879,1.879,0,0,0-.251.942h3.29A1.722,1.722,0,0,0,377.752,459.493Z" transform="translate(-374.304 -458.435)" fill="#fff"/></g><g transform="translate(44.771 1.468)"><path d="M396.476,462.435a1.148,1.148,0,0,1-.5-.88h.355a.861.861,0,0,0,.374.649,1.55,1.55,0,0,0,.915.239,1.125,1.125,0,0,0,.761-.243.761.761,0,0,0,.282-.6.566.566,0,0,0-.151-.406,1,1,0,0,0-.375-.243,6.14,6.14,0,0,0-.61-.185,6.044,6.044,0,0,1-.749-.243,1.263,1.263,0,0,1-.486-.359.962.962,0,0,1-.2-.641.922.922,0,0,1,.178-.544,1.213,1.213,0,0,1,.494-.4,1.688,1.688,0,0,1,.718-.147,1.635,1.635,0,0,1,1.062.328,1.19,1.19,0,0,1,.436.907h-.347a.934.934,0,0,0-.324-.68,1.228,1.228,0,0,0-.834-.263,1.161,1.161,0,0,0-.741.232.7.7,0,0,0-.294.564.674.674,0,0,0,.166.475,1.085,1.085,0,0,0,.409.278,6.168,6.168,0,0,0,.645.2,5.361,5.361,0,0,1,.706.228,1.215,1.215,0,0,1,.452.324.835.835,0,0,1,.185.568,1.026,1.026,0,0,1-.178.587,1.182,1.182,0,0,1-.494.409,1.669,1.669,0,0,1-.711.147A1.964,1.964,0,0,1,396.476,462.435Z" transform="translate(-395.978 -458.435)" fill="#fff"/></g><g transform="translate(51.729 1.468)"><path d="M419.082,460.721h-3.622a1.913,1.913,0,0,0,.247.95,1.5,1.5,0,0,0,.61.579,1.792,1.792,0,0,0,.826.193,1.7,1.7,0,0,0,1.035-.305,1.321,1.321,0,0,0,.525-.83h.363a1.679,1.679,0,0,1-.633,1.039,2.036,2.036,0,0,1-1.29.4,2.092,2.092,0,0,1-1.05-.262,1.843,1.843,0,0,1-.726-.753,2.644,2.644,0,0,1,0-2.29,1.8,1.8,0,0,1,.722-.745,2.133,2.133,0,0,1,1.058-.259,2.04,2.04,0,0,1,1.046.259,1.747,1.747,0,0,1,.676.687,1.906,1.906,0,0,1,.232.923C419.1,460.489,419.091,460.628,419.082,460.721Zm-.529-1.228a1.4,1.4,0,0,0-.6-.575,1.8,1.8,0,0,0-.819-.19,1.782,1.782,0,0,0-.815.19,1.5,1.5,0,0,0-.61.575,1.871,1.871,0,0,0-.251.942h3.29A1.723,1.723,0,0,0,418.552,459.493Z" transform="translate(-415.104 -458.435)" fill="#fff"/></g><g transform="translate(59.862 1.437)"><path d="M438.353,458.593a1.883,1.883,0,0,1,1-.243v.363h-.116a1.522,1.522,0,0,0-1.027.351,1.437,1.437,0,0,0-.41,1.147v2.417h-.347v-4.194h.347v.865A1.275,1.275,0,0,1,438.353,458.593Z" transform="translate(-437.457 -458.35)" fill="#fff"/></g><g transform="translate(65.152 1.521)"><path d="M453.921,462.4l1.545-3.815h.371l-1.738,4.194h-.363L452,458.583h.379Z" transform="translate(-451.998 -458.583)" fill="#fff"/></g><g transform="translate(72.628 1.468)"><path d="M476.525,460.721H472.9a1.921,1.921,0,0,0,.247.95,1.5,1.5,0,0,0,.61.579,1.792,1.792,0,0,0,.826.193,1.7,1.7,0,0,0,1.035-.305,1.32,1.32,0,0,0,.525-.83h.363a1.677,1.677,0,0,1-.633,1.039,2.035,2.035,0,0,1-1.29.4,2.091,2.091,0,0,1-1.05-.262,1.841,1.841,0,0,1-.726-.753,2.644,2.644,0,0,1,0-2.29,1.8,1.8,0,0,1,.722-.745,2.133,2.133,0,0,1,1.058-.259,2.039,2.039,0,0,1,1.046.259,1.747,1.747,0,0,1,.676.687,1.905,1.905,0,0,1,.231.923A4.173,4.173,0,0,1,476.525,460.721ZM476,459.493a1.4,1.4,0,0,0-.6-.575,1.806,1.806,0,0,0-.819-.19,1.781,1.781,0,0,0-.815.19,1.5,1.5,0,0,0-.61.575,1.879,1.879,0,0,0-.251.942h3.29A1.72,1.72,0,0,0,476,459.493Z" transform="translate(-472.547 -458.435)" fill="#fff"/></g><g transform="translate(86.028)"><path d="M509.727,454.4v5.715h-.347V454.4Z" transform="translate(-509.379 -454.401)" fill="#fff"/></g><g transform="translate(90.522 1.468)"><path d="M525.71,460.721h-3.623a1.917,1.917,0,0,0,.247.95,1.494,1.494,0,0,0,.61.579,1.8,1.8,0,0,0,.827.193,1.7,1.7,0,0,0,1.035-.305,1.322,1.322,0,0,0,.525-.83h.363a1.681,1.681,0,0,1-.633,1.039,2.036,2.036,0,0,1-1.29.4,2.094,2.094,0,0,1-1.05-.262,1.846,1.846,0,0,1-.726-.753,2.643,2.643,0,0,1,0-2.29,1.8,1.8,0,0,1,.722-.745,2.132,2.132,0,0,1,1.058-.259,2.042,2.042,0,0,1,1.046.259,1.749,1.749,0,0,1,.676.687,1.906,1.906,0,0,1,.232.923C525.725,460.489,525.72,460.628,525.71,460.721Zm-.529-1.228a1.4,1.4,0,0,0-.6-.575,1.8,1.8,0,0,0-.819-.19,1.784,1.784,0,0,0-.815.19,1.5,1.5,0,0,0-.61.575,1.879,1.879,0,0,0-.251.942h3.29A1.722,1.722,0,0,0,525.181,459.493Z" transform="translate(-521.732 -458.435)" fill="#fff"/></g><g transform="translate(98.439 1.468)"><path d="M546.643,458.755a1.7,1.7,0,0,1,.649.823v-1.089h.347v4.325a1.977,1.977,0,0,1-.255,1.015,1.754,1.754,0,0,1-.687.672,1.984,1.984,0,0,1-.966.236,2.154,2.154,0,0,1-1.3-.378,1.757,1.757,0,0,1-.68-1.019h.348a1.479,1.479,0,0,0,.579.8,1.8,1.8,0,0,0,1.058.3,1.613,1.613,0,0,0,.8-.2,1.427,1.427,0,0,0,.56-.564,1.742,1.742,0,0,0,.2-.861v-1.228a1.739,1.739,0,0,1-.653.83,1.907,1.907,0,0,1-1.124.328,2.049,2.049,0,0,1-1.046-.266,1.856,1.856,0,0,1-.718-.757,2.408,2.408,0,0,1-.259-1.139,2.382,2.382,0,0,1,.259-1.135,1.838,1.838,0,0,1,.718-.749,2.076,2.076,0,0,1,1.046-.262A1.935,1.935,0,0,1,546.643,458.755Zm.421.857a1.632,1.632,0,0,0-.622-.649,1.731,1.731,0,0,0-.88-.228,1.778,1.778,0,0,0-.9.22,1.517,1.517,0,0,0-.6.637,2.374,2.374,0,0,0,0,1.977,1.54,1.54,0,0,0,.607.641,1.859,1.859,0,0,0,1.776,0,1.588,1.588,0,0,0,.622-.649,2.05,2.05,0,0,0,.224-.977A2.007,2.007,0,0,0,547.064,459.613Z" transform="translate(-543.492 -458.435)" fill="#fff"/></g><g transform="translate(106.726 1.468)"><path d="M566.528,459.447a1.838,1.838,0,0,1,.719-.749,2.075,2.075,0,0,1,1.046-.262,1.918,1.918,0,0,1,1.128.324,1.727,1.727,0,0,1,.649.827v-1.1h.347v4.194h-.347v-1.1a1.735,1.735,0,0,1-.653.838,1.907,1.907,0,0,1-1.124.328,2.048,2.048,0,0,1-1.046-.266,1.856,1.856,0,0,1-.719-.757,2.407,2.407,0,0,1-.258-1.139A2.382,2.382,0,0,1,566.528,459.447Zm3.314.166a1.629,1.629,0,0,0-.622-.649,1.73,1.73,0,0,0-.88-.228,1.778,1.778,0,0,0-.9.22,1.513,1.513,0,0,0-.6.637,2.369,2.369,0,0,0,0,1.977,1.535,1.535,0,0,0,.606.641,1.859,1.859,0,0,0,1.776,0,1.593,1.593,0,0,0,.622-.649,2.05,2.05,0,0,0,.224-.977A2.006,2.006,0,0,0,569.842,459.613Z" transform="translate(-566.27 -458.435)" fill="#fff"/></g><g transform="translate(115.013 1.468)"><path d="M589.306,459.439a1.809,1.809,0,0,1,.718-.745,2.113,2.113,0,0,1,1.055-.259,2.043,2.043,0,0,1,1.293.394,1.682,1.682,0,0,1,.629,1.058h-.363a1.308,1.308,0,0,0-.521-.849,1.7,1.7,0,0,0-1.038-.309,1.746,1.746,0,0,0-.842.2,1.5,1.5,0,0,0-.606.625,2.418,2.418,0,0,0,0,2.05,1.527,1.527,0,0,0,.606.626,1.858,1.858,0,0,0,1.881-.1,1.309,1.309,0,0,0,.521-.85H593a1.706,1.706,0,0,1-.633,1.058,2.023,2.023,0,0,1-1.29.4,2.089,2.089,0,0,1-1.055-.262,1.828,1.828,0,0,1-.718-.753,2.663,2.663,0,0,1,0-2.29Z" transform="translate(-589.047 -458.435)" fill="#fff"/></g><g transform="translate(122.612 1.521)"><path d="M613.712,458.583l-2.441,6.163h-.355l.78-1.969-1.761-4.194h.378l1.576,3.808,1.467-3.808Z" transform="translate(-609.936 -458.583)" fill="#fff"/></g></g></g><g transform="translate(92.36 0.758)"><path d="M207.163,440.523a10.364,10.364,0,0,1-5.8-1.522,9.387,9.387,0,0,1-3.49-4.172,14.789,14.789,0,0,1-1.166-6.011v-.333a14.221,14.221,0,0,1,1.221-6.035,9.86,9.86,0,0,1,3.5-4.163,9.611,9.611,0,0,1,5.456-1.522,11.547,11.547,0,0,1,4.091.7,9.834,9.834,0,0,1,3.077,1.777v4.979h-2.49l-.333-3.647a4.935,4.935,0,0,0-1.166-.666,7.148,7.148,0,0,0-1.459-.413,9.967,9.967,0,0,0-1.736-.143,6.255,6.255,0,0,0-3.838,1.166,7.164,7.164,0,0,0-2.379,3.212,12.788,12.788,0,0,0-.809,4.726v.365a12.753,12.753,0,0,0,.863,4.956,6.725,6.725,0,0,0,2.522,3.133,7.234,7.234,0,0,0,4.037,1.079,8.77,8.77,0,0,0,2.172-.27,6.376,6.376,0,0,0,1.761-.7l.349-3.219H214v5.011a10.856,10.856,0,0,1-3.109,1.261A15.308,15.308,0,0,1,207.163,440.523Z" transform="translate(-196.239 -416.294)" fill="#fff"/><path d="M207.135,440.968a10.866,10.866,0,0,1-6.055-1.6,9.888,9.888,0,0,1-3.662-4.377,15.309,15.309,0,0,1-1.206-6.2v-.333a14.764,14.764,0,0,1,1.265-6.234,10.366,10.366,0,0,1,3.672-4.358,10.113,10.113,0,0,1,5.718-1.6,12.05,12.05,0,0,1,4.258.727,10.358,10.358,0,0,1,3.223,1.865l.16.141v5.665h-3.393l-.353-3.866a4.54,4.54,0,0,0-.894-.482,6.6,6.6,0,0,0-1.362-.385,9.437,9.437,0,0,0-1.654-.136,5.821,5.821,0,0,0-3.557,1.073,6.738,6.738,0,0,0-2.222,3.005,12.411,12.411,0,0,0-.775,4.553v.365a12.35,12.35,0,0,0,.827,4.773,6.288,6.288,0,0,0,2.344,2.92,6.81,6.81,0,0,0,3.78,1,8.357,8.357,0,0,0,2.056-.255,6.379,6.379,0,0,0,1.433-.53l.369-3.4h3.338v5.745l-.223.139a11.337,11.337,0,0,1-3.243,1.319A15.861,15.861,0,0,1,207.135,440.968Zm-.269-23.757a9.183,9.183,0,0,0-5.194,1.442,9.435,9.435,0,0,0-3.339,3.969,13.823,13.823,0,0,0-1.178,5.837v.333a14.379,14.379,0,0,0,1.126,5.821,8.973,8.973,0,0,0,3.316,3.967,9.957,9.957,0,0,0,5.538,1.444,14.878,14.878,0,0,0,3.612-.438,10.676,10.676,0,0,0,2.751-1.07v-4.271h-1.546l-.328,3.029-.2.122a6.877,6.877,0,0,1-1.891.752,9.322,9.322,0,0,1-2.288.284,7.735,7.735,0,0,1-4.294-1.155,7.229,7.229,0,0,1-2.7-3.344,13.282,13.282,0,0,1-.9-5.14v-.365a13.308,13.308,0,0,1,.842-4.9,7.658,7.658,0,0,1,2.536-3.417,6.74,6.74,0,0,1,4.12-1.259,10.471,10.471,0,0,1,1.818.15,7.665,7.665,0,0,1,1.556.44,5.435,5.435,0,0,1,1.277.73l.161.127.313,3.422h1.586v-4.29a9.6,9.6,0,0,0-2.771-1.552A11.124,11.124,0,0,0,206.866,417.211Z" transform="translate(-196.211 -416.266)" fill="#fff"/><g transform="translate(21.319 0.333)"><path d="M219.279,440.21v-2l2.585-.444v-18.19l-2.585-.445v-2.014h5.741l11.324,18,.1-.031v-15.51l-2.839-.445v-2.014h8.294v2.014l-2.585.445V440.21h-2.855l-11.625-18.1-.1.032v15.622l2.839.444v2Z" transform="translate(-218.807 -416.646)" fill="#fff"/><path d="M239.754,440.655h-3.585l-10.99-17.108v13.788l2.839.445v2.875h-9.239v-2.869l2.585-.444v-17.4l-2.585-.445v-2.884h6.475L235.939,433.6V419.953l-2.839-.444v-2.89h9.239V419.5l-2.585.445Zm-3.069-.945h2.125V419.151l2.585-.445v-1.144h-7.35V418.7l2.839.445V435.4l-.771.255-11.381-18.093h-5.008v1.144l2.585.445v18.985l-2.585.445v1.129h7.349v-1.122l-2.839-.445V421.78l.765-.26Z" transform="translate(-218.779 -416.618)" fill="#fff"/></g><g transform="translate(47.331)"><path d="M257.267,440.523a10.364,10.364,0,0,1-5.8-1.522,9.387,9.387,0,0,1-3.49-4.172,14.788,14.788,0,0,1-1.166-6.011v-.333a14.222,14.222,0,0,1,1.221-6.035,9.861,9.861,0,0,1,3.5-4.163A9.612,9.612,0,0,1,257,416.766a11.547,11.547,0,0,1,4.091.7,9.835,9.835,0,0,1,3.077,1.777v4.979h-2.49l-.332-3.647a4.934,4.934,0,0,0-1.166-.666,7.149,7.149,0,0,0-1.459-.413,9.968,9.968,0,0,0-1.736-.143,6.255,6.255,0,0,0-3.838,1.166,7.164,7.164,0,0,0-2.379,3.212,12.787,12.787,0,0,0-.809,4.726v.365a12.752,12.752,0,0,0,.863,4.956,6.725,6.725,0,0,0,2.522,3.133,7.234,7.234,0,0,0,4.037,1.079,8.769,8.769,0,0,0,2.172-.27,6.377,6.377,0,0,0,1.761-.7l.349-3.219H264.1v5.011a10.857,10.857,0,0,1-3.109,1.261A15.308,15.308,0,0,1,257.267,440.523Z" transform="translate(-246.343 -416.294)" fill="#fff"/><path d="M257.239,440.968a10.866,10.866,0,0,1-6.055-1.6,9.889,9.889,0,0,1-3.662-4.377,15.31,15.31,0,0,1-1.206-6.2v-.333a14.763,14.763,0,0,1,1.265-6.234,10.366,10.366,0,0,1,3.672-4.358,10.113,10.113,0,0,1,5.718-1.6,12.05,12.05,0,0,1,4.258.727,10.359,10.359,0,0,1,3.223,1.865l.16.141v5.665h-3.393l-.353-3.866a4.538,4.538,0,0,0-.894-.482,6.6,6.6,0,0,0-1.362-.385,9.437,9.437,0,0,0-1.654-.136,5.822,5.822,0,0,0-3.557,1.073,6.737,6.737,0,0,0-2.222,3.005,12.409,12.409,0,0,0-.775,4.553v.365a12.352,12.352,0,0,0,.827,4.773,6.288,6.288,0,0,0,2.344,2.92,6.81,6.81,0,0,0,3.78,1,8.357,8.357,0,0,0,2.056-.255,6.38,6.38,0,0,0,1.433-.53l.369-3.4h3.338v5.745l-.223.139a11.335,11.335,0,0,1-3.243,1.319A15.863,15.863,0,0,1,257.239,440.968Zm-.269-23.757a9.184,9.184,0,0,0-5.194,1.442,9.434,9.434,0,0,0-3.338,3.969,13.822,13.822,0,0,0-1.178,5.837v.333a14.379,14.379,0,0,0,1.126,5.821,8.973,8.973,0,0,0,3.316,3.967,9.957,9.957,0,0,0,5.538,1.444,14.878,14.878,0,0,0,3.612-.438,10.676,10.676,0,0,0,2.751-1.07v-4.271h-1.546l-.328,3.029-.2.122a6.878,6.878,0,0,1-1.891.752,9.322,9.322,0,0,1-2.288.284,7.734,7.734,0,0,1-4.294-1.155,7.228,7.228,0,0,1-2.7-3.344,13.281,13.281,0,0,1-.9-5.14v-.365a13.308,13.308,0,0,1,.842-4.9,7.658,7.658,0,0,1,2.536-3.417,6.739,6.739,0,0,1,4.12-1.259,10.472,10.472,0,0,1,1.818.15,7.667,7.667,0,0,1,1.556.44,5.437,5.437,0,0,1,1.277.73l.162.127.313,3.422h1.586v-4.29a9.6,9.6,0,0,0-2.771-1.552A11.123,11.123,0,0,0,256.97,417.211Z" transform="translate(-246.315 -416.266)" fill="#fff"/></g><g transform="translate(68.824 0.333)"><path d="M269.567,440.21v-2l2.586-.444v-18.19l-2.586-.445v-2.014h6.756l7.438,17.525h.1l7.2-17.525h6.963v2.014l-2.586.445v18.19l2.586.444v2h-8.3v-2l2.727-.444V421.385l-.079-.017-7.5,18.017h-2.078L275.039,421.4l-.079.016.112,9.659v6.692l2.791.444v2Z" transform="translate(-269.095 -416.646)" fill="#fff"/><path d="M298.465,440.655h-9.24v-2.873l2.727-.444V423.513l-6.793,16.316h-2.7l-7.026-16.3.086,7.508v6.294l2.791.445v2.874h-9.24v-2.869l2.586-.444v-17.4l-2.586-.445v-2.884h7.541l7.167,16.886,6.938-16.886h7.752V419.5l-2.586.445v17.4l2.586.444Zm-8.3-.945h7.35v-1.129l-2.586-.445V419.151l2.586-.445v-1.144h-6.174l-7.2,17.525h-.725l-7.438-17.525h-5.971v1.144l2.586.445v18.985l-2.586.445v1.129h7.35v-1.123l-2.792-.445v-7.094L274.455,421l.76-.149.23.333,7.633,17.7h1.452L292.06,420.8l.758.159.079.4V438.14l-2.727.445Z" transform="translate(-269.067 -416.618)" fill="#fff"/></g></g></g></svg>