<svg xmlns="http://www.w3.org/2000/svg" width="79.598" height="111.721" viewBox="0 0 79.598 111.721">
  <g id="Litrature" transform="translate(0)">
    <g id="Group_185" data-name="Group 185" transform="translate(11.291 18.981)">
      <g id="Group_178" data-name="Group 178" transform="translate(0.021 0.033)">
        <rect id="Rectangle_6" data-name="Rectangle 6" width="65.231" height="12.273" transform="translate(0 63.648) rotate(-77.353)" fill="#ff5b2e"/>
      </g>
      <g id="Group_179" data-name="Group 179" transform="translate(0 58.181)">
        <rect id="Rectangle_7" data-name="Rectangle 7" width="5.633" height="12.273" transform="translate(0 5.496) rotate(-77.353)" fill="#834f21"/>
      </g>
      <g id="Group_180" data-name="Group 180" transform="translate(13.14 0)">
        <rect id="Rectangle_8" data-name="Rectangle 8" width="5.633" height="12.273" transform="translate(0 5.496) rotate(-77.354)" fill="#834f21"/>
      </g>
      <g id="Group_181" data-name="Group 181" transform="translate(4.918 39.176)">
        <rect id="Rectangle_9" data-name="Rectangle 9" width="2.327" height="12.273" transform="translate(0 2.27) rotate(-77.356)" fill="#e6ddc6"/>
      </g>
      <g id="Group_182" data-name="Group 182" transform="translate(9.35 19.811)">
        <rect id="Rectangle_10" data-name="Rectangle 10" width="2.327" height="12.273" transform="translate(0 2.27) rotate(-77.352)" fill="#e6ddc6"/>
      </g>
      <g id="Group_183" data-name="Group 183" transform="translate(6.554 26.112)">
        <rect id="Rectangle_11" data-name="Rectangle 11" width="8.564" height="12.273" transform="matrix(0.219, -0.976, 0.976, 0.219, 0, 8.356)" fill="#e6ddc6"/>
      </g>
      <g id="Group_184" data-name="Group 184" transform="translate(6.235 1.427)" opacity="0.5" style="mix-blend-mode: multiply;isolation: isolate">
        <rect id="Rectangle_12" data-name="Rectangle 12" width="65.231" height="5.915" transform="translate(0 63.648) rotate(-77.351)" fill="#d9451d"/>
      </g>
    </g>
    <g id="Group_191" data-name="Group 191" transform="translate(54.843 13.395)">
      <g id="Group_186" data-name="Group 186">
        <rect id="Rectangle_13" data-name="Rectangle 13" width="13.545" height="71.949" fill="#fc8fa4"/>
      </g>
      <g id="Group_187" data-name="Group 187" transform="translate(0 63.079)">
        <rect id="Rectangle_14" data-name="Rectangle 14" width="13.545" height="8.87" fill="#342640"/>
      </g>
      <g id="Group_188" data-name="Group 188" transform="translate(0 6.759)">
        <rect id="Rectangle_15" data-name="Rectangle 15" width="13.545" height="5.177" fill="#342640"/>
      </g>
      <g id="Group_189" data-name="Group 189" transform="translate(2.698 41.818)">
        <rect id="Rectangle_16" data-name="Rectangle 16" width="8.149" height="13.701" rx="4.075" fill="#f9f06f"/>
      </g>
      <g id="Group_190" data-name="Group 190" transform="translate(6.773)" opacity="0.5" style="mix-blend-mode: multiply;isolation: isolate">
        <rect id="Rectangle_17" data-name="Rectangle 17" width="6.772" height="71.949" fill="#ef67a5"/>
      </g>
    </g>
    <g id="Group_197" data-name="Group 197" transform="translate(37.314 0)">
      <g id="Group_192" data-name="Group 192" transform="translate(0)">
        <rect id="Rectangle_18" data-name="Rectangle 18" width="17.529" height="85.344" fill="#cb852d"/>
      </g>
      <g id="Group_193" data-name="Group 193" transform="translate(0 74.021)">
        <rect id="Rectangle_19" data-name="Rectangle 19" width="17.529" height="4.904" fill="#f2ddc5"/>
      </g>
      <g id="Group_194" data-name="Group 194" transform="translate(0 9.671)">
        <rect id="Rectangle_20" data-name="Rectangle 20" width="17.529" height="4.904" fill="#f2ddc5"/>
      </g>
      <g id="Group_195" data-name="Group 195" transform="translate(4.076 55.213)">
        <circle id="Ellipse_9" data-name="Ellipse 9" cx="4.688" cy="4.688" r="4.688" fill="#f2ddc5"/>
      </g>
      <g id="Group_196" data-name="Group 196" transform="translate(8.438)" opacity="0.55" style="mix-blend-mode: multiply;isolation: isolate">
        <rect id="Rectangle_21" data-name="Rectangle 21" width="9.09" height="85.344" fill="#cb852d"/>
      </g>
    </g>
    <g id="Group_203" data-name="Group 203" transform="translate(0 85.264)">
      <g id="Group_198" data-name="Group 198" transform="translate(1.318 1.318)">
        <path id="Path_186" data-name="Path 186" d="M705.475,186.654a9.4,9.4,0,0,1,5.077-8.344v-1.061h-66.7a9.406,9.406,0,1,0,0,18.811h66.7V195A9.4,9.4,0,0,1,705.475,186.654Z" transform="translate(-634.444 -177.249)" fill="#fcf3d9"/>
      </g>
      <g id="Group_199" data-name="Group 199" transform="translate(1.321 10.776)">
        <path id="Path_187" data-name="Path 187" d="M705.478,191.6a9.4,9.4,0,0,0,5.075,8.293v1.061h-66.7a9.4,9.4,0,0,1-9.4-9.354Z" transform="translate(-634.448 -191.596)" fill="#f0e8d0"/>
      </g>
      <g id="Group_200" data-name="Group 200">
        <path id="Path_188" data-name="Path 188" d="M712.042,196.7H643.169a10.724,10.724,0,1,1,0-21.448h68.874v2.637H643.169a8.087,8.087,0,1,0,0,16.175h68.874Z" transform="translate(-632.444 -175.249)" fill="#1a75bb"/>
      </g>
      <g id="Group_202" data-name="Group 202" transform="translate(15.187 10.724)">
        <g id="Group_201" data-name="Group 201">
          <path id="Path_189" data-name="Path 189" d="M655.483,207.251l5.249-4.129,5.248,4.129V191.517h-10.5Z" transform="translate(-655.483 -191.517)" fill="#d12b53"/>
        </g>
      </g>
    </g>
  </g>
</svg>
