<svg id="Logo_green" data-name="Logo green" xmlns="http://www.w3.org/2000/svg" width="210.865" height="201.825" viewBox="0 0 210.865 201.825">
  <g id="Group_44" data-name="Group 44" transform="translate(194.04 6.212)">
    <g id="Group_41" data-name="Group 41" transform="translate(4.414 3.571)">
      <g id="Group_40" data-name="Group 40">
        <path id="Path_59" data-name="Path 59" d="M605.771,136.024a4.3,4.3,0,0,1-2.4-.63,3.88,3.88,0,0,1-1.443-1.726,6.123,6.123,0,0,1-.483-2.488v-.138a5.877,5.877,0,0,1,.506-2.5,4.075,4.075,0,0,1,1.45-1.723,3.977,3.977,0,0,1,2.259-.631,4.778,4.778,0,0,1,1.694.289,4.065,4.065,0,0,1,1.274.736v2.061H607.6l-.138-1.51a2.063,2.063,0,0,0-.483-.276,3.012,3.012,0,0,0-.6-.171,4.154,4.154,0,0,0-.719-.059,2.594,2.594,0,0,0-1.589.483,2.958,2.958,0,0,0-.984,1.328,5.292,5.292,0,0,0-.335,1.957v.151a5.272,5.272,0,0,0,.358,2.051,2.786,2.786,0,0,0,1.045,1.3,2.989,2.989,0,0,0,1.67.447,3.632,3.632,0,0,0,.9-.112,2.646,2.646,0,0,0,.729-.288l.144-1.333h1.01v2.074a4.5,4.5,0,0,1-1.285.522A6.358,6.358,0,0,1,605.771,136.024Z" transform="translate(-601.445 -126.19)" fill="#1def55"/>
      </g>
    </g>
    <g id="Group_43" data-name="Group 43" transform="translate(0 0)">
      <g id="Group_42" data-name="Group 42">
        <path id="Path_60" data-name="Path 60" d="M603.475,137.85a8.412,8.412,0,1,1,8.412-8.412A8.422,8.422,0,0,1,603.475,137.85Zm0-16.132a7.72,7.72,0,1,0,7.72,7.72A7.729,7.729,0,0,0,603.475,121.718Z" transform="translate(-595.062 -121.026)" fill="#1def55"/>
      </g>
    </g>
  </g>
  <g id="Group_60" data-name="Group 60">
    <g id="Group_47" data-name="Group 47" transform="translate(0 4.699)">
      <g id="Group_45" data-name="Group 45" transform="translate(1.037 1.386)">
        <path id="Path_61" data-name="Path 61" d="M434.129,283.733c-1.382,1.262-2.794,2.494-4.221,3.68-1.562,1.337-3.154,2.644-4.761,3.905-1.607,1.277-3.245,2.509-4.9,3.71-1.833,1.353-3.68,2.659-5.573,3.951-1.562,1.052-3.155,2.088-4.762,3.079-1.607-.992-3.185-2.028-4.747-3.079-1.893-1.277-3.755-2.584-5.587-3.951q-2.478-1.8-4.882-3.7-2.433-1.915-4.777-3.92c-1.427-1.187-2.824-2.418-4.206-3.665-1.607-1.443-3.2-2.93-4.747-4.447-1.2-1.157-2.388-2.328-3.53-3.53-1.638-1.667-3.23-3.35-4.762-5.077-1.006-1.1-1.983-2.223-2.945-3.35q-2.388-2.772-4.671-5.663c-.826-1.066-1.652-2.133-2.449-3.214q-2.3-3.042-4.446-6.2c-.721-1.037-1.427-2.088-2.1-3.14-1.427-2.163-2.809-4.371-4.116-6.61-.646-1.066-1.261-2.133-1.862-3.214-1.292-2.253-2.509-4.536-3.681-6.85q-.856-1.667-1.667-3.38c-1.111-2.3-2.178-4.612-3.169-6.97-.541-1.232-1.052-2.463-1.548-3.7-.915-2.283-1.787-4.581-2.6-6.909-.5-1.382-.976-2.795-1.427-4.206q-1.081-3.312-2.028-6.669c-.451-1.593-.887-3.2-1.276-4.807-.541-2.1-1.022-4.206-1.472-6.339q-.586-2.726-1.082-5.5c-.36-2.028-.692-4.07-.976-6.114-.3-2.012-.556-4.026-.766-6.068-.255-2.253-.451-4.536-.6-6.819-.135-1.878-.24-3.77-.3-5.663-.09-2.208-.136-4.447-.136-6.684,0-2.043.03-4.071.12-6.1,1.216-.6,2.449-1.187,3.68-1.758q3.943-1.825,7.976-3.469c.826-.331,1.667-.661,2.509-.992q4.573-1.8,9.283-3.35c.5-.165.992-.315,1.488-.481q5.137-1.645,10.395-3c.045-.436.105-.856.18-1.292q.811-5.746,2.1-11.341c-2.523.586-5.017,1.217-7.5,1.877-1.606.436-3.214.9-4.806,1.382-2.328.676-4.626,1.412-6.91,2.193-1.788.6-3.575,1.232-5.333,1.877q-3.245,1.217-6.429,2.523-2.862,1.172-5.678,2.434c-2.358,1.052-4.7,2.163-7.014,3.3-1.668.826-3.32,1.682-4.972,2.554q-.473,6.759-.481,13.639v.03q0,6.58.451,13.038c.091,1.337.2,2.674.331,4.011q.384,4.393.976,8.712c.12.871.241,1.727.375,2.6q.744,4.957,1.757,9.824c.091.481.2.946.3,1.427.766,3.575,1.638,7.12,2.6,10.606.06.18.105.36.15.541,1.051,3.71,2.193,7.375,3.455,11,.075-.015.165-.03.24-.045a1.878,1.878,0,0,0-.2.165c1.261,3.6,2.629,7.18,4.1,10.695.075.2.165.391.24.586q2.164,5.092,4.6,10.019c.136.27.271.556.406.826q2.433,4.844,5.122,9.524c.165.285.33.571.511.856,1.818,3.14,3.725,6.2,5.723,9.223.165.255.33.5.511.751q3.064,4.6,6.414,9c.105.15.225.315.345.465q3.493,4.574,7.256,8.923a.538.538,0,0,0,.135-.06c-.03.03-.06.075-.09.105,2.494,2.914,5.107,5.738,7.8,8.487a6.194,6.194,0,0,0,.451.451c2.523,2.6,5.137,5.093,7.811,7.525.391.346.766.676,1.142,1.022,2.463,2.193,4.986,4.326,7.556,6.368.691.571,1.4,1.126,2.1,1.667,2.3,1.8,4.642,3.53,7.014,5.213,1.1.781,2.208,1.547,3.32,2.3q5.385,3.627,11.041,6.91,5.655-3.268,11.041-6.91c1.126-.766,2.238-1.532,3.349-2.313q3.56-2.524,6.985-5.2c.706-.541,1.412-1.1,2.118-1.682q3.853-3.064,7.54-6.354c.391-.346.766-.692,1.157-1.037,2.659-2.418,5.272-4.927,7.8-7.511q-5.656-2.3-11.041-5.077Q436.54,281.578,434.129,283.733Z" transform="translate(-315.971 -120.842)" fill="#1def55"/>
      </g>
      <g id="Group_46" data-name="Group 46" transform="translate(0 0)">
        <path id="Path_62" data-name="Path 62" d="M409.452,315.964l-.519-.3c-3.669-2.119-7.4-4.457-11.1-6.948-1.232-.831-2.325-1.588-3.343-2.313-2.593-1.839-4.9-3.553-7.053-5.241-.784-.6-1.482-1.154-2.123-1.684-2.494-1.983-5.051-4.138-7.586-6.394-.338-.311-.665-.6-1-.9l-.139-.123c-2.942-2.676-5.512-5.153-7.868-7.579a6.535,6.535,0,0,1-.477-.479c-2.772-2.833-5.267-5.544-7.592-8.25l-.262-.3c-2.509-2.9-4.963-5.917-7.3-8.972-.119-.147-.253-.332-.369-.5-2.15-2.812-4.322-5.857-6.429-9.018-.174-.245-.346-.5-.519-.764-2.039-3.083-3.976-6.2-5.75-9.267-.155-.243-.317-.523-.48-.8-1.887-3.3-3.618-6.518-5.182-9.631l-.407-.828c-1.641-3.329-3.2-6.718-4.623-10.078-.046-.119-.083-.2-.12-.291-.046-.109-.093-.219-.134-.329-1.345-3.209-2.644-6.575-3.855-9.995h-.005l-.3-.851c-1.226-3.519-2.362-7.135-3.473-11.054-.046-.186-.084-.341-.135-.5-.991-3.586-1.87-7.173-2.63-10.716l-.04-.182c-.093-.426-.185-.843-.265-1.271-.674-3.234-1.269-6.559-1.764-9.862-.135-.871-.256-1.734-.378-2.611-.411-3.038-.732-5.9-.982-8.764-.122-1.2-.231-2.525-.333-4.031-.3-4.314-.452-8.725-.452-13.108,0-4.548.163-9.162.483-13.742l.041-.576.51-.269c1.946-1.026,3.533-1.842,4.995-2.566,2.519-1.242,4.826-2.329,7.054-3.322,1.871-.838,3.791-1.661,5.707-2.446,2.056-.846,4.23-1.7,6.458-2.534,1.819-.669,3.622-1.3,5.367-1.89,2.443-.836,4.719-1.558,6.95-2.206,1.735-.523,3.317-.978,4.825-1.387,2.7-.719,5.16-1.336,7.533-1.887l1.617-.375-.372,1.618c-.856,3.728-1.559,7.514-2.086,11.254-.077.443-.133.84-.176,1.252l-.073.718-.7.18c-3.407.877-6.885,1.882-10.337,2.988-.245.082-.5.163-.759.245-.239.076-.478.152-.717.231-3.185,1.052-6.29,2.172-9.23,3.33l-.244.1c-.758.3-1.514.6-2.259.894-2.658,1.084-5.326,2.245-7.926,3.449-1.115.517-2.137,1-3.105,1.475-.064,1.647-.094,3.394-.094,5.44,0,2.229.045,4.463.134,6.642.057,1.792.154,3.631.3,5.631.157,2.384.358,4.663.6,6.777.21,2.028.458,4,.761,6.032.273,1.947.59,3.934.973,6.086.328,1.831.689,3.669,1.074,5.461.487,2.306.965,4.365,1.463,6.3.346,1.424.749,2.939,1.27,4.783.625,2.216,1.3,4.447,2.016,6.63.44,1.378.916,2.781,1.417,4.178.77,2.207,1.614,4.453,2.586,6.874.55,1.366,1.052,2.565,1.534,3.665.9,2.136,1.927,4.4,3.154,6.935.537,1.135,1.092,2.261,1.655,3.358,1.252,2.472,2.448,4.7,3.658,6.808.632,1.137,1.235,2.178,1.85,3.193,1.252,2.143,2.627,4.351,4.095,6.576.656,1.019,1.357,2.066,2.088,3.118,1.405,2.071,2.891,4.144,4.423,6.171.8,1.082,1.633,2.161,2.441,3.2,1.494,1.893,3.056,3.787,4.638,5.622.852,1,1.862,2.171,2.923,3.326,1.409,1.587,2.954,3.236,4.738,5.052,1.007,1.059,2.118,2.17,3.509,3.509,1.489,1.461,3.075,2.945,4.72,4.422,1.608,1.452,2.934,2.607,4.176,3.64,1.552,1.328,3.149,2.638,4.755,3.9,1.665,1.308,3.252,2.509,4.851,3.672,1.7,1.27,3.517,2.553,5.557,3.929,1.589,1.068,2.929,1.944,4.167,2.718,1.33-.83,2.7-1.723,4.182-2.718,1.946-1.328,3.759-2.613,5.537-3.925,1.811-1.318,3.4-2.523,4.867-3.688,1.586-1.245,3.177-2.55,4.733-3.882,1.417-1.178,2.824-2.405,4.2-3.658l.007-.006c1.64-1.471,3.221-2.952,4.7-4.4l.535-.524.666.342c3.594,1.849,7.28,3.544,10.956,5.039l1.43.581-1.078,1.1c-2.449,2.508-5.088,5.05-7.84,7.553-.209.185-.4.36-.6.533l-.573.513c-2.511,2.236-5.063,4.386-7.581,6.389-.633.525-1.316,1.067-2.133,1.694-2.2,1.721-4.562,3.48-7.016,5.22-1.119.786-2.235,1.556-3.367,2.324-3.7,2.5-7.44,4.835-11.1,6.951Zm-47.445-41.815c2.359,2.757,4.893,5.517,7.75,8.437.142.157.268.282.407.409,2.372,2.44,4.912,4.887,7.811,7.526l.127.113c.347.306.683.6,1.019.913,2.493,2.219,5.02,4.349,7.5,6.321.637.526,1.315,1.064,2.088,1.655,2.135,1.674,4.417,3.369,6.984,5.189,1.006.717,2.085,1.463,3.3,2.285,3.483,2.346,7,4.555,10.46,6.57,3.457-2.012,6.973-4.222,10.461-6.571,1.119-.761,2.226-1.524,3.333-2.3,2.423-1.719,4.76-3.457,6.942-5.165.8-.617,1.467-1.143,2.1-1.664,2.5-1.992,5.027-4.118,7.512-6.33l.56-.5c.2-.179.4-.358.6-.537,2.314-2.1,4.552-4.242,6.662-6.364-3.03-1.273-6.059-2.677-9.029-4.185-1.342,1.3-2.762,2.624-4.228,3.938-1.394,1.273-2.824,2.52-4.253,3.708-1.566,1.342-3.18,2.665-4.783,3.924-1.485,1.18-3.1,2.4-4.927,3.734-1.793,1.322-3.626,2.622-5.6,3.969-1.71,1.151-3.279,2.165-4.8,3.1l-.544.336-.544-.336c-1.414-.872-2.933-1.858-4.782-3.1-2.069-1.4-3.91-2.7-5.628-3.98-1.61-1.171-3.217-2.386-4.9-3.711-1.629-1.283-3.247-2.611-4.81-3.948-1.253-1.042-2.6-2.216-4.227-3.685-1.665-1.494-3.274-3-4.778-4.474-1.407-1.355-2.539-2.487-3.555-3.557-1.8-1.828-3.367-3.5-4.786-5.1-1.071-1.166-2.1-2.355-2.957-3.364-1.6-1.854-3.179-3.771-4.7-5.694-.823-1.061-1.666-2.15-2.47-3.243-1.545-2.044-3.051-4.146-4.469-6.236-.74-1.063-1.455-2.13-2.117-3.161-1.482-2.246-2.878-4.486-4.14-6.647-.62-1.023-1.236-2.086-1.873-3.234-1.221-2.13-2.434-4.386-3.7-6.885-.57-1.111-1.136-2.258-1.679-3.4-1.239-2.562-2.284-4.857-3.189-7.012-.485-1.1-1-2.323-1.553-3.71-.984-2.452-1.839-4.727-2.616-6.955-.506-1.411-.99-2.838-1.435-4.232-.72-2.2-1.407-4.461-2.039-6.7-.528-1.869-.937-3.407-1.286-4.844-.5-1.95-.986-4.037-1.479-6.37-.389-1.811-.755-3.673-1.087-5.53-.388-2.178-.709-4.19-.983-6.153-.308-2.057-.56-4.057-.771-6.106-.242-2.137-.446-4.447-.6-6.858-.146-2.022-.245-3.889-.3-5.7-.09-2.2-.136-4.461-.136-6.717,0-2.332.038-4.285.121-6.145l.027-.612.55-.272c1.147-.566,2.358-1.145,3.7-1.769,2.63-1.217,5.328-2.391,8.021-3.489q1.132-.453,2.277-.9l.243-.1c2.976-1.172,6.117-2.306,9.338-3.369.245-.082.492-.16.74-.239s.5-.158.744-.241c3.27-1.047,6.554-2,9.78-2.846.029-.209.063-.422.1-.642.456-3.229,1.045-6.516,1.752-9.774-1.856.447-3.786.938-5.855,1.489-1.484.4-3.047.852-4.774,1.373-2.211.642-4.456,1.354-6.873,2.181-1.732.582-3.517,1.21-5.311,1.87-2.2.826-4.354,1.671-6.392,2.51-1.9.777-3.8,1.59-5.649,2.42-2.2.983-4.487,2.058-6.981,3.288-1.315.651-2.736,1.38-4.436,2.272-.291,4.342-.438,8.71-.438,12.991,0,4.365.15,8.727.448,13,.1,1.485.207,2.785.327,3.978.248,2.841.566,5.675.973,8.677.118.862.238,1.713.373,2.578.489,3.27,1.077,6.556,1.747,9.772.081.427.168.824.257,1.229l.041.188c.752,3.508,1.622,7.056,2.585,10.551.053.154.106.36.157.565,1,3.536,2.033,6.843,3.135,10.056l3.86-.761-3.274,2.433c1.2,3.389,2.488,6.727,3.83,9.934.046.117.083.2.12.292.046.107.091.214.132.321,1.4,3.292,2.937,6.645,4.558,9.933l.4.821c1.546,3.079,3.261,6.267,5.1,9.473.176.3.325.559.487.816,1.774,3.063,3.688,6.148,5.711,9.205.164.254.321.482.493.726,2.1,3.147,4.244,6.156,6.392,8.966.117.167.223.313.33.446,2.321,3.041,4.75,6.027,7.23,8.894l-.6.519.04.05Zm-1.172-.35a.706.706,0,0,0-.1.053l.2.248Z" transform="translate(-314.472 -118.838)" fill="#1def55"/>
      </g>
    </g>
    <g id="Group_50" data-name="Group 50" transform="translate(140.87 6.773)">
      <g id="Group_48" data-name="Group 48" transform="translate(1.037 1.189)">
        <path id="Path_63" data-name="Path 63" d="M566.211,139.81c-1.638-.871-3.29-1.712-4.958-2.539q-3.469-1.734-7.029-3.3c-1.878-.856-3.755-1.667-5.663-2.448h-.015c-2.118-.871-4.265-1.713-6.429-2.509-1.757-.661-3.545-1.292-5.332-1.893-2.284-.766-4.581-1.5-6.91-2.193-1.593-.481-3.2-.931-4.807-1.367a52.025,52.025,0,0,0-5.393,9.464v.015c.076.421.135.841.18,1.261q5.249,1.352,10.395,3.019c.5.15.991.315,1.487.481,3.14,1.021,6.234,2.148,9.283,3.335.841.331,1.683.661,2.509.992q4.032,1.667,7.975,3.485h.015c1.231.571,2.449,1.142,3.665,1.743.09,2.028.12,4.071.12,6.114q0,3.357-.135,6.669c-.06,1.908-.165,3.8-.3,5.678-.15,2.283-.346,4.551-.6,6.8q-.315,3.064-.766,6.083c-.285,2.043-.6,4.071-.976,6.1-.33,1.848-.691,3.7-1.082,5.513-.435,2.118-.932,4.236-1.472,6.324-.391,1.607-.826,3.229-1.276,4.822a50.345,50.345,0,0,0,11.055,2.794c.046-.181.106-.376.151-.571q1.442-5.227,2.6-10.575c.1-.481.21-.976.315-1.457.661-3.229,1.247-6.5,1.743-9.794.135-.871.255-1.743.39-2.629.391-2.869.721-5.768.961-8.682.136-1.337.241-2.674.33-4.025q.45-6.468.451-13.039v-.015Q566.692,146.57,566.211,139.81Z" transform="translate(-519.675 -123.557)" fill="#1def55"/>
      </g>
      <g id="Group_49" data-name="Group 49" transform="translate(0)">
        <path id="Path_64" data-name="Path 64" d="M560.068,204.876l-.921-.127a51.413,51.413,0,0,1-11.283-2.852l-.888-.338.259-.914c.5-1.775.916-3.339,1.266-4.784.555-2.14,1.046-4.25,1.465-6.288.379-1.763.74-3.606,1.076-5.487.338-1.828.656-3.808.97-6.059.3-2.011.555-4.042.761-6.046.245-2.158.44-4.368.6-6.767.145-2.017.243-3.86.3-5.642.089-2.2.134-4.429.134-6.637,0-2.019-.031-3.81-.094-5.454-.988-.481-1.965-.938-2.89-1.368l-.216-.093c-2.534-1.174-5.131-2.308-7.936-3.467-.813-.326-1.653-.656-2.493-.985-3.295-1.282-6.315-2.366-9.225-3.314l-.069-.023c-.466-.155-.932-.31-1.4-.451-3.387-1.1-6.864-2.11-10.352-3.008l-.7-.18-.077-.714q-.063-.6-.17-1.191l-.016-.182v-.218l.088-.215a53.254,53.254,0,0,1,5.5-9.652l.42-.584.694.188c1.868.506,3.4.943,4.835,1.376,2.181.647,4.453,1.368,6.941,2.2,1.887.634,3.693,1.275,5.366,1.9,2.033.748,4.146,1.571,6.277,2.446l.2.074c1.947.8,3.812,1.6,5.7,2.465,2.456,1.087,4.836,2.206,7.064,3.32,1.833.909,3.464,1.744,4.981,2.551l.507.27.04.574c.321,4.582.483,9.2.483,13.726,0,4.4-.153,8.808-.454,13.126-.1,1.535-.208,2.826-.333,4.058-.228,2.767-.544,5.625-.965,8.718-.066.434-.127.846-.187,1.258-.068.465-.135.927-.207,1.39-.489,3.239-1.079,6.552-1.752,9.843l-.319,1.471c-.75,3.49-1.629,7.067-2.611,10.629-.019.086-.054.214-.088.339Zm-10.578-4.591a49.42,49.42,0,0,0,9.036,2.276c.943-3.446,1.78-6.864,2.5-10.2l.316-1.46c.664-3.242,1.247-6.519,1.73-9.728.071-.461.138-.917.206-1.375.06-.416.121-.834.186-1.255.413-3.039.725-5.861.952-8.611.124-1.228.228-2.5.329-4.009.3-4.274.449-8.636.449-12.97,0-4.3-.148-8.677-.439-13.023-1.354-.715-2.806-1.456-4.422-2.256-2.2-1.1-4.553-2.207-6.99-3.286-1.812-.826-3.593-1.6-5.448-2.36h0l-.2-.078c-2.169-.892-4.32-1.732-6.393-2.494-1.658-.624-3.44-1.256-5.3-1.883-2.464-.826-4.713-1.54-6.875-2.182-1.234-.372-2.546-.748-4.085-1.17a51.2,51.2,0,0,0-4.746,8.411c.017.1.032.207.048.311,3.3.864,6.584,1.825,9.774,2.86.464.14.947.3,1.431.462,3,.979,6.059,2.075,9.4,3.373.848.333,1.689.664,2.518,1,2.727,1.127,5.353,2.273,7.819,3.41h0l.223.1c1.166.541,2.42,1.127,3.688,1.754l.55.271.027.613c.082,1.842.121,3.856.121,6.16,0,2.236-.045,4.494-.135,6.711-.057,1.8-.156,3.671-.3,5.71-.16,2.425-.358,4.667-.605,6.847-.208,2.025-.467,4.087-.771,6.12-.317,2.272-.64,4.281-.983,6.134-.339,1.9-.7,3.765-1.087,5.542-.425,2.064-.924,4.208-1.483,6.366C550.224,197.566,549.886,198.859,549.49,200.285Z" transform="translate(-518.175 -121.837)" fill="#1def55"/>
      </g>
    </g>
    <g id="Group_53" data-name="Group 53" transform="translate(91.089 23.088)">
      <g id="Group_51" data-name="Group 51" transform="translate(1.037 1.053)">
        <path id="Path_65" data-name="Path 65" d="M471.514,148.2c-2.493-.315-5.017-.556-7.541-.751-1.277-.09-2.554-.165-3.83-.24-2.568-.136-5.138-.226-7.721-.226-.615-.03-1.247-.03-1.862-.03-.631,0-1.262,0-1.893.03a95.1,95.1,0,0,0-.946,11.4c-.015.766-.03,1.533-.03,2.3,0,3.064.135,6.084.421,9.072a97.371,97.371,0,0,0,1.742,11.371h.015c.195.992.42,1.983.676,2.959q1.059,4.3,2.508,8.442a96.388,96.388,0,0,0,3.7,9.1c.391.826.8,1.652,1.2,2.478h.015a92.76,92.76,0,0,0,5.694,9.854q.767,1.172,1.578,2.3A94.3,94.3,0,0,0,471.259,224q2.906,3.358,6.083,6.414h.015c.721.706,1.442,1.382,2.179,2.043A96.2,96.2,0,0,0,498.177,245.7c.977-1.607,1.907-3.23,2.825-4.882s1.832-3.364,2.718-5.062a84.908,84.908,0,0,1-9.674-6.144,83.284,83.284,0,0,1-8.983-7.586c-.57-.541-1.127-1.112-1.682-1.682h-.015a83.254,83.254,0,0,1-6.58-7.586q-2.59-3.358-4.837-6.97c-.976-1.547-1.893-3.14-2.764-4.762-1.321-2.478-2.539-5.047-3.62-7.675a83.266,83.266,0,0,1-3.289-9.433V183.9c-.225-.781-.435-1.562-.631-2.358a83.7,83.7,0,0,1-2.059-11.552,82.835,82.835,0,0,1-.51-9.313c0-.706.016-1.427.03-2.133,1.893.105,3.786.225,5.663.406,1.908.15,3.816.345,5.708.586-.015.376-.015.766-.015,1.142a74.837,74.837,0,0,0,3.425,22.336.745.745,0,0,1,.181.03,1.165,1.165,0,0,1-.06.33,73.248,73.248,0,0,0,5.213,12.272c.751,1.412,1.547,2.779,2.4,4.131a73.251,73.251,0,0,0,8.036,10.65,2.353,2.353,0,0,1,.3.105.625.625,0,0,1-.06.15,74.584,74.584,0,0,0,8.968,8.307,76.021,76.021,0,0,0,9.674,6.414c.751-1.742,1.472-3.515,2.162-5.3s1.352-3.619,1.983-5.452a61.215,61.215,0,0,1-9.674-7.03,64.982,64.982,0,0,1-6.715-6.91c-.781-.946-1.532-1.907-2.267-2.9a62.087,62.087,0,0,1-6.91-11.957c-.5-1.112-.947-2.238-1.382-3.38v-.015a61.917,61.917,0,0,1-2.644-9.269,63.105,63.105,0,0,1-1.246-11.881c1.907.346,3.8.751,5.678,1.187q2.929.654,5.813,1.442a50.771,50.771,0,0,0,2.374,12.528q.766,2.365,1.757,4.642v.015A51.635,51.635,0,0,0,503.3,191.2h.015a48.156,48.156,0,0,0,3.154,3.861,51.05,51.05,0,0,0,9.659,8.307c.51-1.848.976-3.695,1.4-5.558.5-2.178.961-4.371,1.352-6.579a39.7,39.7,0,0,1-8.082-9.253,30.4,30.4,0,0,1-1.578-2.719,38.548,38.548,0,0,1-3.98-11.641,39.132,39.132,0,0,1-.271-12.108c-2.043-.676-4.1-1.306-6.189-1.893-1.608-.45-3.23-.886-4.867-1.291-2.223-.571-4.461-1.1-6.714-1.562-1.472-.316-2.945-.6-4.417-.871-2.373-.451-4.777-.842-7.2-1.172C474.233,148.528,472.881,148.348,471.514,148.2Z" transform="translate(-447.69 -146.951)" fill="#1def55"/>
      </g>
      <g id="Group_52" data-name="Group 52" transform="translate(0 0)">
        <path id="Path_66" data-name="Path 66" d="M498.087,246.614l-.868-.471a97.337,97.337,0,0,1-18.845-13.393c-.66-.593-1.3-1.192-1.953-1.823l-.261-.24c-2.154-2.077-4.223-4.258-6.147-6.482a95.4,95.4,0,0,1-6.091-7.821c-.535-.744-1.075-1.53-1.6-2.325a94.316,94.316,0,0,1-5.464-9.384h-.008l-.3-.58c-.417-.85-.819-1.671-1.208-2.492a97.843,97.843,0,0,1-3.738-9.206c-.989-2.846-1.842-5.718-2.536-8.535-.211-.81-.408-1.655-.586-2.51l-.111-.479a98.684,98.684,0,0,1-1.761-11.492c-.283-2.952-.426-6.038-.426-9.169,0-.773.015-1.546.03-2.319a96.7,96.7,0,0,1,.957-11.529l.122-.847.855-.041c1.3-.061,2.565-.062,3.855,0h.058c2.3,0,4.753.072,7.667.226,1.293.076,2.571.151,3.849.241,2.8.216,5.278.463,7.589.756,1.237.136,2.538.3,4.1.529,2.433.332,4.872.729,7.24,1.179,1.652.3,3.106.591,4.441.876,2.157.445,4.432.975,6.755,1.572,1.5.371,3.1.8,4.889,1.3,2.064.58,4.161,1.221,6.234,1.907l.815.269-.113.851a38.179,38.179,0,0,0,.263,11.787,37.541,37.541,0,0,0,3.875,11.338,29.7,29.7,0,0,0,1.529,2.637,38.609,38.609,0,0,0,7.88,9.027l.46.385-.1.591c-.348,1.97-.781,4.077-1.362,6.629-.418,1.85-.892,3.736-1.409,5.6l-.381,1.378-1.191-.789a52.166,52.166,0,0,1-9.855-8.476c-1.062-1.176-2.037-2.357-2.907-3.519h0l-.326-.42a52.724,52.724,0,0,1-5.945-10.282l-.087-.214c-.636-1.477-1.21-3-1.707-4.537a51.826,51.826,0,0,1-2.371-12.038c-1.668-.446-3.365-.862-5.054-1.239-1.592-.369-3.038-.68-4.389-.943a62.061,62.061,0,0,0,1.2,10.42,61.074,61.074,0,0,0,2.6,9.113l.065.185c.47,1.224.882,2.229,1.292,3.149a61.289,61.289,0,0,0,6.8,11.765c.739.994,1.47,1.929,2.233,2.853a63.824,63.824,0,0,0,6.6,6.8,60.251,60.251,0,0,0,9.51,6.911l.732.43-.276.8c-.63,1.83-1.3,3.676-1.995,5.486-.71,1.837-1.443,3.633-2.178,5.342l-.456,1.054-1-.559a77.347,77.347,0,0,1-9.806-6.5,75.752,75.752,0,0,1-9.1-8.426l-.243-.257a74.665,74.665,0,0,1-8.151-10.8c-.875-1.382-1.674-2.755-2.438-4.191a74.44,74.44,0,0,1-5.168-12.083h-.008l-.229-.724a75.83,75.83,0,0,1-3.474-22.649v-.226c-1.563-.186-3.152-.343-4.737-.467-1.576-.152-3.147-.258-4.565-.342q-.01.525-.01,1.036a81.861,81.861,0,0,0,.5,9.2,83.068,83.068,0,0,0,2.032,11.415c.189.767.392,1.525.622,2.324l.04.158a82.723,82.723,0,0,0,3.21,9.178c1.05,2.551,2.253,5.1,3.578,7.588.914,1.7,1.806,3.238,2.726,4.7,1.517,2.429,3.126,4.745,4.781,6.89a82.7,82.7,0,0,0,6.195,7.182h0l.321.314c.508.523,1.084,1.114,1.652,1.653a82.578,82.578,0,0,0,8.881,7.5,83.912,83.912,0,0,0,9.558,6.07l.895.488-.471.9c-1.078,2.064-1.92,3.633-2.733,5.087-1.006,1.814-1.936,3.423-2.843,4.915ZM477.3,228.9h0l.317.3c.717.7,1.418,1.36,2.145,2.012a95.273,95.273,0,0,0,17.574,12.631c.732-1.228,1.487-2.544,2.292-4,.682-1.221,1.387-2.524,2.235-4.141a85.989,85.989,0,0,1-8.9-5.725,84.6,84.6,0,0,1-9.092-7.678c-.491-.465-.984-.966-1.437-1.43l-.278-.269a84.67,84.67,0,0,1-6.662-7.68c-1.7-2.2-3.343-4.57-4.894-7.052-.943-1.5-1.86-3.074-2.8-4.821-1.359-2.549-2.592-5.162-3.666-7.772a84.912,84.912,0,0,1-3.328-9.545l-.039-.152c-.222-.775-.418-1.515-.6-2.258a85.105,85.105,0,0,1-2.082-11.688,84,84,0,0,1-.517-9.424c0-.7.015-1.41.03-2.108l.022-1.073,1.074.012c1.7.093,3.7.216,5.705.408,1.913.151,3.85.35,5.74.59l.942.12-.036.95c-.015.362-.015.739-.015,1.1a73.836,73.836,0,0,0,3.2,21.457l.405.1v.808a1.984,1.984,0,0,1-.022.284,72.3,72.3,0,0,0,5.05,11.829c.741,1.392,1.515,2.721,2.367,4.066a72.547,72.547,0,0,0,7.746,10.307c.039.015.079.031.12.049l.89.379-.167.484a73.782,73.782,0,0,0,8.419,7.732,75.445,75.445,0,0,0,8.535,5.754c.572-1.36,1.14-2.768,1.693-4.2.585-1.523,1.153-3.075,1.694-4.621a62.321,62.321,0,0,1-9.106-6.713,66.092,66.092,0,0,1-6.821-7.02c-.79-.956-1.542-1.919-2.3-2.946a63.278,63.278,0,0,1-7.028-12.16c-.442-.992-.888-2.084-1.4-3.425l-.068-.2a63.055,63.055,0,0,1-2.622-9.248,64.407,64.407,0,0,1-1.268-12.076l-.015-1.256,1.237.224c1.737.315,3.61.706,5.727,1.2,1.953.436,3.925.925,5.852,1.451l.716.2.046.741a49.792,49.792,0,0,0,2.326,12.272c.5,1.54,1.078,3.07,1.721,4.548l.086.212a50.529,50.529,0,0,0,5.317,9.259h0l.326.426a47.367,47.367,0,0,0,3.086,3.777,50.1,50.1,0,0,0,8.268,7.321c.362-1.373.7-2.749,1.006-4.106.516-2.269.913-4.177,1.237-5.947a40.674,40.674,0,0,1-7.832-9.1,31.592,31.592,0,0,1-1.622-2.8,39.591,39.591,0,0,1-4.081-11.943,40.283,40.283,0,0,1-.63-7.114,39.737,39.737,0,0,1,.249-4.447c-1.779-.577-3.57-1.119-5.336-1.614s-3.351-.916-4.835-1.284c-2.3-.591-4.543-1.113-6.675-1.553-1.321-.284-2.757-.566-4.394-.867-2.339-.444-4.742-.835-7.149-1.165-1.546-.223-2.829-.389-4.042-.522l-.018,0c-2.28-.289-4.73-.533-7.49-.746-1.263-.089-2.532-.164-3.8-.239-2.905-.153-5.341-.224-7.671-.224-.649-.03-1.259-.03-1.862-.03-.328,0-.658,0-.987,0a94.827,94.827,0,0,0-.815,10.413c-.015.755-.03,1.515-.03,2.275,0,3.066.14,6.085.416,8.974a97.006,97.006,0,0,0,1.552,10.432h.011l.18.837c.193.983.416,1.957.662,2.9.681,2.77,1.516,5.579,2.484,8.363a95.568,95.568,0,0,0,3.656,9c.315.667.641,1.335.969,2.005l.237.45a91.829,91.829,0,0,0,5.629,9.743c.506.774,1.028,1.535,1.553,2.265a93.915,93.915,0,0,0,5.967,7.663C473.376,224.921,475.3,226.956,477.3,228.9Z" transform="translate(-446.19 -145.429)" fill="#1def55"/>
      </g>
    </g>
    <g id="Group_56" data-name="Group 56" transform="translate(68.316)">
      <g id="Group_54" data-name="Group 54" transform="translate(1.037 1.038)">
        <path id="Path_67" data-name="Path 67" d="M518.6,222.719a72.958,72.958,0,0,1-9.869-2.854c-.992,2.343-2.058,4.656-3.155,6.94-.541,1.142-1.1,2.268-1.683,3.395-1.172,2.313-2.388,4.581-3.665,6.835-.6,1.082-1.232,2.163-1.878,3.23q-1.96,3.358-4.1,6.595c-.691,1.067-1.382,2.118-2.118,3.155a104.836,104.836,0,0,1-10.35-5.048,103.128,103.128,0,0,1-9.658-6.068,104.6,104.6,0,0,1-8.968-7.045q-.834-.721-1.667-1.487h-.015c-2.283-2.088-4.492-4.266-6.594-6.549s-4.117-4.642-6.009-7.09c-.541-.691-1.067-1.382-1.593-2.088a104.488,104.488,0,0,1-6.369-9.674c-.18-.285-.361-.6-.526-.9a102.808,102.808,0,0,1-5.212-10.365c-.346-.781-.676-1.562-1.006-2.358-1.172-2.885-2.239-5.813-3.17-8.818q-1.352-4.37-2.343-8.893v-.014c-.181-.766-.331-1.517-.481-2.284a106.667,106.667,0,0,1-1.593-11.281q-.427-4.777-.436-9.673c0-.571,0-1.157.015-1.727a107.531,107.531,0,0,1,.8-11.507q.609-5.069,1.7-9.989v-.015c.1-.511.225-1.022.345-1.532,3.62-.225,7.271-.331,10.951-.346h.886c3.681.015,7.315.12,10.935.331a7.184,7.184,0,0,0,.8.046q5.588.383,11.086,1.051c.165.015.345.045.511.06a71.655,71.655,0,0,1,4.822-11.176c-2.794-.405-5.618-.736-8.442-1.021-1.2-.12-2.4-.24-3.6-.331h-.015c-2.884-.24-5.768-.405-8.682-.526-1.156-.045-2.313-.075-3.47-.105q-2.186-.046-4.372-.045c-1.472,0-2.944.015-4.4.045-1.157.03-2.314.06-3.47.105-2.914.12-5.8.286-8.682.541-1.2.09-2.418.2-3.62.331h-.015a116.331,116.331,0,0,0-3.094,12.122c-.076.331-.135.661-.2.992v.014c-.691,3.515-1.217,7.106-1.577,10.725q-.563,5.724-.586,11.6v.361c0,3.74.165,7.451.511,11.1.346,3.815.887,7.586,1.593,11.281a.292.292,0,0,1,.165-.03c-.03.105-.06.21-.1.331v.015c.691,3.65,1.562,7.255,2.6,10.77.661,2.328,1.412,4.611,2.224,6.879.481,1.367,1.006,2.734,1.547,4.086,1.2,3,2.524,5.964,3.98,8.848.315.661.661,1.322,1.007,1.983q2.411,4.619,5.2,9c.405.631.811,1.261,1.231,1.878q2.682,4.033,5.678,7.826c.916,1.171,1.848,2.313,2.809,3.44h.015q2.276,2.726,4.777,5.288c2.569,2.7,5.287,5.288,8.1,7.721a1.267,1.267,0,0,1,.256.06.4.4,0,0,0-.075.09c2.868,2.479,5.873,4.821,8.967,7.03q4.665,3.313,9.644,6.159a114.21,114.21,0,0,0,10.365,5.3c3.245,1.472,6.579,2.794,9.974,3.965.346.12.706.241,1.052.361q3.357-4.417,6.429-9.013c.166-.241.33-.5.5-.736,2-3.02,3.921-6.1,5.738-9.238.165-.286.33-.556.5-.841q2.7-4.687,5.122-9.554c.135-.27.271-.526.405-.8,1.622-3.289,3.169-6.639,4.6-10.034-.315-.286-.616-.556-.932-.811Z" transform="translate(-414.76 -113.544)" fill="#1def55"/>
      </g>
      <g id="Group_55" data-name="Group 55" transform="translate(0)">
        <path id="Path_68" data-name="Path 68" d="M496.173,264.521l-1.763-.608c-3.451-1.191-6.837-2.538-10.061-4a115.1,115.1,0,0,1-10.456-5.35c-3.29-1.875-6.563-3.966-9.724-6.211-3.173-2.264-6.2-4.635-9-7.048h-.009l-.222-.192c-2.88-2.5-5.628-5.117-8.169-7.791-1.612-1.655-3.157-3.359-4.589-5.061l-.241-.268c-.966-1.133-1.894-2.269-2.836-3.474-1.98-2.5-3.908-5.158-5.725-7.891-.407-.6-.808-1.219-1.208-1.841-1.863-2.915-3.627-5.969-5.277-9.129-.351-.671-.7-1.343-1.022-2.015-1.411-2.791-2.762-5.8-4.007-8.909-.632-1.578-1.128-2.89-1.563-4.127-.89-2.49-1.624-4.762-2.242-6.941-.928-3.144-1.728-6.383-2.382-9.638l0,0-.146-.77-.087-.456-.06-.313c-.727-3.8-1.268-7.632-1.607-11.382-.342-3.61-.515-7.378-.515-11.194v-.361c.015-3.932.214-7.866.591-11.7.362-3.642.894-7.26,1.578-10.753l.011-.07c.062-.345.125-.691.2-1.037a117.653,117.653,0,0,1,3.115-12.2l.227-.729h.72c1.067-.119,2.213-.223,3.6-.328,2.6-.23,5.46-.409,8.718-.543,1.163-.045,2.324-.075,3.485-.106,2.924-.061,5.877-.061,8.82,0,1.167.03,2.328.061,3.49.106,3.163.131,6.006.3,8.693.526l.04,0c1.211.09,2.421.212,3.631.332,3.127.316,5.9.652,8.489,1.028l1.464.212-.7,1.3a70.773,70.773,0,0,0-4.752,11.013l-.259.779-.817-.073c-.1-.009-.2-.022-.3-.035-.072-.01-.143-.019-.212-.026-3.557-.436-7.257-.788-11.027-1.047a8.355,8.355,0,0,1-.875-.051c-3.442-.2-7.1-.309-10.825-.324h-.882c-3.574.014-6.894.112-10.115.3-.05.216-.1.434-.143.65l-.025.131c-.718,3.263-1.284,6.59-1.68,9.89a106.805,106.805,0,0,0-.789,11.4c-.014.573-.014,1.149-.014,1.712,0,3.166.145,6.389.431,9.581a105.871,105.871,0,0,0,1.577,11.174c.147.753.294,1.492.471,2.245l.029.14c.642,2.921,1.415,5.847,2.3,8.7s1.91,5.707,3.14,8.734c.324.781.651,1.555.994,2.328a102.081,102.081,0,0,0,5.162,10.267c.165.3.334.6.5.865a104.37,104.37,0,0,0,6.325,9.609c.52.7,1.041,1.382,1.577,2.067,1.864,2.412,3.865,4.774,5.952,7.024,1.908,2.072,4,4.161,6.238,6.218l.313.274q.823.755,1.645,1.466a104.12,104.12,0,0,0,8.885,6.981,102.459,102.459,0,0,0,9.565,6.009,103.829,103.829,0,0,0,9.48,4.671c.52-.755,1.035-1.539,1.615-2.434,1.436-2.178,2.807-4.381,4.077-6.554.669-1.106,1.295-2.181,1.866-3.209,1.269-2.241,2.495-4.526,3.646-6.8.561-1.079,1.106-2.178,1.67-3.37,1.228-2.557,2.253-4.812,3.137-6.9l.385-.909.927.339a72.194,72.194,0,0,0,9.729,2.814l.3.064.194.194c.315.257.617.528.932.814l.545.493-.285.678c-1.357,3.227-2.912,6.622-4.622,10.091l-.409.8c-1.576,3.182-3.31,6.416-5.151,9.608l-.5.842c-1.752,3.025-3.693,6.151-5.771,9.291l-.506.75c-2,3-4.174,6.048-6.459,9.054ZM457.32,240.41c2.525,2.138,5.229,4.238,8.051,6.252,3.1,2.2,6.319,4.256,9.556,6.1a113.117,113.117,0,0,0,10.276,5.258c3.169,1.438,6.495,2.76,9.888,3.931l.339.116c2.094-2.777,4.091-5.588,5.94-8.363l.239-.355c.088-.132.176-.265.265-.394,2.044-3.09,3.964-6.18,5.7-9.17l.494-.84c1.819-3.153,3.532-6.348,5.091-9.495l.407-.8c1.569-3.183,3.008-6.306,4.279-9.291l-.171-.146a74.114,74.114,0,0,1-8.83-2.508c-.806,1.864-1.723,3.864-2.789,6.083-.574,1.209-1.129,2.331-1.7,3.424-1.161,2.292-2.4,4.606-3.683,6.868-.58,1.044-1.218,2.141-1.892,3.255-1.281,2.192-2.671,4.427-4.123,6.629-.766,1.182-1.425,2.18-2.138,3.184l-.481.679-.767-.324a106.342,106.342,0,0,1-10.452-5.1,104.565,104.565,0,0,1-9.752-6.128,105.99,105.99,0,0,1-9.053-7.113c-.458-.4-.922-.807-1.385-1.229l-.313-.272c-2.388-2.185-4.629-4.409-6.658-6.612-2.127-2.294-4.169-4.7-6.066-7.158-.542-.692-1.072-1.39-1.6-2.1a105.886,105.886,0,0,1-6.434-9.771c-.172-.271-.362-.605-.538-.923a104.122,104.122,0,0,1-5.255-10.452c-.346-.782-.679-1.571-1.013-2.374-1.254-3.088-2.3-6-3.2-8.908-.911-2.943-1.706-5.964-2.366-8.978l-.024-.117c-.172-.739-.316-1.465-.461-2.2a107.963,107.963,0,0,1-1.609-11.391c-.292-3.249-.439-6.535-.439-9.762,0-.58,0-1.176.015-1.754a108.6,108.6,0,0,1,.8-11.607c.4-3.335.971-6.7,1.7-10.005l.015-.082c.107-.519.23-1.039.352-1.56l.176-.75.769-.048c3.5-.219,7.105-.332,11.011-.348h.89c3.763.015,7.462.127,11,.333a6.806,6.806,0,0,0,.737.043l.07,0c3.7.254,7.339.6,10.814,1.017a72.922,72.922,0,0,1,3.933-9.223c-2.14-.29-4.428-.558-6.946-.813-1.179-.118-2.359-.236-3.54-.325l-.062,0c-2.668-.222-5.494-.393-8.638-.523-1.15-.044-2.3-.074-3.455-.1-2.9-.059-5.837-.059-8.723,0-1.147.03-2.3.06-3.451.105-3.222.133-6.046.308-8.632.537-1.115.084-2.063.167-2.937.257a115.157,115.157,0,0,0-2.866,11.363c-.071.312-.124.6-.176.884l-.02.122c-.678,3.451-1.2,7.027-1.562,10.628-.372,3.765-.566,7.635-.582,11.5v.357c0,3.751.17,7.454.506,11,.308,3.4.784,6.863,1.416,10.311h.684l-.378,1.322c-.011.039-.023.08-.034.12.674,3.514,1.523,7.017,2.526,10.417.609,2.145,1.329,4.373,2.2,6.825.427,1.214.914,2.5,1.534,4.05,1.223,3.057,2.55,6.007,3.943,8.765.32.671.66,1.32,1,1.97,1.622,3.108,3.355,6.108,5.152,8.92.42.653.81,1.259,1.214,1.851,1.792,2.7,3.687,5.306,5.635,7.768.827,1.056,1.638,2.056,2.476,3.046h.006l.327.373c1.463,1.753,3.052,3.512,4.723,5.228,2.443,2.572,5.075,5.087,7.832,7.487.05.014.1.032.157.053l1.473.58Z" transform="translate(-413.26 -112.043)" fill="#1def55"/>
      </g>
    </g>
    <g id="Group_59" data-name="Group 59" transform="translate(22.785 26.677)">
      <g id="Group_57" data-name="Group 57" transform="translate(1.039 1.294)">
        <path id="Path_69" data-name="Path 69" d="M365.657,157.222c-1.788.571-3.56,1.172-5.318,1.818-1.937.691-3.86,1.427-5.753,2.178-1.907.766-3.8,1.562-5.663,2.389q.023,6.2.541,12.287c.06.841.136,1.682.226,2.509.286,3.185.691,6.354,1.187,9.478.255,1.7.541,3.395.871,5.062.39,2.208.856,4.416,1.351,6.594.436,1.862.887,3.71,1.4,5.558.5,1.938,1.051,3.86,1.637,5.768q.857,2.771,1.8,5.5c.63,1.847,1.292,3.665,2,5.467.676,1.788,1.4,3.546,2.148,5.288.751,1.772,1.532,3.53,2.358,5.258.782,1.712,1.622,3.409,2.464,5.092.886,1.712,1.787,3.41,2.734,5.077.9,1.638,1.833,3.26,2.809,4.867.991,1.652,2,3.275,3.064,4.882,1.022,1.577,2.073,3.14,3.169,4.687,1.082,1.577,2.223,3.14,3.379,4.672,1.142,1.517,2.3,3.019,3.53,4.491,1.187,1.517,2.433,3,3.71,4.461,1.262,1.458,2.554,2.885,3.875,4.3,1.352,1.457,2.749,2.9,4.161,4.326,1.352,1.352,2.734,2.674,4.131,3.965,1.637,1.548,3.319,3.05,5.016,4.492,1.292,1.126,2.6,2.223,3.936,3.274,2.478,2.013,5.032,3.951,7.631,5.8.661.5,1.337.961,2.028,1.427.691-.465,1.367-.932,2.028-1.427,2.6-1.848,5.152-3.786,7.631-5.8-2.734-1.772-5.393-3.65-8.006-5.633-.556-.405-1.112-.826-1.653-1.246q-4.619-3.583-8.967-7.481c-.571-.526-1.142-1.036-1.7-1.577q-3.38-3.11-6.579-6.474c-.887-.916-1.757-1.863-2.629-2.809q-2.546-2.816-4.972-5.754c-.946-1.141-1.878-2.313-2.779-3.5q-2.141-2.726-4.116-5.573c-.932-1.292-1.818-2.6-2.689-3.921-1.217-1.847-2.4-3.71-3.531-5.617q-1.262-2.074-2.433-4.192-1.622-2.884-3.11-5.858c-.721-1.412-1.412-2.854-2.058-4.3q-1.487-3.132-2.763-6.339c-.587-1.382-1.142-2.779-1.653-4.176-.9-2.358-1.727-4.762-2.494-7.18-.405-1.216-.781-2.449-1.141-3.68-.857-2.929-1.638-5.889-2.314-8.878-.18-.766-.345-1.532-.5-2.313q-1.238-5.678-2-11.521c-.09-.661-.18-1.307-.256-1.968-.391-3.259-.676-6.534-.855-9.854,1.592-.631,3.2-1.217,4.837-1.772,2.1-.751,4.236-1.457,6.384-2.1.12,3.936.421,7.826.871,11.671.135,1.322.316,2.628.511,3.92.345,2.509.766,5,1.277,7.466q.9,4.664,2.163,9.223c.15.646.33,1.277.511,1.908q1.554,5.5,3.559,10.815a1.7,1.7,0,0,1,.255-.076,2.271,2.271,0,0,1-.195.21q1.961,5.3,4.371,10.38a9.837,9.837,0,0,0,.465.977c1.488,3.154,3.11,6.249,4.837,9.268.225.391.45.781.691,1.157,1.743,3.019,3.62,5.963,5.6,8.832.2.3.391.586.6.871,2.163,3.095,4.431,6.1,6.834,9,.075-.015.15-.03.241-.045a1.681,1.681,0,0,0-.166.135c2.4,2.929,4.943,5.768,7.6,8.487.465.5.946.991,1.427,1.472,2.223,2.208,4.491,4.356,6.85,6.414,1.923,1.7,3.875,3.335,5.889,4.912,1.006.811,2.028,1.593,3.064,2.358q4.687,3.493,9.659,6.595c1.4-1.292,2.778-2.613,4.131-3.965,1.411-1.427,2.808-2.869,4.16-4.326-3.319-1.968-6.549-4.1-9.659-6.354-2.268-1.638-4.476-3.335-6.624-5.122h-.015c-.781-.661-1.563-1.307-2.344-1.983-2.854-2.494-5.618-5.093-8.262-7.812-.8-.81-1.562-1.622-2.313-2.448-1.833-1.983-3.6-4.011-5.287-6.1-1.247-1.5-2.434-3.035-3.59-4.6-1.142-1.532-2.238-3.08-3.32-4.656-1.277-1.893-2.494-3.8-3.68-5.754q-1.307-2.163-2.524-4.371-1.667-3-3.154-6.083c-.841-1.7-1.623-3.41-2.374-5.152-.782-1.788-1.533-3.6-2.223-5.453q-1.42-3.718-2.614-7.541c-.346-1.1-.676-2.209-.992-3.32-1.021-3.635-1.907-7.315-2.614-11.07-.18-.962-.36-1.908-.51-2.885v-.015q-.721-4.168-1.142-8.412c-.391-3.815-.616-7.661-.646-11.566-.03-.6-.03-1.216-.03-1.817,0-3.335.12-6.625.36-9.9-2.253.466-4.492.976-6.714,1.548q-2.457.608-4.867,1.306C369.757,155.93,367.7,156.561,365.657,157.222Z" transform="translate(-348.923 -152.49)" fill="#1def55"/>
      </g>
      <g id="Group_58" data-name="Group 58" transform="translate(0)">
        <path id="Path_70" data-name="Path 70" d="M419.615,298.856l-.58-.392c-.657-.442-1.362-.926-2.07-1.456-2.616-1.86-5.2-3.824-7.662-5.823-1.245-.979-2.546-2.062-3.964-3.3-1.745-1.482-3.447-3.005-5.048-4.519-1.459-1.349-2.859-2.692-4.152-3.986-1.592-1.609-2.961-3.032-4.187-4.353-1.4-1.492-2.673-2.907-3.9-4.324-1.387-1.582-2.613-3.056-3.743-4.5-1.307-1.561-2.526-3.156-3.542-4.506-1.306-1.729-2.419-3.27-3.407-4.709-1.05-1.483-2.095-3.027-3.184-4.71-.968-1.458-1.949-3.022-3.083-4.912-.934-1.537-1.86-3.142-2.828-4.9-.822-1.451-1.7-3.075-2.745-5.1-.821-1.64-1.682-3.376-2.487-5.139-.767-1.6-1.545-3.337-2.369-5.283-.822-1.908-1.531-3.651-2.164-5.325-.687-1.756-1.346-3.559-2.008-5.5-.629-1.81-1.239-3.671-1.813-5.527-.657-2.14-1.2-4.042-1.651-5.817-.559-2.021-1.044-4.044-1.4-5.579-.565-2.483-1.01-4.656-1.364-6.65-.3-1.538-.592-3.209-.876-5.088-.517-3.261-.919-6.474-1.193-9.54-.088-.8-.164-1.659-.227-2.527-.345-4.048-.528-8.21-.543-12.358l0-.677.619-.275c1.813-.8,3.73-1.613,5.7-2.4,2.134-.846,4.027-1.563,5.791-2.192,1.67-.614,3.422-1.213,5.347-1.828h0c2.223-.719,4.259-1.337,6.228-1.889,1.605-.465,3.257-.909,4.9-1.315,2.146-.551,4.357-1.061,6.754-1.556l1.345-.278-.1,1.37c-.237,3.23-.357,6.534-.357,9.823,0,.583,0,1.182.028,1.765.03,3.784.245,7.642.643,11.513.289,2.869.67,5.675,1.131,8.341l.015.112c.133.856.29,1.689.448,2.532l.046.241c.671,3.569,1.52,7.162,2.593,10.98.326,1.148.656,2.255.982,3.289.78,2.5,1.652,5.016,2.594,7.482.634,1.7,1.354,3.463,2.2,5.408.8,1.865,1.573,3.535,2.352,5.107.981,2.037,2.033,4.066,3.131,6.04.8,1.452,1.642,2.911,2.505,4.339,1.217,2,2.412,3.871,3.652,5.709,1.148,1.674,2.227,3.187,3.292,4.617,1.242,1.677,2.4,3.166,3.556,4.554,1.588,1.972,3.3,3.949,5.251,6.057.752.826,1.5,1.618,2.292,2.425,2.528,2.6,5.286,5.209,8.2,7.757.51.441,1.024.874,1.539,1.3l.8.661c2.057,1.714,4.206,3.375,6.567,5.079,3.138,2.273,6.36,4.393,9.58,6.3l1.106.655-.874.943c-1.216,1.311-2.585,2.734-4.182,4.35-1.3,1.3-2.7,2.641-4.164,4l-.582.537-.672-.419c-3.341-2.087-6.615-4.322-9.73-6.643-1.131-.836-2.144-1.617-3.095-2.382-1.945-1.523-3.887-3.143-5.924-4.942-2.19-1.911-4.446-4.025-6.895-6.456-.491-.491-.979-.994-1.451-1.5-2.63-2.689-5.2-5.558-7.625-8.512l-.094-.114c-2.323-2.8-4.64-5.851-6.887-9.065-.207-.281-.414-.582-.62-.9-2.034-2.943-3.934-5.939-5.633-8.881-.223-.346-.454-.748-.686-1.149-1.785-3.119-3.425-6.262-4.881-9.352a10.157,10.157,0,0,1-.487-1.026c-1.478-3.12-2.856-6.362-4.083-9.61l-.006,0-.352-.933c-1.341-3.555-2.548-7.223-3.588-10.9-.179-.627-.365-1.277-.523-1.955-.831-2.992-1.565-6.123-2.171-9.261-.494-2.382-.927-4.916-1.286-7.521-.232-1.536-.4-2.8-.515-3.956-.41-3.5-.688-6.988-.828-10.389-1.661.519-3.353,1.086-5.047,1.692-1.447.492-2.8.98-4.108,1.488.18,3.019.451,6.055.808,9.039.067.586.145,1.156.224,1.734l.03.217c.513,3.915,1.181,7.763,1.983,11.44.148.766.307,1.51.492,2.3.644,2.853,1.4,5.736,2.3,8.824.415,1.418.775,2.576,1.13,3.644.8,2.535,1.636,4.932,2.479,7.138.49,1.34,1.04,2.728,1.638,4.141.893,2.223,1.814,4.336,2.746,6.3.648,1.445,1.333,2.875,2.045,4.27.983,1.966,2.021,3.922,3.09,5.821.778,1.407,1.59,2.8,2.415,4.16,1,1.7,2.115,3.467,3.511,5.588.988,1.5,1.834,2.734,2.664,3.884,1.408,2.016,2.743,3.824,4.09,5.538.888,1.17,1.814,2.336,2.761,3.48,1.736,2.088,3.354,3.96,4.944,5.719.846.918,1.727,1.876,2.6,2.783,2.149,2.254,4.346,4.417,6.537,6.432.428.416.845.8,1.263,1.178l.434.4c2.863,2.566,5.861,5.066,8.9,7.424.534.416,1.08.829,1.628,1.227,2.66,2.017,5.332,3.9,7.96,5.6l1.2.776-1.108.9c-2.46,2-5.045,3.963-7.683,5.839-.687.515-1.393,1-2.049,1.441ZM349.5,163.7c.031,3.866.21,7.74.534,11.525.061.856.135,1.687.222,2.484.272,3.04.669,6.206,1.18,9.428.279,1.855.562,3.5.864,5.023.351,1.981.79,4.122,1.346,6.566.353,1.51.831,3.506,1.386,5.512.451,1.763.982,3.633,1.629,5.74.566,1.831,1.169,3.669,1.791,5.462.654,1.917,1.3,3.691,1.984,5.43.626,1.656,1.323,3.371,2.135,5.255.814,1.923,1.58,3.629,2.341,5.22.8,1.748,1.651,3.466,2.456,5.076,1.03,1.99,1.892,3.591,2.708,5.03.96,1.743,1.872,3.323,2.794,4.84,1.12,1.867,2.086,3.406,3.042,4.847,1.08,1.668,2.109,3.189,3.151,4.66.978,1.426,2.075,2.942,3.362,4.647,1,1.329,2.2,2.9,3.5,4.449,1.128,1.441,2.329,2.886,3.695,4.443,1.213,1.4,2.472,2.8,3.853,4.272,1.215,1.308,2.569,2.716,4.142,4.306,1.27,1.27,2.649,2.595,4.1,3.933,1.582,1.5,3.256,2.994,4.985,4.462,1.4,1.223,2.675,2.283,3.9,3.25,2.44,1.981,4.99,3.919,7.591,5.768.486.364.965.7,1.427,1.019.46-.316.935-.65,1.407-1,2.226-1.584,4.4-3.219,6.492-4.883-2.283-1.518-4.589-3.16-6.872-4.891-.549-.4-1.113-.828-1.663-1.255-3.078-2.387-6.114-4.919-9.022-7.527l-.44-.4c-.434-.4-.866-.792-1.288-1.2-2.2-2.026-4.433-4.22-6.608-6.5-.889-.92-1.779-1.887-2.64-2.822-1.616-1.788-3.252-3.68-5.008-5.792-.967-1.167-1.911-2.357-2.807-3.537-1.361-1.732-2.718-3.57-4.14-5.606-.838-1.162-1.7-2.42-2.7-3.944-1.415-2.15-2.546-3.949-3.557-5.662-.833-1.367-1.659-2.79-2.448-4.216-1.082-1.922-2.135-3.908-3.13-5.9-.724-1.418-1.424-2.88-2.077-4.335-.941-1.981-1.879-4.134-2.78-6.377-.6-1.426-1.167-2.847-1.664-4.206-.851-2.229-1.7-4.664-2.508-7.223-.359-1.077-.725-2.259-1.148-3.7-.915-3.13-1.677-6.054-2.33-8.94-.19-.807-.354-1.577-.5-2.346-.81-3.709-1.487-7.615-2.008-11.582l-.028-.212c-.082-.593-.161-1.178-.229-1.774-.391-3.269-.681-6.607-.861-9.915l-.041-.745.694-.275c1.565-.62,3.163-1.205,4.886-1.79,2.151-.768,4.315-1.481,6.418-2.114l1.295-.389.042,1.351c.114,3.766.405,7.663.864,11.583.117,1.14.277,2.371.507,3.886.354,2.573.779,5.061,1.267,7.41.6,3.1,1.32,6.175,2.147,9.157.157.669.336,1.295.509,1.9.944,3.338,2.027,6.666,3.224,9.907l2.088-.345-1.5,1.885c1.228,3.269,2.614,6.538,4.123,9.725a9.19,9.19,0,0,0,.438.924c1.461,3.094,3.075,6.188,4.827,9.249.218.378.434.753.664,1.113,1.695,2.934,3.565,5.882,5.582,8.8.2.307.385.576.584.846,2.105,3.011,4.256,5.857,6.416,8.487l3.875-.651-2.728,2.039c2.191,2.626,4.493,5.176,6.854,7.59q.709.753,1.42,1.464c2.413,2.4,4.638,4.48,6.8,6.366,2.012,1.775,3.922,3.369,5.845,4.876.939.757,1.93,1.52,3.041,2.341,2.864,2.134,5.86,4.192,8.92,6.126,1.235-1.154,2.417-2.294,3.521-3.4,1.207-1.22,2.281-2.33,3.258-3.364-2.905-1.765-5.8-3.693-8.632-5.743-2.289-1.651-4.383-3.265-6.389-4.925h-.006l-1.092-.907c-.522-.438-1.044-.877-1.565-1.328-2.964-2.59-5.764-5.237-8.327-7.873-.808-.823-1.573-1.633-2.338-2.474-1.974-2.135-3.718-4.149-5.327-6.145-1.167-1.406-2.352-2.924-3.615-4.63-1.08-1.449-2.174-2.983-3.342-4.687-1.263-1.872-2.476-3.768-3.712-5.8-.877-1.453-1.734-2.936-2.545-4.409-1.116-2.005-2.186-4.07-3.18-6.134-.791-1.6-1.575-3.3-2.391-5.191-.864-1.975-1.6-3.776-2.243-5.5-.954-2.5-1.841-5.057-2.633-7.595-.331-1.05-.667-2.177-1-3.346-1.091-3.88-1.954-7.531-2.636-11.162l-.045-.241c-.167-.89-.332-1.771-.472-2.677l-.012-.084c-.462-2.687-.844-5.512-1.136-8.4-.4-3.934-.622-7.859-.651-11.663-.03-.583-.03-1.215-.03-1.826,0-2.875.091-5.761.27-8.6-1.858.4-3.612.813-5.328,1.254-1.624.4-3.248.839-4.837,1.3-1.95.547-3.962,1.158-6.158,1.869h0c-1.9.606-3.624,1.2-5.275,1.8-1.751.624-3.622,1.332-5.728,2.168C352.787,162.294,351.106,163,349.5,163.7Z" transform="translate(-347.42 -150.619)" fill="#1def55"/>
      </g>
    </g>
  </g>
</svg>
