<svg xmlns="http://www.w3.org/2000/svg" width="86.858" height="86.842" viewBox="0 0 86.858 86.842">
  <g id="Photography" transform="translate(1 1)">
    <path id="Path_290" data-name="Path 290" d="M60.644,43.812V43.8A14.184,14.184,0,0,0,32.6,46.79a12.723,12.723,0,0,0,.212,2.39,13.9,13.9,0,0,0,2.537,5.989A14.184,14.184,0,0,0,60.971,46.79,13.69,13.69,0,0,0,60.644,43.812Zm0,0V43.8A14.184,14.184,0,0,0,32.6,46.79a12.723,12.723,0,0,0,.212,2.39,13.9,13.9,0,0,0,2.537,5.989A14.184,14.184,0,0,0,60.971,46.79,13.69,13.69,0,0,0,60.644,43.812ZM46.785,4.361A42.421,42.421,0,1,0,89.214,46.79,42.43,42.43,0,0,0,46.785,4.361Zm0,74.5c-.884,0-1.767-.032-2.634-.115A32.071,32.071,0,0,1,14.713,46.79a30.068,30.068,0,0,1,.312-4.4,30.966,30.966,0,0,1,1.9-7.281v-.015a31.936,31.936,0,0,1,6.121-9.884l.015-.015a31.132,31.132,0,0,1,2.684-2.618A31.921,31.921,0,0,1,46.785,14.7c.965,0,1.931.049,2.879.13a31.717,31.717,0,0,1,9.246,2.242l3.813,1.865.017.017A31.194,31.194,0,0,1,70.053,24.7,31.879,31.879,0,0,1,78.872,46.79c0,1.031-.049,2.029-.146,3.028A32.086,32.086,0,0,1,46.785,78.861ZM60.644,43.8A14.184,14.184,0,0,0,32.6,46.79a12.723,12.723,0,0,0,.212,2.39,13.9,13.9,0,0,0,2.537,5.989A14.184,14.184,0,0,0,60.971,46.79a13.69,13.69,0,0,0-.327-2.978Z" transform="translate(-4.356 -4.361)" fill="#152328"/>
    <path id="Path_291" data-name="Path 291" d="M49.854,33.664A14.18,14.18,0,0,0,35.4,29.557L18.29,18.97A31.921,31.921,0,0,1,39.332,11.1c.965,0,1.931.049,2.879.13Z" transform="translate(3.096 -0.757)" fill="#b8c7d8"/>
    <path id="Path_292" data-name="Path 292" d="M60.1,39.7c0,1.031-.049,2.029-.146,3.028L39.463,48.064A14.089,14.089,0,0,0,42.195,39.7a13.69,13.69,0,0,0-.327-2.978v-.017l9.408-19.095A31.879,31.879,0,0,1,60.1,39.7Z" transform="translate(14.42 2.727)" fill="#b8c7d8"/>
    <path id="Path_293" data-name="Path 293" d="M59.892,50.472A31.979,31.979,0,0,1,35.986,61.157c-.884,0-1.767-.032-2.634-.115l-8.8-23.578a14.178,14.178,0,0,0,19.161,3.5Z" transform="translate(6.443 13.343)" fill="#b8c7d8"/>
    <path id="Path_294" data-name="Path 294" d="M28.989,35.272a12.724,12.724,0,0,0,.212,2.39l-9.082,19.9A31.907,31.907,0,0,1,11.1,35.272a30.068,30.068,0,0,1,.312-4.4L32.539,25.9A14.148,14.148,0,0,0,28.989,35.272Z" transform="translate(-0.747 7.156)" fill="#b8c7d8"/>
    <path id="Path_295" data-name="Path 295" d="M51.13,36.948a14.187,14.187,0,0,1-25.624,8.379,13.9,13.9,0,0,1-2.537-5.989,12.723,12.723,0,0,1-.212-2.39A14.181,14.181,0,0,1,50.8,33.954v.017A13.69,13.69,0,0,1,51.13,36.948Z" transform="translate(5.485 5.48)" fill="none"/>
    <path id="Path_296" data-name="Path 296" d="M37.4,63.129a31.833,31.833,0,0,1-20.422-9.669l9.082-19.9A13.9,13.9,0,0,0,28.6,39.551Z" transform="translate(2.395 11.256)" fill="#00ced3"/>
    <path id="Path_297" data-name="Path 297" d="M61.25,33.978a31.854,31.854,0,0,1-8.035,18.358L37.032,42.829a14.13,14.13,0,0,0,3.731-3.518Z" transform="translate(13.12 11.479)" fill="#00ced3"/>
    <path id="Path_298" data-name="Path 298" d="M54.265,21.051,44.856,40.146a14.14,14.14,0,0,0-3.338-6.528L33.876,11.184a31.716,31.716,0,0,1,9.246,2.242l3.813,1.865.017.017A31.2,31.2,0,0,1,54.265,21.051Z" transform="translate(11.432 -0.712)" fill="#00ced3"/>
    <path id="Path_299" data-name="Path 299" d="M39.14,26.814a14.18,14.18,0,0,0-6.709,4.253L11.307,36.042a30.966,30.966,0,0,1,1.9-7.281v-.015a31.936,31.936,0,0,1,6.121-9.884l.015-.015a31.132,31.132,0,0,1,2.684-2.618Z" transform="translate(-0.638 1.985)" fill="#00ced3"/>
    <path id="Path_300" data-name="Path 300" d="M60.644,43.812V43.8A14.184,14.184,0,0,0,32.6,46.79a12.723,12.723,0,0,0,.212,2.39,13.9,13.9,0,0,0,2.537,5.989A14.184,14.184,0,0,0,60.971,46.79,13.69,13.69,0,0,0,60.644,43.812Zm0,0V43.8A14.184,14.184,0,0,0,32.6,46.79a12.723,12.723,0,0,0,.212,2.39,13.9,13.9,0,0,0,2.537,5.989A14.184,14.184,0,0,0,60.971,46.79,13.69,13.69,0,0,0,60.644,43.812ZM46.785,4.361A42.421,42.421,0,1,0,89.214,46.79,42.43,42.43,0,0,0,46.785,4.361Zm0,74.5c-.884,0-1.767-.032-2.634-.115A32.071,32.071,0,0,1,14.713,46.79a30.068,30.068,0,0,1,.312-4.4,30.966,30.966,0,0,1,1.9-7.281v-.015a31.936,31.936,0,0,1,6.121-9.884l.015-.015a31.132,31.132,0,0,1,2.684-2.618A31.921,31.921,0,0,1,46.785,14.7c.965,0,1.931.049,2.879.13a31.717,31.717,0,0,1,9.246,2.242l3.813,1.865.017.017A31.194,31.194,0,0,1,70.053,24.7,31.879,31.879,0,0,1,78.872,46.79c0,1.031-.049,2.029-.146,3.028A32.086,32.086,0,0,1,46.785,78.861ZM60.644,43.8A14.184,14.184,0,0,0,32.6,46.79a12.723,12.723,0,0,0,.212,2.39,13.9,13.9,0,0,0,2.537,5.989A14.184,14.184,0,0,0,60.971,46.79a13.69,13.69,0,0,0-.327-2.978Z" transform="translate(-4.356 -4.361)" fill="none" stroke="#000" stroke-linecap="round" stroke-linejoin="round" stroke-width="2"/>
    <path id="Path_301" data-name="Path 301" d="M49.854,33.664A14.18,14.18,0,0,0,35.4,29.557L18.29,18.97A31.921,31.921,0,0,1,39.332,11.1c.965,0,1.931.049,2.879.13Z" transform="translate(3.096 -0.757)" fill="none" stroke="#000" stroke-linecap="round" stroke-linejoin="round" stroke-width="2"/>
    <path id="Path_302" data-name="Path 302" d="M60.1,39.7c0,1.031-.049,2.029-.146,3.028L39.463,48.064A14.089,14.089,0,0,0,42.195,39.7a13.69,13.69,0,0,0-.327-2.978v-.017l9.408-19.095A31.879,31.879,0,0,1,60.1,39.7Z" transform="translate(14.42 2.727)" fill="none" stroke="#000" stroke-linecap="round" stroke-linejoin="round" stroke-width="2"/>
    <path id="Path_303" data-name="Path 303" d="M59.892,50.472A31.979,31.979,0,0,1,35.986,61.157c-.884,0-1.767-.032-2.634-.115l-8.8-23.578a14.178,14.178,0,0,0,19.161,3.5Z" transform="translate(6.443 13.343)" fill="none" stroke="#000" stroke-linecap="round" stroke-linejoin="round" stroke-width="2"/>
    <path id="Path_304" data-name="Path 304" d="M28.989,35.272a12.724,12.724,0,0,0,.212,2.39l-9.082,19.9A31.907,31.907,0,0,1,11.1,35.272a30.068,30.068,0,0,1,.312-4.4L32.539,25.9A14.148,14.148,0,0,0,28.989,35.272Z" transform="translate(-0.747 7.156)" fill="none" stroke="#000" stroke-linecap="round" stroke-linejoin="round" stroke-width="2"/>
    <path id="Path_305" data-name="Path 305" d="M51.13,36.948a14.187,14.187,0,0,1-25.624,8.379,13.9,13.9,0,0,1-2.537-5.989,12.723,12.723,0,0,1-.212-2.39A14.181,14.181,0,0,1,50.8,33.954v.017A13.69,13.69,0,0,1,51.13,36.948Z" transform="translate(5.485 5.48)" fill="none" stroke="#000" stroke-linecap="round" stroke-linejoin="round" stroke-width="2"/>
    <path id="Path_306" data-name="Path 306" d="M37.4,63.129a31.833,31.833,0,0,1-20.422-9.669l9.082-19.9A13.9,13.9,0,0,0,28.6,39.551Z" transform="translate(2.395 11.256)" fill="none" stroke="#000" stroke-linecap="round" stroke-linejoin="round" stroke-width="2"/>
    <path id="Path_307" data-name="Path 307" d="M61.25,33.978a31.854,31.854,0,0,1-8.035,18.358L37.032,42.829a14.13,14.13,0,0,0,3.731-3.518Z" transform="translate(13.12 11.479)" fill="none" stroke="#000" stroke-linecap="round" stroke-linejoin="round" stroke-width="2"/>
    <path id="Path_308" data-name="Path 308" d="M54.265,21.051,44.856,40.146a14.14,14.14,0,0,0-3.338-6.528L33.876,11.184a31.716,31.716,0,0,1,9.246,2.242l3.813,1.865.017.017A31.2,31.2,0,0,1,54.265,21.051Z" transform="translate(11.432 -0.712)" fill="none" stroke="#000" stroke-linecap="round" stroke-linejoin="round" stroke-width="2"/>
    <path id="Path_309" data-name="Path 309" d="M39.14,26.814a14.18,14.18,0,0,0-6.709,4.253L11.307,36.042a30.966,30.966,0,0,1,1.9-7.281v-.015a31.936,31.936,0,0,1,6.121-9.884l.015-.015a31.132,31.132,0,0,1,2.684-2.618Z" transform="translate(-0.638 1.985)" fill="none" stroke="#000" stroke-linecap="round" stroke-linejoin="round" stroke-width="2"/>
    <path id="Path_310" data-name="Path 310" d="M50.622,89.022a42.412,42.412,0,0,1,0-84.48c-1.265-.114-2.543-.181-3.837-.181a42.421,42.421,0,1,0,0,84.842C48.079,89.2,49.357,89.136,50.622,89.022Z" transform="translate(-4.356 -4.361)"/>
    <path id="Path_311" data-name="Path 311" d="M33.07,4.361c-1.033,0-2.055.051-3.07.123a42.408,42.408,0,0,1,0,84.6c1.015.072,2.037.123,3.07.123a42.421,42.421,0,1,0,0-84.842Z" transform="translate(9.359 -4.361)" fill="#fff" style="mix-blend-mode: overlay;isolation: isolate"/>
  </g>
</svg>
