<svg xmlns="http://www.w3.org/2000/svg" width="141.989" height="177.384" viewBox="0 0 141.989 177.384"><g transform="translate(-8 -84.017)"><path d="M46.522,111.243l-5.591-11.9-5.591,11.9a4.422,4.422,0,0,1-3.346,2.5l-12.921,1.975,9.5,9.74a4.426,4.426,0,0,1,1.2,3.811l-2.192,13.458,11.2-6.19a4.435,4.435,0,0,1,4.3,0l11.2,6.19-2.192-13.458a4.413,4.413,0,0,1,1.2-3.811l9.5-9.74-12.921-1.975A4.422,4.422,0,0,1,46.522,111.243Z" transform="translate(38.063 52.691)"/><path d="M145.551,110.538c-27.368,0-51.511-9.518-63-24.844a4.6,4.6,0,0,0-7.108,0c-11.492,15.326-35.635,24.844-63,24.844A4.436,4.436,0,0,0,8,114.975v57.683c0,50.61,36.043,78.932,69.774,88.574a4.5,4.5,0,0,0,2.44,0c33.731-9.642,69.774-37.964,69.774-88.574V114.975A4.436,4.436,0,0,0,145.551,110.538Zm-32.325,57.887L99.263,182.739l3.3,20.264a4.434,4.434,0,0,1-6.523,4.6l-17.048-9.424L61.947,207.6A4.436,4.436,0,0,1,55.42,203l3.306-20.264L44.762,168.425a4.429,4.429,0,0,1,2.507-7.481l19.115-2.924,8.6-18.3c1.455-3.124,6.567-3.124,8.022,0l8.6,18.3,19.115,2.924a4.429,4.429,0,0,1,2.507,7.481Z" transform="translate(0 0)" fill="#919191"/></g></svg>