<svg xmlns="http://www.w3.org/2000/svg" width="72.262" height="91.401" viewBox="0 0 72.262 91.401">
  <g id="Sound" transform="translate(1 1)">
    <g id="Group_441" data-name="Group 441">
      <path id="Path_276" data-name="Path 276" d="M69.756,30.221v15.5c0,9.333-8.626,16.928-19.231,16.928H35c-10.605,0-19.233-7.595-19.233-16.928v-15.5" transform="translate(-7.629 11.383)" fill="none" stroke="#000" stroke-miterlimit="10" stroke-width="2"/>
      <g id="Group_440" data-name="Group 440">
        <path id="Path_266" data-name="Path 266" d="M37.7,54.932a15.925,15.925,0,0,1-.4-5.21H31.077a15.925,15.925,0,0,1-.4,5.21,11.771,11.771,0,0,1-1.969,4.277H39.668A11.742,11.742,0,0,1,37.7,54.932Z" transform="translate(0.948 24.312)" fill="#4d4d4d"/>
        <rect id="Rectangle_139" data-name="Rectangle 139" width="47.173" height="5.88" rx="1.768" transform="translate(11.549 83.521)" fill="#ed1e79"/>
        <path id="Path_275" data-name="Path 275" d="M37.7,54.932a15.925,15.925,0,0,1-.4-5.21H31.077a15.925,15.925,0,0,1-.4,5.21,11.771,11.771,0,0,1-1.969,4.277H39.668A11.742,11.742,0,0,1,37.7,54.932Z" transform="translate(0.948 24.312)" fill="none" stroke="#000" stroke-miterlimit="10" stroke-width="2"/>
        <rect id="Rectangle_140" data-name="Rectangle 140" width="47.173" height="5.88" rx="1.768" transform="translate(11.549 83.521)" fill="none" stroke="#000" stroke-miterlimit="10" stroke-width="2"/>
      </g>
    </g>
    <g id="Group_442" data-name="Group 442">
      <g id="Group_409" data-name="Group 409">
        <g id="Group_401" data-name="Group 401" transform="translate(8.142 41.604)">
          <path id="Path_267" data-name="Path 267" d="M69.756,30.221v15.5c0,9.333-8.626,16.928-19.231,16.928H35c-10.605,0-19.233-7.595-19.233-16.928v-15.5" transform="translate(-15.771 -30.221)" fill="none"/>
        </g>
        <g id="Group_404" data-name="Group 404">
          <path id="Path_268" data-name="Path 268" d="M56.109,22.449V39.462H21.635V22.449a17.237,17.237,0,1,1,34.474,0Z" transform="translate(-3.741 -5.204)" fill="#ccc"/>
          <path id="Path_269" data-name="Path 269" d="M65.972,29.712v3.176A3.9,3.9,0,0,1,62.08,36.8H21.3A3.9,3.9,0,0,1,17.4,32.888V29.712A3.914,3.914,0,0,1,21.3,25.8H62.08A3.911,3.911,0,0,1,65.972,29.712Z" transform="translate(-6.552 8.454)" fill="#4d4d4d"/>
          <path id="Path_270" data-name="Path 270" d="M56.109,32.414V48.329a4.659,4.659,0,0,1-4.44,4.856H26.092a4.672,4.672,0,0,1-4.457-4.856V32.414Z" transform="translate(-3.741 12.837)" fill="#ed1e79"/>
          <g id="Group_402" data-name="Group 402" transform="translate(0 34.258)">
            <path id="Path_271" data-name="Path 271" d="M16.413,28.265v5.521a2.087,2.087,0,0,1-.166.848,2.424,2.424,0,0,1-2.295,1.6h-.615a2.452,2.452,0,0,1-2.461-2.445V28.265A2.456,2.456,0,0,1,13.336,25.8h.615a2.424,2.424,0,0,1,2.428,2.179A.778.778,0,0,1,16.413,28.265Z" transform="translate(-10.875 -25.804)" fill="#ed1e79"/>
            <path id="Path_272" data-name="Path 272" d="M19.576,27.114v6.652H14.1a2.087,2.087,0,0,0,.166-.848V27.4a.778.778,0,0,0-.033-.283Z" transform="translate(-8.733 -24.935)" fill="#4d4d4d"/>
          </g>
          <g id="Group_403" data-name="Group 403" transform="translate(59.419 34.258)">
            <path id="Path_273" data-name="Path 273" d="M52.093,33.766H46.6V27.114H51.96a.778.778,0,0,0-.033.283v5.521A2.087,2.087,0,0,0,52.093,33.766Z" transform="translate(-46.605 -24.935)" fill="#4d4d4d"/>
            <path id="Path_274" data-name="Path 274" d="M55.326,28.265v5.521a2.449,2.449,0,0,1-2.445,2.445H52.25a2.419,2.419,0,0,1-2.278-1.6,2.087,2.087,0,0,1-.166-.848V28.265a.778.778,0,0,1,.033-.283A2.42,2.42,0,0,1,52.25,25.8h.632A2.452,2.452,0,0,1,55.326,28.265Z" transform="translate(-44.483 -25.804)" fill="#ed1e79"/>
          </g>
        </g>
        <g id="Group_408" data-name="Group 408" transform="translate(25.248 10.734)">
          <g id="Group_405" data-name="Group 405">
            <circle id="Ellipse_45" data-name="Ellipse 45" cx="1.648" cy="1.648" r="1.648" fill="#4d4d4d"/>
            <circle id="Ellipse_46" data-name="Ellipse 46" cx="1.648" cy="1.648" r="1.648" transform="translate(0 7.684)" fill="#4d4d4d"/>
            <circle id="Ellipse_47" data-name="Ellipse 47" cx="1.648" cy="1.648" r="1.648" transform="translate(0 15.368)" fill="#4d4d4d"/>
          </g>
          <g id="Group_406" data-name="Group 406" transform="translate(8.239)">
            <circle id="Ellipse_48" data-name="Ellipse 48" cx="1.648" cy="1.648" r="1.648" fill="#4d4d4d"/>
            <circle id="Ellipse_49" data-name="Ellipse 49" cx="1.648" cy="1.648" r="1.648" transform="translate(0 7.684)" fill="#4d4d4d"/>
            <circle id="Ellipse_50" data-name="Ellipse 50" cx="1.648" cy="1.648" r="1.648" transform="translate(0 15.368)" fill="#4d4d4d"/>
          </g>
          <g id="Group_407" data-name="Group 407" transform="translate(16.478)">
            <circle id="Ellipse_51" data-name="Ellipse 51" cx="1.648" cy="1.648" r="1.648" fill="#4d4d4d"/>
            <circle id="Ellipse_52" data-name="Ellipse 52" cx="1.648" cy="1.648" r="1.648" transform="translate(0 7.684)" fill="#4d4d4d"/>
            <circle id="Ellipse_53" data-name="Ellipse 53" cx="1.648" cy="1.648" r="1.648" transform="translate(0 15.368)" fill="#4d4d4d"/>
          </g>
        </g>
      </g>
      <g id="Group_418" data-name="Group 418">
        <g id="Group_413" data-name="Group 413">
          <path id="Path_277" data-name="Path 277" d="M56.109,22.449V39.462H21.635V22.449a17.237,17.237,0,1,1,34.474,0Z" transform="translate(-3.741 -5.204)" fill="none" stroke="#000" stroke-miterlimit="10" stroke-width="2"/>
          <path id="Path_278" data-name="Path 278" d="M65.972,29.712v3.176A3.9,3.9,0,0,1,62.08,36.8H21.3A3.9,3.9,0,0,1,17.4,32.888V29.712A3.914,3.914,0,0,1,21.3,25.8H62.08A3.911,3.911,0,0,1,65.972,29.712Z" transform="translate(-6.552 8.454)" fill="none" stroke="#000" stroke-miterlimit="10" stroke-width="2"/>
          <path id="Path_279" data-name="Path 279" d="M56.109,32.414V48.329a4.659,4.659,0,0,1-4.44,4.856H26.092a4.672,4.672,0,0,1-4.457-4.856V32.414Z" transform="translate(-3.741 12.837)" fill="none" stroke="#000" stroke-miterlimit="10" stroke-width="2"/>
          <g id="Group_411" data-name="Group 411" transform="translate(0 34.258)">
            <path id="Path_280" data-name="Path 280" d="M16.413,28.265v5.521a2.087,2.087,0,0,1-.166.848,2.424,2.424,0,0,1-2.295,1.6h-.615a2.452,2.452,0,0,1-2.461-2.445V28.265A2.456,2.456,0,0,1,13.336,25.8h.615a2.424,2.424,0,0,1,2.428,2.179A.778.778,0,0,1,16.413,28.265Z" transform="translate(-10.875 -25.804)" fill="none" stroke="#000" stroke-miterlimit="10" stroke-width="2"/>
            <path id="Path_281" data-name="Path 281" d="M19.576,27.114v6.652H14.1a2.087,2.087,0,0,0,.166-.848V27.4a.778.778,0,0,0-.033-.283Z" transform="translate(-8.733 -24.935)" fill="none" stroke="#000" stroke-miterlimit="10" stroke-width="2"/>
          </g>
          <g id="Group_412" data-name="Group 412" transform="translate(59.419 34.258)">
            <path id="Path_282" data-name="Path 282" d="M52.093,33.766H46.6V27.114H51.96a.778.778,0,0,0-.033.283v5.521A2.087,2.087,0,0,0,52.093,33.766Z" transform="translate(-46.605 -24.935)" fill="none" stroke="#000" stroke-miterlimit="10" stroke-width="2"/>
            <path id="Path_283" data-name="Path 283" d="M55.326,28.265v5.521a2.449,2.449,0,0,1-2.445,2.445H52.25a2.419,2.419,0,0,1-2.278-1.6,2.087,2.087,0,0,1-.166-.848V28.265a.778.778,0,0,1,.033-.283A2.42,2.42,0,0,1,52.25,25.8h.632A2.452,2.452,0,0,1,55.326,28.265Z" transform="translate(-44.483 -25.804)" fill="none" stroke="#000" stroke-miterlimit="10" stroke-width="2"/>
          </g>
        </g>
        <g id="Group_417" data-name="Group 417" transform="translate(25.248 10.734)">
          <g id="Group_414" data-name="Group 414">
            <circle id="Ellipse_54" data-name="Ellipse 54" cx="1.648" cy="1.648" r="1.648" fill="none"/>
            <circle id="Ellipse_55" data-name="Ellipse 55" cx="1.648" cy="1.648" r="1.648" transform="translate(0 7.684)" fill="none"/>
            <circle id="Ellipse_56" data-name="Ellipse 56" cx="1.648" cy="1.648" r="1.648" transform="translate(0 15.368)" fill="none"/>
          </g>
          <g id="Group_415" data-name="Group 415" transform="translate(8.239)">
            <circle id="Ellipse_57" data-name="Ellipse 57" cx="1.648" cy="1.648" r="1.648" fill="none"/>
            <circle id="Ellipse_58" data-name="Ellipse 58" cx="1.648" cy="1.648" r="1.648" transform="translate(0 7.684)" fill="none"/>
            <circle id="Ellipse_59" data-name="Ellipse 59" cx="1.648" cy="1.648" r="1.648" transform="translate(0 15.368)" fill="none"/>
          </g>
          <g id="Group_416" data-name="Group 416" transform="translate(16.478)">
            <circle id="Ellipse_60" data-name="Ellipse 60" cx="1.648" cy="1.648" r="1.648" fill="none"/>
            <circle id="Ellipse_61" data-name="Ellipse 61" cx="1.648" cy="1.648" r="1.648" transform="translate(0 7.684)" fill="none"/>
            <circle id="Ellipse_62" data-name="Ellipse 62" cx="1.648" cy="1.648" r="1.648" transform="translate(0 15.368)" fill="none"/>
          </g>
        </g>
      </g>
      <path id="Path_284" data-name="Path 284" d="M46.616,30.064c0,.09-.02.173-.027.261h.027Z" transform="translate(12.804 11.278)" fill="none" stroke="#000" stroke-linecap="round" stroke-miterlimit="10" stroke-width="2"/>
      <path id="Path_285" data-name="Path 285" d="M17.4,30.064v.261h.027C17.415,30.237,17.4,30.154,17.4,30.064Z" transform="translate(-6.552 11.278)" fill="none" stroke="#000" stroke-linecap="round" stroke-miterlimit="10" stroke-width="2"/>
      <path id="Path_286" data-name="Path 286" d="M19.017,49.729A13.12,13.12,0,0,1,27.7,52.756c-.6,4.332-1.2,8.882-.022,13.038s4.756,7.665,8.26,6.559a203.257,203.257,0,0,1-3.692-25.906c-.594-7.668-.732-15.607,1.432-22.848A29.459,29.459,0,0,1,48.66,5.429,17.125,17.125,0,0,0,28.769,22.449V39.462H25.626a3.914,3.914,0,0,0-3.908,3.908v-1.73H16.38a2.424,2.424,0,0,0-2.428-2.179h-.615a2.456,2.456,0,0,0-2.461,2.461v5.521a2.452,2.452,0,0,0,2.461,2.445h.615a2.424,2.424,0,0,0,2.295-1.6h2.771Z" transform="translate(-10.875 -5.204)" fill="#fcfcfc" opacity="0.5" style="mix-blend-mode: soft-light;isolation: isolate"/>
      <path id="Path_287" data-name="Path 287" d="M46.616,30.064c0,.09-.02.173-.027.261h.027Z" transform="translate(12.804 11.278)" fill="none" stroke="#000" stroke-linecap="round" stroke-miterlimit="10" stroke-width="2"/>
      <path id="Path_288" data-name="Path 288" d="M17.4,30.064v.261h.027C17.415,30.237,17.4,30.154,17.4,30.064Z" transform="translate(-6.552 11.278)" fill="none" stroke="#000" stroke-linecap="round" stroke-miterlimit="10" stroke-width="2"/>
      <path id="Path_289" data-name="Path 289" d="M67.222,39.462H66.59a2.42,2.42,0,0,0-2.411,2.179H58.824v1.73a3.911,3.911,0,0,0-3.891-3.908h-3.16V22.449a17.213,17.213,0,0,0-23.6-16.018A31.428,31.428,0,0,1,44.074,23.6c2.626,7.241,2.46,15.18,1.738,22.848A169.856,169.856,0,0,1,41.33,72.353c4.254,1.106,8.6-2.4,10.028-6.559s.707-8.706-.027-13.038a18.2,18.2,0,0,1,10.2-3.027V48.293h2.779a2.419,2.419,0,0,0,2.278,1.6h.632a2.449,2.449,0,0,0,2.445-2.445V41.923A2.452,2.452,0,0,0,67.222,39.462Z" transform="translate(0.596 -5.204)" opacity="0.25" style="mix-blend-mode: multiply;isolation: isolate"/>
    </g>
  </g>
</svg>
