<svg id="Theather" xmlns="http://www.w3.org/2000/svg" width="110.735" height="100.15" viewBox="0 0 110.735 100.15">
  <g id="Group_91" data-name="Group 91" transform="translate(0 9.77)">
    <g id="Group_78" data-name="Group 78" transform="translate(5.699)">
      <path id="Path_78" data-name="Path 78" d="M12.514,37.427V24.119a3.258,3.258,0,0,0-.954-2.3L6,16.257,9.257,13l6.234,6.234A6.513,6.513,0,0,1,17.4,23.841V37.427Z" transform="translate(-5.185 -12.185)" fill="#fff"/>
      <path id="Path_79" data-name="Path 79" d="M17.714,38.555H12.828a.815.815,0,0,1-.814-.814V24.433a2.46,2.46,0,0,0-.715-1.726l-5.561-5.56a.817.817,0,0,1,0-1.153l3.257-3.257a.817.817,0,0,1,1.153,0l6.234,6.235a7.277,7.277,0,0,1,2.146,5.182V37.741A.815.815,0,0,1,17.714,38.555Zm-4.071-1.628H16.9V24.155a5.662,5.662,0,0,0-1.669-4.03L9.571,14.466,7.466,16.571l4.985,4.985a4.041,4.041,0,0,1,1.192,2.877Z" transform="translate(-5.5 -12.5)" fill="#220b25"/>
    </g>
    <g id="Group_81" data-name="Group 81" transform="translate(7.665 3.427)">
      <g id="Group_79" data-name="Group 79">
        <path id="Path_80" data-name="Path 80" d="M10.54,17.791,7.353,14.6l-.646.645,4.983,4.983A4.034,4.034,0,0,0,10.54,17.791Z" transform="translate(-6.707 -14.604)" fill="#bbccdc"/>
      </g>
      <g id="Group_80" data-name="Group 80" transform="translate(8.176 4.698)">
        <path id="Path_81" data-name="Path 81" d="M11.728,17.489a5.743,5.743,0,0,1,.106,1.088V33.791h1.151V21.019A5.644,5.644,0,0,0,11.728,17.489Z" transform="translate(-11.728 -17.489)" fill="#bbccdc"/>
      </g>
    </g>
    <path id="Path_82" data-name="Path 82" d="M40.826,86.482H8.257L5,36H44.083Z" transform="translate(-0.115 2.269)" fill="#2c8ccd"/>
    <path id="Path_83" data-name="Path 83" d="M48.6,39.142H3l.886-5.916A3.258,3.258,0,0,1,6.975,31H44.622a3.258,3.258,0,0,1,3.089,2.226Z" transform="translate(-1.372 -0.873)" fill="#fff"/>
    <g id="Group_82" data-name="Group 82" transform="translate(0 23.613)">
      <path id="Path_84" data-name="Path 84" d="M41.826,32.885H6l.886-2.658A3.258,3.258,0,0,1,9.977,28H37.849a3.258,3.258,0,0,1,3.091,2.228Z" transform="translate(0.514 -26.372)" fill="#fff"/>
      <path id="Path_85" data-name="Path 85" d="M49.95,35.5a1.556,1.556,0,0,0-.065-.274,4.873,4.873,0,0,0-4.364-3.319L45,30.34A4.881,4.881,0,0,0,40.365,27H12.489a4.881,4.881,0,0,0-4.635,3.34l-.521,1.567a4.873,4.873,0,0,0-4.364,3.319A1.556,1.556,0,0,0,2.9,35.5l-.886,5.916a1.629,1.629,0,0,0,1.611,1.869H5.358L8.517,92.243a1.629,1.629,0,0,0,1.625,1.524H42.711a1.629,1.629,0,0,0,1.625-1.524L47.5,43.285h1.729a1.629,1.629,0,0,0,1.611-1.869Zm-39-4.128a1.623,1.623,0,0,1,1.544-1.114H40.365a1.623,1.623,0,0,1,1.544,1.114l.173.515H10.773ZM6.1,36.145a1.627,1.627,0,0,1,1.5-1H45.25a1.627,1.627,0,0,1,1.5,1l.581,3.882H5.519ZM41.186,90.51H11.67L8.621,43.285H44.232Z" transform="translate(-2 -27)" fill="#220b25"/>
    </g>
    <g id="Group_83" data-name="Group 83" transform="translate(37.883 39.898)">
      <path id="Path_86" data-name="Path 86" d="M28.092,37,25.263,84.225h1.291L29.625,37Z" transform="translate(-25.263 -37)" fill="#006daf"/>
    </g>
    <g id="Group_84" data-name="Group 84" transform="translate(6.61 39.898)">
      <path id="Path_87" data-name="Path 87" d="M41.693,37H6.059l.093,1.628h0l2.977,45.6H10.42L7.857,42.056a3.258,3.258,0,0,1,3.254-3.428h12.7a3.257,3.257,0,0,1,3.257,3.3l-.7,42.293H38.623l2.977-45.6h0Z" transform="translate(-6.059 -37)" fill="#006daf"/>
    </g>
    <g id="Group_85" data-name="Group 85" transform="translate(15.47 55.368)">
      <circle id="Ellipse_1" data-name="Ellipse 1" cx="8.142" cy="8.142" r="8.142" transform="translate(0.814 0.814)" fill="#fff"/>
      <path id="Path_88" data-name="Path 88" d="M20.457,64.413a8.957,8.957,0,1,1,8.957-8.957A8.967,8.967,0,0,1,20.457,64.413Zm0-16.285a7.328,7.328,0,1,0,7.328,7.328A7.337,7.337,0,0,0,20.457,48.128Z" transform="translate(-11.5 -46.5)" fill="#220b25"/>
    </g>
    <g id="Group_86" data-name="Group 86" transform="translate(27.177 57.641)">
      <path id="Path_89" data-name="Path 89" d="M18.912,47.9l-.223,13.466A7.31,7.31,0,0,0,18.912,47.9Z" transform="translate(-18.689 -47.896)" fill="#bbccdc"/>
    </g>
    <g id="Group_87" data-name="Group 87" transform="translate(27.632 33.384)">
      <path id="Path_90" data-name="Path 90" d="M18.969,34.681l.05,1.576H36.671L36.182,33H20.6A1.627,1.627,0,0,0,18.969,34.681Z" transform="translate(-18.968 -33)" fill="#bbccdc"/>
    </g>
    <g id="Group_88" data-name="Group 88" transform="translate(12.213 8.143)">
      <path id="Path_91" data-name="Path 91" d="M10.314,20.757a.814.814,0,0,1-.365-1.542l3.257-1.628a.814.814,0,1,1,.73,1.456l-3.257,1.628A.811.811,0,0,1,10.314,20.757Z" transform="translate(-9.5 -17.5)" fill="#220b25"/>
    </g>
    <g id="Group_89" data-name="Group 89" transform="translate(12.213 11.4)">
      <path id="Path_92" data-name="Path 92" d="M15.2,21.128H10.314a.814.814,0,0,1,0-1.628H15.2a.814.814,0,0,1,0,1.628Z" transform="translate(-9.5 -19.5)" fill="#220b25"/>
    </g>
    <g id="Group_90" data-name="Group 90" transform="translate(10.585 4.885)">
      <path id="Path_93" data-name="Path 93" d="M9.314,20.386a.814.814,0,0,1-.576-1.391l3.257-3.257a.815.815,0,1,1,1.153,1.153L9.891,20.148A.818.818,0,0,1,9.314,20.386Z" transform="translate(-8.5 -15.5)" fill="#220b25"/>
    </g>
  </g>
  <g id="Group_150" data-name="Group 150" transform="translate(30.941 0)">
    <g id="Group_93" data-name="Group 93" transform="translate(35.012)">
      <g id="Group_92" data-name="Group 92">
        <path id="Path_94" data-name="Path 94" d="M44.808,11.791a2.41,2.41,0,0,0-.179.909,2.443,2.443,0,1,0,4.885,0,2.41,2.41,0,0,0-.179-.909,2.436,2.436,0,1,0-2.264-4.157,2.435,2.435,0,1,0-2.264,4.157Z" transform="translate(-42.186 -6.186)" fill="#fff"/>
        <path id="Path_95" data-name="Path 95" d="M47.385,16.271a3.26,3.26,0,0,1-3.257-3.257,3.16,3.16,0,0,1,.029-.43,3.25,3.25,0,1,1,3.228-5.641A3.226,3.226,0,0,1,49.014,6.5a3.25,3.25,0,0,1,1.6,6.084,3.159,3.159,0,0,1,.029.43A3.26,3.26,0,0,1,47.385,16.271ZM45.757,8.128a1.623,1.623,0,0,0-.422,3.192.817.817,0,0,1,.542,1.089,1.628,1.628,0,1,0,3.016,0,.817.817,0,0,1,.542-1.089,1.622,1.622,0,1,0-1.5-2.767.813.813,0,0,1-1.091,0A1.617,1.617,0,0,0,45.757,8.128Z" transform="translate(-42.5 -6.5)" fill="#220b25"/>
      </g>
    </g>
    <g id="Group_94" data-name="Group 94" transform="translate(30.126 1.628)">
      <circle id="Ellipse_2" data-name="Ellipse 2" cx="3.257" cy="3.257" r="3.257" transform="translate(0.814 0.814)" fill="#fcdab7"/>
      <path id="Path_96" data-name="Path 96" d="M43.571,15.642a4.071,4.071,0,1,1,4.071-4.071A4.076,4.076,0,0,1,43.571,15.642Zm0-6.514a2.443,2.443,0,1,0,2.443,2.443A2.446,2.446,0,0,0,43.571,9.128Z" transform="translate(-39.5 -7.5)" fill="#220b25"/>
    </g>
    <g id="Group_95" data-name="Group 95" transform="translate(59.439 11.399)">
      <circle id="Ellipse_3" data-name="Ellipse 3" cx="3.257" cy="3.257" r="3.257" transform="translate(0.814 0.814)" fill="#fff"/>
      <path id="Path_97" data-name="Path 97" d="M61.571,21.642a4.071,4.071,0,1,1,4.071-4.071A4.076,4.076,0,0,1,61.571,21.642Zm0-6.514a2.443,2.443,0,1,0,2.443,2.443A2.446,2.446,0,0,0,61.571,15.128Z" transform="translate(-57.5 -13.5)" fill="#220b25"/>
    </g>
    <g id="Group_98" data-name="Group 98" transform="translate(39.897 1.628)">
      <g id="Group_96" data-name="Group 96">
        <path id="Path_98" data-name="Path 98" d="M57.4,12.885A3.238,3.238,0,0,0,52.48,10.1a2.436,2.436,0,1,0-4.571,1.457,3.251,3.251,0,1,0,3.558,5.336,2.425,2.425,0,0,0,4.265-1.182A3.242,3.242,0,0,0,57.4,12.885Z" transform="translate(-45.186 -7.186)" fill="#fff"/>
        <path id="Path_99" data-name="Path 99" d="M53.642,18.9a3.225,3.225,0,0,1-1.91-.63,4.025,4.025,0,0,1-2.161.63,4.065,4.065,0,0,1-2.35-7.387,3.117,3.117,0,0,1-.093-.756,3.249,3.249,0,0,1,6.16-1.451,3.966,3.966,0,0,1,1.168-.178,4.06,4.06,0,0,1,2.311,7.406A3.233,3.233,0,0,1,53.642,18.9Zm-1.861-2.506c.018,0,.034,0,.05,0a.81.81,0,0,1,.573.29,1.611,1.611,0,0,0,2.837-.787.82.82,0,0,1,.4-.581,2.432,2.432,0,0,0-1.189-4.56,2.4,2.4,0,0,0-1.246.355.8.8,0,0,1-.769.036.816.816,0,0,1-.456-.62,1.622,1.622,0,0,0-3.229.23,1.593,1.593,0,0,0,.189.738.815.815,0,0,1-.384,1.117,2.437,2.437,0,1,0,2.666,4A.815.815,0,0,1,51.781,16.393Z" transform="translate(-45.5 -7.5)" fill="#220b25"/>
      </g>
      <g id="Group_97" data-name="Group 97" transform="translate(4.885 4.885)">
        <path id="Path_100" data-name="Path 100" d="M49.314,13.757a.814.814,0,0,1-.576-1.391l1.628-1.628a.82.82,0,0,1,.576-.238h1.628a.814.814,0,1,1,0,1.628H51.28l-1.389,1.391A.818.818,0,0,1,49.314,13.757Z" transform="translate(-48.5 -10.5)" fill="#f9a42f"/>
      </g>
    </g>
    <g id="Group_99" data-name="Group 99" transform="translate(25.241 3.257)">
      <path id="Path_101" data-name="Path 101" d="M38.643,15.369c0,.049-.015.094-.015.145a3.257,3.257,0,1,0,5.636-2.21,2.435,2.435,0,1,0-3.913-2.5,2.41,2.41,0,0,0-.909-.179,2.437,2.437,0,0,0-.8,4.74Z" transform="translate(-36.186 -8.186)" fill="#fcdab7"/>
      <path id="Path_102" data-name="Path 102" d="M42.2,19.9A4.076,4.076,0,0,1,38.146,16.2,3.249,3.249,0,0,1,36.5,13.385a3.289,3.289,0,0,1,3.687-3.228,3.249,3.249,0,1,1,5.454,3.509,4.017,4.017,0,0,1,.63,2.161A4.076,4.076,0,0,1,42.2,19.9Zm-2.443-8.142a1.622,1.622,0,0,0-.533,3.156.815.815,0,0,1,.546.8c0,.028-.01.125-.013.155a2.443,2.443,0,1,0,4.226-1.7.8.8,0,0,1-.217-.6.815.815,0,0,1,.288-.573,1.6,1.6,0,0,0,.588-1.238,1.623,1.623,0,0,0-3.192-.423.814.814,0,0,1-1.089.542A1.6,1.6,0,0,0,39.757,11.757Z" transform="translate(-36.5 -8.5)" fill="#220b25"/>
    </g>
    <g id="Group_102" data-name="Group 102" transform="translate(18.727 3.257)">
      <g id="Group_100" data-name="Group 100">
        <path id="Path_103" data-name="Path 103" d="M40.328,22.028a2.437,2.437,0,0,0,.635-4.791,2.394,2.394,0,0,0,0-1.817,2.436,2.436,0,1,0-1.544-4.612,2.428,2.428,0,0,0-4.677-.065A2.421,2.421,0,0,0,33.633,14.7a2.423,2.423,0,0,0,1.174,3.977,2.41,2.41,0,0,0-.179.909A2.434,2.434,0,0,0,38.7,21.394,2.428,2.428,0,0,0,40.328,22.028Z" transform="translate(-32.186 -8.186)" fill="#fff"/>
        <path id="Path_104" data-name="Path 104" d="M40.642,23.156a3.226,3.226,0,0,1-1.628-.443,3.226,3.226,0,0,1-1.628.443A3.26,3.26,0,0,1,34.128,19.9a3.16,3.16,0,0,1,.029-.43A3.254,3.254,0,0,1,32.5,16.642a3.216,3.216,0,0,1,.445-1.628,3.229,3.229,0,0,1,1.48-4.589,3.239,3.239,0,0,1,5.788-.267A3.29,3.29,0,0,1,43.9,13.385a3.254,3.254,0,0,1-1.658,2.827,3.167,3.167,0,0,1,0,.86,3.25,3.25,0,0,1-1.6,6.084Zm-1.628-2.264a.811.811,0,0,1,.546.21,1.621,1.621,0,1,0,1.5-2.767.817.817,0,0,1-.542-1.089,1.575,1.575,0,0,0,0-1.208.817.817,0,0,1,.542-1.089,1.628,1.628,0,0,0,1.207-1.563,1.648,1.648,0,0,0-2.233-1.51.814.814,0,0,1-1.089-.542,1.614,1.614,0,0,0-3.112-.041.815.815,0,0,1-.546.544,1.606,1.606,0,0,0-.738,2.632.817.817,0,0,1,0,1.091,1.608,1.608,0,0,0,.782,2.646.817.817,0,0,1,.542,1.089A1.619,1.619,0,0,0,38.468,21.1.811.811,0,0,1,39.014,20.893Z" transform="translate(-32.5 -8.5)" fill="#220b25"/>
      </g>
      <g id="Group_101" data-name="Group 101" transform="translate(3.257 4.884)">
        <path id="Path_105" data-name="Path 105" d="M36.943,16.386a.817.817,0,0,1-.728-.449l-1.628-3.257a.814.814,0,0,1,1.456-.73l1.628,3.257a.814.814,0,0,1-.728,1.179Z" transform="translate(-34.5 -11.499)" fill="#f9a42f"/>
      </g>
    </g>
    <g id="Group_105" data-name="Group 105" transform="translate(48.039 8.142)">
      <g id="Group_103" data-name="Group 103">
        <path id="Path_106" data-name="Path 106" d="M58.328,13.628a4.032,4.032,0,0,0-1.163.189,3.252,3.252,0,1,0-2.908,4.7c.028,0,.054-.008.081-.008a4.071,4.071,0,1,0,3.99-4.877Z" transform="translate(-50.186 -11.186)" fill="#ffe9cd"/>
        <path id="Path_107" data-name="Path 107" d="M58.642,22.9a4.9,4.9,0,0,1-4.623-3.309,4.063,4.063,0,1,1,3.848-6.39,4.444,4.444,0,0,1,.775-.072,4.885,4.885,0,1,1,0,9.771Zm-4.071-9.771a2.443,2.443,0,1,0,0,4.885.9.9,0,0,1,.879.645,3.257,3.257,0,1,0,3.192-3.9,3.18,3.18,0,0,0-.928.155.813.813,0,0,1-.964-.417A2.426,2.426,0,0,0,54.571,13.128Z" transform="translate(-50.5 -11.5)" fill="#220b25"/>
      </g>
      <g id="Group_104" data-name="Group 104" transform="translate(3.257 3.257)">
        <path id="Path_108" data-name="Path 108" d="M56.571,16.757a.811.811,0,0,1-.365-.086L52.95,15.042a.814.814,0,0,1,.73-1.456l3.257,1.628a.814.814,0,0,1-.365,1.542Z" transform="translate(-52.5 -13.5)" fill="#f9a42f"/>
      </g>
    </g>
    <g id="Group_108" data-name="Group 108" transform="translate(18.727 11.399)">
      <g id="Group_106" data-name="Group 106">
        <path id="Path_109" data-name="Path 109" d="M39.335,17.351a2.41,2.41,0,0,0,.179-.909,2.443,2.443,0,1,0-4.885,0,2.41,2.41,0,0,0,.179.909,2.436,2.436,0,1,0,2.264,4.157,2.435,2.435,0,1,0,2.264-4.157Z" transform="translate(-32.186 -13.186)" fill="#ffe9cd"/>
        <path id="Path_110" data-name="Path 110" d="M39.014,23.271a3.226,3.226,0,0,1-1.628-.443,3.226,3.226,0,0,1-1.628.443,3.25,3.25,0,0,1-1.6-6.084,3.16,3.16,0,0,1-.029-.43,3.257,3.257,0,1,1,6.514,0,3.161,3.161,0,0,1-.029.43,3.25,3.25,0,0,1-1.6,6.084Zm-1.628-2.264a.811.811,0,0,1,.546.21,1.621,1.621,0,1,0,1.5-2.767.817.817,0,0,1-.542-1.089,1.628,1.628,0,1,0-3.016,0,.817.817,0,0,1-.542,1.089,1.622,1.622,0,1,0,1.5,2.767A.811.811,0,0,1,37.385,21.007Z" transform="translate(-32.5 -13.5)" fill="#220b25"/>
      </g>
      <g id="Group_107" data-name="Group 107" transform="translate(3.257 4.885)">
        <path id="Path_111" data-name="Path 111" d="M36.943,18.128H35.314a.814.814,0,0,1,0-1.628h1.628a.814.814,0,1,1,0,1.628Z" transform="translate(-34.5 -16.5)" fill="#f9a42f"/>
      </g>
    </g>
    <g id="Group_112" data-name="Group 112" transform="translate(30.126 8.142)">
      <g id="Group_109" data-name="Group 109">
        <path id="Path_112" data-name="Path 112" d="M53.028,17.7a4.056,4.056,0,0,0-1.63-3.241l0-.016a2.433,2.433,0,0,0-4.3-1.565,3.252,3.252,0,0,0-4.908,4.2,3.248,3.248,0,1,0,3.28,5.441,2.421,2.421,0,0,0,4.175-.819A4.067,4.067,0,0,0,53.028,17.7Z" transform="translate(-39.186 -11.186)" fill="#fff"/>
        <path id="Path_113" data-name="Path 113" d="M47.642,24.528a3.224,3.224,0,0,1-1.91-.63,4.025,4.025,0,0,1-2.161.63,4.062,4.062,0,0,1-2.174-7.5,4.063,4.063,0,0,1,5.963-4.9,3.225,3.225,0,0,1,1.91-.63A3.261,3.261,0,0,1,52.5,14.373a4.86,4.86,0,0,1-1.956,8.346A3.242,3.242,0,0,1,47.642,24.528Zm-1.861-2.506c.018,0,.034,0,.05,0a.81.81,0,0,1,.573.29,1.665,1.665,0,0,0,2.777-.547.814.814,0,0,1,.638-.554,3.234,3.234,0,0,0,1.4-5.788.816.816,0,0,1-.324-.65,1.618,1.618,0,0,0-2.864-1.06.81.81,0,0,1-.573.29.8.8,0,0,1-.6-.217,2.438,2.438,0,0,0-3.68,3.149.816.816,0,0,1-.405,1.225,2.435,2.435,0,1,0,2.457,4.078A.815.815,0,0,1,45.781,22.021Z" transform="translate(-39.5 -11.5)" fill="#220b25"/>
      </g>
      <g id="Group_110" data-name="Group 110" transform="translate(3.257 4.885)">
        <path id="Path_114" data-name="Path 114" d="M42.314,19.386a.814.814,0,0,1-.365-1.542l3.14-1.57,1.534-1.536a.815.815,0,0,1,1.153,1.153l-1.628,1.628a.869.869,0,0,1-.212.151L42.679,19.3A.811.811,0,0,1,42.314,19.386Z" transform="translate(-41.5 -14.5)" fill="#f9a42f"/>
      </g>
      <g id="Group_111" data-name="Group 111" transform="translate(6.513 6.513)">
        <path id="Path_115" data-name="Path 115" d="M45.943,18.757a.818.818,0,0,1-.576-.238l-1.628-1.628a.815.815,0,0,1,1.153-1.153l1.628,1.628a.814.814,0,0,1-.576,1.391Z" transform="translate(-43.5 -15.5)" fill="#f9a42f"/>
      </g>
    </g>
    <g id="Group_113" data-name="Group 113" transform="translate(43.154 11.399)">
      <path id="Path_116" data-name="Path 116" d="M54.5,17.4c0-.049.015-.094.015-.145a3.257,3.257,0,1,0-5.636,2.21,2.435,2.435,0,1,0,3.913,2.5,2.41,2.41,0,0,0,.909.179,2.437,2.437,0,0,0,.8-4.74Z" transform="translate(-47.186 -13.186)" fill="#ffe9cd"/>
      <path id="Path_117" data-name="Path 117" d="M50.757,24.9A3.26,3.26,0,0,1,47.5,21.642a3.214,3.214,0,0,1,.63-1.91,4.021,4.021,0,0,1-.63-2.161,4.071,4.071,0,0,1,8.124-.376,3.249,3.249,0,0,1,1.646,2.819,3.3,3.3,0,0,1-3.687,3.228A3.254,3.254,0,0,1,50.757,24.9Zm.814-9.771a2.434,2.434,0,0,0-1.783,4.1.81.81,0,0,1-.072,1.174,1.6,1.6,0,0,0-.588,1.239,1.623,1.623,0,0,0,3.192.423.814.814,0,0,1,1.089-.542,1.646,1.646,0,0,0,2.233-1.51,1.627,1.627,0,0,0-1.1-1.529.812.812,0,0,1-.546-.8c0-.028.01-.125.013-.155A2.438,2.438,0,0,0,51.571,15.128Z" transform="translate(-47.5 -13.5)" fill="#220b25"/>
    </g>
    <g id="Group_114" data-name="Group 114" transform="translate(61.067 16.285)">
      <path id="Path_118" data-name="Path 118" d="M67.142,21.071a4.071,4.071,0,1,0-8.142,0,4.03,4.03,0,0,0,.459,1.84,2.436,2.436,0,1,0,4.3,2.163A4.067,4.067,0,0,0,67.142,21.071Z" transform="translate(-58.186 -16.186)" fill="#fff"/>
      <path id="Path_119" data-name="Path 119" d="M61.757,27.9A3.26,3.26,0,0,1,58.5,24.642a3.215,3.215,0,0,1,.355-1.469,4.725,4.725,0,0,1-.355-1.788,4.885,4.885,0,1,1,6.164,4.7A3.242,3.242,0,0,1,61.757,27.9Zm1.628-9.771a3.26,3.26,0,0,0-3.257,3.257,3.2,3.2,0,0,0,.37,1.469.815.815,0,0,1-.064.845A1.622,1.622,0,1,0,63.3,25.137a.814.814,0,0,1,.638-.554,3.25,3.25,0,0,0-.549-6.455Z" transform="translate(-58.5 -16.5)" fill="#220b25"/>
    </g>
    <g id="Group_115" data-name="Group 115" transform="translate(35.012 19.541)">
      <path id="Path_120" data-name="Path 120" d="M51.142,23.071a4.071,4.071,0,0,0-8.142,0,4.029,4.029,0,0,0,.459,1.84,2.436,2.436,0,1,0,4.3,2.163A4.067,4.067,0,0,0,51.142,23.071Z" transform="translate(-42.186 -18.186)" fill="#fcdab7"/>
      <path id="Path_121" data-name="Path 121" d="M45.757,29.9A3.26,3.26,0,0,1,42.5,26.642a3.215,3.215,0,0,1,.355-1.469,4.724,4.724,0,0,1-.355-1.788,4.885,4.885,0,1,1,6.164,4.7A3.242,3.242,0,0,1,45.757,29.9Zm1.628-9.771a3.26,3.26,0,0,0-3.257,3.257,3.2,3.2,0,0,0,.37,1.469.815.815,0,0,1-.064.845A1.622,1.622,0,1,0,47.3,27.137a.814.814,0,0,1,.638-.554,3.25,3.25,0,0,0-.549-6.455Z" transform="translate(-42.5 -18.5)" fill="#220b25"/>
    </g>
    <g id="Group_116" data-name="Group 116" transform="translate(10.585 11.399)">
      <path id="Path_122" data-name="Path 122" d="M28,19.7a4.071,4.071,0,1,0,8.142,0,4.03,4.03,0,0,0-.459-1.84,2.436,2.436,0,1,0-4.3-2.163A4.067,4.067,0,0,0,28,19.7Z" transform="translate(-27.186 -13.186)" fill="#fff"/>
      <path id="Path_123" data-name="Path 123" d="M32.385,24.9a4.879,4.879,0,0,1-1.278-9.59,3.25,3.25,0,1,1,5.809,2.917,4.724,4.724,0,0,1,.355,1.788A4.891,4.891,0,0,1,32.385,24.9Zm1.628-9.771a1.616,1.616,0,0,0-1.539,1.133.814.814,0,0,1-.638.554,3.251,3.251,0,1,0,3.806,3.2,3.2,3.2,0,0,0-.37-1.469.815.815,0,0,1,.064-.845,1.623,1.623,0,0,0-1.322-2.571Z" transform="translate(-27.5 -13.5)" fill="#220b25"/>
    </g>
    <g id="Group_119" data-name="Group 119" transform="translate(36.64 16.285)">
      <g id="Group_117" data-name="Group 117">
        <path id="Path_124" data-name="Path 124" d="M51.328,18.628a4.032,4.032,0,0,0-1.163.189,3.252,3.252,0,1,0-2.908,4.7c.028,0,.054-.008.081-.008a4.071,4.071,0,1,0,3.99-4.877Z" transform="translate(-43.186 -16.186)" fill="#ffe9cd"/>
        <path id="Path_125" data-name="Path 125" d="M51.642,27.9a4.9,4.9,0,0,1-4.623-3.309,4.063,4.063,0,1,1,3.848-6.39,4.444,4.444,0,0,1,.775-.072,4.885,4.885,0,1,1,0,9.771Zm-4.071-9.771a2.443,2.443,0,1,0,0,4.885.9.9,0,0,1,.879.645,3.257,3.257,0,1,0,3.192-3.9,3.18,3.18,0,0,0-.928.155.814.814,0,0,1-.964-.417A2.426,2.426,0,0,0,47.571,18.128Z" transform="translate(-43.5 -16.5)" fill="#220b25"/>
      </g>
      <g id="Group_118" data-name="Group 118" transform="translate(3.257 3.257)">
        <path id="Path_126" data-name="Path 126" d="M49.571,21.757a.811.811,0,0,1-.365-.086L45.95,20.042a.814.814,0,0,1,.73-1.456l3.257,1.628a.814.814,0,0,1-.365,1.542Z" transform="translate(-45.5 -18.5)" fill="#f9a42f"/>
      </g>
    </g>
    <g id="Group_122" data-name="Group 122" transform="translate(48.039 16.285)">
      <g id="Group_120" data-name="Group 120">
        <path id="Path_127" data-name="Path 127" d="M64.028,19.443a2.437,2.437,0,0,0-4.791-.635,2.394,2.394,0,0,0-1.817,0,2.436,2.436,0,1,0-4.612,1.544,2.428,2.428,0,0,0-.065,4.677A2.421,2.421,0,0,0,56.7,26.137a2.423,2.423,0,0,0,3.977-1.174,2.41,2.41,0,0,0,.909.179,2.434,2.434,0,0,0,1.809-4.071A2.428,2.428,0,0,0,64.028,19.443Z" transform="translate(-50.186 -16.186)" fill="#fff"/>
        <path id="Path_128" data-name="Path 128" d="M58.642,27.9a3.226,3.226,0,0,1-1.628-.443,3.232,3.232,0,0,1-4.589-1.482,3.239,3.239,0,0,1-.267-5.788,3.159,3.159,0,0,1-.029-.43,3.25,3.25,0,0,1,6.084-1.6,3.168,3.168,0,0,1,.86,0,3.25,3.25,0,0,1,6.084,1.6,3.216,3.216,0,0,1-.445,1.628,3.216,3.216,0,0,1,.445,1.628,3.291,3.291,0,0,1-3.687,3.228A3.254,3.254,0,0,1,58.642,27.9Zm-1.628-2.264a.811.811,0,0,1,.546.21,1.665,1.665,0,0,0,2.646-.78.814.814,0,0,1,1.089-.542,1.647,1.647,0,0,0,2.233-1.51,1.62,1.62,0,0,0-.425-1.083.817.817,0,0,1,0-1.091,1.621,1.621,0,1,0-2.767-1.506.814.814,0,0,1-1.089.542,1.6,1.6,0,0,0-1.208,0,.814.814,0,0,1-1.089-.542,1.623,1.623,0,1,0-3.071,1.028.817.817,0,0,1-.542,1.089,1.614,1.614,0,0,0-.044,3.112.81.81,0,0,1,.544.544,1.657,1.657,0,0,0,2.633.739A.811.811,0,0,1,57.014,25.636Z" transform="translate(-50.5 -16.5)" fill="#220b25"/>
      </g>
      <g id="Group_121" data-name="Group 121" transform="translate(4.885 4.885)">
        <path id="Path_129" data-name="Path 129" d="M54.314,22.757a.814.814,0,0,1-.365-1.542l3.257-1.628a.814.814,0,0,1,.73,1.456l-3.257,1.628A.811.811,0,0,1,54.314,22.757Z" transform="translate(-53.5 -19.5)" fill="#f9a42f"/>
      </g>
    </g>
    <g id="Group_125" data-name="Group 125" transform="translate(25.241 16.285)">
      <g id="Group_123" data-name="Group 123">
        <path id="Path_130" data-name="Path 130" d="M37,24.328a2.437,2.437,0,0,0,4.791.635,2.394,2.394,0,0,0,1.817,0,2.436,2.436,0,1,0,4.612-1.544,2.428,2.428,0,0,0,.065-4.677,2.421,2.421,0,0,0-3.957-1.109,2.423,2.423,0,0,0-3.977,1.174,2.41,2.41,0,0,0-.909-.179A2.434,2.434,0,0,0,37.633,22.7,2.428,2.428,0,0,0,37,24.328Z" transform="translate(-36.186 -16.186)" fill="#fff"/>
        <path id="Path_131" data-name="Path 131" d="M46.271,27.9a3.254,3.254,0,0,1-2.827-1.658,3.167,3.167,0,0,1-.86,0,3.25,3.25,0,0,1-6.084-1.6,3.216,3.216,0,0,1,.445-1.628,3.216,3.216,0,0,1-.445-1.628,3.294,3.294,0,0,1,3.687-3.228,3.342,3.342,0,0,1,4.455-1.215,3.232,3.232,0,0,1,4.589,1.482,3.239,3.239,0,0,1,.267,5.788,3.16,3.16,0,0,1,.029.43A3.26,3.26,0,0,1,46.271,27.9Zm-2.348-3.434a.813.813,0,0,1,.785.6,1.623,1.623,0,1,0,3.071-1.028.817.817,0,0,1,.542-1.089,1.614,1.614,0,0,0,.044-3.112.811.811,0,0,1-.546-.546,1.655,1.655,0,0,0-2.632-.738.813.813,0,0,1-1.091,0,1.664,1.664,0,0,0-2.646.78.814.814,0,0,1-1.089.542,1.648,1.648,0,0,0-2.233,1.51,1.62,1.62,0,0,0,.425,1.083.817.817,0,0,1,0,1.091,1.621,1.621,0,1,0,2.767,1.506.814.814,0,0,1,1.089-.542,1.6,1.6,0,0,0,1.208,0A.786.786,0,0,1,43.923,24.465Z" transform="translate(-36.5 -16.5)" fill="#220b25"/>
      </g>
      <g id="Group_124" data-name="Group 124" transform="translate(4.885 3.257)">
        <path id="Path_132" data-name="Path 132" d="M40.314,21.757a.814.814,0,0,1-.365-1.542l3.257-1.628a.814.814,0,1,1,.73,1.456l-3.257,1.628A.811.811,0,0,1,40.314,21.757Z" transform="translate(-39.5 -18.5)" fill="#f9a42f"/>
      </g>
    </g>
    <g id="Group_126" data-name="Group 126" transform="translate(5.7 18.727)">
      <path id="Path_133" data-name="Path 133" d="M32.735,18.5a3.662,3.662,0,0,0-3.353,2.2,2.443,2.443,0,1,0,0,2.938A3.663,3.663,0,1,0,32.735,18.5Z" transform="translate(-24.186 -17.686)" fill="#fff"/>
      <path id="Path_134" data-name="Path 134" d="M33.049,26.957a4.475,4.475,0,0,1-3.537-1.738,3.215,3.215,0,0,1-1.755.516,3.257,3.257,0,0,1,0-6.514,3.215,3.215,0,0,1,1.755.516,4.477,4.477,0,1,1,3.537,7.219ZM29.7,23.133a.635.635,0,0,1,.1.007.814.814,0,0,1,.65.48,2.85,2.85,0,1,0,0-2.283.814.814,0,0,1-.65.48.792.792,0,0,1-.744-.318,1.613,1.613,0,0,0-1.291-.65,1.628,1.628,0,0,0,0,3.257,1.613,1.613,0,0,0,1.291-.65A.813.813,0,0,1,29.7,23.133Z" transform="translate(-24.5 -18)" fill="#220b25"/>
    </g>
    <g id="Group_129" data-name="Group 129" transform="translate(15.47 17.913)">
      <g id="Group_127" data-name="Group 127">
        <path id="Path_135" data-name="Path 135" d="M42.4,22.885A3.238,3.238,0,0,0,37.48,20.1a2.436,2.436,0,1,0-4.571,1.457,3.251,3.251,0,1,0,3.558,5.336,2.425,2.425,0,0,0,4.265-1.182A3.242,3.242,0,0,0,42.4,22.885Z" transform="translate(-30.186 -17.186)" fill="#fff"/>
        <path id="Path_136" data-name="Path 136" d="M38.642,28.9a3.224,3.224,0,0,1-1.91-.63,4.025,4.025,0,0,1-2.161.63,4.065,4.065,0,0,1-2.35-7.387,3.117,3.117,0,0,1-.093-.756,3.249,3.249,0,0,1,6.16-1.451,3.966,3.966,0,0,1,1.168-.177,4.06,4.06,0,0,1,2.311,7.406A3.233,3.233,0,0,1,38.642,28.9Zm-1.861-2.506c.018,0,.034,0,.05,0a.81.81,0,0,1,.573.29,1.611,1.611,0,0,0,2.837-.787.82.82,0,0,1,.4-.581,2.432,2.432,0,0,0-1.189-4.56,2.4,2.4,0,0,0-1.246.355.8.8,0,0,1-.769.036.816.816,0,0,1-.456-.62,1.622,1.622,0,0,0-3.229.23,1.593,1.593,0,0,0,.189.738.815.815,0,0,1-.384,1.117,2.437,2.437,0,1,0,2.666,4A.815.815,0,0,1,36.781,26.393Z" transform="translate(-30.5 -17.5)" fill="#220b25"/>
      </g>
      <g id="Group_128" data-name="Group 128" transform="translate(4.885 4.885)">
        <path id="Path_137" data-name="Path 137" d="M34.314,23.757a.814.814,0,0,1-.576-1.391l1.628-1.628a.82.82,0,0,1,.576-.238h1.628a.814.814,0,1,1,0,1.628H36.28l-1.389,1.391A.818.818,0,0,1,34.314,23.757Z" transform="translate(-33.5 -20.5)" fill="#f9a42f"/>
      </g>
    </g>
    <g id="Group_130" data-name="Group 130" transform="translate(17.913 33.383)">
      <path id="Path_138" data-name="Path 138" d="M46.33,92.138H35.908L32,27H45.028Z" transform="translate(-32 -27)" fill="#fff"/>
    </g>
    <g id="Group_131" data-name="Group 131" transform="translate(42.666 33.383)">
      <path id="Path_139" data-name="Path 139" d="M57.622,92.138H47.2L48.5,27H61.53Z" transform="translate(-47.2 -27)" fill="#fff"/>
    </g>
    <g id="Group_132" data-name="Group 132" transform="translate(6.685 35.012)">
      <path id="Path_140" data-name="Path 140" d="M68.9,28h-43.8l.163,1.628h0l6.025,60.253h1.164l-5.4-56.687A3.256,3.256,0,0,1,30.3,29.628H63.737a4.885,4.885,0,0,1,4.88,5.092L66.282,89.881H80.456l6.025-60.253L86.644,28Z" transform="translate(-25.105 -28)" fill="#bbccdc"/>
    </g>
    <g id="Group_133" data-name="Group 133" transform="translate(53.088 33.383)">
      <path id="Path_141" data-name="Path 141" d="M64.022,92.138H53.6L57.508,27H70.536Z" transform="translate(-53.6 -27)" fill="#ea3f39"/>
    </g>
    <g id="Group_134" data-name="Group 134" transform="translate(4.885 33.383)">
      <path id="Path_142" data-name="Path 142" d="M40.936,92.138H30.514L24,27H37.028Z" transform="translate(-24 -27)" fill="#ea3f39"/>
    </g>
    <g id="Group_135" data-name="Group 135" transform="translate(30.941 33.383)">
      <path id="Path_143" data-name="Path 143" d="M51.725,92.138H41.3L40,27H53.028Z" transform="translate(-40 -27)" fill="#ea3f39"/>
    </g>
    <g id="Group_136" data-name="Group 136" transform="translate(0 25.241)">
      <rect id="Rectangle_1" data-name="Rectangle 1" width="71.652" height="6.514" rx="2" transform="translate(1.628 1.628)" fill="#fff"/>
      <path id="Path_144" data-name="Path 144" d="M95.909,26.885A4.891,4.891,0,0,0,91.024,22H25.885a4.871,4.871,0,0,0-1.5,9.51l6.393,63.933a1.629,1.629,0,0,0,1.62,1.466H84.51a1.629,1.629,0,0,0,1.62-1.466L92.523,31.51A4.874,4.874,0,0,0,95.909,26.885ZM83.036,93.652H33.873L27.685,31.771H89.224Zm7.988-65.138H25.885a1.628,1.628,0,0,1,0-3.257H91.024a1.628,1.628,0,1,1,0,3.257Z" transform="translate(-21 -22)" fill="#220b25"/>
    </g>
    <g id="Group_137" data-name="Group 137" transform="translate(25.241 52.111)">
      <circle id="Ellipse_4" data-name="Ellipse 4" cx="11.399" cy="11.399" r="11.399" transform="translate(0.814 0.814)" fill="#ffda62"/>
      <path id="Path_145" data-name="Path 145" d="M48.713,62.927A12.213,12.213,0,1,1,60.927,50.713,12.226,12.226,0,0,1,48.713,62.927Zm0-22.8A10.585,10.585,0,1,0,59.3,50.713,10.6,10.6,0,0,0,48.713,40.128Z" transform="translate(-36.5 -38.5)" fill="#220b25"/>
    </g>
    <g id="Group_138" data-name="Group 138" transform="translate(30.126 61.881)">
      <path id="Path_146" data-name="Path 146" d="M53.342,46.128H40.314a.814.814,0,0,1,0-1.628H53.342a.814.814,0,0,1,0,1.628Z" transform="translate(-39.5 -44.5)" fill="#220b25"/>
    </g>
    <g id="Group_139" data-name="Group 139" transform="translate(31.755 65.138)">
      <path id="Path_147" data-name="Path 147" d="M51.085,48.128H41.314a.814.814,0,1,1,0-1.628h9.771a.814.814,0,1,1,0,1.628Z" transform="translate(-40.5 -46.5)" fill="#220b25"/>
    </g>
    <g id="Group_140" data-name="Group 140" transform="translate(35.826 57.81)">
      <circle id="Ellipse_5" data-name="Ellipse 5" cx="1.628" cy="1.628" r="1.628" fill="#220b25"/>
    </g>
    <g id="Group_141" data-name="Group 141" transform="translate(53.185 35.012)">
      <path id="Path_148" data-name="Path 148" d="M53.66,89.881h8.851l6.025-60.253L68.7,28H57.373Z" transform="translate(-53.66 -28)" fill="#da141a"/>
    </g>
    <g id="Group_142" data-name="Group 142" transform="translate(30.973 35.012)">
      <path id="Path_149" data-name="Path 149" d="M52.982,28H40.02l.032,1.628h12.9Z" transform="translate(-40.02 -28)" fill="#da141a"/>
    </g>
    <g id="Group_143" data-name="Group 143" transform="translate(6.685 35.012)">
      <path id="Path_150" data-name="Path 150" d="M30.3,29.628h6.229L36.431,28H25.105l.163,1.628,6.025,60.253h1.164l-5.4-56.687A3.256,3.256,0,0,1,30.3,29.628Z" transform="translate(-25.105 -28)" fill="#da141a"/>
    </g>
    <g id="Group_144" data-name="Group 144" transform="translate(60.253 35.012)">
      <path id="Path_151" data-name="Path 151" d="M62.885,28,58,89.881h1.784L65.971,28Z" transform="translate(-58 -28)" fill="#be0020"/>
    </g>
    <g id="Group_145" data-name="Group 145" transform="translate(3.257 28.498)">
      <path id="Path_152" data-name="Path 152" d="M89.767,24H70.225v1.628H23a1.63,1.63,0,0,0,1.628,1.628H89.767a1.628,1.628,0,1,0,0-3.257Z" transform="translate(-23 -24)" fill="#bbccdc"/>
    </g>
    <g id="Group_146" data-name="Group 146" transform="translate(25.241 11.399)">
      <circle id="Ellipse_6" data-name="Ellipse 6" cx="3.257" cy="3.257" r="3.257" transform="translate(0.814 0.814)" fill="#fff"/>
      <path id="Path_153" data-name="Path 153" d="M40.571,21.642a4.071,4.071,0,1,1,4.071-4.071A4.076,4.076,0,0,1,40.571,21.642Zm0-6.514a2.443,2.443,0,1,0,2.443,2.443A2.446,2.446,0,0,0,40.571,15.128Z" transform="translate(-36.5 -13.5)" fill="#220b25"/>
    </g>
    <g id="Group_147" data-name="Group 147" transform="translate(32.015 87.122)">
      <path id="Path_154" data-name="Path 154" d="M51.343,69.771l.2-9.771H40.66l.2,9.771Z" transform="translate(-40.66 -60)" fill="#be0020"/>
    </g>
    <g id="Group_148" data-name="Group 148" transform="translate(42.698 87.122)">
      <path id="Path_155" data-name="Path 155" d="M47.22,69.771h6.156V60h-5.96Z" transform="translate(-47.22 -60)" fill="#9eb8d0"/>
    </g>
    <g id="Group_149" data-name="Group 149" transform="translate(26.055 87.122)">
      <path id="Path_156" data-name="Path 156" d="M42.96,60H37v9.771h6.156Z" transform="translate(-37 -60)" fill="#9eb8d0"/>
    </g>
  </g>
  <g id="Group_161" data-name="Group 161" transform="translate(26.055 67.581)">
    <g id="Group_151" data-name="Group 151" transform="translate(1.628 1.628)">
      <path id="Path_157" data-name="Path 157" d="M97.166,76.684h0a6.894,6.894,0,0,0-3.084.728l-.77.384a4.862,4.862,0,0,1-2.184.516H72.317a4.885,4.885,0,0,1-4.242-2.462l-3.491-6.11a5.612,5.612,0,0,0-4.872-2.827h0a5.612,5.612,0,0,0-4.872,2.827l-3.491,6.11a4.885,4.885,0,0,1-4.242,2.462H28.3a4.862,4.862,0,0,1-2.184-.516l-.77-.384a6.894,6.894,0,0,0-3.084-.728h0A3.256,3.256,0,0,1,19,73.427V52.257A3.256,3.256,0,0,1,22.257,49H97.166a3.256,3.256,0,0,1,3.257,3.257v21.17A3.256,3.256,0,0,1,97.166,76.684Z" transform="translate(-19 -49)" fill="#fff"/>
    </g>
    <g id="Group_152" data-name="Group 152" transform="translate(8.142 8.142)">
      <path id="Path_158" data-name="Path 158" d="M43.248,69.285H24.628A1.629,1.629,0,0,1,23,67.656V54.628A1.629,1.629,0,0,1,24.628,53h22.8a1.629,1.629,0,0,1,1.628,1.628v6.063a1.624,1.624,0,0,1-.233.839l-4.179,6.963A1.624,1.624,0,0,1,43.248,69.285Z" transform="translate(-23 -53)" fill="#0f77bf"/>
    </g>
    <g id="Group_153" data-name="Group 153" transform="translate(50.482 8.142)">
      <path id="Path_159" data-name="Path 159" d="M54.807,69.285h18.62a1.629,1.629,0,0,0,1.628-1.628V54.628A1.629,1.629,0,0,0,73.427,53h-22.8A1.629,1.629,0,0,0,49,54.628v6.063a1.624,1.624,0,0,0,.233.839l4.179,6.963A1.624,1.624,0,0,0,54.807,69.285Z" transform="translate(-49 -53)" fill="#da141a"/>
    </g>
    <g id="Group_154" data-name="Group 154">
      <path id="Path_160" data-name="Path 160" d="M91.756,80.569H72.946a6.529,6.529,0,0,1-5.656-3.283L63.8,71.176a3.985,3.985,0,0,0-6.918,0l-3.491,6.11a6.529,6.529,0,0,1-5.656,3.283H28.924a6.548,6.548,0,0,1-2.912-.687l-.77-.384a5.284,5.284,0,0,0-2.356-.557A4.891,4.891,0,0,1,18,74.055V52.885A4.891,4.891,0,0,1,22.885,48H97.794a4.891,4.891,0,0,1,4.885,4.885v21.17a4.891,4.891,0,0,1-4.885,4.885,5.3,5.3,0,0,0-2.358.557l-.767.384A6.56,6.56,0,0,1,91.756,80.569ZM60.34,65.913a7.252,7.252,0,0,1,6.286,3.648l3.491,6.11a3.266,3.266,0,0,0,2.829,1.641h18.81a3.283,3.283,0,0,0,1.457-.344l.767-.384a8.572,8.572,0,0,1,3.814-.9,1.63,1.63,0,0,0,1.628-1.628V52.885a1.63,1.63,0,0,0-1.628-1.628H22.885a1.63,1.63,0,0,0-1.628,1.628v21.17a1.63,1.63,0,0,0,1.628,1.628,8.56,8.56,0,0,1,3.812.9l.77.384a3.271,3.271,0,0,0,1.456.344h18.81a3.266,3.266,0,0,0,2.829-1.641l3.491-6.11A7.252,7.252,0,0,1,60.34,65.913Z" transform="translate(-18 -48)" fill="#220b25"/>
    </g>
    <g id="Group_155" data-name="Group 155" transform="translate(9.771 8.142)">
      <path id="Path_161" data-name="Path 161" d="M24,69.226a1.612,1.612,0,0,0,.293.059h4.543L42.406,53H37.521Z" transform="translate(-24 -53)" fill="#54aae0"/>
    </g>
    <g id="Group_156" data-name="Group 156" transform="translate(8.142 8.142)">
      <path id="Path_162" data-name="Path 162" d="M36.028,53h-11.4A1.629,1.629,0,0,0,23,54.628v14Z" transform="translate(-23 -53)" fill="#54aae0"/>
    </g>
    <g id="Group_157" data-name="Group 157" transform="translate(54.459 8.142)">
      <path id="Path_163" data-name="Path 163" d="M63.75,53,51.442,67.77l.435.723a1.624,1.624,0,0,0,1.4.791h1.793L68.635,53Z" transform="translate(-51.442 -53)" fill="#ed5143"/>
    </g>
    <g id="Group_158" data-name="Group 158" transform="translate(50.482 8.142)">
      <path id="Path_164" data-name="Path 164" d="M51.614,65.5,62.028,53h-11.4A1.629,1.629,0,0,0,49,54.628v6.063a1.624,1.624,0,0,0,.233.839Z" transform="translate(-49 -53)" fill="#ed5143"/>
    </g>
    <g id="Group_159" data-name="Group 159" transform="translate(6.514 6.514)">
      <path id="Path_165" data-name="Path 165" d="M43.877,71.541H25.257A3.26,3.26,0,0,1,22,68.285V55.257A3.26,3.26,0,0,1,25.257,52h22.8a3.26,3.26,0,0,1,3.257,3.257V61.32A3.268,3.268,0,0,1,50.848,63L46.669,69.96A3.276,3.276,0,0,1,43.877,71.541ZM25.257,55.257V68.285h18.62l0,0,4.177-6.963V55.257Z" transform="translate(-22 -52)" fill="#220b25"/>
    </g>
    <g id="Group_160" data-name="Group 160" transform="translate(48.854 6.514)">
      <path id="Path_166" data-name="Path 166" d="M74.055,71.541H55.436a3.273,3.273,0,0,1-2.791-1.58L48.464,63A3.268,3.268,0,0,1,48,61.32V55.257A3.26,3.26,0,0,1,51.257,52h22.8a3.26,3.26,0,0,1,3.257,3.257V68.285A3.26,3.26,0,0,1,74.055,71.541Zm-22.8-16.285V61.32l4.179,6.965h18.62V55.257Z" transform="translate(-48 -52)" fill="#220b25"/>
    </g>
  </g>
  <g id="Group_164" data-name="Group 164" transform="translate(25.241 87.937)">
    <g id="Group_162" data-name="Group 162">
      <path id="Path_167" data-name="Path 167" d="M25.328,62.628a4.033,4.033,0,0,0-1.163.189,3.252,3.252,0,1,0-2.908,4.7c.028,0,.054-.008.081-.008a4.071,4.071,0,1,0,3.99-4.877Z" transform="translate(-17.186 -60.186)" fill="#ffe9cd"/>
      <path id="Path_168" data-name="Path 168" d="M25.642,71.9a4.9,4.9,0,0,1-4.623-3.309,4.063,4.063,0,1,1,3.848-6.39,4.815,4.815,0,0,1,5.661,4.814A4.891,4.891,0,0,1,25.642,71.9Zm-4.071-9.771a2.443,2.443,0,0,0,0,4.885.9.9,0,0,1,.879.645,3.257,3.257,0,1,0,3.192-3.9,3.2,3.2,0,0,0-.93.155.811.811,0,0,1-.962-.417A2.426,2.426,0,0,0,21.571,62.128Z" transform="translate(-17.5 -60.5)" fill="#220b25"/>
    </g>
    <g id="Group_163" data-name="Group 163" transform="translate(3.257 3.256)">
      <path id="Path_169" data-name="Path 169" d="M23.571,65.757a.811.811,0,0,1-.365-.086L19.95,64.042a.814.814,0,1,1,.73-1.456l3.257,1.628a.814.814,0,0,1-.365,1.542Z" transform="translate(-19.5 -62.5)" fill="#f9a42f"/>
    </g>
  </g>
  <g id="Group_167" data-name="Group 167" transform="translate(12.213 87.937)">
    <g id="Group_165" data-name="Group 165">
      <path id="Path_170" data-name="Path 170" d="M10,68.328a2.437,2.437,0,0,0,4.791.635,2.394,2.394,0,0,0,1.817,0,2.436,2.436,0,1,0,4.612-1.544,2.428,2.428,0,0,0,.065-4.677,2.421,2.421,0,0,0-3.957-1.109,2.423,2.423,0,0,0-3.977,1.174,2.41,2.41,0,0,0-.909-.179A2.434,2.434,0,0,0,10.633,66.7,2.428,2.428,0,0,0,10,68.328Z" transform="translate(-9.186 -60.186)" fill="#fff"/>
      <path id="Path_171" data-name="Path 171" d="M19.271,71.9a3.254,3.254,0,0,1-2.827-1.658,3.167,3.167,0,0,1-.86,0,3.25,3.25,0,0,1-6.084-1.6,3.216,3.216,0,0,1,.445-1.628A3.216,3.216,0,0,1,9.5,65.385a3.289,3.289,0,0,1,3.687-3.228,3.232,3.232,0,0,1,4.455-1.215,3.232,3.232,0,0,1,4.589,1.482,3.239,3.239,0,0,1,.267,5.788,3.16,3.16,0,0,1,.029.43A3.26,3.26,0,0,1,19.271,71.9Zm-2.348-3.434a.813.813,0,0,1,.785.6,1.623,1.623,0,1,0,3.071-1.028.817.817,0,0,1,.542-1.089,1.614,1.614,0,0,0,.044-3.112.811.811,0,0,1-.546-.546,1.656,1.656,0,0,0-2.632-.738.813.813,0,0,1-1.091,0,1.665,1.665,0,0,0-2.646.78.814.814,0,0,1-1.089.542,1.649,1.649,0,0,0-2.233,1.51,1.62,1.62,0,0,0,.425,1.083.817.817,0,0,1,0,1.091,1.621,1.621,0,1,0,2.767,1.506.814.814,0,0,1,.423-.516.8.8,0,0,1,.666-.026,1.6,1.6,0,0,0,1.208,0A.786.786,0,0,1,16.923,68.465Z" transform="translate(-9.5 -60.5)" fill="#220b25"/>
    </g>
    <g id="Group_166" data-name="Group 166" transform="translate(4.885 3.256)">
      <path id="Path_172" data-name="Path 172" d="M13.314,65.757a.814.814,0,0,1-.365-1.542l3.257-1.628a.814.814,0,1,1,.73,1.456l-3.257,1.628A.811.811,0,0,1,13.314,65.757Z" transform="translate(-12.5 -62.5)" fill="#f9a42f"/>
    </g>
  </g>
  <g id="Group_170" data-name="Group 170" transform="translate(18.727 78.166)">
    <g id="Group_168" data-name="Group 168">
      <path id="Path_173" data-name="Path 173" d="M25.4,59.885A3.238,3.238,0,0,0,20.48,57.1a2.436,2.436,0,1,0-4.571,1.457,3.251,3.251,0,1,0,3.558,5.336,2.425,2.425,0,0,0,4.265-1.182A3.242,3.242,0,0,0,25.4,59.885Z" transform="translate(-13.186 -54.186)" fill="#fff"/>
      <path id="Path_174" data-name="Path 174" d="M21.642,65.9a3.224,3.224,0,0,1-1.91-.63,4.025,4.025,0,0,1-2.161.63,4.065,4.065,0,0,1-2.35-7.387,3.117,3.117,0,0,1-.093-.756,3.249,3.249,0,0,1,6.16-1.451,3.966,3.966,0,0,1,1.168-.178,4.06,4.06,0,0,1,2.311,7.406A3.233,3.233,0,0,1,21.642,65.9Zm-1.861-2.506a.5.5,0,0,1,.05,0,.81.81,0,0,1,.573.29,1.611,1.611,0,0,0,2.837-.787.82.82,0,0,1,.4-.581,2.432,2.432,0,0,0-1.189-4.56,2.4,2.4,0,0,0-1.246.355.8.8,0,0,1-.769.036.816.816,0,0,1-.456-.62,1.622,1.622,0,0,0-3.229.23,1.593,1.593,0,0,0,.189.738.815.815,0,0,1-.384,1.117,2.437,2.437,0,1,0,2.666,4A.815.815,0,0,1,19.781,63.393Z" transform="translate(-13.5 -54.5)" fill="#220b25"/>
    </g>
    <g id="Group_169" data-name="Group 169" transform="translate(4.885 4.885)">
      <path id="Path_175" data-name="Path 175" d="M17.314,60.757a.814.814,0,0,1-.576-1.391l1.628-1.628a.82.82,0,0,1,.576-.238h1.628a.814.814,0,1,1,0,1.628H19.28l-1.389,1.391A.818.818,0,0,1,17.314,60.757Z" transform="translate(-16.5 -57.5)" fill="#f9a42f"/>
    </g>
  </g>
</svg>
